M48
;GenerationSoftware,Autodesk,EAGLE,9.6.2*%
;CreationDate,2022-09-08T15:18:48Z*%
FMAT,2
ICI,OFF
INCH,TZ,00.0000
T3C0.0984
T2C0.1059
T1C0.1378
%
G90
M72
T1
X119587Y34843
X118504Y30709
X54429Y51378
X9350Y51378
X118504Y55118
X110630Y14567
X54429Y43110
X9350Y43110
X110630Y30709
X110630Y55118
X54429Y34843
X9350Y34843
X63386Y14567
X63386Y30709
X54429Y26575
X9350Y26575
X63386Y55118
X55512Y14567
X54429Y18307
X9350Y18307
X55512Y30709
X55512Y55118
X109547Y51378
X64469Y51378
X165748Y55118
X165748Y30709
X109547Y43110
X64469Y43110
X165748Y14567
X8268Y55118
X109547Y34843
X64469Y34843
X8268Y30709
X8268Y14567
X109547Y26575
X64469Y26575
X164764Y60039
X119488Y60039
X109547Y18307
X64469Y18307
X109646Y60039
X64370Y60039
X164665Y51378
X119587Y51378
X54528Y60039
X9252Y60039
X164665Y43110
X119587Y43110
X54724Y5906
X9646Y5906
X164665Y34843
X118504Y14567
X109547Y5906
X64469Y5906
X164665Y26575
X119587Y26575
X164665Y5906
X119587Y5906
X164665Y18307
X119587Y18307
T2
X4429Y36075
X4429Y17075
X59547Y36075
X59547Y17075
X114665Y36075
X114665Y17075
T3
X162106Y5906
X122146Y5906
X162106Y18307
X122146Y18307
X106988Y5906
X67028Y5906
X162106Y26575
X122146Y26575
X52165Y5906
X12205Y5906
X162106Y34843
X122146Y34843
X162106Y43110
X122146Y43110
X162106Y51378
X122146Y51378
X106988Y18307
X67028Y18307
X106988Y26575
X67028Y26575
X106988Y34843
X67028Y34843
X106988Y43110
X67028Y43110
X106988Y51378
X67028Y51378
X51870Y18307
X11909Y18307
X51870Y26575
X11909Y26575
X51870Y34843
X11909Y34843
X51870Y43110
X11909Y43110
X51870Y51378
X11909Y51378
M30