M48
;GenerationSoftware,Autodesk,EAGLE,9.6.2*%
;CreationDate,2022-09-08T15:18:48Z*%
FMAT,2
ICI,OFF
INCH,TZ,00.0000
T5C0.0118
T4C0.0276
T3C0.0315
T2C0.0350
T1C0.0394
%
G90
M72
T1
X93406Y52559
X14961Y4724
X15945Y4724
X16929Y4724
X17913Y4724
X18898Y4724
X19882Y4724
X20866Y4724
X21850Y4724
X22835Y4724
X23819Y4724
X24803Y4724
X25787Y4724
X26772Y4724
X27756Y4724
X28740Y4724
X29724Y4724
X30709Y4724
X31693Y4724
X32677Y4724
X33661Y4724
X34646Y4724
X35630Y4724
X36614Y4724
X37598Y4724
X38583Y4724
X39567Y4724
X40551Y4724
X41535Y4724
X42520Y4724
X43504Y4724
X44488Y4724
X45472Y4724
X46457Y4724
X47441Y4724
X48425Y4724
X49409Y4724
X14961Y7087
X15945Y7087
X16929Y7087
X17913Y7087
X18898Y7087
X19882Y7087
X20866Y7087
X21850Y7087
X22835Y7087
X23819Y7087
X24803Y7087
X25787Y7087
X26772Y7087
X27756Y7087
X28740Y7087
X29724Y7087
X30709Y7087
X31693Y7087
X32677Y7087
X33661Y7087
X34646Y7087
X35630Y7087
X36614Y7087
X37598Y7087
X38583Y7087
X39567Y7087
X40551Y7087
X41535Y7087
X42520Y7087
X43504Y7087
X44488Y7087
X45472Y7087
X46457Y7087
X47441Y7087
X48425Y7087
X49409Y7087
X69783Y4724
X70768Y4724
X71752Y4724
X72736Y4724
X73720Y4724
X74705Y4724
X75689Y4724
X76673Y4724
X77657Y4724
X78642Y4724
X79626Y4724
X80610Y4724
X81594Y4724
X82579Y4724
X83563Y4724
X84547Y4724
X85531Y4724
X86516Y4724
X87500Y4724
X88484Y4724
X89469Y4724
X90453Y4724
X91437Y4724
X92421Y4724
X93406Y4724
X94390Y4724
X95374Y4724
X96358Y4724
X97343Y4724
X98327Y4724
X99311Y4724
X100295Y4724
X101280Y4724
X102264Y4724
X103248Y4724
X104232Y4724
X69783Y7087
X70768Y7087
X71752Y7087
X72736Y7087
X73720Y7087
X74705Y7087
X75689Y7087
X76673Y7087
X77657Y7087
X78642Y7087
X79626Y7087
X80610Y7087
X81594Y7087
X82579Y7087
X83563Y7087
X84547Y7087
X85531Y7087
X86516Y7087
X87500Y7087
X88484Y7087
X89469Y7087
X90453Y7087
X91437Y7087
X92421Y7087
X93406Y7087
X94390Y7087
X95374Y7087
X96358Y7087
X97343Y7087
X98327Y7087
X99311Y7087
X100295Y7087
X101280Y7087
X102264Y7087
X103248Y7087
X104232Y7087
X124902Y4724
X125886Y4724
X126870Y4724
X127854Y4724
X128839Y4724
X129823Y4724
X130807Y4724
X131791Y4724
X132776Y4724
X133760Y4724
X134744Y4724
X135728Y4724
X136713Y4724
X137697Y4724
X138681Y4724
X139665Y4724
X140650Y4724
X141634Y4724
X142618Y4724
X143602Y4724
X144587Y4724
X145571Y4724
X146555Y4724
X147539Y4724
X148524Y4724
X149508Y4724
X150492Y4724
X151476Y4724
X152461Y4724
X153445Y4724
X154429Y4724
X155413Y4724
X156398Y4724
X157382Y4724
X158366Y4724
X159350Y4724
X124902Y7087
X125886Y7087
X126870Y7087
X127854Y7087
X128839Y7087
X129823Y7087
X130807Y7087
X131791Y7087
X132776Y7087
X133760Y7087
X134744Y7087
X135728Y7087
X136713Y7087
X137697Y7087
X138681Y7087
X139665Y7087
X140650Y7087
X141634Y7087
X142618Y7087
X143602Y7087
X144587Y7087
X145571Y7087
X146555Y7087
X147539Y7087
X148524Y7087
X149508Y7087
X150492Y7087
X151476Y7087
X152461Y7087
X153445Y7087
X154429Y7087
X155413Y7087
X156398Y7087
X157382Y7087
X158366Y7087
X159350Y7087
X150492Y52559
X149508Y52559
X148524Y52559
X147539Y52559
X146555Y52559
X145571Y52559
X144587Y52559
X143602Y52559
X142618Y52559
X141634Y52559
X140650Y52559
X139665Y52559
X138681Y52559
X137697Y52559
X136713Y52559
X135728Y52559
X134744Y52559
X133760Y52559
X132776Y52559
X131791Y52559
X130807Y52559
X129823Y52559
X128839Y52559
X127854Y52559
X126870Y52559
X125886Y52559
X124902Y52559
X104232Y17126
X103248Y17126
X102264Y17126
X101280Y17126
X100295Y17126
X99311Y17126
X98327Y17126
X97343Y17126
X96358Y17126
X95374Y17126
X94390Y17126
X93406Y17126
X92421Y17126
X91437Y17126
X90453Y17126
X89469Y17126
X88484Y17126
X87500Y17126
X86516Y17126
X85531Y17126
X84547Y17126
X83563Y17126
X82579Y17126
X81594Y17126
X80610Y17126
X79626Y17126
X78642Y17126
X77657Y17126
X76673Y17126
X75689Y17126
X74705Y17126
X73720Y17126
X72736Y17126
X71752Y17126
X70768Y17126
X69783Y17126
X104232Y19488
X103248Y19488
X102264Y19488
X101280Y19488
X100295Y19488
X99311Y19488
X98327Y19488
X97343Y19488
X96358Y19488
X95374Y19488
X94390Y19488
X93406Y19488
X92421Y19488
X91437Y19488
X90453Y19488
X89469Y19488
X88484Y19488
X87500Y19488
X86516Y19488
X159350Y17126
X158366Y17126
X157382Y17126
X156398Y17126
X155413Y17126
X154429Y17126
X153445Y17126
X152461Y17126
X151476Y17126
X150492Y17126
X149508Y17126
X148524Y17126
X147539Y17126
X146555Y17126
X145571Y17126
X144587Y17126
X143602Y17126
X142618Y17126
X141634Y17126
X140650Y17126
X139665Y17126
X138681Y17126
X137697Y17126
X136713Y17126
X135728Y17126
X134744Y17126
X133760Y17126
X132776Y17126
X131791Y17126
X130807Y17126
X129823Y17126
X128839Y17126
X127854Y17126
X126870Y17126
X125886Y17126
X124902Y17126
X159350Y19488
X158366Y19488
X157382Y19488
X156398Y19488
X155413Y19488
X154429Y19488
X153445Y19488
X152461Y19488
X151476Y19488
X150492Y19488
X149508Y19488
X148524Y19488
X147539Y19488
X146555Y19488
X145571Y19488
X144587Y19488
X143602Y19488
X142618Y19488
X141634Y19488
X140650Y19488
X139665Y19488
X138681Y19488
X137697Y19488
X136713Y19488
X135728Y19488
X134744Y19488
X133760Y19488
X132776Y19488
X131791Y19488
X130807Y19488
X129823Y19488
X128839Y19488
X127854Y19488
X126870Y19488
X125886Y19488
X124902Y19488
X159350Y25394
X158366Y25394
X157382Y25394
X156398Y25394
X155413Y25394
X154429Y25394
X153445Y25394
X152461Y25394
X151476Y25394
X150492Y25394
X149508Y25394
X148524Y25394
X147539Y25394
X146555Y25394
X145571Y25394
X144587Y25394
X143602Y25394
X142618Y25394
X141634Y25394
X140650Y25394
X139665Y25394
X138681Y25394
X137697Y25394
X136713Y25394
X135728Y25394
X134744Y25394
X133760Y25394
X132776Y25394
X131791Y25394
X130807Y25394
X129823Y25394
X128839Y25394
X127854Y25394
X126870Y25394
X125886Y25394
X124902Y25394
X159350Y27756
X158366Y27756
X157382Y27756
X156398Y27756
X155413Y27756
X154429Y27756
X153445Y27756
X152461Y27756
X151476Y27756
X150492Y27756
X149508Y27756
X148524Y27756
X147539Y27756
X146555Y27756
X145571Y27756
X144587Y27756
X143602Y27756
X142618Y27756
X141634Y27756
X140650Y27756
X139665Y27756
X138681Y27756
X137697Y27756
X136713Y27756
X135728Y27756
X134744Y27756
X133760Y27756
X132776Y27756
X131791Y27756
X130807Y27756
X129823Y27756
X128839Y27756
X127854Y27756
X126870Y27756
X125886Y27756
X124902Y27756
X159350Y33661
X158366Y33661
X157382Y33661
X156398Y33661
X155413Y33661
X154429Y33661
X153445Y33661
X152461Y33661
X151476Y33661
X150492Y33661
X149508Y33661
X148524Y33661
X147539Y33661
X146555Y33661
X145571Y33661
X144587Y33661
X143602Y33661
X142618Y33661
X141634Y33661
X140650Y33661
X139665Y33661
X138681Y33661
X137697Y33661
X136713Y33661
X135728Y33661
X134744Y33661
X133760Y33661
X132776Y33661
X131791Y33661
X130807Y33661
X129823Y33661
X128839Y33661
X127854Y33661
X126870Y33661
X125886Y33661
X124902Y33661
X159350Y36024
X158366Y36024
X157382Y36024
X156398Y36024
X155413Y36024
X154429Y36024
X153445Y36024
X152461Y36024
X150492Y36024
X149508Y36024
X148524Y36024
X147539Y36024
X146555Y36024
X145571Y36024
X144587Y36024
X143602Y36024
X142618Y36024
X141634Y36024
X140650Y36024
X139665Y36024
X138681Y36024
X137697Y36024
X136713Y36024
X135728Y36024
X134744Y36024
X133760Y36024
X132776Y36024
X131791Y36024
X151476Y36024
X130807Y36024
X129823Y36024
X128839Y36024
X127854Y36024
X126870Y36024
X125886Y36024
X124902Y36024
X159350Y41929
X158366Y41929
X157382Y41929
X156398Y41929
X155413Y41929
X154429Y41929
X153445Y41929
X152461Y41929
X151476Y41929
X150492Y41929
X149508Y41929
X148524Y41929
X147539Y41929
X146555Y41929
X145571Y41929
X144587Y41929
X143602Y41929
X142618Y41929
X141634Y41929
X140650Y41929
X139665Y41929
X138681Y41929
X137697Y41929
X136713Y41929
X135728Y41929
X134744Y41929
X133760Y41929
X132776Y41929
X131791Y41929
X130807Y41929
X129823Y41929
X128839Y41929
X127854Y41929
X126870Y41929
X125886Y41929
X124902Y41929
X159350Y44291
X158366Y44291
X157382Y44291
X156398Y44291
X155413Y44291
X154429Y44291
X153445Y44291
X152461Y44291
X151476Y44291
X150492Y44291
X149508Y44291
X148524Y44291
X147539Y44291
X146555Y44291
X145571Y44291
X144587Y44291
X143602Y44291
X142618Y44291
X141634Y44291
X140650Y44291
X139665Y44291
X138681Y44291
X137697Y44291
X136713Y44291
X135728Y44291
X134744Y44291
X133760Y44291
X132776Y44291
X131791Y44291
X130807Y44291
X129823Y44291
X128839Y44291
X127854Y44291
X126870Y44291
X125886Y44291
X124902Y44291
X159350Y50197
X158366Y50197
X157382Y50197
X156398Y50197
X155413Y50197
X154429Y50197
X153445Y50197
X152461Y50197
X151476Y50197
X150492Y50197
X149508Y50197
X148524Y50197
X147539Y50197
X146555Y50197
X145571Y50197
X144587Y50197
X143602Y50197
X142618Y50197
X141634Y50197
X140650Y50197
X139665Y50197
X138681Y50197
X137697Y50197
X136713Y50197
X135728Y50197
X134744Y50197
X133760Y50197
X132776Y50197
X131791Y50197
X130807Y50197
X129823Y50197
X128839Y50197
X127854Y50197
X126870Y50197
X125886Y50197
X124902Y50197
X159350Y52559
X158366Y52559
X157382Y52559
X156398Y52559
X155413Y52559
X154429Y52559
X153445Y52559
X152461Y52559
X14665Y52559
X15650Y52559
X16634Y52559
X17618Y52559
X18602Y52559
X19587Y52559
X20571Y52559
X21555Y52559
X22539Y52559
X23524Y52559
X24508Y52559
X25492Y52559
X26476Y52559
X27461Y52559
X28445Y52559
X29429Y52559
X30413Y52559
X31398Y52559
X32382Y52559
X33366Y52559
X34350Y52559
X35335Y52559
X36319Y52559
X37303Y52559
X38287Y52559
X39272Y52559
X40256Y52559
X41240Y52559
X42224Y52559
X43209Y52559
X44193Y52559
X45177Y52559
X46161Y52559
X47146Y52559
X48130Y52559
X49114Y52559
X14665Y50197
X15650Y50197
X16634Y50197
X17618Y50197
X18602Y50197
X19587Y50197
X20571Y50197
X21555Y50197
X22539Y50197
X23524Y50197
X24508Y50197
X25492Y50197
X26476Y50197
X27461Y50197
X28445Y50197
X29429Y50197
X30413Y50197
X31398Y50197
X32382Y50197
X33366Y50197
X34350Y50197
X35335Y50197
X36319Y50197
X37303Y50197
X38287Y50197
X39272Y50197
X40256Y50197
X41240Y50197
X42224Y50197
X43209Y50197
X44193Y50197
X45177Y50197
X46161Y50197
X47146Y50197
X48130Y50197
X49114Y50197
X14665Y44291
X15650Y44291
X16634Y44291
X17618Y44291
X18602Y44291
X19587Y44291
X20571Y44291
X21555Y44291
X22539Y44291
X23524Y44291
X24508Y44291
X25492Y44291
X26476Y44291
X27461Y44291
X28445Y44291
X29429Y44291
X30413Y44291
X31398Y44291
X32382Y44291
X33366Y44291
X34350Y44291
X35335Y44291
X36319Y44291
X37303Y44291
X38287Y44291
X39272Y44291
X40256Y44291
X41240Y44291
X42224Y44291
X43209Y44291
X44193Y44291
X45177Y44291
X46161Y44291
X47146Y44291
X48130Y44291
X49114Y44291
X14665Y41929
X15650Y41929
X16634Y41929
X17618Y41929
X18602Y41929
X19587Y41929
X20571Y41929
X21555Y41929
X22539Y41929
X23524Y41929
X24508Y41929
X25492Y41929
X26476Y41929
X27461Y41929
X28445Y41929
X29429Y41929
X30413Y41929
X31398Y41929
X32382Y41929
X33366Y41929
X34350Y41929
X35335Y41929
X36319Y41929
X37303Y41929
X38287Y41929
X39272Y41929
X40256Y41929
X41240Y41929
X42224Y41929
X43209Y41929
X44193Y41929
X45177Y41929
X46161Y41929
X47146Y41929
X48130Y41929
X49114Y41929
X14665Y36024
X15650Y36024
X16634Y36024
X17618Y36024
X18602Y36024
X19587Y36024
X20571Y36024
X21555Y36024
X22539Y36024
X23524Y36024
X24508Y36024
X25492Y36024
X26476Y36024
X27461Y36024
X28445Y36024
X29429Y36024
X30413Y36024
X31398Y36024
X32382Y36024
X33366Y36024
X34350Y36024
X35335Y36024
X36319Y36024
X37303Y36024
X38287Y36024
X39272Y36024
X40256Y36024
X41240Y36024
X42224Y36024
X43209Y36024
X44193Y36024
X45177Y36024
X46161Y36024
X47146Y36024
X48130Y36024
X49114Y36024
X14665Y33661
X15650Y33661
X16634Y33661
X17618Y33661
X18602Y33661
X19587Y33661
X20571Y33661
X21555Y33661
X22539Y33661
X23524Y33661
X24508Y33661
X25492Y33661
X26476Y33661
X27461Y33661
X28445Y33661
X29429Y33661
X30413Y33661
X31398Y33661
X32382Y33661
X33366Y33661
X34350Y33661
X35335Y33661
X36319Y33661
X37303Y33661
X38287Y33661
X39272Y33661
X40256Y33661
X41240Y33661
X42224Y33661
X43209Y33661
X44193Y33661
X45177Y33661
X46161Y33661
X47146Y33661
X48130Y33661
X49114Y33661
X14665Y27756
X15650Y27756
X16634Y27756
X17618Y27756
X18602Y27756
X19587Y27756
X20571Y27756
X21555Y27756
X22539Y27756
X23524Y27756
X24508Y27756
X25492Y27756
X26476Y27756
X27461Y27756
X28445Y27756
X29429Y27756
X30413Y27756
X31398Y27756
X32382Y27756
X33366Y27756
X34350Y27756
X35335Y27756
X36319Y27756
X37303Y27756
X38287Y27756
X39272Y27756
X40256Y27756
X41240Y27756
X42224Y27756
X43209Y27756
X44193Y27756
X45177Y27756
X46161Y27756
X47146Y27756
X48130Y27756
X49114Y27756
X14665Y25394
X15650Y25394
X16634Y25394
X17618Y25394
X18602Y25394
X19587Y25394
X20571Y25394
X21555Y25394
X22539Y25394
X23524Y25394
X24508Y25394
X25492Y25394
X26476Y25394
X27461Y25394
X28445Y25394
X29429Y25394
X30413Y25394
X31398Y25394
X32382Y25394
X33366Y25394
X34350Y25394
X35335Y25394
X36319Y25394
X37303Y25394
X38287Y25394
X39272Y25394
X40256Y25394
X41240Y25394
X42224Y25394
X43209Y25394
X44193Y25394
X45177Y25394
X46161Y25394
X47146Y25394
X48130Y25394
X49114Y25394
X14665Y19488
X15650Y19488
X16634Y19488
X17618Y19488
X18602Y19488
X19587Y19488
X20571Y19488
X21555Y19488
X22539Y19488
X23524Y19488
X24508Y19488
X25492Y19488
X26476Y19488
X27461Y19488
X28445Y19488
X29429Y19488
X30413Y19488
X31398Y19488
X32382Y19488
X33366Y19488
X34350Y19488
X35335Y19488
X36319Y19488
X37303Y19488
X38287Y19488
X39272Y19488
X40256Y19488
X41240Y19488
X42224Y19488
X43209Y19488
X44193Y19488
X45177Y19488
X46161Y19488
X47146Y19488
X48130Y19488
X49114Y19488
X14665Y17126
X15650Y17126
X16634Y17126
X17618Y17126
X18602Y17126
X19587Y17126
X20571Y17126
X21555Y17126
X22539Y17126
X23524Y17126
X24508Y17126
X25492Y17126
X26476Y17126
X27461Y17126
X28445Y17126
X29429Y17126
X30413Y17126
X31398Y17126
X32382Y17126
X33366Y17126
X34350Y17126
X35335Y17126
X36319Y17126
X37303Y17126
X38287Y17126
X39272Y17126
X40256Y17126
X41240Y17126
X42224Y17126
X43209Y17126
X44193Y17126
X45177Y17126
X46161Y17126
X47146Y17126
X48130Y17126
X49114Y17126
X69783Y52559
X70768Y52559
X71752Y52559
X72736Y52559
X73720Y52559
X74705Y52559
X75689Y52559
X76673Y52559
X77657Y52559
X78642Y52559
X79626Y52559
X80610Y52559
X81594Y52559
X82579Y52559
X83563Y52559
X84547Y52559
X85531Y52559
X86516Y52559
X87500Y52559
X88484Y52559
X89469Y52559
X90453Y52559
X91437Y52559
X92421Y52559
X151476Y52559
X94390Y52559
X95374Y52559
X96358Y52559
X97343Y52559
X98327Y52559
X99311Y52559
X100295Y52559
X101280Y52559
X102264Y52559
X103248Y52559
X104232Y52559
X69783Y50197
X70768Y50197
X71752Y50197
X72736Y50197
X73720Y50197
X74705Y50197
X75689Y50197
X76673Y50197
X77657Y50197
X78642Y50197
X79626Y50197
X80610Y50197
X81594Y50197
X82579Y50197
X83563Y50197
X84547Y50197
X85531Y50197
X86516Y50197
X87500Y50197
X88484Y50197
X89469Y50197
X90453Y50197
X91437Y50197
X92421Y50197
X93406Y50197
X94390Y50197
X95374Y50197
X96358Y50197
X97343Y50197
X98327Y50197
X99311Y50197
X100295Y50197
X101280Y50197
X102264Y50197
X103248Y50197
X104232Y50197
X69783Y44291
X70768Y44291
X71752Y44291
X72736Y44291
X73720Y44291
X74705Y44291
X75689Y44291
X76673Y44291
X77657Y44291
X78642Y44291
X79626Y44291
X80610Y44291
X81594Y44291
X82579Y44291
X83563Y44291
X84547Y44291
X85531Y44291
X86516Y44291
X87500Y44291
X88484Y44291
X89469Y44291
X90453Y44291
X91437Y44291
X92421Y44291
X93406Y44291
X94390Y44291
X95374Y44291
X96358Y44291
X97343Y44291
X98327Y44291
X99311Y44291
X100295Y44291
X101280Y44291
X102264Y44291
X103248Y44291
X104232Y44291
X69783Y41929
X70768Y41929
X71752Y41929
X72736Y41929
X73720Y41929
X74705Y41929
X75689Y41929
X76673Y41929
X77657Y41929
X78642Y41929
X79626Y41929
X80610Y41929
X81594Y41929
X82579Y41929
X83563Y41929
X84547Y41929
X85531Y41929
X86516Y41929
X87500Y41929
X88484Y41929
X89469Y41929
X90453Y41929
X91437Y41929
X92421Y41929
X93406Y41929
X94390Y41929
X95374Y41929
X96358Y41929
X97343Y41929
X98327Y41929
X99311Y41929
X100295Y41929
X101280Y41929
X102264Y41929
X103248Y41929
X104232Y41929
X69783Y36024
X70768Y36024
X71752Y36024
X72736Y36024
X73720Y36024
X74705Y36024
X75689Y36024
X76673Y36024
X77657Y36024
X78642Y36024
X79626Y36024
X80610Y36024
X81594Y36024
X82579Y36024
X83563Y36024
X84547Y36024
X85531Y36024
X86516Y36024
X87500Y36024
X88484Y36024
X89469Y36024
X90453Y36024
X91437Y36024
X92421Y36024
X93406Y36024
X94390Y36024
X95374Y36024
X96358Y36024
X97343Y36024
X98327Y36024
X99311Y36024
X100295Y36024
X101280Y36024
X102264Y36024
X103248Y36024
X104232Y36024
X69783Y33661
X70768Y33661
X71752Y33661
X72736Y33661
X73720Y33661
X74705Y33661
X75689Y33661
X76673Y33661
X77657Y33661
X78642Y33661
X79626Y33661
X80610Y33661
X81594Y33661
X82579Y33661
X83563Y33661
X84547Y33661
X85531Y33661
X86516Y33661
X87500Y33661
X88484Y33661
X89469Y33661
X90453Y33661
X91437Y33661
X92421Y33661
X93406Y33661
X94390Y33661
X95374Y33661
X96358Y33661
X97343Y33661
X98327Y33661
X99311Y33661
X100295Y33661
X101280Y33661
X102264Y33661
X103248Y33661
X104232Y33661
X69783Y27756
X70768Y27756
X71752Y27756
X72736Y27756
X73720Y27756
X74705Y27756
X75689Y27756
X76673Y27756
X77657Y27756
X78642Y27756
X79626Y27756
X80610Y27756
X81594Y27756
X82579Y27756
X83563Y27756
X84547Y27756
X85531Y27756
X86516Y27756
X87500Y27756
X88484Y27756
X89469Y27756
X90453Y27756
X91437Y27756
X92421Y27756
X93406Y27756
X94390Y27756
X95374Y27756
X96358Y27756
X97343Y27756
X98327Y27756
X99311Y27756
X100295Y27756
X101280Y27756
X102264Y27756
X103248Y27756
X104232Y27756
X69783Y25394
X70768Y25394
X71752Y25394
X72736Y25394
X73720Y25394
X74705Y25394
X75689Y25394
X76673Y25394
X77657Y25394
X78642Y25394
X79626Y25394
X80610Y25394
X81594Y25394
X82579Y25394
X83563Y25394
X84547Y25394
X85531Y25394
X86516Y25394
X87500Y25394
X88484Y25394
X89469Y25394
X90453Y25394
X91437Y25394
X92421Y25394
X93406Y25394
X94390Y25394
X95374Y25394
X96358Y25394
X97343Y25394
X98327Y25394
X99311Y25394
X100295Y25394
X101280Y25394
X102264Y25394
X103248Y25394
X104232Y25394
X69783Y19488
X70768Y19488
X71752Y19488
X72736Y19488
X73720Y19488
X74705Y19488
X75689Y19488
X76673Y19488
X77657Y19488
X78642Y19488
X79626Y19488
X80610Y19488
X81594Y19488
X82579Y19488
X83563Y19488
X84547Y19488
X85531Y19488
T2
X58949Y27575
X115067Y20575
X114067Y21575
X115067Y21575
X4831Y32575
X3831Y32575
X4831Y31575
X3831Y31575
X4831Y30575
X3831Y30575
X4831Y29575
X3831Y29575
X4831Y28575
X3831Y28575
X4831Y27575
X3831Y27575
X4831Y26575
X3831Y26575
X4831Y25575
X3831Y25575
X4831Y24575
X3831Y24575
X4831Y23575
X3831Y23575
X4831Y22575
X3831Y22575
X4831Y21575
X3831Y21575
X4831Y20575
X3831Y20575
X59949Y32575
X58949Y32575
X59949Y31575
X58949Y31575
X59949Y30575
X58949Y30575
X59949Y29575
X58949Y29575
X59949Y28575
X58949Y28575
X59949Y27575
X114067Y20575
X59949Y26575
X58949Y26575
X59949Y25575
X58949Y25575
X59949Y24575
X58949Y24575
X59949Y23575
X58949Y23575
X59949Y22575
X58949Y22575
X59949Y21575
X58949Y21575
X59949Y20575
X58949Y20575
X115067Y32575
X114067Y32575
X115067Y31575
X114067Y31575
X115067Y30575
X114067Y30575
X115067Y29575
X114067Y29575
X115067Y28575
X114067Y28575
X115067Y27575
X114067Y27575
X115067Y26575
X114067Y26575
X115067Y25575
X114067Y25575
X115067Y24575
X114067Y24575
X115067Y23575
X114067Y23575
X115067Y22575
X114067Y22575
T3
X59449Y52756
X59449Y53543
X114567Y52756
X114567Y53543
T4
X115157Y5512
X115157Y6299
X115157Y7087
X115157Y7874
X115157Y8661
X115157Y9449
X115157Y10236
X60039Y5512
X60039Y6299
X60039Y7087
X60039Y7874
X60039Y8661
X60039Y9449
X60039Y10236
X4921Y5512
X4921Y6299
X4921Y7087
X4921Y7874
X4921Y8661
X4921Y9449
X4921Y10236
T5
X68209Y33661
X67520Y36024
X65551Y36024
X61614Y30315
X51772Y49606
X34449Y15551
X33957Y13878
X6398Y25394
X34646Y41437
X33268Y35138
X2756Y34154
X3051Y33760
X118602Y984
X149902Y787
X114567Y9744
X66634Y11024
X62205Y6594
X151673Y8858
X113976Y8327
X108760Y984
X75394Y787
X75492Y3346
X60531Y3740
X114823Y945
X116043Y787
X59843Y3051
X101594Y3051
X105059Y3051
X145807Y1969
X60669Y8209
X68307Y8366
X69035Y1476
X144094Y1476
X59154Y9646
X119291Y8169
X117421Y6299
X115669Y2500
X108169Y787
X111713Y23031
X65453Y23327
X64075Y21949
X15354Y20965
X69587Y1280
X142815Y1181
X119783Y23228
X116043Y16535
X93071Y15906
X154035Y15157
X107874Y9055
X104823Y6004
X93504Y6004
X154921Y16516
X130512Y14173
X130512Y12402
X97638Y11319
X96850Y7382
X118012Y16535
X117224Y15748
X94685Y13583
X126496Y10571
X121752Y4035
X149508Y5315
X94488Y6260
X120571Y15157
X116142Y7972
X113484Y7579
X102756Y3937
X145374Y2283
X105374Y3602
X102461Y3642
X123622Y15354
X116535Y4626
X92323Y5610
X134843Y13583
X91437Y12795
X127264Y15551
X123720Y4331
X133268Y12795
X90394Y12500
X132283Y16437
X132283Y13287
X112500Y12894
X105610Y6004
X131890Y12500
X88504Y10748
X131299Y11614
X90315Y10709
X124311Y34547
X115846Y26083
X68012Y21791
X62835Y1476
X48917Y1575
X120236Y15846
X116929Y11122
X88406Y9941
X69390Y51378
X34941Y47933
X90453Y21654
X152362Y12598
X123819Y9350
X119193Y3740
X109705Y3642
X102165Y3346
X59744Y4528
X59252Y4823
X143406Y20768
X116732Y23228
X136614Y13878
X113091Y13878
X68602Y2461
X54193Y2972
X124016Y20472
X122185Y20335
X143366Y12736
X102461Y10728
X117618Y23622
X115650Y21654
X86713Y21654
X82382Y2756
X60827Y2854
X59154Y2756
X53642Y3051
X124016Y24508
X70374Y45768
X116201Y15413
X114862Y14272
X100886Y3051
X74193Y3051
X72835Y984
X49114Y984
X45669Y6496
X117618Y27067
X117618Y25394
X124272Y25591
X116398Y10827
X105217Y9941
X125689Y28346
X121358Y31988
X115197Y34331
X113583Y31791
X60551Y28268
X54429Y16831
X53445Y15846
X51161Y13189
X47480Y13189
X137598Y29035
X144429Y34980
X125295Y35236
X125689Y35236
X116043Y17028
X113386Y17421
X105315Y7382
X55610Y32579
X51083Y28051
X48524Y25787
X48031Y24508
X44429Y24154
X44193Y20374
X44783Y18307
X143996Y32776
X116043Y41043
X112697Y36811
X63976Y33071
X61713Y15453
X56713Y13661
X53150Y7972
X44587Y7972
X125098Y41043
X118898Y41043
X124016Y42224
X124705Y45177
X105217Y43209
X74016Y43209
X69488Y6594
X68012Y6791
X64075Y1476
X47933Y1280
X124213Y46654
X67795Y46555
X58465Y26772
X57874Y25787
X51240Y19547
X49902Y18701
X48327Y15551
X43130Y13189
X124016Y49311
X137992Y33169
X107677Y19390
X103937Y16634
X97008Y15610
X54035Y15256
X50492Y5413
X60925Y22539
X82598Y15787
X57874Y14528
X55610Y9154
X42677Y8051
X82874Y23031
X61614Y22736
X96988Y18602
X89665Y23622
X87224Y14567
X57087Y14232
X52913Y7303
X65453Y24311
X61791Y14213
X57480Y14331
X53445Y10531
X42224Y8917
X61614Y26083
X83071Y25098
X90748Y24902
X91024Y9154
X99291Y9134
X98031Y40256
X143110Y17421
X149508Y39173
X96850Y39173
X147244Y6004
X129193Y15472
X129331Y14173
X97146Y13583
X139567Y15354
X97441Y40748
X146752Y6496
X125098Y26024
X118504Y20079
X91831Y20472
X143110Y37894
X95177Y37894
X93406Y34252
X74902Y38287
X127854Y38484
X74311Y38091
X126870Y38189
X73622Y37795
X124213Y37598
X126378Y37500
X127362Y37264
X128346Y36909
X130315Y34252
X75886Y35039
X76772Y40453
X116831Y43898
X106594Y33760
X77854Y34744
X133268Y22244
X117717Y22244
X113583Y21358
X78839Y21358
X134449Y32579
X79232Y31693
X136220Y32776
X81201Y32480
X137402Y33071
X82087Y32736
X91535Y38287
X144390Y9744
X135787Y9665
X147244Y39764
X96063Y39764
X137795Y18898
X124213Y19587
X122815Y19587
X138091Y18602
X138406Y14665
X147539Y11220
X139272Y10335
X112717Y7224
X111319Y11319
X98228Y11516
X148602Y14075
X139862Y13917
X98130Y39469
X148327Y9449
X139862Y9429
X124311Y8563
X121634Y20906
X97933Y21063
X148327Y8563
X141811Y8563
X87697Y33071
X83366Y5906
X89154Y31122
X60827Y28740
X66634Y32362
X62205Y18209
X54232Y15846
X50492Y7224
X71063Y28248
X82500Y30925
X61732Y29035
X88602Y31516
X62500Y29331
X90256Y16535
X91575Y16437
X87894Y48819
X82579Y22441
X69783Y20748
X68996Y3051
X57480Y4528
X49902Y6004
X68406Y50787
X82579Y34449
X65807Y32638
X62205Y18701
X53839Y15846
X51437Y10965
X38878Y8524
X70079Y49606
X66240Y36909
X70276Y51870
X63563Y37441
X75197Y6791
X98248Y16043
X93504Y15945
X91339Y6201
X86693Y16083
X100315Y12205
X88189Y11339
X97736Y18012
X83858Y16535
X98720Y15886
X85236Y12815
X86909Y17717
X100118Y16004
X88661Y12776
X68701Y36417
X68799Y14567
X66732Y13780
X61634Y6890
X54331Y3740
X49705Y3740
X41535Y3740
X72638Y39665
X69488Y36516
X58169Y32579
X52028Y19547
X49606Y18110
X49213Y17717
X41516Y14094
X66240Y36516
X83366Y32224
X68898Y43602
X66240Y37402
X92126Y34547
X101969Y34154
X100295Y9154
X98386Y8287
X36240Y14311
X14665Y20669
X60768Y9961
X62165Y8366
X64272Y8268
X65354Y7185
X29823Y6201
X65059Y25197
X67402Y12913
X95768Y12205
X32992Y26240
X34154Y10630
X36201Y10157
X32677Y10630
X34055Y9941
X14764Y35433
X68307Y38189
X68504Y12598
X96063Y11811
X47441Y41437
X46181Y10236
X39567Y8169
X3248Y32776
X33169Y14764
X34311Y13858
X13780Y42323
X57677Y42126
X59154Y39862
X68957Y38504
X69094Y15650
X93583Y15354
X5118Y41831
X46457Y49311
X48248Y4114
X13780Y48425
X71161Y49508
X17815Y40748
X18799Y16043
X18996Y49016
X19783Y16043
X20079Y22146
X70354Y16535
X52362Y12598
X57874Y4528
X71260Y3248
X22047Y21850
X54232Y21358
X56791Y18799
X59449Y18701
X60551Y13346
X71358Y11417
X22598Y14567
X56988Y11161
X58661Y5020
X72441Y3445
X23917Y21260
X59646Y19783
X64173Y11909
X71752Y11417
X24902Y21555
X57776Y20768
X60925Y12894
X70000Y10689
X25984Y20669
X58366Y19390
X62756Y8957
X72933Y8957
X26969Y20965
X59154Y19783
X64035Y10236
X75630Y10138
X88878Y43012
X35138Y8071
X35866Y7933
X14075Y44488
X36516Y46063
X90945Y45965
X90945Y49508
X34843Y6496
X37795Y47441
X91831Y47343
X28740Y13150
X91831Y49508
X38681Y48228
X92815Y48228
X92815Y49508
X37972Y11850
X28346Y11713
X39469Y47736
X94488Y47638
X38583Y11713
X28937Y11713
X40748Y48720
X31890Y12992
X31201Y7382
X43583Y11929
X54823Y10925
X57972Y5315
X75787Y3839
X44528Y11673
X54429Y10866
X57283Y5610
X56398Y13189
X57165Y13681
X77067Y9744
X68583Y39764
X70945Y18504
X30079Y26693
X90118Y39528
X64016Y39252
X83504Y1969
X62835Y6024
X66969Y22559
X79528Y40433
X80433Y40787
X61024Y24724
X39921Y14685
X84803Y3858
X111102Y8583
X111063Y6457
X104173Y2362
X111850Y1063
X117559Y10551
X123661Y35472
X68543Y41772
X58189Y8465
X102638Y30748
X34094Y15551
X78543Y18504
X77520Y18504
X76575Y18504
X80472Y18661
X82008Y8819
X84685Y8661
X90157Y13386
X82480Y40354
X74685Y55079
X94606Y56063
X89764Y55945
X83898Y55906
X115906Y31693
X116772Y36102
X135236Y10591
X128858Y10591
X127874Y10591
X142638Y13622
X139606Y21890
X146575Y10630
X147520Y10551
X148622Y10945
X145394Y13071
X151535Y15827
X31142Y10118
X32638Y9882
X29843Y14528
X29646Y10748
X26575Y9724
X38661Y5709
X106535Y2795
X84843Y6102
X56693Y44094
X64882Y21575
X61575Y21496
X69528Y17795
X60709Y20000
X58268Y21732
X58189Y23386
X45197Y2283
X57402Y15669
X53543Y7323
X53307Y5827
X53386Y2441
X56535Y3071
X50079Y2205
X47323Y14331
X47244Y15984
X48898Y13937
X53937Y14252
X51654Y15197
X49843Y15827
X55827Y18740
X56142Y26299
X57323Y30472
X52441Y30630
X12205Y30709
X7638Y27402
X8740Y22126
X10394Y15669
X13386Y13701
X13858Y9685
X8819Y9606
X149685Y13150
X163543Y12598
X157953Y12598
X52992Y17323
X56299Y21811
X52677Y23386
X29843Y48031
X46555Y20374
X66319Y16614
X67717Y14862
X75512Y14409
X46457Y9449
X78583Y8406
X57776Y19193
X62106Y9252
X77598Y8957
X76280Y9744
X43799Y18799
X43957Y1102
X73819Y787
X94291Y55591
X42717Y16535
X40551Y16634
X33169Y12992
X32480Y5906
X31693Y15472
X39272Y46358
X37500Y5925
X37992Y48524
X93110Y48524
X37343Y10925
X28819Y9350
X36811Y10335
X27362Y8799
X36024Y47146
X91535Y47047
X35492Y8406
X26378Y8091
X50886Y50394
X62697Y34843
X66634Y33622
X68209Y15650
X94193Y15059
X10827Y44783
X13780Y50098
X78642Y56496
X29331Y18898
X26181Y46850
X81594Y46850
X24508Y18012
X43602Y53445
X28642Y56594
X75492Y56693
X22933Y18012
X23228Y40157
X79134Y41634
X22244Y40453
X77559Y42520
X21850Y18209
X21260Y40650
X76575Y42520
X22146Y18898
X20276Y41043
X75591Y42618
X21161Y18799
X70571Y56693
X20177Y18799
X18307Y51083
X19193Y18799
X71949Y45472
X84252Y34154
X86122Y39173
X60748Y25945
X61319Y24508
X64272Y24803
X67618Y32382
X60433Y21457
X66535Y20374
X67815Y20374
X96063Y18602
X117126Y35236
X139961Y37598
X142913Y46457
X115748Y29331
X114567Y27362
X147441Y23622
X147638Y24213
X115846Y22736
X138976Y21752
X141240Y18012
X60236Y5020
M30