G04 EAGLE Gerber RS-274X export*
G75*
%MOIN*%
%FSLAX36Y36*%
%LPD*%
%INBoard Outline*%
%IPPOS*%
%AMOC8*
5,1,8,0,0,1.08239X$1,22.5*%
G01*
%ADD10C,0.010000*%


D10*
X0Y1338583D02*
X7637795Y1338583D01*
X7637795Y4488189D01*
X0Y4488189D01*
X0Y1338583D01*
X980441Y3147415D02*
X980154Y3143043D01*
X979582Y3138698D01*
X978727Y3134400D01*
X977593Y3130167D01*
X976185Y3126018D01*
X974508Y3121969D01*
X972570Y3118039D01*
X970379Y3114244D01*
X967944Y3110601D01*
X965276Y3107124D01*
X962387Y3103830D01*
X959289Y3100731D01*
X955994Y3097842D01*
X952517Y3095174D01*
X948874Y3092740D01*
X945079Y3090548D01*
X941149Y3088610D01*
X937100Y3086933D01*
X932951Y3085525D01*
X928718Y3084391D01*
X924420Y3083536D01*
X920076Y3082964D01*
X915703Y3082677D01*
X911321Y3082677D01*
X906948Y3082964D01*
X902603Y3083536D01*
X898306Y3084391D01*
X894073Y3085525D01*
X889923Y3086933D01*
X885875Y3088610D01*
X881945Y3090548D01*
X878150Y3092740D01*
X874506Y3095174D01*
X871030Y3097842D01*
X867735Y3100731D01*
X864636Y3103830D01*
X861747Y3107124D01*
X859080Y3110601D01*
X856645Y3114244D01*
X854454Y3118039D01*
X852516Y3121969D01*
X850839Y3126018D01*
X849430Y3130167D01*
X848296Y3134400D01*
X847441Y3138698D01*
X846869Y3143043D01*
X846583Y3147415D01*
X846583Y3151797D01*
X846869Y3156170D01*
X847441Y3160515D01*
X848296Y3164813D01*
X849430Y3169045D01*
X850839Y3173195D01*
X852516Y3177243D01*
X854454Y3181173D01*
X856645Y3184968D01*
X859080Y3188612D01*
X861747Y3192088D01*
X864636Y3195383D01*
X867735Y3198482D01*
X871030Y3201371D01*
X874506Y3204039D01*
X878150Y3206473D01*
X881945Y3208664D01*
X885875Y3210602D01*
X889923Y3212279D01*
X894073Y3213688D01*
X898306Y3214822D01*
X902603Y3215677D01*
X906948Y3216249D01*
X911321Y3216535D01*
X915703Y3216535D01*
X920076Y3216249D01*
X924420Y3215677D01*
X928718Y3214822D01*
X932951Y3213688D01*
X937100Y3212279D01*
X941149Y3210602D01*
X945079Y3208664D01*
X948874Y3206473D01*
X952517Y3204039D01*
X955994Y3201371D01*
X959289Y3198482D01*
X962387Y3195383D01*
X965276Y3192088D01*
X967944Y3188612D01*
X970379Y3184968D01*
X972570Y3181173D01*
X974508Y3177243D01*
X976185Y3173195D01*
X977593Y3169045D01*
X978727Y3164813D01*
X979582Y3160515D01*
X980154Y3156170D01*
X980441Y3151797D01*
X980441Y3147415D01*
X6759843Y3147415D02*
X6759556Y3143043D01*
X6758984Y3138698D01*
X6758129Y3134400D01*
X6756995Y3130167D01*
X6755586Y3126018D01*
X6753909Y3121969D01*
X6751971Y3118039D01*
X6749780Y3114244D01*
X6747346Y3110601D01*
X6744678Y3107124D01*
X6741789Y3103830D01*
X6738690Y3100731D01*
X6735396Y3097842D01*
X6731919Y3095174D01*
X6728275Y3092740D01*
X6724480Y3090548D01*
X6720550Y3088610D01*
X6716502Y3086933D01*
X6712352Y3085525D01*
X6708120Y3084391D01*
X6703822Y3083536D01*
X6699477Y3082964D01*
X6695104Y3082677D01*
X6690722Y3082677D01*
X6686350Y3082964D01*
X6682005Y3083536D01*
X6677707Y3084391D01*
X6673475Y3085525D01*
X6669325Y3086933D01*
X6665276Y3088610D01*
X6661346Y3090548D01*
X6657551Y3092740D01*
X6653908Y3095174D01*
X6650431Y3097842D01*
X6647137Y3100731D01*
X6644038Y3103830D01*
X6641149Y3107124D01*
X6638481Y3110601D01*
X6636047Y3114244D01*
X6633856Y3118039D01*
X6631917Y3121969D01*
X6630240Y3126018D01*
X6628832Y3130167D01*
X6627698Y3134400D01*
X6626843Y3138698D01*
X6626271Y3143043D01*
X6625984Y3147415D01*
X6625984Y3151797D01*
X6626271Y3156170D01*
X6626843Y3160515D01*
X6627698Y3164813D01*
X6628832Y3169045D01*
X6630240Y3173195D01*
X6631917Y3177243D01*
X6633856Y3181173D01*
X6636047Y3184968D01*
X6638481Y3188612D01*
X6641149Y3192088D01*
X6644038Y3195383D01*
X6647137Y3198482D01*
X6650431Y3201371D01*
X6653908Y3204039D01*
X6657551Y3206473D01*
X6661346Y3208664D01*
X6665276Y3210602D01*
X6669325Y3212279D01*
X6673475Y3213688D01*
X6677707Y3214822D01*
X6682005Y3215677D01*
X6686350Y3216249D01*
X6690722Y3216535D01*
X6695104Y3216535D01*
X6699477Y3216249D01*
X6703822Y3215677D01*
X6708120Y3214822D01*
X6712352Y3213688D01*
X6716502Y3212279D01*
X6720550Y3210602D01*
X6724480Y3208664D01*
X6728275Y3206473D01*
X6731919Y3204039D01*
X6735396Y3201371D01*
X6738690Y3198482D01*
X6741789Y3195383D01*
X6744678Y3192088D01*
X6747346Y3188612D01*
X6749780Y3184968D01*
X6751971Y3181173D01*
X6753909Y3177243D01*
X6755586Y3173195D01*
X6756995Y3169045D01*
X6758129Y3164813D01*
X6758984Y3160515D01*
X6759556Y3156170D01*
X6759843Y3151797D01*
X6759843Y3147415D01*
X874606Y4161495D02*
X874336Y4157722D01*
X873798Y4153978D01*
X872994Y4150282D01*
X871929Y4146653D01*
X870607Y4143109D01*
X869035Y4139668D01*
X867223Y4136348D01*
X865178Y4133166D01*
X862911Y4130138D01*
X860434Y4127280D01*
X857759Y4124605D01*
X854901Y4122128D01*
X851873Y4119862D01*
X848691Y4117817D01*
X845371Y4116004D01*
X841931Y4114433D01*
X838387Y4113111D01*
X834758Y4112045D01*
X831062Y4111241D01*
X827318Y4110703D01*
X823545Y4110433D01*
X819762Y4110433D01*
X815990Y4110703D01*
X812246Y4111241D01*
X808550Y4112045D01*
X804920Y4113111D01*
X801376Y4114433D01*
X797936Y4116004D01*
X794616Y4117817D01*
X791434Y4119862D01*
X788406Y4122128D01*
X785548Y4124605D01*
X782873Y4127280D01*
X780396Y4130138D01*
X778129Y4133166D01*
X776084Y4136348D01*
X774272Y4139668D01*
X772700Y4143109D01*
X771379Y4146653D01*
X770313Y4150282D01*
X769509Y4153978D01*
X768971Y4157722D01*
X768701Y4161495D01*
X768701Y4165277D01*
X768971Y4169050D01*
X769509Y4172794D01*
X770313Y4176490D01*
X771379Y4180119D01*
X772700Y4183663D01*
X774272Y4187103D01*
X776084Y4190423D01*
X778129Y4193605D01*
X780396Y4196633D01*
X782873Y4199492D01*
X785548Y4202166D01*
X788406Y4204643D01*
X791434Y4206910D01*
X794616Y4208955D01*
X797936Y4210768D01*
X801376Y4212339D01*
X804920Y4213661D01*
X808550Y4214727D01*
X812246Y4215531D01*
X815990Y4216069D01*
X819762Y4216339D01*
X823545Y4216339D01*
X827318Y4216069D01*
X831062Y4215531D01*
X834758Y4214727D01*
X838387Y4213661D01*
X841931Y4212339D01*
X845371Y4210768D01*
X848691Y4208955D01*
X851873Y4206910D01*
X854901Y4204643D01*
X857759Y4202166D01*
X860434Y4199492D01*
X862911Y4196633D01*
X865178Y4193605D01*
X867223Y4190423D01*
X869035Y4187103D01*
X870607Y4183663D01*
X871929Y4180119D01*
X872994Y4176490D01*
X873798Y4172794D01*
X874336Y4169050D01*
X874606Y4165277D01*
X874606Y4161495D01*
X2774606Y4161495D02*
X2774336Y4157722D01*
X2773798Y4153978D01*
X2772994Y4150282D01*
X2771929Y4146653D01*
X2770607Y4143109D01*
X2769035Y4139668D01*
X2767223Y4136348D01*
X2765178Y4133166D01*
X2762911Y4130138D01*
X2760434Y4127280D01*
X2757759Y4124605D01*
X2754901Y4122128D01*
X2751873Y4119862D01*
X2748691Y4117817D01*
X2745371Y4116004D01*
X2741931Y4114433D01*
X2738387Y4113111D01*
X2734758Y4112045D01*
X2731062Y4111241D01*
X2727318Y4110703D01*
X2723545Y4110433D01*
X2719762Y4110433D01*
X2715990Y4110703D01*
X2712246Y4111241D01*
X2708550Y4112045D01*
X2704920Y4113111D01*
X2701376Y4114433D01*
X2697936Y4116004D01*
X2694616Y4117817D01*
X2691434Y4119862D01*
X2688406Y4122128D01*
X2685548Y4124605D01*
X2682873Y4127280D01*
X2680396Y4130138D01*
X2678129Y4133166D01*
X2676084Y4136348D01*
X2674272Y4139668D01*
X2672700Y4143109D01*
X2671379Y4146653D01*
X2670313Y4150282D01*
X2669509Y4153978D01*
X2668971Y4157722D01*
X2668701Y4161495D01*
X2668701Y4165277D01*
X2668971Y4169050D01*
X2669509Y4172794D01*
X2670313Y4176490D01*
X2671379Y4180119D01*
X2672700Y4183663D01*
X2674272Y4187103D01*
X2676084Y4190423D01*
X2678129Y4193605D01*
X2680396Y4196633D01*
X2682873Y4199492D01*
X2685548Y4202166D01*
X2688406Y4204643D01*
X2691434Y4206910D01*
X2694616Y4208955D01*
X2697936Y4210768D01*
X2701376Y4212339D01*
X2704920Y4213661D01*
X2708550Y4214727D01*
X2712246Y4215531D01*
X2715990Y4216069D01*
X2719762Y4216339D01*
X2723545Y4216339D01*
X2727318Y4216069D01*
X2731062Y4215531D01*
X2734758Y4214727D01*
X2738387Y4213661D01*
X2741931Y4212339D01*
X2745371Y4210768D01*
X2748691Y4208955D01*
X2751873Y4206910D01*
X2754901Y4204643D01*
X2757759Y4202166D01*
X2760434Y4199492D01*
X2762911Y4196633D01*
X2765178Y4193605D01*
X2767223Y4190423D01*
X2769035Y4187103D01*
X2770607Y4183663D01*
X2771929Y4180119D01*
X2772994Y4176490D01*
X2773798Y4172794D01*
X2774336Y4169050D01*
X2774606Y4165277D01*
X2774606Y4161495D01*
X3236811Y4161495D02*
X3236541Y4157722D01*
X3236003Y4153978D01*
X3235199Y4150282D01*
X3234133Y4146653D01*
X3232811Y4143109D01*
X3231240Y4139668D01*
X3229427Y4136348D01*
X3227383Y4133166D01*
X3225116Y4130138D01*
X3222639Y4127280D01*
X3219964Y4124605D01*
X3217106Y4122128D01*
X3214078Y4119862D01*
X3210896Y4117817D01*
X3207576Y4116004D01*
X3204135Y4114433D01*
X3200591Y4113111D01*
X3196962Y4112045D01*
X3193266Y4111241D01*
X3189522Y4110703D01*
X3185750Y4110433D01*
X3181967Y4110433D01*
X3178194Y4110703D01*
X3174450Y4111241D01*
X3170754Y4112045D01*
X3167125Y4113111D01*
X3163581Y4114433D01*
X3160141Y4116004D01*
X3156821Y4117817D01*
X3153639Y4119862D01*
X3150611Y4122128D01*
X3147752Y4124605D01*
X3145078Y4127280D01*
X3142601Y4130138D01*
X3140334Y4133166D01*
X3138289Y4136348D01*
X3136476Y4139668D01*
X3134905Y4143109D01*
X3133583Y4146653D01*
X3132518Y4150282D01*
X3131714Y4153978D01*
X3131175Y4157722D01*
X3130906Y4161495D01*
X3130906Y4165277D01*
X3131175Y4169050D01*
X3131714Y4172794D01*
X3132518Y4176490D01*
X3133583Y4180119D01*
X3134905Y4183663D01*
X3136476Y4187103D01*
X3138289Y4190423D01*
X3140334Y4193605D01*
X3142601Y4196633D01*
X3145078Y4199492D01*
X3147752Y4202166D01*
X3150611Y4204643D01*
X3153639Y4206910D01*
X3156821Y4208955D01*
X3160141Y4210768D01*
X3163581Y4212339D01*
X3167125Y4213661D01*
X3170754Y4214727D01*
X3174450Y4215531D01*
X3178194Y4216069D01*
X3181967Y4216339D01*
X3185750Y4216339D01*
X3189522Y4216069D01*
X3193266Y4215531D01*
X3196962Y4214727D01*
X3200591Y4213661D01*
X3204135Y4212339D01*
X3207576Y4210768D01*
X3210896Y4208955D01*
X3214078Y4206910D01*
X3217106Y4204643D01*
X3219964Y4202166D01*
X3222639Y4199492D01*
X3225116Y4196633D01*
X3227383Y4193605D01*
X3229427Y4190423D01*
X3231240Y4187103D01*
X3232811Y4183663D01*
X3234133Y4180119D01*
X3235199Y4176490D01*
X3236003Y4172794D01*
X3236541Y4169050D01*
X3236811Y4165277D01*
X3236811Y4161495D01*
X5136811Y4161495D02*
X5136541Y4157722D01*
X5136003Y4153978D01*
X5135199Y4150282D01*
X5134133Y4146653D01*
X5132811Y4143109D01*
X5131240Y4139668D01*
X5129427Y4136348D01*
X5127383Y4133166D01*
X5125116Y4130138D01*
X5122639Y4127280D01*
X5119964Y4124605D01*
X5117106Y4122128D01*
X5114078Y4119862D01*
X5110896Y4117817D01*
X5107576Y4116004D01*
X5104135Y4114433D01*
X5100591Y4113111D01*
X5096962Y4112045D01*
X5093266Y4111241D01*
X5089522Y4110703D01*
X5085750Y4110433D01*
X5081967Y4110433D01*
X5078194Y4110703D01*
X5074450Y4111241D01*
X5070754Y4112045D01*
X5067125Y4113111D01*
X5063581Y4114433D01*
X5060141Y4116004D01*
X5056821Y4117817D01*
X5053639Y4119862D01*
X5050611Y4122128D01*
X5047752Y4124605D01*
X5045078Y4127280D01*
X5042601Y4130138D01*
X5040334Y4133166D01*
X5038289Y4136348D01*
X5036476Y4139668D01*
X5034905Y4143109D01*
X5033583Y4146653D01*
X5032518Y4150282D01*
X5031714Y4153978D01*
X5031175Y4157722D01*
X5030906Y4161495D01*
X5030906Y4165277D01*
X5031175Y4169050D01*
X5031714Y4172794D01*
X5032518Y4176490D01*
X5033583Y4180119D01*
X5034905Y4183663D01*
X5036476Y4187103D01*
X5038289Y4190423D01*
X5040334Y4193605D01*
X5042601Y4196633D01*
X5045078Y4199492D01*
X5047752Y4202166D01*
X5050611Y4204643D01*
X5053639Y4206910D01*
X5056821Y4208955D01*
X5060141Y4210768D01*
X5063581Y4212339D01*
X5067125Y4213661D01*
X5070754Y4214727D01*
X5074450Y4215531D01*
X5078194Y4216069D01*
X5081967Y4216339D01*
X5085750Y4216339D01*
X5089522Y4216069D01*
X5093266Y4215531D01*
X5096962Y4214727D01*
X5100591Y4213661D01*
X5104135Y4212339D01*
X5107576Y4210768D01*
X5110896Y4208955D01*
X5114078Y4206910D01*
X5117106Y4204643D01*
X5119964Y4202166D01*
X5122639Y4199492D01*
X5125116Y4196633D01*
X5127383Y4193605D01*
X5129427Y4190423D01*
X5131240Y4187103D01*
X5132811Y4183663D01*
X5134133Y4180119D01*
X5135199Y4176490D01*
X5136003Y4172794D01*
X5136541Y4169050D01*
X5136811Y4165277D01*
X5136811Y4161495D01*
X5599016Y4161495D02*
X5598746Y4157722D01*
X5598208Y4153978D01*
X5597404Y4150282D01*
X5596338Y4146653D01*
X5595016Y4143109D01*
X5593445Y4139668D01*
X5591632Y4136348D01*
X5589587Y4133166D01*
X5587320Y4130138D01*
X5584844Y4127280D01*
X5582169Y4124605D01*
X5579310Y4122128D01*
X5576282Y4119862D01*
X5573100Y4117817D01*
X5569781Y4116004D01*
X5566340Y4114433D01*
X5562796Y4113111D01*
X5559167Y4112045D01*
X5555471Y4111241D01*
X5551727Y4110703D01*
X5547954Y4110433D01*
X5544172Y4110433D01*
X5540399Y4110703D01*
X5536655Y4111241D01*
X5532959Y4112045D01*
X5529330Y4113111D01*
X5525786Y4114433D01*
X5522345Y4116004D01*
X5519026Y4117817D01*
X5515844Y4119862D01*
X5512816Y4122128D01*
X5509957Y4124605D01*
X5507282Y4127280D01*
X5504805Y4130138D01*
X5502539Y4133166D01*
X5500494Y4136348D01*
X5498681Y4139668D01*
X5497110Y4143109D01*
X5495788Y4146653D01*
X5494722Y4150282D01*
X5493918Y4153978D01*
X5493380Y4157722D01*
X5493110Y4161495D01*
X5493110Y4165277D01*
X5493380Y4169050D01*
X5493918Y4172794D01*
X5494722Y4176490D01*
X5495788Y4180119D01*
X5497110Y4183663D01*
X5498681Y4187103D01*
X5500494Y4190423D01*
X5502539Y4193605D01*
X5504805Y4196633D01*
X5507282Y4199492D01*
X5509957Y4202166D01*
X5512816Y4204643D01*
X5515844Y4206910D01*
X5519026Y4208955D01*
X5522345Y4210768D01*
X5525786Y4212339D01*
X5529330Y4213661D01*
X5532959Y4214727D01*
X5536655Y4215531D01*
X5540399Y4216069D01*
X5544172Y4216339D01*
X5547954Y4216339D01*
X5551727Y4216069D01*
X5555471Y4215531D01*
X5559167Y4214727D01*
X5562796Y4213661D01*
X5566340Y4212339D01*
X5569781Y4210768D01*
X5573100Y4208955D01*
X5576282Y4206910D01*
X5579310Y4204643D01*
X5582169Y4202166D01*
X5584844Y4199492D01*
X5587320Y4196633D01*
X5589587Y4193605D01*
X5591632Y4190423D01*
X5593445Y4187103D01*
X5595016Y4183663D01*
X5596338Y4180119D01*
X5597404Y4176490D01*
X5598208Y4172794D01*
X5598746Y4169050D01*
X5599016Y4165277D01*
X5599016Y4161495D01*
X7499016Y4161495D02*
X7498746Y4157722D01*
X7498208Y4153978D01*
X7497404Y4150282D01*
X7496338Y4146653D01*
X7495016Y4143109D01*
X7493445Y4139668D01*
X7491632Y4136348D01*
X7489587Y4133166D01*
X7487320Y4130138D01*
X7484844Y4127280D01*
X7482169Y4124605D01*
X7479310Y4122128D01*
X7476282Y4119862D01*
X7473100Y4117817D01*
X7469781Y4116004D01*
X7466340Y4114433D01*
X7462796Y4113111D01*
X7459167Y4112045D01*
X7455471Y4111241D01*
X7451727Y4110703D01*
X7447954Y4110433D01*
X7444172Y4110433D01*
X7440399Y4110703D01*
X7436655Y4111241D01*
X7432959Y4112045D01*
X7429330Y4113111D01*
X7425786Y4114433D01*
X7422345Y4116004D01*
X7419026Y4117817D01*
X7415844Y4119862D01*
X7412816Y4122128D01*
X7409957Y4124605D01*
X7407282Y4127280D01*
X7404805Y4130138D01*
X7402539Y4133166D01*
X7400494Y4136348D01*
X7398681Y4139668D01*
X7397110Y4143109D01*
X7395788Y4146653D01*
X7394722Y4150282D01*
X7393918Y4153978D01*
X7393380Y4157722D01*
X7393110Y4161495D01*
X7393110Y4165277D01*
X7393380Y4169050D01*
X7393918Y4172794D01*
X7394722Y4176490D01*
X7395788Y4180119D01*
X7397110Y4183663D01*
X7398681Y4187103D01*
X7400494Y4190423D01*
X7402539Y4193605D01*
X7404805Y4196633D01*
X7407282Y4199492D01*
X7409957Y4202166D01*
X7412816Y4204643D01*
X7415844Y4206910D01*
X7419026Y4208955D01*
X7422345Y4210768D01*
X7425786Y4212339D01*
X7429330Y4213661D01*
X7432959Y4214727D01*
X7436655Y4215531D01*
X7440399Y4216069D01*
X7444172Y4216339D01*
X7447954Y4216339D01*
X7451727Y4216069D01*
X7455471Y4215531D01*
X7459167Y4214727D01*
X7462796Y4213661D01*
X7466340Y4212339D01*
X7469781Y4210768D01*
X7473100Y4208955D01*
X7476282Y4206910D01*
X7479310Y4204643D01*
X7482169Y4202166D01*
X7484844Y4199492D01*
X7487320Y4196633D01*
X7489587Y4193605D01*
X7491632Y4190423D01*
X7493445Y4187103D01*
X7495016Y4183663D01*
X7496338Y4180119D01*
X7497404Y4176490D01*
X7498208Y4172794D01*
X7498746Y4169050D01*
X7499016Y4165277D01*
X7499016Y4161495D01*
M02*
