G04 EAGLE Gerber RS-274X export*
G75*
%MOIN*%
%FSLAX36Y36*%
%LPD*%
%INInternal Plane 1*%
%IPPOS*%
%AMOC8*
5,1,8,0,0,1.08239X$1,22.5*%
G01*
%ADD10C,0.007000*%
%ADD11C,0.064961*%
%ADD12C,0.066000*%
%ADD13C,0.058189*%
%ADD14C,0.145906*%
%ADD15C,0.060000*%
%ADD16C,0.059370*%
%ADD17C,0.126614*%
%ADD18C,0.055039*%
%ADD19C,0.027811*%

G36*
X7594872Y1378596D02*
X7594872Y1378596D01*
X7594949Y1378587D01*
X7595349Y1378674D01*
X7595751Y1378740D01*
X7595820Y1378776D01*
X7595896Y1378792D01*
X7596247Y1379002D01*
X7596608Y1379193D01*
X7596661Y1379249D01*
X7596728Y1379289D01*
X7596993Y1379599D01*
X7597275Y1379895D01*
X7597308Y1379966D01*
X7597358Y1380024D01*
X7597511Y1380403D01*
X7597683Y1380773D01*
X7597692Y1380851D01*
X7597721Y1380922D01*
X7597795Y1381583D01*
X7597795Y4445189D01*
X7597782Y4445266D01*
X7597791Y4445343D01*
X7597704Y4445742D01*
X7597638Y4446145D01*
X7597602Y4446213D01*
X7597585Y4446289D01*
X7597376Y4446641D01*
X7597185Y4447001D01*
X7597129Y4447055D01*
X7597089Y4447121D01*
X7596779Y4447387D01*
X7596483Y4447669D01*
X7596412Y4447701D01*
X7596353Y4447752D01*
X7595975Y4447905D01*
X7595604Y4448077D01*
X7595527Y4448086D01*
X7595455Y4448115D01*
X7594795Y4448188D01*
X43000Y4448188D01*
X42923Y4448176D01*
X42846Y4448184D01*
X42446Y4448098D01*
X42044Y4448032D01*
X41975Y4447996D01*
X41899Y4447979D01*
X41548Y4447770D01*
X41188Y4447579D01*
X41134Y4447523D01*
X41068Y4447483D01*
X40802Y4447173D01*
X40520Y4446876D01*
X40487Y4446806D01*
X40437Y4446747D01*
X40284Y4446369D01*
X40112Y4445998D01*
X40103Y4445921D01*
X40074Y4445849D01*
X40001Y4445189D01*
X40001Y1381583D01*
X40013Y1381506D01*
X40005Y1381429D01*
X40091Y1381029D01*
X40157Y1380626D01*
X40193Y1380558D01*
X40210Y1380482D01*
X40419Y1380131D01*
X40610Y1379770D01*
X40666Y1379717D01*
X40706Y1379650D01*
X41016Y1379385D01*
X41312Y1379103D01*
X41383Y1379070D01*
X41442Y1379020D01*
X41820Y1378867D01*
X42191Y1378695D01*
X42268Y1378686D01*
X42340Y1378657D01*
X43000Y1378583D01*
X7594795Y1378583D01*
X7594872Y1378596D01*
G37*
%LPC*%
G36*
X7219229Y1406448D02*
X7219229Y1406448D01*
X7217472Y1408206D01*
X7217472Y1568172D01*
X7219229Y1569930D01*
X7576046Y1569930D01*
X7577804Y1568172D01*
X7577804Y1408206D01*
X7576046Y1406448D01*
X7219229Y1406448D01*
G37*
%LPD*%
%LPC*%
G36*
X899434Y3042676D02*
X899434Y3042676D01*
X872238Y3049963D01*
X847855Y3064041D01*
X827947Y3083950D01*
X813869Y3108333D01*
X806582Y3135529D01*
X806582Y3163684D01*
X813869Y3190880D01*
X827947Y3215263D01*
X847855Y3235171D01*
X872238Y3249249D01*
X899434Y3256536D01*
X927589Y3256536D01*
X954785Y3249249D01*
X979168Y3235171D01*
X999077Y3215263D01*
X1013155Y3190880D01*
X1020442Y3163684D01*
X1020442Y3135529D01*
X1013155Y3108333D01*
X999077Y3083950D01*
X979168Y3064041D01*
X954785Y3049963D01*
X927589Y3042676D01*
X899434Y3042676D01*
G37*
%LPD*%
%LPC*%
G36*
X6678836Y3042676D02*
X6678836Y3042676D01*
X6651640Y3049963D01*
X6627257Y3064041D01*
X6607348Y3083950D01*
X6593271Y3108333D01*
X6585984Y3135529D01*
X6585984Y3163684D01*
X6593271Y3190880D01*
X6607348Y3215263D01*
X6627257Y3235171D01*
X6651640Y3249249D01*
X6678836Y3256536D01*
X6706991Y3256536D01*
X6734187Y3249249D01*
X6758570Y3235171D01*
X6778478Y3215263D01*
X6792556Y3190880D01*
X6799843Y3163684D01*
X6799843Y3135529D01*
X6792556Y3108333D01*
X6778478Y3083950D01*
X6758570Y3064041D01*
X6734187Y3049963D01*
X6706991Y3042676D01*
X6678836Y3042676D01*
G37*
%LPD*%
%LPC*%
G36*
X2703164Y4070432D02*
X2703164Y4070432D01*
X2669000Y4084584D01*
X2642851Y4110732D01*
X2628700Y4144896D01*
X2628700Y4181875D01*
X2642851Y4216040D01*
X2669000Y4242188D01*
X2703164Y4256339D01*
X2740143Y4256339D01*
X2774307Y4242188D01*
X2800456Y4216040D01*
X2814607Y4181875D01*
X2814607Y4144896D01*
X2800456Y4110732D01*
X2774307Y4084584D01*
X2740143Y4070432D01*
X2703164Y4070432D01*
G37*
%LPD*%
%LPC*%
G36*
X5065368Y4070432D02*
X5065368Y4070432D01*
X5031204Y4084584D01*
X5005056Y4110732D01*
X4990905Y4144896D01*
X4990905Y4181875D01*
X5005056Y4216040D01*
X5031204Y4242188D01*
X5065368Y4256339D01*
X5102348Y4256339D01*
X5136512Y4242188D01*
X5162660Y4216040D01*
X5176812Y4181875D01*
X5176812Y4144896D01*
X5162660Y4110732D01*
X5136512Y4084584D01*
X5102348Y4070432D01*
X5065368Y4070432D01*
G37*
%LPD*%
%LPC*%
G36*
X7427573Y4070432D02*
X7427573Y4070432D01*
X7393409Y4084584D01*
X7367261Y4110732D01*
X7353109Y4144896D01*
X7353109Y4181875D01*
X7367261Y4216040D01*
X7393409Y4242188D01*
X7427573Y4256339D01*
X7464553Y4256339D01*
X7498717Y4242188D01*
X7524865Y4216040D01*
X7539016Y4181875D01*
X7539016Y4144896D01*
X7524865Y4110732D01*
X7498717Y4084584D01*
X7464553Y4070432D01*
X7427573Y4070432D01*
G37*
%LPD*%
%LPC*%
G36*
X3165368Y4070432D02*
X3165368Y4070432D01*
X3131204Y4084584D01*
X3105056Y4110732D01*
X3090905Y4144896D01*
X3090905Y4181875D01*
X3105056Y4216040D01*
X3131204Y4242188D01*
X3165368Y4256339D01*
X3202348Y4256339D01*
X3236512Y4242188D01*
X3262660Y4216040D01*
X3276812Y4181875D01*
X3276812Y4144896D01*
X3262660Y4110732D01*
X3236512Y4084584D01*
X3202348Y4070432D01*
X3165368Y4070432D01*
G37*
%LPD*%
%LPC*%
G36*
X803164Y4070432D02*
X803164Y4070432D01*
X769000Y4084584D01*
X742851Y4110732D01*
X728700Y4144896D01*
X728700Y4181875D01*
X742851Y4216040D01*
X769000Y4242188D01*
X803164Y4256339D01*
X840143Y4256339D01*
X874307Y4242188D01*
X900456Y4216040D01*
X914607Y4181875D01*
X914607Y4144896D01*
X900456Y4110732D01*
X874307Y4084584D01*
X840143Y4070432D01*
X803164Y4070432D01*
G37*
%LPD*%
%LPC*%
G36*
X5527573Y4070432D02*
X5527573Y4070432D01*
X5493409Y4084584D01*
X5467261Y4110732D01*
X5453109Y4144896D01*
X5453109Y4181875D01*
X5467261Y4216040D01*
X5493409Y4242188D01*
X5527573Y4256339D01*
X5564553Y4256339D01*
X5598717Y4242188D01*
X5624865Y4216040D01*
X5639016Y4181875D01*
X5639016Y4144896D01*
X5624865Y4110732D01*
X5598717Y4084584D01*
X5564553Y4070432D01*
X5527573Y4070432D01*
G37*
%LPD*%
%LPC*%
G36*
X6148074Y3410417D02*
X6148074Y3410417D01*
X6119056Y3422436D01*
X6096846Y3444647D01*
X6084826Y3473665D01*
X6084826Y3505075D01*
X6096846Y3534094D01*
X6119056Y3556304D01*
X6148074Y3568323D01*
X6179484Y3568323D01*
X6208503Y3556304D01*
X6230713Y3534094D01*
X6242733Y3505075D01*
X6242733Y3473665D01*
X6230713Y3444647D01*
X6208503Y3422436D01*
X6179484Y3410417D01*
X6148074Y3410417D01*
G37*
%LPD*%
%LPC*%
G36*
X6148074Y2310417D02*
X6148074Y2310417D01*
X6119056Y2322436D01*
X6096846Y2344647D01*
X6084826Y2373665D01*
X6084826Y2405075D01*
X6096846Y2434094D01*
X6119056Y2456304D01*
X6148074Y2468323D01*
X6179484Y2468323D01*
X6208503Y2456304D01*
X6230713Y2434094D01*
X6242733Y2405075D01*
X6242733Y2373665D01*
X6230713Y2344647D01*
X6208503Y2322436D01*
X6179484Y2310417D01*
X6148074Y2310417D01*
G37*
%LPD*%
%LPC*%
G36*
X531489Y3614944D02*
X531489Y3614944D01*
X506016Y3625496D01*
X486519Y3644992D01*
X475968Y3670466D01*
X475968Y3698038D01*
X486519Y3723512D01*
X506016Y3743008D01*
X531489Y3753560D01*
X559062Y3753560D01*
X584535Y3743008D01*
X604032Y3723512D01*
X614583Y3698038D01*
X614583Y3670466D01*
X604032Y3644992D01*
X584535Y3625496D01*
X559062Y3614944D01*
X531489Y3614944D01*
G37*
%LPD*%
%LPC*%
G36*
X185032Y3614944D02*
X185032Y3614944D01*
X159559Y3625496D01*
X140063Y3644992D01*
X129511Y3670466D01*
X129511Y3698038D01*
X140063Y3723512D01*
X159559Y3743008D01*
X185032Y3753560D01*
X212605Y3753560D01*
X238078Y3743008D01*
X257575Y3723512D01*
X268127Y3698038D01*
X268127Y3670466D01*
X257575Y3644992D01*
X238078Y3625496D01*
X212605Y3614944D01*
X185032Y3614944D01*
G37*
%LPD*%
%LPC*%
G36*
X4785259Y1818212D02*
X4785259Y1818212D01*
X4771116Y1824070D01*
X4760291Y1834895D01*
X4754432Y1849038D01*
X4754432Y1864347D01*
X4760291Y1878491D01*
X4766223Y1884422D01*
X4766387Y1884651D01*
X4766581Y1884856D01*
X4766668Y1885043D01*
X4766788Y1885209D01*
X4766871Y1885478D01*
X4766990Y1885734D01*
X4767013Y1885938D01*
X4767073Y1886135D01*
X4767066Y1886417D01*
X4767097Y1886697D01*
X4767054Y1886898D01*
X4767048Y1887103D01*
X4766952Y1887368D01*
X4766892Y1887644D01*
X4766787Y1887820D01*
X4766716Y1888013D01*
X4766540Y1888233D01*
X4766396Y1888476D01*
X4766240Y1888609D01*
X4766111Y1888770D01*
X4765874Y1888922D01*
X4765660Y1889106D01*
X4765469Y1889183D01*
X4765297Y1889294D01*
X4765023Y1889363D01*
X4764762Y1889469D01*
X4764482Y1889500D01*
X4764357Y1889532D01*
X4764264Y1889524D01*
X4764102Y1889543D01*
X4755534Y1889543D01*
X4743873Y1901203D01*
X4743873Y1917694D01*
X4755534Y1929355D01*
X4758590Y1929355D01*
X4758868Y1929400D01*
X4759150Y1929408D01*
X4759344Y1929478D01*
X4759546Y1929511D01*
X4759795Y1929643D01*
X4760060Y1929740D01*
X4760221Y1929868D01*
X4760402Y1929964D01*
X4760596Y1930169D01*
X4760817Y1930345D01*
X4760928Y1930518D01*
X4761070Y1930667D01*
X4761189Y1930923D01*
X4761341Y1931160D01*
X4761391Y1931359D01*
X4761478Y1931545D01*
X4761509Y1931826D01*
X4761578Y1932099D01*
X4761563Y1932304D01*
X4761585Y1932508D01*
X4761526Y1932784D01*
X4761504Y1933065D01*
X4761424Y1933254D01*
X4761380Y1933455D01*
X4761236Y1933697D01*
X4761125Y1933956D01*
X4760949Y1934177D01*
X4760884Y1934287D01*
X4760813Y1934347D01*
X4760711Y1934475D01*
X4760290Y1934895D01*
X4754432Y1949038D01*
X4754432Y1964347D01*
X4760291Y1978491D01*
X4771116Y1989316D01*
X4785259Y1995174D01*
X4800568Y1995174D01*
X4814711Y1989316D01*
X4825536Y1978491D01*
X4831394Y1964347D01*
X4831394Y1949038D01*
X4825536Y1934895D01*
X4814711Y1924070D01*
X4800568Y1918212D01*
X4786685Y1918212D01*
X4786608Y1918199D01*
X4786531Y1918208D01*
X4786132Y1918121D01*
X4785729Y1918055D01*
X4785660Y1918019D01*
X4785585Y1918003D01*
X4785233Y1917793D01*
X4784873Y1917602D01*
X4784819Y1917546D01*
X4784753Y1917506D01*
X4784487Y1917197D01*
X4784205Y1916900D01*
X4784172Y1916830D01*
X4784122Y1916771D01*
X4783969Y1916392D01*
X4783797Y1916022D01*
X4783788Y1915945D01*
X4783759Y1915873D01*
X4783686Y1915213D01*
X4783686Y1901203D01*
X4782776Y1900294D01*
X4782612Y1900065D01*
X4782417Y1899861D01*
X4782331Y1899674D01*
X4782211Y1899507D01*
X4782128Y1899238D01*
X4782009Y1898982D01*
X4781986Y1898778D01*
X4781926Y1898582D01*
X4781933Y1898300D01*
X4781902Y1898019D01*
X4781945Y1897818D01*
X4781950Y1897613D01*
X4782047Y1897349D01*
X4782107Y1897073D01*
X4782212Y1896896D01*
X4782283Y1896703D01*
X4782459Y1896483D01*
X4782603Y1896241D01*
X4782759Y1896107D01*
X4782887Y1895946D01*
X4783125Y1895794D01*
X4783339Y1895610D01*
X4783529Y1895533D01*
X4783702Y1895422D01*
X4783976Y1895353D01*
X4784237Y1895247D01*
X4784517Y1895216D01*
X4784641Y1895185D01*
X4784734Y1895192D01*
X4784897Y1895174D01*
X4800568Y1895174D01*
X4814711Y1889316D01*
X4825536Y1878491D01*
X4831394Y1864347D01*
X4831394Y1849038D01*
X4825536Y1834895D01*
X4814711Y1824070D01*
X4800568Y1818212D01*
X4785259Y1818212D01*
G37*
%LPD*%
%LPC*%
G36*
X4853959Y2214346D02*
X4853959Y2214346D01*
X4842298Y2226007D01*
X4842298Y2242497D01*
X4848397Y2248596D01*
X4848562Y2248825D01*
X4848756Y2249029D01*
X4848843Y2249216D01*
X4848962Y2249382D01*
X4849045Y2249652D01*
X4849164Y2249907D01*
X4849187Y2250112D01*
X4849248Y2250308D01*
X4849240Y2250590D01*
X4849272Y2250870D01*
X4849228Y2251071D01*
X4849223Y2251277D01*
X4849126Y2251541D01*
X4849066Y2251817D01*
X4848961Y2251994D01*
X4848891Y2252187D01*
X4848715Y2252407D01*
X4848570Y2252649D01*
X4848414Y2252783D01*
X4848286Y2252943D01*
X4848049Y2253096D01*
X4847834Y2253279D01*
X4847644Y2253356D01*
X4847471Y2253468D01*
X4847198Y2253537D01*
X4846936Y2253642D01*
X4846656Y2253673D01*
X4846532Y2253705D01*
X4846439Y2253698D01*
X4846276Y2253716D01*
X4844117Y2253716D01*
X4836514Y2261318D01*
X4836286Y2261483D01*
X4836081Y2261677D01*
X4835894Y2261764D01*
X4835728Y2261884D01*
X4835458Y2261967D01*
X4835203Y2262086D01*
X4834998Y2262108D01*
X4834802Y2262169D01*
X4834520Y2262162D01*
X4834240Y2262193D01*
X4834039Y2262149D01*
X4833834Y2262144D01*
X4833569Y2262047D01*
X4833293Y2261988D01*
X4833117Y2261882D01*
X4832924Y2261812D01*
X4832703Y2261636D01*
X4832461Y2261491D01*
X4832327Y2261335D01*
X4832167Y2261207D01*
X4832015Y2260970D01*
X4831831Y2260756D01*
X4831754Y2260565D01*
X4831643Y2260392D01*
X4831574Y2260119D01*
X4831468Y2259858D01*
X4831437Y2259577D01*
X4831405Y2259453D01*
X4831412Y2259360D01*
X4831394Y2259197D01*
X4831394Y2249038D01*
X4825536Y2234895D01*
X4814711Y2224070D01*
X4800568Y2218212D01*
X4785259Y2218212D01*
X4771116Y2224070D01*
X4760291Y2234895D01*
X4754432Y2249038D01*
X4754432Y2264347D01*
X4760291Y2278491D01*
X4771116Y2289316D01*
X4785259Y2295174D01*
X4800568Y2295174D01*
X4814711Y2289316D01*
X4825536Y2278491D01*
X4826686Y2275715D01*
X4826888Y2275388D01*
X4827067Y2275050D01*
X4827142Y2274979D01*
X4827196Y2274891D01*
X4827491Y2274647D01*
X4827769Y2274383D01*
X4827863Y2274339D01*
X4827942Y2274274D01*
X4828300Y2274136D01*
X4828648Y2273974D01*
X4828750Y2273963D01*
X4828846Y2273926D01*
X4829229Y2273910D01*
X4829610Y2273867D01*
X4829711Y2273889D01*
X4829814Y2273885D01*
X4830182Y2273991D01*
X4830557Y2274072D01*
X4830646Y2274125D01*
X4830745Y2274154D01*
X4831060Y2274372D01*
X4831389Y2274569D01*
X4831456Y2274647D01*
X4831541Y2274706D01*
X4831770Y2275014D01*
X4832019Y2275304D01*
X4832058Y2275400D01*
X4832120Y2275483D01*
X4832239Y2275847D01*
X4832382Y2276202D01*
X4832397Y2276330D01*
X4832421Y2276404D01*
X4832420Y2276535D01*
X4832456Y2276862D01*
X4832456Y2281867D01*
X4844117Y2293528D01*
X4860608Y2293528D01*
X4872268Y2281867D01*
X4872268Y2265377D01*
X4866170Y2259278D01*
X4866005Y2259049D01*
X4865811Y2258845D01*
X4865724Y2258658D01*
X4865604Y2258492D01*
X4865522Y2258222D01*
X4865403Y2257966D01*
X4865380Y2257762D01*
X4865319Y2257566D01*
X4865327Y2257284D01*
X4865295Y2257004D01*
X4865339Y2256803D01*
X4865344Y2256597D01*
X4865441Y2256333D01*
X4865500Y2256057D01*
X4865606Y2255880D01*
X4865676Y2255687D01*
X4865852Y2255467D01*
X4865997Y2255225D01*
X4866153Y2255091D01*
X4866281Y2254931D01*
X4866518Y2254778D01*
X4866732Y2254595D01*
X4866923Y2254517D01*
X4867096Y2254406D01*
X4867369Y2254337D01*
X4867631Y2254232D01*
X4867911Y2254200D01*
X4868035Y2254169D01*
X4868128Y2254176D01*
X4868291Y2254158D01*
X4870450Y2254158D01*
X4879769Y2244839D01*
X4879832Y2244794D01*
X4879880Y2244733D01*
X4880224Y2244512D01*
X4880555Y2244274D01*
X4880630Y2244251D01*
X4880695Y2244209D01*
X4881090Y2244109D01*
X4881481Y2243989D01*
X4881559Y2243991D01*
X4881634Y2243972D01*
X4882041Y2244003D01*
X4882450Y2244014D01*
X4882523Y2244040D01*
X4882600Y2244046D01*
X4882976Y2244205D01*
X4883360Y2244346D01*
X4883420Y2244394D01*
X4883492Y2244424D01*
X4884010Y2244839D01*
X4893329Y2254158D01*
X4909820Y2254158D01*
X4919139Y2244839D01*
X4919202Y2244794D01*
X4919250Y2244733D01*
X4919594Y2244512D01*
X4919926Y2244274D01*
X4920000Y2244251D01*
X4920065Y2244209D01*
X4920461Y2244109D01*
X4920851Y2243989D01*
X4920929Y2243991D01*
X4921004Y2243972D01*
X4921411Y2244003D01*
X4921820Y2244014D01*
X4921893Y2244040D01*
X4921970Y2244046D01*
X4922346Y2244205D01*
X4922730Y2244346D01*
X4922790Y2244394D01*
X4922862Y2244424D01*
X4923381Y2244839D01*
X4932699Y2254158D01*
X4949190Y2254158D01*
X4960851Y2242497D01*
X4960851Y2226007D01*
X4949190Y2214346D01*
X4932699Y2214346D01*
X4923381Y2223665D01*
X4923318Y2223710D01*
X4923269Y2223771D01*
X4922925Y2223992D01*
X4922594Y2224230D01*
X4922520Y2224253D01*
X4922454Y2224295D01*
X4922059Y2224395D01*
X4921668Y2224515D01*
X4921590Y2224513D01*
X4921515Y2224532D01*
X4921109Y2224501D01*
X4920700Y2224490D01*
X4920627Y2224464D01*
X4920549Y2224458D01*
X4920173Y2224298D01*
X4919790Y2224158D01*
X4919729Y2224110D01*
X4919658Y2224079D01*
X4919139Y2223665D01*
X4909820Y2214346D01*
X4893329Y2214346D01*
X4884010Y2223665D01*
X4883947Y2223710D01*
X4883899Y2223771D01*
X4883555Y2223992D01*
X4883224Y2224230D01*
X4883150Y2224253D01*
X4883084Y2224295D01*
X4882689Y2224395D01*
X4882298Y2224515D01*
X4882220Y2224513D01*
X4882145Y2224532D01*
X4881739Y2224501D01*
X4881330Y2224490D01*
X4881257Y2224464D01*
X4881179Y2224458D01*
X4880803Y2224298D01*
X4880420Y2224158D01*
X4880359Y2224110D01*
X4880288Y2224079D01*
X4879769Y2223665D01*
X4870450Y2214346D01*
X4853959Y2214346D01*
G37*
%LPD*%
%LPC*%
G36*
X2186636Y4015527D02*
X2186636Y4015527D01*
X2174976Y4027188D01*
X2174976Y4043678D01*
X2184295Y4052997D01*
X2184340Y4053060D01*
X2184400Y4053109D01*
X2184622Y4053453D01*
X2184860Y4053784D01*
X2184883Y4053858D01*
X2184925Y4053923D01*
X2185025Y4054319D01*
X2185145Y4054710D01*
X2185143Y4054787D01*
X2185162Y4054862D01*
X2185131Y4055269D01*
X2185120Y4055678D01*
X2185094Y4055751D01*
X2185088Y4055828D01*
X2184928Y4056204D01*
X2184788Y4056588D01*
X2184740Y4056649D01*
X2184709Y4056720D01*
X2184295Y4057239D01*
X2174976Y4066558D01*
X2174976Y4083049D01*
X2176515Y4084588D01*
X2176679Y4084816D01*
X2176874Y4085021D01*
X2176961Y4085208D01*
X2177080Y4085374D01*
X2177164Y4085644D01*
X2177282Y4085900D01*
X2177305Y4086103D01*
X2177366Y4086300D01*
X2177358Y4086582D01*
X2177390Y4086862D01*
X2177346Y4087063D01*
X2177341Y4087269D01*
X2177244Y4087533D01*
X2177184Y4087809D01*
X2177079Y4087986D01*
X2177009Y4088179D01*
X2176833Y4088399D01*
X2176688Y4088641D01*
X2176532Y4088775D01*
X2176404Y4088935D01*
X2176167Y4089088D01*
X2175953Y4089271D01*
X2175762Y4089348D01*
X2175589Y4089460D01*
X2175316Y4089529D01*
X2175054Y4089634D01*
X2174774Y4089666D01*
X2174650Y4089697D01*
X2174557Y4089690D01*
X2174394Y4089708D01*
X2164986Y4089708D01*
X2152666Y4094811D01*
X2143236Y4104241D01*
X2138133Y4116561D01*
X2138133Y4129896D01*
X2143236Y4142216D01*
X2152666Y4151646D01*
X2164986Y4156749D01*
X2178321Y4156749D01*
X2190641Y4151646D01*
X2200071Y4142216D01*
X2205174Y4129896D01*
X2205174Y4116561D01*
X2200071Y4104241D01*
X2195659Y4099829D01*
X2195495Y4099601D01*
X2195301Y4099396D01*
X2195214Y4099209D01*
X2195094Y4099043D01*
X2195011Y4098773D01*
X2194892Y4098518D01*
X2194869Y4098313D01*
X2194809Y4098117D01*
X2194816Y4097835D01*
X2194785Y4097555D01*
X2194828Y4097354D01*
X2194834Y4097148D01*
X2194930Y4096884D01*
X2194990Y4096608D01*
X2195095Y4096431D01*
X2195166Y4096239D01*
X2195342Y4096018D01*
X2195486Y4095776D01*
X2195642Y4095642D01*
X2195771Y4095482D01*
X2196008Y4095329D01*
X2196222Y4095146D01*
X2196413Y4095069D01*
X2196585Y4094958D01*
X2196859Y4094889D01*
X2197120Y4094783D01*
X2197400Y4094752D01*
X2197525Y4094720D01*
X2197618Y4094727D01*
X2197780Y4094709D01*
X2203127Y4094709D01*
X2214788Y4083048D01*
X2214788Y4066558D01*
X2205469Y4057239D01*
X2205424Y4057176D01*
X2205363Y4057127D01*
X2205142Y4056783D01*
X2204904Y4056452D01*
X2204881Y4056378D01*
X2204839Y4056313D01*
X2204739Y4055917D01*
X2204619Y4055526D01*
X2204621Y4055449D01*
X2204602Y4055374D01*
X2204633Y4054967D01*
X2204643Y4054558D01*
X2204670Y4054485D01*
X2204676Y4054408D01*
X2204836Y4054032D01*
X2204976Y4053648D01*
X2205024Y4053587D01*
X2205054Y4053516D01*
X2205469Y4052997D01*
X2214788Y4043678D01*
X2214788Y4027188D01*
X2203127Y4015527D01*
X2186636Y4015527D01*
G37*
%LPD*%
%LPC*%
G36*
X5097857Y2218212D02*
X5097857Y2218212D01*
X5083714Y2224070D01*
X5072889Y2234895D01*
X5067031Y2249038D01*
X5067031Y2264347D01*
X5067472Y2265412D01*
X5067503Y2265544D01*
X5067508Y2265556D01*
X5067511Y2265577D01*
X5067560Y2265786D01*
X5067672Y2266151D01*
X5067670Y2266254D01*
X5067693Y2266355D01*
X5067657Y2266736D01*
X5067647Y2267120D01*
X5067612Y2267217D01*
X5067602Y2267319D01*
X5067447Y2267669D01*
X5067315Y2268030D01*
X5067251Y2268110D01*
X5067209Y2268204D01*
X5066950Y2268486D01*
X5066710Y2268786D01*
X5066623Y2268842D01*
X5066554Y2268918D01*
X5066218Y2269103D01*
X5065896Y2269311D01*
X5065796Y2269336D01*
X5065705Y2269386D01*
X5065328Y2269454D01*
X5064956Y2269548D01*
X5064854Y2269540D01*
X5064752Y2269558D01*
X5064373Y2269503D01*
X5063991Y2269474D01*
X5063896Y2269433D01*
X5063794Y2269418D01*
X5063452Y2269245D01*
X5063099Y2269095D01*
X5062998Y2269015D01*
X5062930Y2268980D01*
X5062838Y2268887D01*
X5062580Y2268680D01*
X5057458Y2263558D01*
X5040967Y2263558D01*
X5029306Y2275219D01*
X5029306Y2291710D01*
X5040967Y2303371D01*
X5057458Y2303371D01*
X5069119Y2291710D01*
X5069119Y2281961D01*
X5069164Y2281683D01*
X5069172Y2281401D01*
X5069242Y2281207D01*
X5069275Y2281005D01*
X5069407Y2280756D01*
X5069504Y2280491D01*
X5069632Y2280330D01*
X5069728Y2280149D01*
X5069932Y2279955D01*
X5070109Y2279734D01*
X5070281Y2279623D01*
X5070430Y2279481D01*
X5070686Y2279362D01*
X5070923Y2279210D01*
X5071122Y2279160D01*
X5071309Y2279073D01*
X5071589Y2279042D01*
X5071862Y2278973D01*
X5072067Y2278988D01*
X5072272Y2278966D01*
X5072548Y2279025D01*
X5072828Y2279047D01*
X5073017Y2279127D01*
X5073218Y2279171D01*
X5073460Y2279315D01*
X5073720Y2279425D01*
X5073941Y2279602D01*
X5074050Y2279667D01*
X5074111Y2279738D01*
X5074239Y2279840D01*
X5083714Y2289316D01*
X5097857Y2295174D01*
X5113166Y2295174D01*
X5127309Y2289316D01*
X5138134Y2278491D01*
X5143993Y2264347D01*
X5143993Y2249038D01*
X5138134Y2234895D01*
X5127309Y2224070D01*
X5113166Y2218212D01*
X5097857Y2218212D01*
G37*
%LPD*%
%LPC*%
G36*
X5079197Y1790938D02*
X5079197Y1790938D01*
X5078935Y1791044D01*
X5078655Y1791075D01*
X5078531Y1791106D01*
X5078438Y1791099D01*
X5078275Y1791117D01*
X5060652Y1791117D01*
X5048991Y1802778D01*
X5048991Y1819269D01*
X5060652Y1830930D01*
X5070043Y1830930D01*
X5070221Y1830959D01*
X5070401Y1830951D01*
X5070696Y1831037D01*
X5070999Y1831086D01*
X5071158Y1831170D01*
X5071331Y1831220D01*
X5071584Y1831396D01*
X5071855Y1831539D01*
X5071979Y1831670D01*
X5072127Y1831772D01*
X5072311Y1832019D01*
X5072523Y1832242D01*
X5072599Y1832405D01*
X5072706Y1832549D01*
X5072802Y1832842D01*
X5072931Y1833120D01*
X5072951Y1833299D01*
X5073007Y1833470D01*
X5073004Y1833777D01*
X5073038Y1834083D01*
X5073000Y1834259D01*
X5072999Y1834439D01*
X5072849Y1834954D01*
X5072833Y1835029D01*
X5072822Y1835047D01*
X5072814Y1835077D01*
X5067031Y1849038D01*
X5067031Y1864347D01*
X5072889Y1878491D01*
X5083714Y1889316D01*
X5097857Y1895174D01*
X5113166Y1895174D01*
X5127309Y1889316D01*
X5138134Y1878491D01*
X5143993Y1864347D01*
X5143993Y1849038D01*
X5138134Y1834895D01*
X5127309Y1824070D01*
X5113166Y1818212D01*
X5097857Y1818212D01*
X5092951Y1820244D01*
X5092775Y1820285D01*
X5092612Y1820361D01*
X5092307Y1820395D01*
X5092008Y1820466D01*
X5091828Y1820449D01*
X5091649Y1820469D01*
X5091349Y1820404D01*
X5091043Y1820375D01*
X5090879Y1820302D01*
X5090703Y1820263D01*
X5090439Y1820106D01*
X5090158Y1819981D01*
X5090025Y1819859D01*
X5089871Y1819767D01*
X5089671Y1819534D01*
X5089444Y1819326D01*
X5089357Y1819168D01*
X5089240Y1819031D01*
X5089125Y1818747D01*
X5088977Y1818478D01*
X5088945Y1818300D01*
X5088877Y1818133D01*
X5088818Y1817597D01*
X5088804Y1817524D01*
X5088807Y1817504D01*
X5088804Y1817473D01*
X5088804Y1802778D01*
X5080082Y1794057D01*
X5079858Y1793745D01*
X5079614Y1793450D01*
X5079577Y1793354D01*
X5079517Y1793270D01*
X5079404Y1792904D01*
X5079267Y1792546D01*
X5079262Y1792443D01*
X5079232Y1792344D01*
X5079242Y1791961D01*
X5079225Y1791578D01*
X5079254Y1791479D01*
X5079257Y1791376D01*
X5079388Y1791016D01*
X5079427Y1790880D01*
X5079197Y1790938D01*
G37*
%LPD*%
%LPC*%
G36*
X3827190Y4189708D02*
X3827190Y4189708D01*
X3814871Y4194811D01*
X3805441Y4204241D01*
X3800338Y4216561D01*
X3800338Y4229896D01*
X3805441Y4242216D01*
X3814871Y4251646D01*
X3824948Y4255820D01*
X3825274Y4256022D01*
X3825612Y4256201D01*
X3825683Y4256276D01*
X3825771Y4256330D01*
X3826015Y4256625D01*
X3826280Y4256903D01*
X3826323Y4256997D01*
X3826389Y4257076D01*
X3826526Y4257433D01*
X3826688Y4257781D01*
X3826700Y4257884D01*
X3826737Y4257980D01*
X3826753Y4258363D01*
X3826795Y4258744D01*
X3826773Y4258845D01*
X3826778Y4258948D01*
X3826671Y4259316D01*
X3826590Y4259691D01*
X3826537Y4259780D01*
X3826509Y4259879D01*
X3826290Y4260194D01*
X3826094Y4260523D01*
X3826016Y4260590D01*
X3825957Y4260675D01*
X3825649Y4260904D01*
X3825358Y4261153D01*
X3825262Y4261192D01*
X3825180Y4261254D01*
X3824816Y4261373D01*
X3824460Y4261516D01*
X3824333Y4261531D01*
X3824259Y4261555D01*
X3824127Y4261553D01*
X3823800Y4261590D01*
X3820495Y4261590D01*
X3808834Y4273251D01*
X3808834Y4289741D01*
X3820495Y4301402D01*
X3836985Y4301402D01*
X3848646Y4289741D01*
X3848646Y4273251D01*
X3837264Y4261869D01*
X3837100Y4261640D01*
X3836906Y4261435D01*
X3836819Y4261249D01*
X3836699Y4261082D01*
X3836616Y4260813D01*
X3836497Y4260557D01*
X3836474Y4260353D01*
X3836414Y4260156D01*
X3836421Y4259874D01*
X3836390Y4259594D01*
X3836433Y4259393D01*
X3836439Y4259188D01*
X3836535Y4258923D01*
X3836595Y4258648D01*
X3836700Y4258471D01*
X3836771Y4258278D01*
X3836947Y4258057D01*
X3837091Y4257816D01*
X3837247Y4257682D01*
X3837376Y4257521D01*
X3837613Y4257369D01*
X3837827Y4257185D01*
X3838018Y4257108D01*
X3838190Y4256997D01*
X3838464Y4256928D01*
X3838725Y4256822D01*
X3839005Y4256791D01*
X3839130Y4256760D01*
X3839223Y4256767D01*
X3839385Y4256749D01*
X3840526Y4256749D01*
X3852846Y4251646D01*
X3862275Y4242216D01*
X3867379Y4229896D01*
X3867379Y4216561D01*
X3862275Y4204241D01*
X3852846Y4194811D01*
X3840526Y4189708D01*
X3827190Y4189708D01*
G37*
%LPD*%
%LPC*%
G36*
X1164986Y4189708D02*
X1164986Y4189708D01*
X1152666Y4194811D01*
X1144659Y4202818D01*
X1144596Y4202863D01*
X1144548Y4202923D01*
X1144204Y4203145D01*
X1143873Y4203383D01*
X1143799Y4203406D01*
X1143733Y4203448D01*
X1143338Y4203548D01*
X1142947Y4203668D01*
X1142869Y4203666D01*
X1142794Y4203685D01*
X1142388Y4203654D01*
X1141979Y4203643D01*
X1141906Y4203617D01*
X1141828Y4203611D01*
X1141452Y4203451D01*
X1141069Y4203311D01*
X1141008Y4203263D01*
X1140937Y4203232D01*
X1140418Y4202818D01*
X1130293Y4192692D01*
X1113802Y4192692D01*
X1102141Y4204353D01*
X1102141Y4220844D01*
X1113802Y4232505D01*
X1130293Y4232505D01*
X1133427Y4229370D01*
X1133573Y4229265D01*
X1133695Y4229133D01*
X1133964Y4228984D01*
X1134213Y4228805D01*
X1134385Y4228752D01*
X1134543Y4228665D01*
X1134846Y4228610D01*
X1135139Y4228520D01*
X1135320Y4228524D01*
X1135497Y4228492D01*
X1135800Y4228537D01*
X1136108Y4228545D01*
X1136277Y4228606D01*
X1136455Y4228633D01*
X1136729Y4228771D01*
X1137018Y4228877D01*
X1137159Y4228989D01*
X1137319Y4229071D01*
X1137534Y4229290D01*
X1137774Y4229482D01*
X1137872Y4229633D01*
X1137998Y4229762D01*
X1138257Y4230232D01*
X1138299Y4230296D01*
X1138304Y4230316D01*
X1138319Y4230343D01*
X1143236Y4242216D01*
X1152666Y4251646D01*
X1164986Y4256749D01*
X1178321Y4256749D01*
X1190641Y4251646D01*
X1200071Y4242216D01*
X1205174Y4229896D01*
X1205174Y4216561D01*
X1200071Y4204241D01*
X1190641Y4194811D01*
X1178321Y4189708D01*
X1164986Y4189708D01*
G37*
%LPD*%
%LPC*%
G36*
X2052478Y2317692D02*
X2052478Y2317692D01*
X2038144Y2323630D01*
X2027173Y2334601D01*
X2021235Y2348935D01*
X2021235Y2364451D01*
X2027173Y2378785D01*
X2038144Y2389756D01*
X2052478Y2395694D01*
X2067994Y2395694D01*
X2082328Y2389756D01*
X2093299Y2378785D01*
X2099237Y2364451D01*
X2099237Y2348935D01*
X2093299Y2334601D01*
X2082328Y2323630D01*
X2067994Y2317692D01*
X2052478Y2317692D01*
G37*
%LPD*%
%LPC*%
G36*
X1752478Y2317692D02*
X1752478Y2317692D01*
X1738144Y2323630D01*
X1727173Y2334601D01*
X1721235Y2348935D01*
X1721235Y2364451D01*
X1727173Y2378785D01*
X1738144Y2389756D01*
X1752478Y2395694D01*
X1767994Y2395694D01*
X1782328Y2389756D01*
X1793299Y2378785D01*
X1799237Y2364451D01*
X1799237Y2348935D01*
X1793299Y2334601D01*
X1782328Y2323630D01*
X1767994Y2317692D01*
X1752478Y2317692D01*
G37*
%LPD*%
%LPC*%
G36*
X1752478Y2417692D02*
X1752478Y2417692D01*
X1738144Y2423630D01*
X1727173Y2434601D01*
X1721235Y2448935D01*
X1721235Y2464451D01*
X1727173Y2478785D01*
X1738144Y2489756D01*
X1752478Y2495694D01*
X1767994Y2495694D01*
X1782328Y2489756D01*
X1793299Y2478785D01*
X1799237Y2464451D01*
X1799237Y2448935D01*
X1793299Y2434601D01*
X1782328Y2423630D01*
X1767994Y2417692D01*
X1752478Y2417692D01*
G37*
%LPD*%
%LPC*%
G36*
X2052478Y2217692D02*
X2052478Y2217692D01*
X2038144Y2223630D01*
X2027173Y2234601D01*
X2021235Y2248935D01*
X2021235Y2264451D01*
X2027173Y2278785D01*
X2038144Y2289756D01*
X2052478Y2295694D01*
X2067994Y2295694D01*
X2082328Y2289756D01*
X2093299Y2278785D01*
X2099237Y2264451D01*
X2099237Y2248935D01*
X2093299Y2234601D01*
X2082328Y2223630D01*
X2067994Y2217692D01*
X2052478Y2217692D01*
G37*
%LPD*%
%LPC*%
G36*
X1752478Y2217692D02*
X1752478Y2217692D01*
X1738144Y2223630D01*
X1727173Y2234601D01*
X1721235Y2248935D01*
X1721235Y2264451D01*
X1727173Y2278785D01*
X1738144Y2289756D01*
X1752478Y2295694D01*
X1767994Y2295694D01*
X1782328Y2289756D01*
X1793299Y2278785D01*
X1799237Y2264451D01*
X1799237Y2248935D01*
X1793299Y2234601D01*
X1782328Y2223630D01*
X1767994Y2217692D01*
X1752478Y2217692D01*
G37*
%LPD*%
%LPC*%
G36*
X2052478Y1817692D02*
X2052478Y1817692D01*
X2038144Y1823630D01*
X2027173Y1834601D01*
X2021235Y1848935D01*
X2021235Y1864451D01*
X2027173Y1878785D01*
X2038144Y1889756D01*
X2052478Y1895694D01*
X2067994Y1895694D01*
X2082328Y1889756D01*
X2093299Y1878785D01*
X2099237Y1864451D01*
X2099237Y1848935D01*
X2093299Y1834601D01*
X2082328Y1823630D01*
X2067994Y1817692D01*
X2052478Y1817692D01*
G37*
%LPD*%
%LPC*%
G36*
X2052478Y2417692D02*
X2052478Y2417692D01*
X2038144Y2423630D01*
X2027173Y2434601D01*
X2021235Y2448935D01*
X2021235Y2464451D01*
X2027173Y2478785D01*
X2038144Y2489756D01*
X2052478Y2495694D01*
X2067994Y2495694D01*
X2082328Y2489756D01*
X2093299Y2478785D01*
X2099237Y2464451D01*
X2099237Y2448935D01*
X2093299Y2434601D01*
X2082328Y2423630D01*
X2067994Y2417692D01*
X2052478Y2417692D01*
G37*
%LPD*%
%LPC*%
G36*
X1752478Y2017692D02*
X1752478Y2017692D01*
X1738144Y2023630D01*
X1727173Y2034601D01*
X1721235Y2048935D01*
X1721235Y2064451D01*
X1727173Y2078785D01*
X1738144Y2089756D01*
X1752478Y2095694D01*
X1767994Y2095694D01*
X1782328Y2089756D01*
X1793299Y2078785D01*
X1799237Y2064451D01*
X1799237Y2048935D01*
X1793299Y2034601D01*
X1782328Y2023630D01*
X1767994Y2017692D01*
X1752478Y2017692D01*
G37*
%LPD*%
%LPC*%
G36*
X1752478Y1917692D02*
X1752478Y1917692D01*
X1738144Y1923630D01*
X1727173Y1934601D01*
X1721235Y1948935D01*
X1721235Y1964451D01*
X1727173Y1978785D01*
X1738144Y1989756D01*
X1752478Y1995694D01*
X1767994Y1995694D01*
X1782328Y1989756D01*
X1793299Y1978785D01*
X1799237Y1964451D01*
X1799237Y1948935D01*
X1793299Y1934601D01*
X1782328Y1923630D01*
X1767994Y1917692D01*
X1752478Y1917692D01*
G37*
%LPD*%
%LPC*%
G36*
X2052478Y1917692D02*
X2052478Y1917692D01*
X2038144Y1923630D01*
X2027173Y1934601D01*
X2021235Y1948935D01*
X2021235Y1964451D01*
X2027173Y1978785D01*
X2038144Y1989756D01*
X2052478Y1995694D01*
X2067994Y1995694D01*
X2082328Y1989756D01*
X2093299Y1978785D01*
X2099237Y1964451D01*
X2099237Y1948935D01*
X2093299Y1934601D01*
X2082328Y1923630D01*
X2067994Y1917692D01*
X2052478Y1917692D01*
G37*
%LPD*%
%LPC*%
G36*
X2052478Y2117692D02*
X2052478Y2117692D01*
X2038144Y2123630D01*
X2027173Y2134601D01*
X2021235Y2148935D01*
X2021235Y2164451D01*
X2027173Y2178785D01*
X2038144Y2189756D01*
X2052478Y2195694D01*
X2067994Y2195694D01*
X2082328Y2189756D01*
X2093299Y2178785D01*
X2099237Y2164451D01*
X2099237Y2148935D01*
X2093299Y2134601D01*
X2082328Y2123630D01*
X2067994Y2117692D01*
X2052478Y2117692D01*
G37*
%LPD*%
%LPC*%
G36*
X1752478Y2117692D02*
X1752478Y2117692D01*
X1738144Y2123630D01*
X1727173Y2134601D01*
X1721235Y2148935D01*
X1721235Y2164451D01*
X1727173Y2178785D01*
X1738144Y2189756D01*
X1752478Y2195694D01*
X1767994Y2195694D01*
X1782328Y2189756D01*
X1793299Y2178785D01*
X1799237Y2164451D01*
X1799237Y2148935D01*
X1793299Y2134601D01*
X1782328Y2123630D01*
X1767994Y2117692D01*
X1752478Y2117692D01*
G37*
%LPD*%
%LPC*%
G36*
X1752478Y2517692D02*
X1752478Y2517692D01*
X1738144Y2523630D01*
X1727173Y2534601D01*
X1721235Y2548935D01*
X1721235Y2564451D01*
X1727173Y2578785D01*
X1738144Y2589756D01*
X1752478Y2595694D01*
X1767994Y2595694D01*
X1782328Y2589756D01*
X1793299Y2578785D01*
X1799237Y2564451D01*
X1799237Y2548935D01*
X1793299Y2534601D01*
X1782328Y2523630D01*
X1767994Y2517692D01*
X1752478Y2517692D01*
G37*
%LPD*%
%LPC*%
G36*
X2052478Y2517692D02*
X2052478Y2517692D01*
X2038144Y2523630D01*
X2027173Y2534601D01*
X2021235Y2548935D01*
X2021235Y2564451D01*
X2027173Y2578785D01*
X2038144Y2589756D01*
X2052478Y2595694D01*
X2067994Y2595694D01*
X2082328Y2589756D01*
X2093299Y2578785D01*
X2099237Y2564451D01*
X2099237Y2548935D01*
X2093299Y2534601D01*
X2082328Y2523630D01*
X2067994Y2517692D01*
X2052478Y2517692D01*
G37*
%LPD*%
%LPC*%
G36*
X2052478Y2017692D02*
X2052478Y2017692D01*
X2038144Y2023630D01*
X2027173Y2034601D01*
X2021235Y2048935D01*
X2021235Y2064451D01*
X2027173Y2078785D01*
X2038144Y2089756D01*
X2052478Y2095694D01*
X2067994Y2095694D01*
X2082328Y2089756D01*
X2093299Y2078785D01*
X2099237Y2064451D01*
X2099237Y2048935D01*
X2093299Y2034601D01*
X2082328Y2023630D01*
X2067994Y2017692D01*
X2052478Y2017692D01*
G37*
%LPD*%
%LPC*%
G36*
X5097857Y1718212D02*
X5097857Y1718212D01*
X5083714Y1724070D01*
X5072889Y1734895D01*
X5067031Y1749038D01*
X5067031Y1764347D01*
X5072889Y1778491D01*
X5080396Y1785997D01*
X5080560Y1786226D01*
X5080755Y1786431D01*
X5080842Y1786617D01*
X5080961Y1786784D01*
X5081044Y1787053D01*
X5081163Y1787309D01*
X5081186Y1787513D01*
X5081246Y1787710D01*
X5081239Y1787992D01*
X5081270Y1788272D01*
X5081227Y1788473D01*
X5081222Y1788678D01*
X5081125Y1788943D01*
X5081076Y1789168D01*
X5081379Y1789091D01*
X5081744Y1788972D01*
X5081848Y1788973D01*
X5081948Y1788948D01*
X5082330Y1788977D01*
X5082713Y1788980D01*
X5082836Y1789016D01*
X5082913Y1789022D01*
X5083035Y1789074D01*
X5083351Y1789165D01*
X5097857Y1795174D01*
X5113166Y1795174D01*
X5127309Y1789316D01*
X5138134Y1778491D01*
X5143993Y1764347D01*
X5143993Y1749038D01*
X5138134Y1734895D01*
X5127309Y1724070D01*
X5113166Y1718212D01*
X5097857Y1718212D01*
G37*
%LPD*%
%LPC*%
G36*
X1902582Y1818212D02*
X1902582Y1818212D01*
X1888438Y1824070D01*
X1877613Y1834895D01*
X1871755Y1849038D01*
X1871755Y1864347D01*
X1877613Y1878491D01*
X1888438Y1889316D01*
X1902582Y1895174D01*
X1917891Y1895174D01*
X1932034Y1889316D01*
X1942859Y1878491D01*
X1948717Y1864347D01*
X1948717Y1849038D01*
X1942859Y1834895D01*
X1932034Y1824070D01*
X1917891Y1818212D01*
X1902582Y1818212D01*
G37*
%LPD*%
%LPC*%
G36*
X1599432Y1917818D02*
X1599432Y1917818D01*
X1585289Y1923676D01*
X1574464Y1934501D01*
X1568606Y1948645D01*
X1568606Y1963954D01*
X1574464Y1978097D01*
X1585289Y1988922D01*
X1599432Y1994780D01*
X1614741Y1994780D01*
X1628884Y1988922D01*
X1639709Y1978097D01*
X1645568Y1963954D01*
X1645568Y1948645D01*
X1639709Y1934501D01*
X1628884Y1923676D01*
X1614741Y1917818D01*
X1599432Y1917818D01*
G37*
%LPD*%
%LPC*%
G36*
X2977385Y1818212D02*
X2977385Y1818212D01*
X2963242Y1824070D01*
X2952417Y1834895D01*
X2946558Y1849038D01*
X2946558Y1864347D01*
X2952417Y1878491D01*
X2963242Y1889316D01*
X2977385Y1895174D01*
X2992694Y1895174D01*
X3006837Y1889316D01*
X3017662Y1878491D01*
X3023520Y1864347D01*
X3023520Y1849038D01*
X3017662Y1834895D01*
X3006837Y1824070D01*
X2992694Y1818212D01*
X2977385Y1818212D01*
G37*
%LPD*%
%LPC*%
G36*
X3289983Y1618212D02*
X3289983Y1618212D01*
X3275840Y1624070D01*
X3265015Y1634895D01*
X3259157Y1649038D01*
X3259157Y1664347D01*
X3265015Y1678491D01*
X3275840Y1689316D01*
X3289983Y1695174D01*
X3305292Y1695174D01*
X3319435Y1689316D01*
X3330260Y1678491D01*
X3336119Y1664347D01*
X3336119Y1649038D01*
X3330260Y1634895D01*
X3319435Y1624070D01*
X3305292Y1618212D01*
X3289983Y1618212D01*
G37*
%LPD*%
%LPC*%
G36*
X3889983Y1618212D02*
X3889983Y1618212D01*
X3875840Y1624070D01*
X3865015Y1634895D01*
X3859157Y1649038D01*
X3859157Y1664347D01*
X3865015Y1678491D01*
X3875840Y1689316D01*
X3889983Y1695174D01*
X3905292Y1695174D01*
X3919435Y1689316D01*
X3930260Y1678491D01*
X3936119Y1664347D01*
X3936119Y1649038D01*
X3930260Y1634895D01*
X3919435Y1624070D01*
X3905292Y1618212D01*
X3889983Y1618212D01*
G37*
%LPD*%
%LPC*%
G36*
X5097857Y1618212D02*
X5097857Y1618212D01*
X5083714Y1624070D01*
X5072889Y1634895D01*
X5067031Y1649038D01*
X5067031Y1664347D01*
X5072889Y1678491D01*
X5083714Y1689316D01*
X5097857Y1695174D01*
X5113166Y1695174D01*
X5127309Y1689316D01*
X5138134Y1678491D01*
X5143993Y1664347D01*
X5143993Y1649038D01*
X5138134Y1634895D01*
X5127309Y1624070D01*
X5113166Y1618212D01*
X5097857Y1618212D01*
G37*
%LPD*%
%LPC*%
G36*
X1599432Y2117818D02*
X1599432Y2117818D01*
X1585289Y2123676D01*
X1574464Y2134501D01*
X1568606Y2148645D01*
X1568606Y2163954D01*
X1574464Y2178097D01*
X1585289Y2188922D01*
X1599432Y2194780D01*
X1614741Y2194780D01*
X1628884Y2188922D01*
X1639709Y2178097D01*
X1645568Y2163954D01*
X1645568Y2148645D01*
X1639709Y2134501D01*
X1628884Y2123676D01*
X1614741Y2117818D01*
X1599432Y2117818D01*
G37*
%LPD*%
%LPC*%
G36*
X1902582Y2118212D02*
X1902582Y2118212D01*
X1888438Y2124070D01*
X1877613Y2134895D01*
X1871755Y2149038D01*
X1871755Y2164347D01*
X1877613Y2178491D01*
X1888438Y2189316D01*
X1902582Y2195174D01*
X1917891Y2195174D01*
X1932034Y2189316D01*
X1942859Y2178491D01*
X1948717Y2164347D01*
X1948717Y2149038D01*
X1942859Y2134895D01*
X1932034Y2124070D01*
X1917891Y2118212D01*
X1902582Y2118212D01*
G37*
%LPD*%
%LPC*%
G36*
X2977385Y2118212D02*
X2977385Y2118212D01*
X2963242Y2124070D01*
X2952417Y2134895D01*
X2946558Y2149038D01*
X2946558Y2164347D01*
X2952417Y2178491D01*
X2963242Y2189316D01*
X2977385Y2195174D01*
X2992694Y2195174D01*
X3006837Y2189316D01*
X3017662Y2178491D01*
X3023520Y2164347D01*
X3023520Y2149038D01*
X3017662Y2134895D01*
X3006837Y2124070D01*
X2992694Y2118212D01*
X2977385Y2118212D01*
G37*
%LPD*%
%LPC*%
G36*
X4785259Y1718212D02*
X4785259Y1718212D01*
X4771116Y1724070D01*
X4760291Y1734895D01*
X4754432Y1749038D01*
X4754432Y1764347D01*
X4760291Y1778491D01*
X4771116Y1789316D01*
X4785259Y1795174D01*
X4800568Y1795174D01*
X4814711Y1789316D01*
X4825536Y1778491D01*
X4831394Y1764347D01*
X4831394Y1749038D01*
X4825536Y1734895D01*
X4814711Y1724070D01*
X4800568Y1718212D01*
X4785259Y1718212D01*
G37*
%LPD*%
%LPC*%
G36*
X3889983Y1718212D02*
X3889983Y1718212D01*
X3875840Y1724070D01*
X3865015Y1734895D01*
X3859157Y1749038D01*
X3859157Y1764347D01*
X3865015Y1778491D01*
X3875840Y1789316D01*
X3889983Y1795174D01*
X3905292Y1795174D01*
X3919435Y1789316D01*
X3930260Y1778491D01*
X3936119Y1764347D01*
X3936119Y1749038D01*
X3930260Y1734895D01*
X3919435Y1724070D01*
X3905292Y1718212D01*
X3889983Y1718212D01*
G37*
%LPD*%
%LPC*%
G36*
X3577385Y1718212D02*
X3577385Y1718212D01*
X3563242Y1724070D01*
X3552417Y1734895D01*
X3546558Y1749038D01*
X3546558Y1764347D01*
X3552417Y1778491D01*
X3563242Y1789316D01*
X3577385Y1795174D01*
X3592694Y1795174D01*
X3606837Y1789316D01*
X3617662Y1778491D01*
X3623520Y1764347D01*
X3623520Y1749038D01*
X3617662Y1734895D01*
X3606837Y1724070D01*
X3592694Y1718212D01*
X3577385Y1718212D01*
G37*
%LPD*%
%LPC*%
G36*
X3289983Y1718212D02*
X3289983Y1718212D01*
X3275840Y1724070D01*
X3265015Y1734895D01*
X3259157Y1749038D01*
X3259157Y1764347D01*
X3265015Y1778491D01*
X3275840Y1789316D01*
X3289983Y1795174D01*
X3305292Y1795174D01*
X3319435Y1789316D01*
X3330260Y1778491D01*
X3336119Y1764347D01*
X3336119Y1749038D01*
X3330260Y1734895D01*
X3319435Y1724070D01*
X3305292Y1718212D01*
X3289983Y1718212D01*
G37*
%LPD*%
%LPC*%
G36*
X3289983Y1818212D02*
X3289983Y1818212D01*
X3275840Y1824070D01*
X3265015Y1834895D01*
X3259157Y1849038D01*
X3259157Y1864347D01*
X3265015Y1878491D01*
X3275840Y1889316D01*
X3289983Y1895174D01*
X3305292Y1895174D01*
X3319435Y1889316D01*
X3330260Y1878491D01*
X3336119Y1864347D01*
X3336119Y1849038D01*
X3330260Y1834895D01*
X3319435Y1824070D01*
X3305292Y1818212D01*
X3289983Y1818212D01*
G37*
%LPD*%
%LPC*%
G36*
X2977385Y1718212D02*
X2977385Y1718212D01*
X2963242Y1724070D01*
X2952417Y1734895D01*
X2946558Y1749038D01*
X2946558Y1764347D01*
X2952417Y1778491D01*
X2963242Y1789316D01*
X2977385Y1795174D01*
X2992694Y1795174D01*
X3006837Y1789316D01*
X3017662Y1778491D01*
X3023520Y1764347D01*
X3023520Y1749038D01*
X3017662Y1734895D01*
X3006837Y1724070D01*
X2992694Y1718212D01*
X2977385Y1718212D01*
G37*
%LPD*%
%LPC*%
G36*
X3289983Y2118212D02*
X3289983Y2118212D01*
X3275840Y2124070D01*
X3265015Y2134895D01*
X3259157Y2149038D01*
X3259157Y2164347D01*
X3265015Y2178491D01*
X3275840Y2189316D01*
X3289983Y2195174D01*
X3305292Y2195174D01*
X3319435Y2189316D01*
X3330260Y2178491D01*
X3336119Y2164347D01*
X3336119Y2149038D01*
X3330260Y2134895D01*
X3319435Y2124070D01*
X3305292Y2118212D01*
X3289983Y2118212D01*
G37*
%LPD*%
%LPC*%
G36*
X3577385Y2118212D02*
X3577385Y2118212D01*
X3563242Y2124070D01*
X3552417Y2134895D01*
X3546558Y2149038D01*
X3546558Y2164347D01*
X3552417Y2178491D01*
X3563242Y2189316D01*
X3577385Y2195174D01*
X3592694Y2195174D01*
X3606837Y2189316D01*
X3617662Y2178491D01*
X3623520Y2164347D01*
X3623520Y2149038D01*
X3617662Y2134895D01*
X3606837Y2124070D01*
X3592694Y2118212D01*
X3577385Y2118212D01*
G37*
%LPD*%
%LPC*%
G36*
X3577385Y1818212D02*
X3577385Y1818212D01*
X3563242Y1824070D01*
X3552417Y1834895D01*
X3546558Y1849038D01*
X3546558Y1864347D01*
X3552417Y1878491D01*
X3563242Y1889316D01*
X3577385Y1895174D01*
X3592694Y1895174D01*
X3606837Y1889316D01*
X3617662Y1878491D01*
X3623520Y1864347D01*
X3623520Y1849038D01*
X3617662Y1834895D01*
X3606837Y1824070D01*
X3592694Y1818212D01*
X3577385Y1818212D01*
G37*
%LPD*%
%LPC*%
G36*
X3889983Y2118212D02*
X3889983Y2118212D01*
X3875840Y2124070D01*
X3865015Y2134895D01*
X3859157Y2149038D01*
X3859157Y2164347D01*
X3865015Y2178491D01*
X3875840Y2189316D01*
X3889983Y2195174D01*
X3905292Y2195174D01*
X3919435Y2189316D01*
X3930260Y2178491D01*
X3936119Y2164347D01*
X3936119Y2149038D01*
X3930260Y2134895D01*
X3919435Y2124070D01*
X3905292Y2118212D01*
X3889983Y2118212D01*
G37*
%LPD*%
%LPC*%
G36*
X4785259Y2118212D02*
X4785259Y2118212D01*
X4771116Y2124070D01*
X4760291Y2134895D01*
X4754432Y2149038D01*
X4754432Y2164347D01*
X4760291Y2178491D01*
X4771116Y2189316D01*
X4785259Y2195174D01*
X4800568Y2195174D01*
X4814711Y2189316D01*
X4825536Y2178491D01*
X4831394Y2164347D01*
X4831394Y2149038D01*
X4825536Y2134895D01*
X4814711Y2124070D01*
X4800568Y2118212D01*
X4785259Y2118212D01*
G37*
%LPD*%
%LPC*%
G36*
X5097857Y2118212D02*
X5097857Y2118212D01*
X5083714Y2124070D01*
X5072889Y2134895D01*
X5067031Y2149038D01*
X5067031Y2164347D01*
X5072889Y2178491D01*
X5083714Y2189316D01*
X5097857Y2195174D01*
X5113166Y2195174D01*
X5127309Y2189316D01*
X5138134Y2178491D01*
X5143993Y2164347D01*
X5143993Y2149038D01*
X5138134Y2134895D01*
X5127309Y2124070D01*
X5113166Y2118212D01*
X5097857Y2118212D01*
G37*
%LPD*%
%LPC*%
G36*
X1599432Y2017818D02*
X1599432Y2017818D01*
X1585289Y2023676D01*
X1574464Y2034501D01*
X1568606Y2048645D01*
X1568606Y2063954D01*
X1574464Y2078097D01*
X1585289Y2088922D01*
X1599432Y2094780D01*
X1614741Y2094780D01*
X1628884Y2088922D01*
X1639709Y2078097D01*
X1645568Y2063954D01*
X1645568Y2048645D01*
X1639709Y2034501D01*
X1628884Y2023676D01*
X1614741Y2017818D01*
X1599432Y2017818D01*
G37*
%LPD*%
%LPC*%
G36*
X2977385Y2518212D02*
X2977385Y2518212D01*
X2963242Y2524070D01*
X2952417Y2534895D01*
X2946558Y2549038D01*
X2946558Y2564347D01*
X2952417Y2578491D01*
X2963242Y2589316D01*
X2977385Y2595174D01*
X2992694Y2595174D01*
X3006837Y2589316D01*
X3017662Y2578491D01*
X3023520Y2564347D01*
X3023520Y2549038D01*
X3017662Y2534895D01*
X3006837Y2524070D01*
X2992694Y2518212D01*
X2977385Y2518212D01*
G37*
%LPD*%
%LPC*%
G36*
X1902582Y2518212D02*
X1902582Y2518212D01*
X1888438Y2524070D01*
X1877613Y2534895D01*
X1871755Y2549038D01*
X1871755Y2564347D01*
X1877613Y2578491D01*
X1888438Y2589316D01*
X1902582Y2595174D01*
X1917891Y2595174D01*
X1932034Y2589316D01*
X1942859Y2578491D01*
X1948717Y2564347D01*
X1948717Y2549038D01*
X1942859Y2534895D01*
X1932034Y2524070D01*
X1917891Y2518212D01*
X1902582Y2518212D01*
G37*
%LPD*%
%LPC*%
G36*
X1599432Y2217818D02*
X1599432Y2217818D01*
X1585289Y2223676D01*
X1574464Y2234501D01*
X1568606Y2248645D01*
X1568606Y2263954D01*
X1574464Y2278097D01*
X1585289Y2288922D01*
X1599432Y2294780D01*
X1614741Y2294780D01*
X1628884Y2288922D01*
X1639709Y2278097D01*
X1645568Y2263954D01*
X1645568Y2248645D01*
X1639709Y2234501D01*
X1628884Y2223676D01*
X1614741Y2217818D01*
X1599432Y2217818D01*
G37*
%LPD*%
%LPC*%
G36*
X5097857Y1918212D02*
X5097857Y1918212D01*
X5083714Y1924070D01*
X5072889Y1934895D01*
X5067031Y1949038D01*
X5067031Y1964347D01*
X5072889Y1978491D01*
X5083714Y1989316D01*
X5097857Y1995174D01*
X5113166Y1995174D01*
X5127309Y1989316D01*
X5138134Y1978491D01*
X5143993Y1964347D01*
X5143993Y1949038D01*
X5138134Y1934895D01*
X5127309Y1924070D01*
X5113166Y1918212D01*
X5097857Y1918212D01*
G37*
%LPD*%
%LPC*%
G36*
X2977385Y2218212D02*
X2977385Y2218212D01*
X2963242Y2224070D01*
X2952417Y2234895D01*
X2946558Y2249038D01*
X2946558Y2264347D01*
X2952417Y2278491D01*
X2963242Y2289316D01*
X2977385Y2295174D01*
X2992694Y2295174D01*
X3006837Y2289316D01*
X3017662Y2278491D01*
X3023520Y2264347D01*
X3023520Y2249038D01*
X3017662Y2234895D01*
X3006837Y2224070D01*
X2992694Y2218212D01*
X2977385Y2218212D01*
G37*
%LPD*%
%LPC*%
G36*
X3289983Y2218212D02*
X3289983Y2218212D01*
X3275840Y2224070D01*
X3265015Y2234895D01*
X3259157Y2249038D01*
X3259157Y2264347D01*
X3265015Y2278491D01*
X3275840Y2289316D01*
X3289983Y2295174D01*
X3305292Y2295174D01*
X3319435Y2289316D01*
X3330260Y2278491D01*
X3336119Y2264347D01*
X3336119Y2249038D01*
X3330260Y2234895D01*
X3319435Y2224070D01*
X3305292Y2218212D01*
X3289983Y2218212D01*
G37*
%LPD*%
%LPC*%
G36*
X3889983Y2218212D02*
X3889983Y2218212D01*
X3875840Y2224070D01*
X3865015Y2234895D01*
X3859157Y2249038D01*
X3859157Y2264347D01*
X3865015Y2278491D01*
X3875840Y2289316D01*
X3889983Y2295174D01*
X3905292Y2295174D01*
X3919435Y2289316D01*
X3930260Y2278491D01*
X3936119Y2264347D01*
X3936119Y2249038D01*
X3930260Y2234895D01*
X3919435Y2224070D01*
X3905292Y2218212D01*
X3889983Y2218212D01*
G37*
%LPD*%
%LPC*%
G36*
X3289983Y1918212D02*
X3289983Y1918212D01*
X3275840Y1924070D01*
X3265015Y1934895D01*
X3259157Y1949038D01*
X3259157Y1964347D01*
X3265015Y1978491D01*
X3275840Y1989316D01*
X3289983Y1995174D01*
X3305292Y1995174D01*
X3319435Y1989316D01*
X3330260Y1978491D01*
X3336119Y1964347D01*
X3336119Y1949038D01*
X3330260Y1934895D01*
X3319435Y1924070D01*
X3305292Y1918212D01*
X3289983Y1918212D01*
G37*
%LPD*%
%LPC*%
G36*
X3577385Y2218212D02*
X3577385Y2218212D01*
X3563242Y2224070D01*
X3552417Y2234895D01*
X3546558Y2249038D01*
X3546558Y2264347D01*
X3552417Y2278491D01*
X3563242Y2289316D01*
X3577385Y2295174D01*
X3592694Y2295174D01*
X3606837Y2289316D01*
X3617662Y2278491D01*
X3623520Y2264347D01*
X3623520Y2249038D01*
X3617662Y2234895D01*
X3606837Y2224070D01*
X3592694Y2218212D01*
X3577385Y2218212D01*
G37*
%LPD*%
%LPC*%
G36*
X5097857Y2518212D02*
X5097857Y2518212D01*
X5083714Y2524070D01*
X5072889Y2534895D01*
X5067031Y2549038D01*
X5067031Y2564347D01*
X5072889Y2578491D01*
X5083714Y2589316D01*
X5097857Y2595174D01*
X5113166Y2595174D01*
X5127309Y2589316D01*
X5138134Y2578491D01*
X5143993Y2564347D01*
X5143993Y2549038D01*
X5138134Y2534895D01*
X5127309Y2524070D01*
X5113166Y2518212D01*
X5097857Y2518212D01*
G37*
%LPD*%
%LPC*%
G36*
X3577385Y1918212D02*
X3577385Y1918212D01*
X3563242Y1924070D01*
X3552417Y1934895D01*
X3546558Y1949038D01*
X3546558Y1964347D01*
X3552417Y1978491D01*
X3563242Y1989316D01*
X3577385Y1995174D01*
X3592694Y1995174D01*
X3606837Y1989316D01*
X3617662Y1978491D01*
X3623520Y1964347D01*
X3623520Y1949038D01*
X3617662Y1934895D01*
X3606837Y1924070D01*
X3592694Y1918212D01*
X3577385Y1918212D01*
G37*
%LPD*%
%LPC*%
G36*
X1902582Y1918212D02*
X1902582Y1918212D01*
X1888438Y1924070D01*
X1877613Y1934895D01*
X1871755Y1949038D01*
X1871755Y1964347D01*
X1877613Y1978491D01*
X1888438Y1989316D01*
X1902582Y1995174D01*
X1917891Y1995174D01*
X1932034Y1989316D01*
X1942859Y1978491D01*
X1948717Y1964347D01*
X1948717Y1949038D01*
X1942859Y1934895D01*
X1932034Y1924070D01*
X1917891Y1918212D01*
X1902582Y1918212D01*
G37*
%LPD*%
%LPC*%
G36*
X2977385Y1918212D02*
X2977385Y1918212D01*
X2963242Y1924070D01*
X2952417Y1934895D01*
X2946558Y1949038D01*
X2946558Y1964347D01*
X2952417Y1978491D01*
X2963242Y1989316D01*
X2977385Y1995174D01*
X2992694Y1995174D01*
X3006837Y1989316D01*
X3017662Y1978491D01*
X3023520Y1964347D01*
X3023520Y1949038D01*
X3017662Y1934895D01*
X3006837Y1924070D01*
X2992694Y1918212D01*
X2977385Y1918212D01*
G37*
%LPD*%
%LPC*%
G36*
X1599432Y2317818D02*
X1599432Y2317818D01*
X1585289Y2323676D01*
X1574464Y2334501D01*
X1568606Y2348645D01*
X1568606Y2363954D01*
X1574464Y2378097D01*
X1585289Y2388922D01*
X1599432Y2394780D01*
X1614741Y2394780D01*
X1628884Y2388922D01*
X1639709Y2378097D01*
X1645568Y2363954D01*
X1645568Y2348645D01*
X1639709Y2334501D01*
X1628884Y2323676D01*
X1614741Y2317818D01*
X1599432Y2317818D01*
G37*
%LPD*%
%LPC*%
G36*
X1902582Y2318212D02*
X1902582Y2318212D01*
X1888438Y2324070D01*
X1877613Y2334895D01*
X1871755Y2349038D01*
X1871755Y2364347D01*
X1877613Y2378491D01*
X1888438Y2389316D01*
X1902582Y2395174D01*
X1917891Y2395174D01*
X1932034Y2389316D01*
X1942859Y2378491D01*
X1948717Y2364347D01*
X1948717Y2349038D01*
X1942859Y2334895D01*
X1932034Y2324070D01*
X1917891Y2318212D01*
X1902582Y2318212D01*
G37*
%LPD*%
%LPC*%
G36*
X2977385Y2318212D02*
X2977385Y2318212D01*
X2963242Y2324070D01*
X2952417Y2334895D01*
X2946558Y2349038D01*
X2946558Y2364347D01*
X2952417Y2378491D01*
X2963242Y2389316D01*
X2977385Y2395174D01*
X2992694Y2395174D01*
X3006837Y2389316D01*
X3017662Y2378491D01*
X3023520Y2364347D01*
X3023520Y2349038D01*
X3017662Y2334895D01*
X3006837Y2324070D01*
X2992694Y2318212D01*
X2977385Y2318212D01*
G37*
%LPD*%
%LPC*%
G36*
X3289983Y2318212D02*
X3289983Y2318212D01*
X3275840Y2324070D01*
X3265015Y2334895D01*
X3259157Y2349038D01*
X3259157Y2364347D01*
X3265015Y2378491D01*
X3275840Y2389316D01*
X3289983Y2395174D01*
X3305292Y2395174D01*
X3319435Y2389316D01*
X3330260Y2378491D01*
X3336119Y2364347D01*
X3336119Y2349038D01*
X3330260Y2334895D01*
X3319435Y2324070D01*
X3305292Y2318212D01*
X3289983Y2318212D01*
G37*
%LPD*%
%LPC*%
G36*
X3577385Y2318212D02*
X3577385Y2318212D01*
X3563242Y2324070D01*
X3552417Y2334895D01*
X3546558Y2349038D01*
X3546558Y2364347D01*
X3552417Y2378491D01*
X3563242Y2389316D01*
X3577385Y2395174D01*
X3592694Y2395174D01*
X3606837Y2389316D01*
X3617662Y2378491D01*
X3623520Y2364347D01*
X3623520Y2349038D01*
X3617662Y2334895D01*
X3606837Y2324070D01*
X3592694Y2318212D01*
X3577385Y2318212D01*
G37*
%LPD*%
%LPC*%
G36*
X3889983Y2318212D02*
X3889983Y2318212D01*
X3875840Y2324070D01*
X3865015Y2334895D01*
X3859157Y2349038D01*
X3859157Y2364347D01*
X3865015Y2378491D01*
X3875840Y2389316D01*
X3889983Y2395174D01*
X3905292Y2395174D01*
X3919435Y2389316D01*
X3930260Y2378491D01*
X3936119Y2364347D01*
X3936119Y2349038D01*
X3930260Y2334895D01*
X3919435Y2324070D01*
X3905292Y2318212D01*
X3889983Y2318212D01*
G37*
%LPD*%
%LPC*%
G36*
X4785259Y2318212D02*
X4785259Y2318212D01*
X4771116Y2324070D01*
X4760291Y2334895D01*
X4754432Y2349038D01*
X4754432Y2364347D01*
X4760291Y2378491D01*
X4771116Y2389316D01*
X4785259Y2395174D01*
X4800568Y2395174D01*
X4814711Y2389316D01*
X4825536Y2378491D01*
X4831394Y2364347D01*
X4831394Y2349038D01*
X4825536Y2334895D01*
X4814711Y2324070D01*
X4800568Y2318212D01*
X4785259Y2318212D01*
G37*
%LPD*%
%LPC*%
G36*
X5097857Y2318212D02*
X5097857Y2318212D01*
X5083714Y2324070D01*
X5072889Y2334895D01*
X5067031Y2349038D01*
X5067031Y2364347D01*
X5072889Y2378491D01*
X5083714Y2389316D01*
X5097857Y2395174D01*
X5113166Y2395174D01*
X5127309Y2389316D01*
X5138134Y2378491D01*
X5143993Y2364347D01*
X5143993Y2349038D01*
X5138134Y2334895D01*
X5127309Y2324070D01*
X5113166Y2318212D01*
X5097857Y2318212D01*
G37*
%LPD*%
%LPC*%
G36*
X3889983Y1918212D02*
X3889983Y1918212D01*
X3875840Y1924070D01*
X3865015Y1934895D01*
X3859157Y1949038D01*
X3859157Y1964347D01*
X3865015Y1978491D01*
X3875840Y1989316D01*
X3889983Y1995174D01*
X3905292Y1995174D01*
X3919435Y1989316D01*
X3930260Y1978491D01*
X3936119Y1964347D01*
X3936119Y1949038D01*
X3930260Y1934895D01*
X3919435Y1924070D01*
X3905292Y1918212D01*
X3889983Y1918212D01*
G37*
%LPD*%
%LPC*%
G36*
X1902582Y2218212D02*
X1902582Y2218212D01*
X1888438Y2224070D01*
X1877613Y2234895D01*
X1871755Y2249038D01*
X1871755Y2264347D01*
X1877613Y2278491D01*
X1888438Y2289316D01*
X1902582Y2295174D01*
X1917891Y2295174D01*
X1932034Y2289316D01*
X1942859Y2278491D01*
X1948717Y2264347D01*
X1948717Y2249038D01*
X1942859Y2234895D01*
X1932034Y2224070D01*
X1917891Y2218212D01*
X1902582Y2218212D01*
G37*
%LPD*%
%LPC*%
G36*
X4785259Y2518212D02*
X4785259Y2518212D01*
X4771116Y2524070D01*
X4760291Y2534895D01*
X4754432Y2549038D01*
X4754432Y2564347D01*
X4760291Y2578491D01*
X4771116Y2589316D01*
X4785259Y2595174D01*
X4800568Y2595174D01*
X4814711Y2589316D01*
X4825536Y2578491D01*
X4831394Y2564347D01*
X4831394Y2549038D01*
X4825536Y2534895D01*
X4814711Y2524070D01*
X4800568Y2518212D01*
X4785259Y2518212D01*
G37*
%LPD*%
%LPC*%
G36*
X3889983Y2518212D02*
X3889983Y2518212D01*
X3875840Y2524070D01*
X3865015Y2534895D01*
X3859157Y2549038D01*
X3859157Y2564347D01*
X3865015Y2578491D01*
X3875840Y2589316D01*
X3889983Y2595174D01*
X3905292Y2595174D01*
X3919435Y2589316D01*
X3930260Y2578491D01*
X3936119Y2564347D01*
X3936119Y2549038D01*
X3930260Y2534895D01*
X3919435Y2524070D01*
X3905292Y2518212D01*
X3889983Y2518212D01*
G37*
%LPD*%
%LPC*%
G36*
X1599432Y2417818D02*
X1599432Y2417818D01*
X1585289Y2423676D01*
X1574464Y2434501D01*
X1568606Y2448645D01*
X1568606Y2463954D01*
X1574464Y2478097D01*
X1585289Y2488922D01*
X1599432Y2494780D01*
X1614741Y2494780D01*
X1628884Y2488922D01*
X1639709Y2478097D01*
X1645568Y2463954D01*
X1645568Y2448645D01*
X1639709Y2434501D01*
X1628884Y2423676D01*
X1614741Y2417818D01*
X1599432Y2417818D01*
G37*
%LPD*%
%LPC*%
G36*
X3289983Y2418212D02*
X3289983Y2418212D01*
X3275840Y2424070D01*
X3265015Y2434895D01*
X3259157Y2449038D01*
X3259157Y2464347D01*
X3265015Y2478491D01*
X3275840Y2489316D01*
X3289983Y2495174D01*
X3305292Y2495174D01*
X3319435Y2489316D01*
X3330260Y2478491D01*
X3336119Y2464347D01*
X3336119Y2449038D01*
X3330260Y2434895D01*
X3319435Y2424070D01*
X3305292Y2418212D01*
X3289983Y2418212D01*
G37*
%LPD*%
%LPC*%
G36*
X3577385Y2418212D02*
X3577385Y2418212D01*
X3563242Y2424070D01*
X3552417Y2434895D01*
X3546558Y2449038D01*
X3546558Y2464347D01*
X3552417Y2478491D01*
X3563242Y2489316D01*
X3577385Y2495174D01*
X3592694Y2495174D01*
X3606837Y2489316D01*
X3617662Y2478491D01*
X3623520Y2464347D01*
X3623520Y2449038D01*
X3617662Y2434895D01*
X3606837Y2424070D01*
X3592694Y2418212D01*
X3577385Y2418212D01*
G37*
%LPD*%
%LPC*%
G36*
X3889983Y2418212D02*
X3889983Y2418212D01*
X3875840Y2424070D01*
X3865015Y2434895D01*
X3859157Y2449038D01*
X3859157Y2464347D01*
X3865015Y2478491D01*
X3875840Y2489316D01*
X3889983Y2495174D01*
X3905292Y2495174D01*
X3919435Y2489316D01*
X3930260Y2478491D01*
X3936119Y2464347D01*
X3936119Y2449038D01*
X3930260Y2434895D01*
X3919435Y2424070D01*
X3905292Y2418212D01*
X3889983Y2418212D01*
G37*
%LPD*%
%LPC*%
G36*
X4785259Y2418212D02*
X4785259Y2418212D01*
X4771116Y2424070D01*
X4760291Y2434895D01*
X4754432Y2449038D01*
X4754432Y2464347D01*
X4760291Y2478491D01*
X4771116Y2489316D01*
X4785259Y2495174D01*
X4800568Y2495174D01*
X4814711Y2489316D01*
X4825536Y2478491D01*
X4831394Y2464347D01*
X4831394Y2449038D01*
X4825536Y2434895D01*
X4814711Y2424070D01*
X4800568Y2418212D01*
X4785259Y2418212D01*
G37*
%LPD*%
%LPC*%
G36*
X5097857Y2418212D02*
X5097857Y2418212D01*
X5083714Y2424070D01*
X5072889Y2434895D01*
X5067031Y2449038D01*
X5067031Y2464347D01*
X5072889Y2478491D01*
X5083714Y2489316D01*
X5097857Y2495174D01*
X5113166Y2495174D01*
X5127309Y2489316D01*
X5138134Y2478491D01*
X5143993Y2464347D01*
X5143993Y2449038D01*
X5138134Y2434895D01*
X5127309Y2424070D01*
X5113166Y2418212D01*
X5097857Y2418212D01*
G37*
%LPD*%
%LPC*%
G36*
X1902582Y2418212D02*
X1902582Y2418212D01*
X1888438Y2424070D01*
X1877613Y2434895D01*
X1871755Y2449038D01*
X1871755Y2464347D01*
X1877613Y2478491D01*
X1888438Y2489316D01*
X1902582Y2495174D01*
X1917891Y2495174D01*
X1932034Y2489316D01*
X1942859Y2478491D01*
X1948717Y2464347D01*
X1948717Y2449038D01*
X1942859Y2434895D01*
X1932034Y2424070D01*
X1917891Y2418212D01*
X1902582Y2418212D01*
G37*
%LPD*%
%LPC*%
G36*
X2977385Y2418212D02*
X2977385Y2418212D01*
X2963242Y2424070D01*
X2952417Y2434895D01*
X2946558Y2449038D01*
X2946558Y2464347D01*
X2952417Y2478491D01*
X2963242Y2489316D01*
X2977385Y2495174D01*
X2992694Y2495174D01*
X3006837Y2489316D01*
X3017662Y2478491D01*
X3023520Y2464347D01*
X3023520Y2449038D01*
X3017662Y2434895D01*
X3006837Y2424070D01*
X2992694Y2418212D01*
X2977385Y2418212D01*
G37*
%LPD*%
%LPC*%
G36*
X3577385Y2518212D02*
X3577385Y2518212D01*
X3563242Y2524070D01*
X3552417Y2534895D01*
X3546558Y2549038D01*
X3546558Y2564347D01*
X3552417Y2578491D01*
X3563242Y2589316D01*
X3577385Y2595174D01*
X3592694Y2595174D01*
X3606837Y2589316D01*
X3617662Y2578491D01*
X3623520Y2564347D01*
X3623520Y2549038D01*
X3617662Y2534895D01*
X3606837Y2524070D01*
X3592694Y2518212D01*
X3577385Y2518212D01*
G37*
%LPD*%
%LPC*%
G36*
X3889983Y1818212D02*
X3889983Y1818212D01*
X3875840Y1824070D01*
X3865015Y1834895D01*
X3859157Y1849038D01*
X3859157Y1864347D01*
X3865015Y1878491D01*
X3875840Y1889316D01*
X3889983Y1895174D01*
X3905292Y1895174D01*
X3919435Y1889316D01*
X3930260Y1878491D01*
X3936119Y1864347D01*
X3936119Y1849038D01*
X3930260Y1834895D01*
X3919435Y1824070D01*
X3905292Y1818212D01*
X3889983Y1818212D01*
G37*
%LPD*%
%LPC*%
G36*
X3289983Y2518212D02*
X3289983Y2518212D01*
X3275840Y2524070D01*
X3265015Y2534895D01*
X3259157Y2549038D01*
X3259157Y2564347D01*
X3265015Y2578491D01*
X3275840Y2589316D01*
X3289983Y2595174D01*
X3305292Y2595174D01*
X3319435Y2589316D01*
X3330260Y2578491D01*
X3336119Y2564347D01*
X3336119Y2549038D01*
X3330260Y2534895D01*
X3319435Y2524070D01*
X3305292Y2518212D01*
X3289983Y2518212D01*
G37*
%LPD*%
%LPC*%
G36*
X1599432Y2517818D02*
X1599432Y2517818D01*
X1585289Y2523676D01*
X1574464Y2534501D01*
X1568606Y2548645D01*
X1568606Y2563954D01*
X1574464Y2578097D01*
X1585289Y2588922D01*
X1599432Y2594780D01*
X1614741Y2594780D01*
X1628884Y2588922D01*
X1639709Y2578097D01*
X1645568Y2563954D01*
X1645568Y2548645D01*
X1639709Y2534501D01*
X1628884Y2523676D01*
X1614741Y2517818D01*
X1599432Y2517818D01*
G37*
%LPD*%
%LPC*%
G36*
X3889983Y2018212D02*
X3889983Y2018212D01*
X3875840Y2024070D01*
X3865015Y2034895D01*
X3859157Y2049038D01*
X3859157Y2064347D01*
X3865015Y2078491D01*
X3875840Y2089316D01*
X3889983Y2095174D01*
X3905292Y2095174D01*
X3919435Y2089316D01*
X3930260Y2078491D01*
X3936119Y2064347D01*
X3936119Y2049038D01*
X3930260Y2034895D01*
X3919435Y2024070D01*
X3905292Y2018212D01*
X3889983Y2018212D01*
G37*
%LPD*%
%LPC*%
G36*
X4785259Y2018212D02*
X4785259Y2018212D01*
X4771116Y2024070D01*
X4760291Y2034895D01*
X4754432Y2049038D01*
X4754432Y2064347D01*
X4760291Y2078491D01*
X4771116Y2089316D01*
X4785259Y2095174D01*
X4800568Y2095174D01*
X4814711Y2089316D01*
X4825536Y2078491D01*
X4831394Y2064347D01*
X4831394Y2049038D01*
X4825536Y2034895D01*
X4814711Y2024070D01*
X4800568Y2018212D01*
X4785259Y2018212D01*
G37*
%LPD*%
%LPC*%
G36*
X5097857Y2018212D02*
X5097857Y2018212D01*
X5083714Y2024070D01*
X5072889Y2034895D01*
X5067031Y2049038D01*
X5067031Y2064347D01*
X5072889Y2078491D01*
X5083714Y2089316D01*
X5097857Y2095174D01*
X5113166Y2095174D01*
X5127309Y2089316D01*
X5138134Y2078491D01*
X5143993Y2064347D01*
X5143993Y2049038D01*
X5138134Y2034895D01*
X5127309Y2024070D01*
X5113166Y2018212D01*
X5097857Y2018212D01*
G37*
%LPD*%
%LPC*%
G36*
X3289983Y2018212D02*
X3289983Y2018212D01*
X3275840Y2024070D01*
X3265015Y2034895D01*
X3259157Y2049038D01*
X3259157Y2064347D01*
X3265015Y2078491D01*
X3275840Y2089316D01*
X3289983Y2095174D01*
X3305292Y2095174D01*
X3319435Y2089316D01*
X3330260Y2078491D01*
X3336119Y2064347D01*
X3336119Y2049038D01*
X3330260Y2034895D01*
X3319435Y2024070D01*
X3305292Y2018212D01*
X3289983Y2018212D01*
G37*
%LPD*%
%LPC*%
G36*
X3577385Y2018212D02*
X3577385Y2018212D01*
X3563242Y2024070D01*
X3552417Y2034895D01*
X3546558Y2049038D01*
X3546558Y2064347D01*
X3552417Y2078491D01*
X3563242Y2089316D01*
X3577385Y2095174D01*
X3592694Y2095174D01*
X3606837Y2089316D01*
X3617662Y2078491D01*
X3623520Y2064347D01*
X3623520Y2049038D01*
X3617662Y2034895D01*
X3606837Y2024070D01*
X3592694Y2018212D01*
X3577385Y2018212D01*
G37*
%LPD*%
%LPC*%
G36*
X2977385Y2018212D02*
X2977385Y2018212D01*
X2963242Y2024070D01*
X2952417Y2034895D01*
X2946558Y2049038D01*
X2946558Y2064347D01*
X2952417Y2078491D01*
X2963242Y2089316D01*
X2977385Y2095174D01*
X2992694Y2095174D01*
X3006837Y2089316D01*
X3017662Y2078491D01*
X3023520Y2064347D01*
X3023520Y2049038D01*
X3017662Y2034895D01*
X3006837Y2024070D01*
X2992694Y2018212D01*
X2977385Y2018212D01*
G37*
%LPD*%
%LPC*%
G36*
X1902582Y2018212D02*
X1902582Y2018212D01*
X1888438Y2024070D01*
X1877613Y2034895D01*
X1871755Y2049038D01*
X1871755Y2064347D01*
X1877613Y2078491D01*
X1888438Y2089316D01*
X1902582Y2095174D01*
X1917891Y2095174D01*
X1932034Y2089316D01*
X1942859Y2078491D01*
X1948717Y2064347D01*
X1948717Y2049038D01*
X1942859Y2034895D01*
X1932034Y2024070D01*
X1917891Y2018212D01*
X1902582Y2018212D01*
G37*
%LPD*%
%LPC*%
G36*
X219610Y4169905D02*
X219610Y4169905D01*
X206379Y4175385D01*
X196252Y4185513D01*
X190771Y4198744D01*
X190771Y4213067D01*
X196252Y4226298D01*
X206379Y4236425D01*
X219610Y4241906D01*
X233933Y4241906D01*
X247164Y4236425D01*
X257292Y4226298D01*
X262772Y4213067D01*
X262772Y4198744D01*
X257292Y4185513D01*
X247164Y4175385D01*
X233933Y4169905D01*
X219610Y4169905D01*
G37*
%LPD*%
%LPC*%
G36*
X7512524Y2011243D02*
X7512524Y2011243D01*
X7499292Y2016724D01*
X7489165Y2026851D01*
X7483684Y2040083D01*
X7483684Y2054405D01*
X7489165Y2067637D01*
X7499292Y2077764D01*
X7512524Y2083245D01*
X7526846Y2083245D01*
X7540078Y2077764D01*
X7550205Y2067637D01*
X7555686Y2054405D01*
X7555686Y2040083D01*
X7550205Y2026851D01*
X7540078Y2016724D01*
X7526846Y2011243D01*
X7512524Y2011243D01*
G37*
%LPD*%
%LPC*%
G36*
X7512524Y2956125D02*
X7512524Y2956125D01*
X7499292Y2961606D01*
X7489165Y2971733D01*
X7483684Y2984965D01*
X7483684Y2999287D01*
X7489165Y3012519D01*
X7499292Y3022646D01*
X7512524Y3028127D01*
X7526846Y3028127D01*
X7540078Y3022646D01*
X7550205Y3012519D01*
X7555686Y2999287D01*
X7555686Y2984965D01*
X7550205Y2971733D01*
X7540078Y2961606D01*
X7526846Y2956125D01*
X7512524Y2956125D01*
G37*
%LPD*%
%LPC*%
G36*
X7512524Y2641165D02*
X7512524Y2641165D01*
X7499292Y2646645D01*
X7489165Y2656773D01*
X7483684Y2670004D01*
X7483684Y2684326D01*
X7489165Y2697558D01*
X7499292Y2707685D01*
X7512524Y2713166D01*
X7526846Y2713166D01*
X7540078Y2707685D01*
X7550205Y2697558D01*
X7555686Y2684326D01*
X7555686Y2670004D01*
X7550205Y2656773D01*
X7540078Y2646645D01*
X7526846Y2641165D01*
X7512524Y2641165D01*
G37*
%LPD*%
%LPC*%
G36*
X163831Y2780613D02*
X163831Y2780613D01*
X150599Y2786094D01*
X140472Y2796221D01*
X134991Y2809453D01*
X134991Y2823775D01*
X140472Y2837007D01*
X150599Y2847134D01*
X163831Y2852615D01*
X178153Y2852615D01*
X191385Y2847134D01*
X201512Y2837007D01*
X206993Y2823775D01*
X206993Y2809453D01*
X201512Y2796221D01*
X191385Y2786094D01*
X178153Y2780613D01*
X163831Y2780613D01*
G37*
%LPD*%
%LPC*%
G36*
X539422Y2780613D02*
X539422Y2780613D01*
X526190Y2786094D01*
X516063Y2796221D01*
X510582Y2809453D01*
X510582Y2823775D01*
X516063Y2837007D01*
X526190Y2847134D01*
X539422Y2852615D01*
X553744Y2852615D01*
X566975Y2847134D01*
X577103Y2837007D01*
X582583Y2823775D01*
X582583Y2809453D01*
X577103Y2796221D01*
X566975Y2786094D01*
X553744Y2780613D01*
X539422Y2780613D01*
G37*
%LPD*%
%LPC*%
G36*
X7512524Y2798645D02*
X7512524Y2798645D01*
X7499292Y2804126D01*
X7489165Y2814253D01*
X7483684Y2827484D01*
X7483684Y2841807D01*
X7489165Y2855038D01*
X7499292Y2865166D01*
X7512524Y2870646D01*
X7526846Y2870646D01*
X7540078Y2865166D01*
X7550205Y2855038D01*
X7555686Y2841807D01*
X7555686Y2827484D01*
X7550205Y2814253D01*
X7540078Y2804126D01*
X7526846Y2798645D01*
X7512524Y2798645D01*
G37*
%LPD*%
%LPC*%
G36*
X7512524Y2483684D02*
X7512524Y2483684D01*
X7499292Y2489165D01*
X7489165Y2499292D01*
X7483684Y2512524D01*
X7483684Y2526846D01*
X7489165Y2540078D01*
X7499292Y2550205D01*
X7512524Y2555686D01*
X7526846Y2555686D01*
X7540078Y2550205D01*
X7550205Y2540078D01*
X7555686Y2526846D01*
X7555686Y2512524D01*
X7550205Y2499292D01*
X7540078Y2489165D01*
X7526846Y2483684D01*
X7512524Y2483684D01*
G37*
%LPD*%
%LPC*%
G36*
X7512524Y1853763D02*
X7512524Y1853763D01*
X7499292Y1859244D01*
X7489165Y1869371D01*
X7483684Y1882603D01*
X7483684Y1896925D01*
X7489165Y1910156D01*
X7499292Y1920284D01*
X7512524Y1925764D01*
X7526846Y1925764D01*
X7540078Y1920284D01*
X7550205Y1910156D01*
X7555686Y1896925D01*
X7555686Y1882603D01*
X7550205Y1869371D01*
X7540078Y1859244D01*
X7526846Y1853763D01*
X7512524Y1853763D01*
G37*
%LPD*%
%LPC*%
G36*
X7512524Y2168724D02*
X7512524Y2168724D01*
X7499292Y2174204D01*
X7489165Y2184332D01*
X7483684Y2197563D01*
X7483684Y2211885D01*
X7489165Y2225117D01*
X7499292Y2235244D01*
X7512524Y2240725D01*
X7526846Y2240725D01*
X7540078Y2235244D01*
X7550205Y2225117D01*
X7555686Y2211885D01*
X7555686Y2197563D01*
X7550205Y2184332D01*
X7540078Y2174204D01*
X7526846Y2168724D01*
X7512524Y2168724D01*
G37*
%LPD*%
%LPC*%
G36*
X7512524Y2326204D02*
X7512524Y2326204D01*
X7499292Y2331685D01*
X7489165Y2341812D01*
X7483684Y2355044D01*
X7483684Y2369366D01*
X7489165Y2382597D01*
X7499292Y2392725D01*
X7512524Y2398205D01*
X7526846Y2398205D01*
X7540078Y2392725D01*
X7550205Y2382597D01*
X7555686Y2369366D01*
X7555686Y2355044D01*
X7550205Y2341812D01*
X7540078Y2331685D01*
X7526846Y2326204D01*
X7512524Y2326204D01*
G37*
%LPD*%
%LPC*%
G36*
X7512524Y3271086D02*
X7512524Y3271086D01*
X7499292Y3276567D01*
X7489165Y3286694D01*
X7483684Y3299925D01*
X7483684Y3314248D01*
X7489165Y3327479D01*
X7499292Y3337607D01*
X7512524Y3343087D01*
X7526846Y3343087D01*
X7540078Y3337607D01*
X7550205Y3327479D01*
X7555686Y3314248D01*
X7555686Y3299925D01*
X7550205Y3286694D01*
X7540078Y3276567D01*
X7526846Y3271086D01*
X7512524Y3271086D01*
G37*
%LPD*%
%LPC*%
G36*
X7512524Y3586047D02*
X7512524Y3586047D01*
X7499292Y3591527D01*
X7489165Y3601655D01*
X7483684Y3614886D01*
X7483684Y3629208D01*
X7489165Y3642440D01*
X7499292Y3652567D01*
X7512524Y3658048D01*
X7526846Y3658048D01*
X7540078Y3652567D01*
X7550205Y3642440D01*
X7555686Y3629208D01*
X7555686Y3614886D01*
X7550205Y3601655D01*
X7540078Y3591527D01*
X7526846Y3586047D01*
X7512524Y3586047D01*
G37*
%LPD*%
%LPC*%
G36*
X7512524Y3743527D02*
X7512524Y3743527D01*
X7499292Y3749008D01*
X7489165Y3759135D01*
X7483684Y3772366D01*
X7483684Y3786689D01*
X7489165Y3799920D01*
X7499292Y3810047D01*
X7512524Y3815528D01*
X7526846Y3815528D01*
X7540078Y3810047D01*
X7550205Y3799920D01*
X7555686Y3786689D01*
X7555686Y3772366D01*
X7550205Y3759135D01*
X7540078Y3749008D01*
X7526846Y3743527D01*
X7512524Y3743527D01*
G37*
%LPD*%
%LPC*%
G36*
X7512524Y1696283D02*
X7512524Y1696283D01*
X7499292Y1701763D01*
X7489165Y1711891D01*
X7483684Y1725122D01*
X7483684Y1739445D01*
X7489165Y1752676D01*
X7499292Y1762803D01*
X7512524Y1768284D01*
X7526846Y1768284D01*
X7540078Y1762803D01*
X7550205Y1752676D01*
X7555686Y1739445D01*
X7555686Y1725122D01*
X7550205Y1711891D01*
X7540078Y1701763D01*
X7526846Y1696283D01*
X7512524Y1696283D01*
G37*
%LPD*%
%LPC*%
G36*
X7512524Y3428566D02*
X7512524Y3428566D01*
X7499292Y3434047D01*
X7489165Y3444174D01*
X7483684Y3457406D01*
X7483684Y3471728D01*
X7489165Y3484960D01*
X7499292Y3495087D01*
X7512524Y3500568D01*
X7526846Y3500568D01*
X7540078Y3495087D01*
X7550205Y3484960D01*
X7555686Y3471728D01*
X7555686Y3457406D01*
X7550205Y3444174D01*
X7540078Y3434047D01*
X7526846Y3428566D01*
X7512524Y3428566D01*
G37*
%LPD*%
%LPC*%
G36*
X463374Y3372976D02*
X463374Y3372976D01*
X450258Y3378408D01*
X440219Y3388447D01*
X434787Y3401563D01*
X434787Y3415760D01*
X440219Y3428876D01*
X450258Y3438914D01*
X463374Y3444347D01*
X477571Y3444347D01*
X490687Y3438914D01*
X500725Y3428876D01*
X506158Y3415760D01*
X506158Y3401563D01*
X500725Y3388447D01*
X490687Y3378408D01*
X477571Y3372976D01*
X463374Y3372976D01*
G37*
%LPD*%
%LPC*%
G36*
X364949Y3372976D02*
X364949Y3372976D01*
X351833Y3378408D01*
X341794Y3388447D01*
X336361Y3401563D01*
X336361Y3415760D01*
X341794Y3428876D01*
X351833Y3438914D01*
X364949Y3444347D01*
X379146Y3444347D01*
X392261Y3438914D01*
X402300Y3428876D01*
X407733Y3415760D01*
X407733Y3401563D01*
X402300Y3388447D01*
X392261Y3378408D01*
X379146Y3372976D01*
X364949Y3372976D01*
G37*
%LPD*%
%LPC*%
G36*
X266523Y3372976D02*
X266523Y3372976D01*
X253408Y3378408D01*
X243369Y3388447D01*
X237936Y3401563D01*
X237936Y3415760D01*
X243369Y3428876D01*
X253408Y3438914D01*
X266523Y3444347D01*
X280720Y3444347D01*
X293836Y3438914D01*
X303875Y3428876D01*
X309308Y3415760D01*
X309308Y3401563D01*
X303875Y3388447D01*
X293836Y3378408D01*
X280720Y3372976D01*
X266523Y3372976D01*
G37*
%LPD*%
%LPC*%
G36*
X1911046Y3060802D02*
X1911046Y3060802D01*
X1899385Y3072463D01*
X1899385Y3088954D01*
X1908704Y3098273D01*
X1908749Y3098336D01*
X1908810Y3098384D01*
X1909031Y3098728D01*
X1909269Y3099060D01*
X1909292Y3099134D01*
X1909334Y3099199D01*
X1909434Y3099594D01*
X1909555Y3099985D01*
X1909553Y3100063D01*
X1909571Y3100138D01*
X1909540Y3100545D01*
X1909530Y3100954D01*
X1909503Y3101027D01*
X1909497Y3101104D01*
X1909337Y3101480D01*
X1909197Y3101864D01*
X1909149Y3101924D01*
X1909119Y3101996D01*
X1908704Y3102515D01*
X1899385Y3111833D01*
X1899385Y3128324D01*
X1911046Y3139985D01*
X1927537Y3139985D01*
X1939197Y3128324D01*
X1939197Y3111833D01*
X1929879Y3102515D01*
X1929833Y3102451D01*
X1929773Y3102403D01*
X1929552Y3102060D01*
X1929313Y3101728D01*
X1929290Y3101654D01*
X1929248Y3101588D01*
X1929148Y3101193D01*
X1929028Y3100802D01*
X1929030Y3100724D01*
X1929011Y3100649D01*
X1929042Y3100242D01*
X1929053Y3099834D01*
X1929079Y3099761D01*
X1929085Y3099683D01*
X1929245Y3099307D01*
X1929385Y3098924D01*
X1929434Y3098863D01*
X1929464Y3098792D01*
X1929879Y3098273D01*
X1936855Y3091296D01*
X1936918Y3091251D01*
X1936967Y3091190D01*
X1937311Y3090969D01*
X1937642Y3090731D01*
X1937716Y3090708D01*
X1937781Y3090666D01*
X1938177Y3090566D01*
X1938568Y3090445D01*
X1938646Y3090447D01*
X1938721Y3090428D01*
X1939127Y3090460D01*
X1939536Y3090470D01*
X1939609Y3090497D01*
X1939687Y3090503D01*
X1940063Y3090662D01*
X1940446Y3090802D01*
X1940507Y3090851D01*
X1940578Y3090881D01*
X1941097Y3091296D01*
X1950416Y3100615D01*
X1966907Y3100615D01*
X1978568Y3088954D01*
X1978568Y3072463D01*
X1966907Y3060802D01*
X1950416Y3060802D01*
X1941097Y3070121D01*
X1941034Y3070167D01*
X1940986Y3070227D01*
X1940642Y3070449D01*
X1940310Y3070687D01*
X1940236Y3070710D01*
X1940171Y3070751D01*
X1939775Y3070852D01*
X1939385Y3070972D01*
X1939307Y3070970D01*
X1939232Y3070989D01*
X1938825Y3070957D01*
X1938416Y3070947D01*
X1938343Y3070920D01*
X1938266Y3070914D01*
X1937890Y3070755D01*
X1937506Y3070615D01*
X1937446Y3070566D01*
X1937374Y3070536D01*
X1936855Y3070121D01*
X1927537Y3060802D01*
X1911046Y3060802D01*
G37*
%LPD*%
%LPC*%
G36*
X4794904Y2627732D02*
X4794904Y2627732D01*
X4783243Y2639392D01*
X4783243Y2655883D01*
X4792562Y2665202D01*
X4792608Y2665265D01*
X4792668Y2665313D01*
X4792890Y2665657D01*
X4793128Y2665989D01*
X4793150Y2666063D01*
X4793192Y2666128D01*
X4793292Y2666523D01*
X4793413Y2666914D01*
X4793411Y2666992D01*
X4793430Y2667067D01*
X4793398Y2667474D01*
X4793388Y2667883D01*
X4793361Y2667956D01*
X4793355Y2668033D01*
X4793196Y2668409D01*
X4793056Y2668793D01*
X4793007Y2668853D01*
X4792977Y2668925D01*
X4792562Y2669444D01*
X4783243Y2678762D01*
X4783243Y2695253D01*
X4794904Y2706914D01*
X4811395Y2706914D01*
X4820714Y2697595D01*
X4820777Y2697550D01*
X4820825Y2697489D01*
X4821169Y2697268D01*
X4821500Y2697030D01*
X4821575Y2697007D01*
X4821640Y2696965D01*
X4822035Y2696865D01*
X4822426Y2696745D01*
X4822504Y2696747D01*
X4822579Y2696728D01*
X4822986Y2696759D01*
X4823395Y2696769D01*
X4823468Y2696796D01*
X4823545Y2696802D01*
X4823920Y2696961D01*
X4824305Y2697102D01*
X4824365Y2697150D01*
X4824437Y2697180D01*
X4824955Y2697595D01*
X4834274Y2706914D01*
X4850765Y2706914D01*
X4862426Y2695253D01*
X4862426Y2678762D01*
X4850765Y2667102D01*
X4834274Y2667102D01*
X4824955Y2676421D01*
X4824892Y2676466D01*
X4824844Y2676526D01*
X4824583Y2676694D01*
X4824428Y2676827D01*
X4824340Y2676863D01*
X4824169Y2676986D01*
X4824094Y2677009D01*
X4824029Y2677051D01*
X4823634Y2677151D01*
X4823608Y2677159D01*
X4823530Y2677190D01*
X4823492Y2677194D01*
X4823243Y2677271D01*
X4823165Y2677269D01*
X4823090Y2677288D01*
X4822683Y2677257D01*
X4822274Y2677246D01*
X4822202Y2677219D01*
X4822124Y2677214D01*
X4821892Y2677115D01*
X4821843Y2677107D01*
X4821731Y2677048D01*
X4821364Y2676914D01*
X4821304Y2676866D01*
X4821232Y2676835D01*
X4821043Y2676684D01*
X4820987Y2676654D01*
X4820927Y2676591D01*
X4820714Y2676421D01*
X4813737Y2669444D01*
X4813692Y2669381D01*
X4813631Y2669332D01*
X4813410Y2668988D01*
X4813172Y2668657D01*
X4813149Y2668583D01*
X4813107Y2668517D01*
X4813007Y2668122D01*
X4812886Y2667731D01*
X4812888Y2667653D01*
X4812869Y2667578D01*
X4812901Y2667172D01*
X4812911Y2666763D01*
X4812938Y2666690D01*
X4812944Y2666612D01*
X4813103Y2666236D01*
X4813243Y2665853D01*
X4813292Y2665792D01*
X4813322Y2665721D01*
X4813737Y2665202D01*
X4823056Y2655883D01*
X4823056Y2639392D01*
X4811395Y2627732D01*
X4794904Y2627732D01*
G37*
%LPD*%
%LPC*%
G36*
X6116641Y3004275D02*
X6116641Y3004275D01*
X6103742Y3009618D01*
X6093870Y3019490D01*
X6088527Y3032389D01*
X6088527Y3046351D01*
X6093870Y3059250D01*
X6103742Y3069122D01*
X6116641Y3074465D01*
X6130603Y3074465D01*
X6143502Y3069122D01*
X6153374Y3059250D01*
X6158717Y3046351D01*
X6158717Y3032389D01*
X6153374Y3019490D01*
X6143502Y3009618D01*
X6130603Y3004275D01*
X6116641Y3004275D01*
G37*
%LPD*%
%LPC*%
G36*
X6216641Y2704275D02*
X6216641Y2704275D01*
X6203742Y2709618D01*
X6193870Y2719490D01*
X6188527Y2732389D01*
X6188527Y2746351D01*
X6193870Y2759250D01*
X6203742Y2769122D01*
X6216641Y2774465D01*
X6230603Y2774465D01*
X6243502Y2769122D01*
X6253374Y2759250D01*
X6258717Y2746351D01*
X6258717Y2732389D01*
X6253374Y2719490D01*
X6243502Y2709618D01*
X6230603Y2704275D01*
X6216641Y2704275D01*
G37*
%LPD*%
%LPC*%
G36*
X6116641Y2704275D02*
X6116641Y2704275D01*
X6103742Y2709618D01*
X6093870Y2719490D01*
X6088527Y2732389D01*
X6088527Y2746351D01*
X6093870Y2759250D01*
X6103742Y2769122D01*
X6116641Y2774465D01*
X6130603Y2774465D01*
X6143502Y2769122D01*
X6153374Y2759250D01*
X6158717Y2746351D01*
X6158717Y2732389D01*
X6153374Y2719490D01*
X6143502Y2709618D01*
X6130603Y2704275D01*
X6116641Y2704275D01*
G37*
%LPD*%
%LPC*%
G36*
X6216641Y3004275D02*
X6216641Y3004275D01*
X6203742Y3009618D01*
X6193870Y3019490D01*
X6188527Y3032389D01*
X6188527Y3046351D01*
X6193870Y3059250D01*
X6203742Y3069122D01*
X6216641Y3074465D01*
X6230603Y3074465D01*
X6243502Y3069122D01*
X6253374Y3059250D01*
X6258717Y3046351D01*
X6258717Y3032389D01*
X6253374Y3019490D01*
X6243502Y3009618D01*
X6230603Y3004275D01*
X6216641Y3004275D01*
G37*
%LPD*%
%LPC*%
G36*
X6116641Y3104275D02*
X6116641Y3104275D01*
X6103742Y3109618D01*
X6093870Y3119490D01*
X6088527Y3132389D01*
X6088527Y3146351D01*
X6093870Y3159250D01*
X6103742Y3169122D01*
X6116641Y3174465D01*
X6130603Y3174465D01*
X6143502Y3169122D01*
X6153374Y3159250D01*
X6158717Y3146351D01*
X6158717Y3132389D01*
X6153374Y3119490D01*
X6143502Y3109618D01*
X6130603Y3104275D01*
X6116641Y3104275D01*
G37*
%LPD*%
%LPC*%
G36*
X6216641Y3104275D02*
X6216641Y3104275D01*
X6203742Y3109618D01*
X6193870Y3119490D01*
X6188527Y3132389D01*
X6188527Y3146351D01*
X6193870Y3159250D01*
X6203742Y3169122D01*
X6216641Y3174465D01*
X6230603Y3174465D01*
X6243502Y3169122D01*
X6253374Y3159250D01*
X6258717Y3146351D01*
X6258717Y3132389D01*
X6253374Y3119490D01*
X6243502Y3109618D01*
X6230603Y3104275D01*
X6216641Y3104275D01*
G37*
%LPD*%
%LPC*%
G36*
X6216641Y2904275D02*
X6216641Y2904275D01*
X6203742Y2909618D01*
X6193870Y2919490D01*
X6188527Y2932389D01*
X6188527Y2946351D01*
X6193870Y2959250D01*
X6203742Y2969122D01*
X6216641Y2974465D01*
X6230603Y2974465D01*
X6243502Y2969122D01*
X6253374Y2959250D01*
X6258717Y2946351D01*
X6258717Y2932389D01*
X6253374Y2919490D01*
X6243502Y2909618D01*
X6230603Y2904275D01*
X6216641Y2904275D01*
G37*
%LPD*%
%LPC*%
G36*
X6116641Y2804275D02*
X6116641Y2804275D01*
X6103742Y2809618D01*
X6093870Y2819490D01*
X6088527Y2832389D01*
X6088527Y2846351D01*
X6093870Y2859250D01*
X6103742Y2869122D01*
X6116641Y2874465D01*
X6130603Y2874465D01*
X6143502Y2869122D01*
X6153374Y2859250D01*
X6158717Y2846351D01*
X6158717Y2832389D01*
X6153374Y2819490D01*
X6143502Y2809618D01*
X6130603Y2804275D01*
X6116641Y2804275D01*
G37*
%LPD*%
%LPC*%
G36*
X6216641Y2804275D02*
X6216641Y2804275D01*
X6203742Y2809618D01*
X6193870Y2819490D01*
X6188527Y2832389D01*
X6188527Y2846351D01*
X6193870Y2859250D01*
X6203742Y2869122D01*
X6216641Y2874465D01*
X6230603Y2874465D01*
X6243502Y2869122D01*
X6253374Y2859250D01*
X6258717Y2846351D01*
X6258717Y2832389D01*
X6253374Y2819490D01*
X6243502Y2809618D01*
X6230603Y2804275D01*
X6216641Y2804275D01*
G37*
%LPD*%
%LPC*%
G36*
X6116641Y2904275D02*
X6116641Y2904275D01*
X6103742Y2909618D01*
X6093870Y2919490D01*
X6088527Y2932389D01*
X6088527Y2946351D01*
X6093870Y2959250D01*
X6103742Y2969122D01*
X6116641Y2974465D01*
X6130603Y2974465D01*
X6143502Y2969122D01*
X6153374Y2959250D01*
X6158717Y2946351D01*
X6158717Y2932389D01*
X6153374Y2919490D01*
X6143502Y2909618D01*
X6130603Y2904275D01*
X6116641Y2904275D01*
G37*
%LPD*%
%LPC*%
G36*
X2511440Y2125763D02*
X2511440Y2125763D01*
X2499779Y2137424D01*
X2499779Y2153915D01*
X2511440Y2165575D01*
X2527930Y2165575D01*
X2534029Y2159477D01*
X2534258Y2159312D01*
X2534462Y2159118D01*
X2534649Y2159031D01*
X2534815Y2158912D01*
X2535085Y2158829D01*
X2535341Y2158710D01*
X2535545Y2158687D01*
X2535741Y2158626D01*
X2536023Y2158634D01*
X2536303Y2158602D01*
X2536504Y2158646D01*
X2536710Y2158651D01*
X2536974Y2158748D01*
X2537250Y2158808D01*
X2537427Y2158913D01*
X2537620Y2158983D01*
X2537840Y2159159D01*
X2538082Y2159304D01*
X2538216Y2159460D01*
X2538376Y2159588D01*
X2538529Y2159825D01*
X2538712Y2160039D01*
X2538789Y2160230D01*
X2538901Y2160403D01*
X2538970Y2160676D01*
X2539075Y2160938D01*
X2539107Y2161218D01*
X2539138Y2161342D01*
X2539131Y2161435D01*
X2539149Y2161598D01*
X2539149Y2163757D01*
X2550810Y2175418D01*
X2555835Y2175418D01*
X2555911Y2175430D01*
X2555988Y2175422D01*
X2556388Y2175508D01*
X2556791Y2175574D01*
X2556859Y2175611D01*
X2556935Y2175627D01*
X2557286Y2175837D01*
X2557647Y2176027D01*
X2557700Y2176084D01*
X2557767Y2176123D01*
X2558032Y2176433D01*
X2558314Y2176730D01*
X2558347Y2176800D01*
X2558397Y2176859D01*
X2558550Y2177238D01*
X2558723Y2177608D01*
X2558731Y2177685D01*
X2558760Y2177757D01*
X2558834Y2178417D01*
X2558834Y2193285D01*
X2570495Y2204945D01*
X2586985Y2204945D01*
X2598646Y2193285D01*
X2598646Y2176794D01*
X2586985Y2165133D01*
X2581961Y2165133D01*
X2581884Y2165121D01*
X2581807Y2165129D01*
X2581407Y2165043D01*
X2581004Y2164977D01*
X2580936Y2164940D01*
X2580860Y2164924D01*
X2580509Y2164714D01*
X2580148Y2164524D01*
X2580095Y2164467D01*
X2580028Y2164428D01*
X2579763Y2164118D01*
X2579481Y2163821D01*
X2579448Y2163751D01*
X2579398Y2163692D01*
X2579245Y2163313D01*
X2579072Y2162943D01*
X2579064Y2162866D01*
X2579035Y2162794D01*
X2578961Y2162134D01*
X2578961Y2147266D01*
X2567300Y2135606D01*
X2550810Y2135606D01*
X2544711Y2141704D01*
X2544482Y2141869D01*
X2544278Y2142063D01*
X2544091Y2142150D01*
X2543925Y2142269D01*
X2543655Y2142352D01*
X2543399Y2142471D01*
X2543195Y2142494D01*
X2542999Y2142555D01*
X2542717Y2142547D01*
X2542437Y2142579D01*
X2542236Y2142535D01*
X2542030Y2142530D01*
X2541766Y2142433D01*
X2541490Y2142373D01*
X2541313Y2142268D01*
X2541120Y2142198D01*
X2540900Y2142022D01*
X2540658Y2141877D01*
X2540524Y2141721D01*
X2540364Y2141593D01*
X2540211Y2141356D01*
X2540028Y2141141D01*
X2539951Y2140951D01*
X2539839Y2140778D01*
X2539770Y2140505D01*
X2539665Y2140243D01*
X2539633Y2139963D01*
X2539602Y2139839D01*
X2539609Y2139746D01*
X2539591Y2139583D01*
X2539591Y2137424D01*
X2527930Y2125763D01*
X2511440Y2125763D01*
G37*
%LPD*%
%LPC*%
G36*
X3003566Y2608047D02*
X3003566Y2608047D01*
X2991905Y2619707D01*
X2991905Y2634575D01*
X2991892Y2634651D01*
X2991901Y2634728D01*
X2991814Y2635128D01*
X2991748Y2635531D01*
X2991712Y2635599D01*
X2991696Y2635675D01*
X2991486Y2636026D01*
X2991295Y2636387D01*
X2991239Y2636440D01*
X2991199Y2636507D01*
X2990890Y2636773D01*
X2990593Y2637054D01*
X2990523Y2637087D01*
X2990464Y2637138D01*
X2990085Y2637290D01*
X2989715Y2637463D01*
X2989637Y2637471D01*
X2989566Y2637500D01*
X2988906Y2637574D01*
X2983881Y2637574D01*
X2974562Y2646893D01*
X2974499Y2646938D01*
X2974450Y2646999D01*
X2974106Y2647220D01*
X2973775Y2647458D01*
X2973701Y2647481D01*
X2973636Y2647523D01*
X2973240Y2647623D01*
X2972849Y2647743D01*
X2972771Y2647742D01*
X2972696Y2647760D01*
X2972290Y2647729D01*
X2971881Y2647719D01*
X2971808Y2647692D01*
X2971730Y2647686D01*
X2971354Y2647526D01*
X2970971Y2647386D01*
X2970910Y2647338D01*
X2970839Y2647308D01*
X2970320Y2646893D01*
X2961001Y2637574D01*
X2944510Y2637574D01*
X2932850Y2649235D01*
X2932850Y2665726D01*
X2944510Y2677386D01*
X2961001Y2677386D01*
X2970320Y2668068D01*
X2970383Y2668022D01*
X2970431Y2667962D01*
X2970775Y2667740D01*
X2971107Y2667502D01*
X2971181Y2667479D01*
X2971246Y2667437D01*
X2971642Y2667337D01*
X2972032Y2667217D01*
X2972110Y2667219D01*
X2972185Y2667200D01*
X2972592Y2667231D01*
X2973001Y2667242D01*
X2973074Y2667269D01*
X2973151Y2667274D01*
X2973527Y2667434D01*
X2973911Y2667574D01*
X2973971Y2667623D01*
X2974043Y2667653D01*
X2974562Y2668068D01*
X2983881Y2677386D01*
X3000371Y2677386D01*
X3012032Y2665726D01*
X3012032Y2650858D01*
X3012045Y2650782D01*
X3012036Y2650704D01*
X3012123Y2650305D01*
X3012189Y2649902D01*
X3012225Y2649834D01*
X3012241Y2649758D01*
X3012451Y2649406D01*
X3012642Y2649046D01*
X3012698Y2648992D01*
X3012738Y2648926D01*
X3013047Y2648660D01*
X3013344Y2648379D01*
X3013414Y2648346D01*
X3013473Y2648295D01*
X3013852Y2648142D01*
X3014222Y2647970D01*
X3014299Y2647961D01*
X3014371Y2647932D01*
X3015031Y2647859D01*
X3020056Y2647859D01*
X3031717Y2636198D01*
X3031717Y2619707D01*
X3020056Y2608047D01*
X3003566Y2608047D01*
G37*
%LPD*%
%LPC*%
G36*
X7089395Y4089708D02*
X7089395Y4089708D01*
X7077075Y4094811D01*
X7067646Y4104241D01*
X7062543Y4116561D01*
X7062543Y4129896D01*
X7067646Y4142216D01*
X7077075Y4151646D01*
X7089395Y4156749D01*
X7102731Y4156749D01*
X7115051Y4151646D01*
X7124480Y4142216D01*
X7129583Y4129896D01*
X7129583Y4116561D01*
X7124480Y4104241D01*
X7115051Y4094811D01*
X7102731Y4089708D01*
X7089395Y4089708D01*
G37*
%LPD*%
%LPC*%
G36*
X6389395Y4189708D02*
X6389395Y4189708D01*
X6377075Y4194811D01*
X6367646Y4204241D01*
X6362543Y4216561D01*
X6362543Y4229896D01*
X6367646Y4242216D01*
X6377075Y4251646D01*
X6389395Y4256749D01*
X6402731Y4256749D01*
X6415051Y4251646D01*
X6424480Y4242216D01*
X6429583Y4229896D01*
X6429583Y4216561D01*
X6424480Y4204241D01*
X6415051Y4194811D01*
X6402731Y4189708D01*
X6389395Y4189708D01*
G37*
%LPD*%
%LPC*%
G36*
X6289395Y4189708D02*
X6289395Y4189708D01*
X6277075Y4194811D01*
X6267646Y4204241D01*
X6262543Y4216561D01*
X6262543Y4229896D01*
X6267646Y4242216D01*
X6277075Y4251646D01*
X6289395Y4256749D01*
X6302731Y4256749D01*
X6315051Y4251646D01*
X6324480Y4242216D01*
X6329583Y4229896D01*
X6329583Y4216561D01*
X6324480Y4204241D01*
X6315051Y4194811D01*
X6302731Y4189708D01*
X6289395Y4189708D01*
G37*
%LPD*%
%LPC*%
G36*
X6189395Y4189708D02*
X6189395Y4189708D01*
X6177075Y4194811D01*
X6167646Y4204241D01*
X6162543Y4216561D01*
X6162543Y4229896D01*
X6167646Y4242216D01*
X6177075Y4251646D01*
X6189395Y4256749D01*
X6202731Y4256749D01*
X6215051Y4251646D01*
X6224480Y4242216D01*
X6229583Y4229896D01*
X6229583Y4216561D01*
X6224480Y4204241D01*
X6215051Y4194811D01*
X6202731Y4189708D01*
X6189395Y4189708D01*
G37*
%LPD*%
%LPC*%
G36*
X6089395Y4189708D02*
X6089395Y4189708D01*
X6077075Y4194811D01*
X6067646Y4204241D01*
X6062543Y4216561D01*
X6062543Y4229896D01*
X6067646Y4242216D01*
X6077075Y4251646D01*
X6089395Y4256749D01*
X6102731Y4256749D01*
X6115051Y4251646D01*
X6124480Y4242216D01*
X6129583Y4229896D01*
X6129583Y4216561D01*
X6124480Y4204241D01*
X6115051Y4194811D01*
X6102731Y4189708D01*
X6089395Y4189708D01*
G37*
%LPD*%
%LPC*%
G36*
X5989395Y4189708D02*
X5989395Y4189708D01*
X5977075Y4194811D01*
X5967646Y4204241D01*
X5962543Y4216561D01*
X5962543Y4229896D01*
X5967646Y4242216D01*
X5977075Y4251646D01*
X5989395Y4256749D01*
X6002731Y4256749D01*
X6015051Y4251646D01*
X6024480Y4242216D01*
X6029583Y4229896D01*
X6029583Y4216561D01*
X6024480Y4204241D01*
X6015051Y4194811D01*
X6002731Y4189708D01*
X5989395Y4189708D01*
G37*
%LPD*%
%LPC*%
G36*
X5889395Y4189708D02*
X5889395Y4189708D01*
X5877075Y4194811D01*
X5867646Y4204241D01*
X5862543Y4216561D01*
X5862543Y4229896D01*
X5867646Y4242216D01*
X5877075Y4251646D01*
X5889395Y4256749D01*
X5902731Y4256749D01*
X5915051Y4251646D01*
X5924480Y4242216D01*
X5929583Y4229896D01*
X5929583Y4216561D01*
X5924480Y4204241D01*
X5915051Y4194811D01*
X5902731Y4189708D01*
X5889395Y4189708D01*
G37*
%LPD*%
%LPC*%
G36*
X4727190Y4189708D02*
X4727190Y4189708D01*
X4714871Y4194811D01*
X4705441Y4204241D01*
X4700338Y4216561D01*
X4700338Y4229896D01*
X4705441Y4242216D01*
X4714871Y4251646D01*
X4727190Y4256749D01*
X4740526Y4256749D01*
X4752846Y4251646D01*
X4762275Y4242216D01*
X4767379Y4229896D01*
X4767379Y4216561D01*
X4762275Y4204241D01*
X4752846Y4194811D01*
X4740526Y4189708D01*
X4727190Y4189708D01*
G37*
%LPD*%
%LPC*%
G36*
X4627190Y4189708D02*
X4627190Y4189708D01*
X4614871Y4194811D01*
X4605441Y4204241D01*
X4600338Y4216561D01*
X4600338Y4229896D01*
X4605441Y4242216D01*
X4614871Y4251646D01*
X4627190Y4256749D01*
X4640526Y4256749D01*
X4652846Y4251646D01*
X4662275Y4242216D01*
X4667379Y4229896D01*
X4667379Y4216561D01*
X4662275Y4204241D01*
X4652846Y4194811D01*
X4640526Y4189708D01*
X4627190Y4189708D01*
G37*
%LPD*%
%LPC*%
G36*
X4527190Y4189708D02*
X4527190Y4189708D01*
X4514871Y4194811D01*
X4505441Y4204241D01*
X4500338Y4216561D01*
X4500338Y4229896D01*
X4505441Y4242216D01*
X4514871Y4251646D01*
X4527190Y4256749D01*
X4540526Y4256749D01*
X4552846Y4251646D01*
X4562275Y4242216D01*
X4567379Y4229896D01*
X4567379Y4216561D01*
X4562275Y4204241D01*
X4552846Y4194811D01*
X4540526Y4189708D01*
X4527190Y4189708D01*
G37*
%LPD*%
%LPC*%
G36*
X4427190Y4189708D02*
X4427190Y4189708D01*
X4414871Y4194811D01*
X4405441Y4204241D01*
X4400338Y4216561D01*
X4400338Y4229896D01*
X4405441Y4242216D01*
X4414871Y4251646D01*
X4427190Y4256749D01*
X4440526Y4256749D01*
X4452846Y4251646D01*
X4462275Y4242216D01*
X4467379Y4229896D01*
X4467379Y4216561D01*
X4462275Y4204241D01*
X4452846Y4194811D01*
X4440526Y4189708D01*
X4427190Y4189708D01*
G37*
%LPD*%
%LPC*%
G36*
X4327190Y4189708D02*
X4327190Y4189708D01*
X4314871Y4194811D01*
X4305441Y4204241D01*
X4300338Y4216561D01*
X4300338Y4229896D01*
X4305441Y4242216D01*
X4314871Y4251646D01*
X4327190Y4256749D01*
X4340526Y4256749D01*
X4352846Y4251646D01*
X4362275Y4242216D01*
X4367379Y4229896D01*
X4367379Y4216561D01*
X4362275Y4204241D01*
X4352846Y4194811D01*
X4340526Y4189708D01*
X4327190Y4189708D01*
G37*
%LPD*%
%LPC*%
G36*
X4227190Y4189708D02*
X4227190Y4189708D01*
X4214871Y4194811D01*
X4205441Y4204241D01*
X4200338Y4216561D01*
X4200338Y4229896D01*
X4205441Y4242216D01*
X4214871Y4251646D01*
X4227190Y4256749D01*
X4240526Y4256749D01*
X4252846Y4251646D01*
X4262275Y4242216D01*
X4267379Y4229896D01*
X4267379Y4216561D01*
X4262275Y4204241D01*
X4252846Y4194811D01*
X4240526Y4189708D01*
X4227190Y4189708D01*
G37*
%LPD*%
%LPC*%
G36*
X1264986Y4189708D02*
X1264986Y4189708D01*
X1252666Y4194811D01*
X1243236Y4204241D01*
X1238133Y4216561D01*
X1238133Y4229896D01*
X1243236Y4242216D01*
X1252666Y4251646D01*
X1264986Y4256749D01*
X1278321Y4256749D01*
X1290641Y4251646D01*
X1300071Y4242216D01*
X1305174Y4229896D01*
X1305174Y4216561D01*
X1300071Y4204241D01*
X1290641Y4194811D01*
X1278321Y4189708D01*
X1264986Y4189708D01*
G37*
%LPD*%
%LPC*%
G36*
X1364986Y4189708D02*
X1364986Y4189708D01*
X1352666Y4194811D01*
X1343236Y4204241D01*
X1338133Y4216561D01*
X1338133Y4229896D01*
X1343236Y4242216D01*
X1352666Y4251646D01*
X1364986Y4256749D01*
X1378321Y4256749D01*
X1390641Y4251646D01*
X1400071Y4242216D01*
X1405174Y4229896D01*
X1405174Y4216561D01*
X1400071Y4204241D01*
X1390641Y4194811D01*
X1378321Y4189708D01*
X1364986Y4189708D01*
G37*
%LPD*%
%LPC*%
G36*
X1464986Y4189708D02*
X1464986Y4189708D01*
X1452666Y4194811D01*
X1443236Y4204241D01*
X1438133Y4216561D01*
X1438133Y4229896D01*
X1443236Y4242216D01*
X1452666Y4251646D01*
X1464986Y4256749D01*
X1478321Y4256749D01*
X1490641Y4251646D01*
X1500071Y4242216D01*
X1505174Y4229896D01*
X1505174Y4216561D01*
X1500071Y4204241D01*
X1490641Y4194811D01*
X1478321Y4189708D01*
X1464986Y4189708D01*
G37*
%LPD*%
%LPC*%
G36*
X1564986Y4189708D02*
X1564986Y4189708D01*
X1552666Y4194811D01*
X1543236Y4204241D01*
X1538133Y4216561D01*
X1538133Y4229896D01*
X1543236Y4242216D01*
X1552666Y4251646D01*
X1564986Y4256749D01*
X1578321Y4256749D01*
X1590641Y4251646D01*
X1600071Y4242216D01*
X1605174Y4229896D01*
X1605174Y4216561D01*
X1600071Y4204241D01*
X1590641Y4194811D01*
X1578321Y4189708D01*
X1564986Y4189708D01*
G37*
%LPD*%
%LPC*%
G36*
X1664986Y4189708D02*
X1664986Y4189708D01*
X1652666Y4194811D01*
X1643236Y4204241D01*
X1638133Y4216561D01*
X1638133Y4229896D01*
X1643236Y4242216D01*
X1652666Y4251646D01*
X1664986Y4256749D01*
X1678321Y4256749D01*
X1690641Y4251646D01*
X1700071Y4242216D01*
X1705174Y4229896D01*
X1705174Y4216561D01*
X1700071Y4204241D01*
X1690641Y4194811D01*
X1678321Y4189708D01*
X1664986Y4189708D01*
G37*
%LPD*%
%LPC*%
G36*
X6489395Y4189708D02*
X6489395Y4189708D01*
X6477075Y4194811D01*
X6467646Y4204241D01*
X6462543Y4216561D01*
X6462543Y4229896D01*
X6467646Y4242216D01*
X6477075Y4251646D01*
X6489395Y4256749D01*
X6502731Y4256749D01*
X6515051Y4251646D01*
X6524480Y4242216D01*
X6529583Y4229896D01*
X6529583Y4216561D01*
X6524480Y4204241D01*
X6515051Y4194811D01*
X6502731Y4189708D01*
X6489395Y4189708D01*
G37*
%LPD*%
%LPC*%
G36*
X3927190Y4189708D02*
X3927190Y4189708D01*
X3914871Y4194811D01*
X3905441Y4204241D01*
X3900338Y4216561D01*
X3900338Y4229896D01*
X3905441Y4242216D01*
X3914871Y4251646D01*
X3927190Y4256749D01*
X3940526Y4256749D01*
X3952846Y4251646D01*
X3962275Y4242216D01*
X3967379Y4229896D01*
X3967379Y4216561D01*
X3962275Y4204241D01*
X3952846Y4194811D01*
X3940526Y4189708D01*
X3927190Y4189708D01*
G37*
%LPD*%
%LPC*%
G36*
X3727190Y4189708D02*
X3727190Y4189708D01*
X3714871Y4194811D01*
X3705441Y4204241D01*
X3700338Y4216561D01*
X3700338Y4229896D01*
X3705441Y4242216D01*
X3714871Y4251646D01*
X3727190Y4256749D01*
X3740526Y4256749D01*
X3752846Y4251646D01*
X3762275Y4242216D01*
X3767379Y4229896D01*
X3767379Y4216561D01*
X3762275Y4204241D01*
X3752846Y4194811D01*
X3740526Y4189708D01*
X3727190Y4189708D01*
G37*
%LPD*%
%LPC*%
G36*
X3627190Y4189708D02*
X3627190Y4189708D01*
X3614871Y4194811D01*
X3605441Y4204241D01*
X3600338Y4216561D01*
X3600338Y4229896D01*
X3605441Y4242216D01*
X3614871Y4251646D01*
X3627190Y4256749D01*
X3640526Y4256749D01*
X3652846Y4251646D01*
X3662275Y4242216D01*
X3667379Y4229896D01*
X3667379Y4216561D01*
X3662275Y4204241D01*
X3652846Y4194811D01*
X3640526Y4189708D01*
X3627190Y4189708D01*
G37*
%LPD*%
%LPC*%
G36*
X3527190Y4189708D02*
X3527190Y4189708D01*
X3514871Y4194811D01*
X3505441Y4204241D01*
X3500338Y4216561D01*
X3500338Y4229896D01*
X3505441Y4242216D01*
X3514871Y4251646D01*
X3527190Y4256749D01*
X3540526Y4256749D01*
X3552846Y4251646D01*
X3562275Y4242216D01*
X3567379Y4229896D01*
X3567379Y4216561D01*
X3562275Y4204241D01*
X3552846Y4194811D01*
X3540526Y4189708D01*
X3527190Y4189708D01*
G37*
%LPD*%
%LPC*%
G36*
X2364986Y4189708D02*
X2364986Y4189708D01*
X2352666Y4194811D01*
X2343236Y4204241D01*
X2338133Y4216561D01*
X2338133Y4229896D01*
X2343236Y4242216D01*
X2352666Y4251646D01*
X2364986Y4256749D01*
X2378321Y4256749D01*
X2390641Y4251646D01*
X2400071Y4242216D01*
X2405174Y4229896D01*
X2405174Y4216561D01*
X2400071Y4204241D01*
X2390641Y4194811D01*
X2378321Y4189708D01*
X2364986Y4189708D01*
G37*
%LPD*%
%LPC*%
G36*
X2264986Y4189708D02*
X2264986Y4189708D01*
X2252666Y4194811D01*
X2243236Y4204241D01*
X2238133Y4216561D01*
X2238133Y4229896D01*
X2243236Y4242216D01*
X2252666Y4251646D01*
X2264986Y4256749D01*
X2278321Y4256749D01*
X2290641Y4251646D01*
X2300071Y4242216D01*
X2305174Y4229896D01*
X2305174Y4216561D01*
X2300071Y4204241D01*
X2290641Y4194811D01*
X2278321Y4189708D01*
X2264986Y4189708D01*
G37*
%LPD*%
%LPC*%
G36*
X2164986Y4189708D02*
X2164986Y4189708D01*
X2152666Y4194811D01*
X2143236Y4204241D01*
X2138133Y4216561D01*
X2138133Y4229896D01*
X2143236Y4242216D01*
X2152666Y4251646D01*
X2164986Y4256749D01*
X2178321Y4256749D01*
X2190641Y4251646D01*
X2200071Y4242216D01*
X2205174Y4229896D01*
X2205174Y4216561D01*
X2200071Y4204241D01*
X2190641Y4194811D01*
X2178321Y4189708D01*
X2164986Y4189708D01*
G37*
%LPD*%
%LPC*%
G36*
X2064986Y4189708D02*
X2064986Y4189708D01*
X2052666Y4194811D01*
X2043236Y4204241D01*
X2038133Y4216561D01*
X2038133Y4229896D01*
X2043236Y4242216D01*
X2052666Y4251646D01*
X2064986Y4256749D01*
X2078321Y4256749D01*
X2090641Y4251646D01*
X2100071Y4242216D01*
X2105174Y4229896D01*
X2105174Y4216561D01*
X2100071Y4204241D01*
X2090641Y4194811D01*
X2078321Y4189708D01*
X2064986Y4189708D01*
G37*
%LPD*%
%LPC*%
G36*
X1964986Y4189708D02*
X1964986Y4189708D01*
X1952666Y4194811D01*
X1943236Y4204241D01*
X1938133Y4216561D01*
X1938133Y4229896D01*
X1943236Y4242216D01*
X1952666Y4251646D01*
X1964986Y4256749D01*
X1978321Y4256749D01*
X1990641Y4251646D01*
X2000071Y4242216D01*
X2005174Y4229896D01*
X2005174Y4216561D01*
X2000071Y4204241D01*
X1990641Y4194811D01*
X1978321Y4189708D01*
X1964986Y4189708D01*
G37*
%LPD*%
%LPC*%
G36*
X1864986Y4189708D02*
X1864986Y4189708D01*
X1852666Y4194811D01*
X1843236Y4204241D01*
X1838133Y4216561D01*
X1838133Y4229896D01*
X1843236Y4242216D01*
X1852666Y4251646D01*
X1864986Y4256749D01*
X1878321Y4256749D01*
X1890641Y4251646D01*
X1900071Y4242216D01*
X1905174Y4229896D01*
X1905174Y4216561D01*
X1900071Y4204241D01*
X1890641Y4194811D01*
X1878321Y4189708D01*
X1864986Y4189708D01*
G37*
%LPD*%
%LPC*%
G36*
X1764986Y4189708D02*
X1764986Y4189708D01*
X1752666Y4194811D01*
X1743236Y4204241D01*
X1738133Y4216561D01*
X1738133Y4229896D01*
X1743236Y4242216D01*
X1752666Y4251646D01*
X1764986Y4256749D01*
X1778321Y4256749D01*
X1790641Y4251646D01*
X1800071Y4242216D01*
X1805174Y4229896D01*
X1805174Y4216561D01*
X1800071Y4204241D01*
X1790641Y4194811D01*
X1778321Y4189708D01*
X1764986Y4189708D01*
G37*
%LPD*%
%LPC*%
G36*
X6589395Y4189708D02*
X6589395Y4189708D01*
X6577075Y4194811D01*
X6567646Y4204241D01*
X6562543Y4216561D01*
X6562543Y4229896D01*
X6567646Y4242216D01*
X6577075Y4251646D01*
X6589395Y4256749D01*
X6602731Y4256749D01*
X6615051Y4251646D01*
X6624480Y4242216D01*
X6629583Y4229896D01*
X6629583Y4216561D01*
X6624480Y4204241D01*
X6615051Y4194811D01*
X6602731Y4189708D01*
X6589395Y4189708D01*
G37*
%LPD*%
%LPC*%
G36*
X6989395Y4089708D02*
X6989395Y4089708D01*
X6977075Y4094811D01*
X6967646Y4104241D01*
X6962543Y4116561D01*
X6962543Y4129896D01*
X6967646Y4142216D01*
X6977075Y4151646D01*
X6989395Y4156749D01*
X7002731Y4156749D01*
X7015051Y4151646D01*
X7024480Y4142216D01*
X7029583Y4129896D01*
X7029583Y4116561D01*
X7024480Y4104241D01*
X7015051Y4094811D01*
X7002731Y4089708D01*
X6989395Y4089708D01*
G37*
%LPD*%
%LPC*%
G36*
X2364986Y4089708D02*
X2364986Y4089708D01*
X2352666Y4094811D01*
X2343236Y4104241D01*
X2338133Y4116561D01*
X2338133Y4129896D01*
X2343236Y4142216D01*
X2352666Y4151646D01*
X2364986Y4156749D01*
X2378321Y4156749D01*
X2390641Y4151646D01*
X2400071Y4142216D01*
X2405174Y4129896D01*
X2405174Y4116561D01*
X2400071Y4104241D01*
X2390641Y4094811D01*
X2378321Y4089708D01*
X2364986Y4089708D01*
G37*
%LPD*%
%LPC*%
G36*
X3627190Y4089708D02*
X3627190Y4089708D01*
X3614871Y4094811D01*
X3605441Y4104241D01*
X3600338Y4116561D01*
X3600338Y4129896D01*
X3605441Y4142216D01*
X3614871Y4151646D01*
X3627190Y4156749D01*
X3640526Y4156749D01*
X3652846Y4151646D01*
X3662275Y4142216D01*
X3667379Y4129896D01*
X3667379Y4116561D01*
X3662275Y4104241D01*
X3652846Y4094811D01*
X3640526Y4089708D01*
X3627190Y4089708D01*
G37*
%LPD*%
%LPC*%
G36*
X1464986Y4089708D02*
X1464986Y4089708D01*
X1452666Y4094811D01*
X1443236Y4104241D01*
X1438133Y4116561D01*
X1438133Y4129896D01*
X1443236Y4142216D01*
X1452666Y4151646D01*
X1464986Y4156749D01*
X1478321Y4156749D01*
X1490641Y4151646D01*
X1500071Y4142216D01*
X1505174Y4129896D01*
X1505174Y4116561D01*
X1500071Y4104241D01*
X1490641Y4094811D01*
X1478321Y4089708D01*
X1464986Y4089708D01*
G37*
%LPD*%
%LPC*%
G36*
X4127190Y4189708D02*
X4127190Y4189708D01*
X4114871Y4194811D01*
X4105441Y4204241D01*
X4100338Y4216561D01*
X4100338Y4229896D01*
X4105441Y4242216D01*
X4114871Y4251646D01*
X4127190Y4256749D01*
X4140526Y4256749D01*
X4152846Y4251646D01*
X4162275Y4242216D01*
X4167379Y4229896D01*
X4167379Y4216561D01*
X4162275Y4204241D01*
X4152846Y4194811D01*
X4140526Y4189708D01*
X4127190Y4189708D01*
G37*
%LPD*%
%LPC*%
G36*
X4027190Y4189708D02*
X4027190Y4189708D01*
X4014871Y4194811D01*
X4005441Y4204241D01*
X4000338Y4216561D01*
X4000338Y4229896D01*
X4005441Y4242216D01*
X4014871Y4251646D01*
X4027190Y4256749D01*
X4040526Y4256749D01*
X4052846Y4251646D01*
X4062275Y4242216D01*
X4067379Y4229896D01*
X4067379Y4216561D01*
X4062275Y4204241D01*
X4052846Y4194811D01*
X4040526Y4189708D01*
X4027190Y4189708D01*
G37*
%LPD*%
%LPC*%
G36*
X7089395Y4189708D02*
X7089395Y4189708D01*
X7077075Y4194811D01*
X7067646Y4204241D01*
X7062543Y4216561D01*
X7062543Y4229896D01*
X7067646Y4242216D01*
X7077075Y4251646D01*
X7089395Y4256749D01*
X7102731Y4256749D01*
X7115051Y4251646D01*
X7124480Y4242216D01*
X7129583Y4229896D01*
X7129583Y4216561D01*
X7124480Y4204241D01*
X7115051Y4194811D01*
X7102731Y4189708D01*
X7089395Y4189708D01*
G37*
%LPD*%
%LPC*%
G36*
X6689395Y4189708D02*
X6689395Y4189708D01*
X6677075Y4194811D01*
X6667646Y4204241D01*
X6662543Y4216561D01*
X6662543Y4229896D01*
X6667646Y4242216D01*
X6677075Y4251646D01*
X6689395Y4256749D01*
X6702731Y4256749D01*
X6715051Y4251646D01*
X6724480Y4242216D01*
X6729583Y4229896D01*
X6729583Y4216561D01*
X6724480Y4204241D01*
X6715051Y4194811D01*
X6702731Y4189708D01*
X6689395Y4189708D01*
G37*
%LPD*%
%LPC*%
G36*
X6889395Y4089708D02*
X6889395Y4089708D01*
X6877075Y4094811D01*
X6867646Y4104241D01*
X6862543Y4116561D01*
X6862543Y4129896D01*
X6867646Y4142216D01*
X6877075Y4151646D01*
X6889395Y4156749D01*
X6902731Y4156749D01*
X6915051Y4151646D01*
X6924480Y4142216D01*
X6929583Y4129896D01*
X6929583Y4116561D01*
X6924480Y4104241D01*
X6915051Y4094811D01*
X6902731Y4089708D01*
X6889395Y4089708D01*
G37*
%LPD*%
%LPC*%
G36*
X6789395Y4089708D02*
X6789395Y4089708D01*
X6777075Y4094811D01*
X6767646Y4104241D01*
X6762543Y4116561D01*
X6762543Y4129896D01*
X6767646Y4142216D01*
X6777075Y4151646D01*
X6789395Y4156749D01*
X6802731Y4156749D01*
X6815051Y4151646D01*
X6824480Y4142216D01*
X6829583Y4129896D01*
X6829583Y4116561D01*
X6824480Y4104241D01*
X6815051Y4094811D01*
X6802731Y4089708D01*
X6789395Y4089708D01*
G37*
%LPD*%
%LPC*%
G36*
X6689395Y4089708D02*
X6689395Y4089708D01*
X6677075Y4094811D01*
X6667646Y4104241D01*
X6662543Y4116561D01*
X6662543Y4129896D01*
X6667646Y4142216D01*
X6677075Y4151646D01*
X6689395Y4156749D01*
X6702731Y4156749D01*
X6715051Y4151646D01*
X6724480Y4142216D01*
X6729583Y4129896D01*
X6729583Y4116561D01*
X6724480Y4104241D01*
X6715051Y4094811D01*
X6702731Y4089708D01*
X6689395Y4089708D01*
G37*
%LPD*%
%LPC*%
G36*
X6589395Y4089708D02*
X6589395Y4089708D01*
X6577075Y4094811D01*
X6567646Y4104241D01*
X6562543Y4116561D01*
X6562543Y4129896D01*
X6567646Y4142216D01*
X6577075Y4151646D01*
X6589395Y4156749D01*
X6602731Y4156749D01*
X6615051Y4151646D01*
X6624480Y4142216D01*
X6629583Y4129896D01*
X6629583Y4116561D01*
X6624480Y4104241D01*
X6615051Y4094811D01*
X6602731Y4089708D01*
X6589395Y4089708D01*
G37*
%LPD*%
%LPC*%
G36*
X6489395Y4089708D02*
X6489395Y4089708D01*
X6477075Y4094811D01*
X6467646Y4104241D01*
X6462543Y4116561D01*
X6462543Y4129896D01*
X6467646Y4142216D01*
X6477075Y4151646D01*
X6489395Y4156749D01*
X6502731Y4156749D01*
X6515051Y4151646D01*
X6524480Y4142216D01*
X6529583Y4129896D01*
X6529583Y4116561D01*
X6524480Y4104241D01*
X6515051Y4094811D01*
X6502731Y4089708D01*
X6489395Y4089708D01*
G37*
%LPD*%
%LPC*%
G36*
X6389395Y4089708D02*
X6389395Y4089708D01*
X6377075Y4094811D01*
X6367646Y4104241D01*
X6362543Y4116561D01*
X6362543Y4129896D01*
X6367646Y4142216D01*
X6377075Y4151646D01*
X6389395Y4156749D01*
X6402731Y4156749D01*
X6415051Y4151646D01*
X6424480Y4142216D01*
X6429583Y4129896D01*
X6429583Y4116561D01*
X6424480Y4104241D01*
X6415051Y4094811D01*
X6402731Y4089708D01*
X6389395Y4089708D01*
G37*
%LPD*%
%LPC*%
G36*
X6789395Y4189708D02*
X6789395Y4189708D01*
X6777075Y4194811D01*
X6767646Y4204241D01*
X6762543Y4216561D01*
X6762543Y4229896D01*
X6767646Y4242216D01*
X6777075Y4251646D01*
X6789395Y4256749D01*
X6802731Y4256749D01*
X6815051Y4251646D01*
X6824480Y4242216D01*
X6829583Y4229896D01*
X6829583Y4216561D01*
X6824480Y4204241D01*
X6815051Y4194811D01*
X6802731Y4189708D01*
X6789395Y4189708D01*
G37*
%LPD*%
%LPC*%
G36*
X6289395Y4089708D02*
X6289395Y4089708D01*
X6277075Y4094811D01*
X6267646Y4104241D01*
X6262543Y4116561D01*
X6262543Y4129896D01*
X6267646Y4142216D01*
X6277075Y4151646D01*
X6289395Y4156749D01*
X6302731Y4156749D01*
X6315051Y4151646D01*
X6324480Y4142216D01*
X6329583Y4129896D01*
X6329583Y4116561D01*
X6324480Y4104241D01*
X6315051Y4094811D01*
X6302731Y4089708D01*
X6289395Y4089708D01*
G37*
%LPD*%
%LPC*%
G36*
X6189395Y4089708D02*
X6189395Y4089708D01*
X6177075Y4094811D01*
X6167646Y4104241D01*
X6162543Y4116561D01*
X6162543Y4129896D01*
X6167646Y4142216D01*
X6177075Y4151646D01*
X6189395Y4156749D01*
X6202731Y4156749D01*
X6215051Y4151646D01*
X6224480Y4142216D01*
X6229583Y4129896D01*
X6229583Y4116561D01*
X6224480Y4104241D01*
X6215051Y4094811D01*
X6202731Y4089708D01*
X6189395Y4089708D01*
G37*
%LPD*%
%LPC*%
G36*
X6089395Y4089708D02*
X6089395Y4089708D01*
X6077075Y4094811D01*
X6067646Y4104241D01*
X6062543Y4116561D01*
X6062543Y4129896D01*
X6067646Y4142216D01*
X6077075Y4151646D01*
X6089395Y4156749D01*
X6102731Y4156749D01*
X6115051Y4151646D01*
X6124480Y4142216D01*
X6129583Y4129896D01*
X6129583Y4116561D01*
X6124480Y4104241D01*
X6115051Y4094811D01*
X6102731Y4089708D01*
X6089395Y4089708D01*
G37*
%LPD*%
%LPC*%
G36*
X5989395Y4089708D02*
X5989395Y4089708D01*
X5977075Y4094811D01*
X5967646Y4104241D01*
X5962543Y4116561D01*
X5962543Y4129896D01*
X5967646Y4142216D01*
X5977075Y4151646D01*
X5989395Y4156749D01*
X6002731Y4156749D01*
X6015051Y4151646D01*
X6024480Y4142216D01*
X6029583Y4129896D01*
X6029583Y4116561D01*
X6024480Y4104241D01*
X6015051Y4094811D01*
X6002731Y4089708D01*
X5989395Y4089708D01*
G37*
%LPD*%
%LPC*%
G36*
X5889395Y4089708D02*
X5889395Y4089708D01*
X5877075Y4094811D01*
X5867646Y4104241D01*
X5862543Y4116561D01*
X5862543Y4129896D01*
X5867646Y4142216D01*
X5877075Y4151646D01*
X5889395Y4156749D01*
X5902731Y4156749D01*
X5915051Y4151646D01*
X5924480Y4142216D01*
X5929583Y4129896D01*
X5929583Y4116561D01*
X5924480Y4104241D01*
X5915051Y4094811D01*
X5902731Y4089708D01*
X5889395Y4089708D01*
G37*
%LPD*%
%LPC*%
G36*
X4727190Y4089708D02*
X4727190Y4089708D01*
X4714871Y4094811D01*
X4705441Y4104241D01*
X4700338Y4116561D01*
X4700338Y4129896D01*
X4705441Y4142216D01*
X4714871Y4151646D01*
X4727190Y4156749D01*
X4740526Y4156749D01*
X4752846Y4151646D01*
X4762275Y4142216D01*
X4767379Y4129896D01*
X4767379Y4116561D01*
X4762275Y4104241D01*
X4752846Y4094811D01*
X4740526Y4089708D01*
X4727190Y4089708D01*
G37*
%LPD*%
%LPC*%
G36*
X4627190Y4089708D02*
X4627190Y4089708D01*
X4614871Y4094811D01*
X4605441Y4104241D01*
X4600338Y4116561D01*
X4600338Y4129896D01*
X4605441Y4142216D01*
X4614871Y4151646D01*
X4627190Y4156749D01*
X4640526Y4156749D01*
X4652846Y4151646D01*
X4662275Y4142216D01*
X4667379Y4129896D01*
X4667379Y4116561D01*
X4662275Y4104241D01*
X4652846Y4094811D01*
X4640526Y4089708D01*
X4627190Y4089708D01*
G37*
%LPD*%
%LPC*%
G36*
X4527190Y4089708D02*
X4527190Y4089708D01*
X4514871Y4094811D01*
X4505441Y4104241D01*
X4500338Y4116561D01*
X4500338Y4129896D01*
X4505441Y4142216D01*
X4514871Y4151646D01*
X4527190Y4156749D01*
X4540526Y4156749D01*
X4552846Y4151646D01*
X4562275Y4142216D01*
X4567379Y4129896D01*
X4567379Y4116561D01*
X4562275Y4104241D01*
X4552846Y4094811D01*
X4540526Y4089708D01*
X4527190Y4089708D01*
G37*
%LPD*%
%LPC*%
G36*
X4427190Y4089708D02*
X4427190Y4089708D01*
X4414871Y4094811D01*
X4405441Y4104241D01*
X4400338Y4116561D01*
X4400338Y4129896D01*
X4405441Y4142216D01*
X4414871Y4151646D01*
X4427190Y4156749D01*
X4440526Y4156749D01*
X4452846Y4151646D01*
X4462275Y4142216D01*
X4467379Y4129896D01*
X4467379Y4116561D01*
X4462275Y4104241D01*
X4452846Y4094811D01*
X4440526Y4089708D01*
X4427190Y4089708D01*
G37*
%LPD*%
%LPC*%
G36*
X4327190Y4089708D02*
X4327190Y4089708D01*
X4314871Y4094811D01*
X4305441Y4104241D01*
X4300338Y4116561D01*
X4300338Y4129896D01*
X4305441Y4142216D01*
X4314871Y4151646D01*
X4327190Y4156749D01*
X4340526Y4156749D01*
X4352846Y4151646D01*
X4362275Y4142216D01*
X4367379Y4129896D01*
X4367379Y4116561D01*
X4362275Y4104241D01*
X4352846Y4094811D01*
X4340526Y4089708D01*
X4327190Y4089708D01*
G37*
%LPD*%
%LPC*%
G36*
X4227190Y4089708D02*
X4227190Y4089708D01*
X4214871Y4094811D01*
X4205441Y4104241D01*
X4200338Y4116561D01*
X4200338Y4129896D01*
X4205441Y4142216D01*
X4214871Y4151646D01*
X4227190Y4156749D01*
X4240526Y4156749D01*
X4252846Y4151646D01*
X4262275Y4142216D01*
X4267379Y4129896D01*
X4267379Y4116561D01*
X4262275Y4104241D01*
X4252846Y4094811D01*
X4240526Y4089708D01*
X4227190Y4089708D01*
G37*
%LPD*%
%LPC*%
G36*
X6989395Y4189708D02*
X6989395Y4189708D01*
X6977075Y4194811D01*
X6967646Y4204241D01*
X6962543Y4216561D01*
X6962543Y4229896D01*
X6967646Y4242216D01*
X6977075Y4251646D01*
X6989395Y4256749D01*
X7002731Y4256749D01*
X7015051Y4251646D01*
X7024480Y4242216D01*
X7029583Y4229896D01*
X7029583Y4216561D01*
X7024480Y4204241D01*
X7015051Y4194811D01*
X7002731Y4189708D01*
X6989395Y4189708D01*
G37*
%LPD*%
%LPC*%
G36*
X4127190Y4089708D02*
X4127190Y4089708D01*
X4114871Y4094811D01*
X4105441Y4104241D01*
X4100338Y4116561D01*
X4100338Y4129896D01*
X4105441Y4142216D01*
X4114871Y4151646D01*
X4127190Y4156749D01*
X4140526Y4156749D01*
X4152846Y4151646D01*
X4162275Y4142216D01*
X4167379Y4129896D01*
X4167379Y4116561D01*
X4162275Y4104241D01*
X4152846Y4094811D01*
X4140526Y4089708D01*
X4127190Y4089708D01*
G37*
%LPD*%
%LPC*%
G36*
X4027190Y4089708D02*
X4027190Y4089708D01*
X4014871Y4094811D01*
X4005441Y4104241D01*
X4000338Y4116561D01*
X4000338Y4129896D01*
X4005441Y4142216D01*
X4014871Y4151646D01*
X4027190Y4156749D01*
X4040526Y4156749D01*
X4052846Y4151646D01*
X4062275Y4142216D01*
X4067379Y4129896D01*
X4067379Y4116561D01*
X4062275Y4104241D01*
X4052846Y4094811D01*
X4040526Y4089708D01*
X4027190Y4089708D01*
G37*
%LPD*%
%LPC*%
G36*
X3927190Y4089708D02*
X3927190Y4089708D01*
X3914871Y4094811D01*
X3905441Y4104241D01*
X3900338Y4116561D01*
X3900338Y4129896D01*
X3905441Y4142216D01*
X3914871Y4151646D01*
X3927190Y4156749D01*
X3940526Y4156749D01*
X3952846Y4151646D01*
X3962275Y4142216D01*
X3967379Y4129896D01*
X3967379Y4116561D01*
X3962275Y4104241D01*
X3952846Y4094811D01*
X3940526Y4089708D01*
X3927190Y4089708D01*
G37*
%LPD*%
%LPC*%
G36*
X3827190Y4089708D02*
X3827190Y4089708D01*
X3814871Y4094811D01*
X3805441Y4104241D01*
X3800338Y4116561D01*
X3800338Y4129896D01*
X3805441Y4142216D01*
X3814871Y4151646D01*
X3827190Y4156749D01*
X3840526Y4156749D01*
X3852846Y4151646D01*
X3862275Y4142216D01*
X3867379Y4129896D01*
X3867379Y4116561D01*
X3862275Y4104241D01*
X3852846Y4094811D01*
X3840526Y4089708D01*
X3827190Y4089708D01*
G37*
%LPD*%
%LPC*%
G36*
X3727190Y4089708D02*
X3727190Y4089708D01*
X3714871Y4094811D01*
X3705441Y4104241D01*
X3700338Y4116561D01*
X3700338Y4129896D01*
X3705441Y4142216D01*
X3714871Y4151646D01*
X3727190Y4156749D01*
X3740526Y4156749D01*
X3752846Y4151646D01*
X3762275Y4142216D01*
X3767379Y4129896D01*
X3767379Y4116561D01*
X3762275Y4104241D01*
X3752846Y4094811D01*
X3740526Y4089708D01*
X3727190Y4089708D01*
G37*
%LPD*%
%LPC*%
G36*
X1564986Y4089708D02*
X1564986Y4089708D01*
X1552666Y4094811D01*
X1543236Y4104241D01*
X1538133Y4116561D01*
X1538133Y4129896D01*
X1543236Y4142216D01*
X1552666Y4151646D01*
X1564986Y4156749D01*
X1578321Y4156749D01*
X1590641Y4151646D01*
X1600071Y4142216D01*
X1605174Y4129896D01*
X1605174Y4116561D01*
X1600071Y4104241D01*
X1590641Y4094811D01*
X1578321Y4089708D01*
X1564986Y4089708D01*
G37*
%LPD*%
%LPC*%
G36*
X3527190Y4089708D02*
X3527190Y4089708D01*
X3514871Y4094811D01*
X3505441Y4104241D01*
X3500338Y4116561D01*
X3500338Y4129896D01*
X3505441Y4142216D01*
X3514871Y4151646D01*
X3527190Y4156749D01*
X3540526Y4156749D01*
X3552846Y4151646D01*
X3562275Y4142216D01*
X3567379Y4129896D01*
X3567379Y4116561D01*
X3562275Y4104241D01*
X3552846Y4094811D01*
X3540526Y4089708D01*
X3527190Y4089708D01*
G37*
%LPD*%
%LPC*%
G36*
X1664986Y4089708D02*
X1664986Y4089708D01*
X1652666Y4094811D01*
X1643236Y4104241D01*
X1638133Y4116561D01*
X1638133Y4129896D01*
X1643236Y4142216D01*
X1652666Y4151646D01*
X1664986Y4156749D01*
X1678321Y4156749D01*
X1690641Y4151646D01*
X1700071Y4142216D01*
X1705174Y4129896D01*
X1705174Y4116561D01*
X1700071Y4104241D01*
X1690641Y4094811D01*
X1678321Y4089708D01*
X1664986Y4089708D01*
G37*
%LPD*%
%LPC*%
G36*
X2264986Y4089708D02*
X2264986Y4089708D01*
X2252666Y4094811D01*
X2243236Y4104241D01*
X2238133Y4116561D01*
X2238133Y4129896D01*
X2243236Y4142216D01*
X2252666Y4151646D01*
X2264986Y4156749D01*
X2278321Y4156749D01*
X2290641Y4151646D01*
X2300071Y4142216D01*
X2305174Y4129896D01*
X2305174Y4116561D01*
X2300071Y4104241D01*
X2290641Y4094811D01*
X2278321Y4089708D01*
X2264986Y4089708D01*
G37*
%LPD*%
%LPC*%
G36*
X1164986Y4089708D02*
X1164986Y4089708D01*
X1152666Y4094811D01*
X1143236Y4104241D01*
X1138133Y4116561D01*
X1138133Y4129896D01*
X1143236Y4142216D01*
X1152666Y4151646D01*
X1164986Y4156749D01*
X1178321Y4156749D01*
X1190641Y4151646D01*
X1200071Y4142216D01*
X1205174Y4129896D01*
X1205174Y4116561D01*
X1200071Y4104241D01*
X1190641Y4094811D01*
X1178321Y4089708D01*
X1164986Y4089708D01*
G37*
%LPD*%
%LPC*%
G36*
X1264986Y4089708D02*
X1264986Y4089708D01*
X1252666Y4094811D01*
X1243236Y4104241D01*
X1238133Y4116561D01*
X1238133Y4129896D01*
X1243236Y4142216D01*
X1252666Y4151646D01*
X1264986Y4156749D01*
X1278321Y4156749D01*
X1290641Y4151646D01*
X1300071Y4142216D01*
X1305174Y4129896D01*
X1305174Y4116561D01*
X1300071Y4104241D01*
X1290641Y4094811D01*
X1278321Y4089708D01*
X1264986Y4089708D01*
G37*
%LPD*%
%LPC*%
G36*
X6889395Y4189708D02*
X6889395Y4189708D01*
X6877075Y4194811D01*
X6867646Y4204241D01*
X6862543Y4216561D01*
X6862543Y4229896D01*
X6867646Y4242216D01*
X6877075Y4251646D01*
X6889395Y4256749D01*
X6902731Y4256749D01*
X6915051Y4251646D01*
X6924480Y4242216D01*
X6929583Y4229896D01*
X6929583Y4216561D01*
X6924480Y4204241D01*
X6915051Y4194811D01*
X6902731Y4189708D01*
X6889395Y4189708D01*
G37*
%LPD*%
%LPC*%
G36*
X1364986Y4089708D02*
X1364986Y4089708D01*
X1352666Y4094811D01*
X1343236Y4104241D01*
X1338133Y4116561D01*
X1338133Y4129896D01*
X1343236Y4142216D01*
X1352666Y4151646D01*
X1364986Y4156749D01*
X1378321Y4156749D01*
X1390641Y4151646D01*
X1400071Y4142216D01*
X1405174Y4129896D01*
X1405174Y4116561D01*
X1400071Y4104241D01*
X1390641Y4094811D01*
X1378321Y4089708D01*
X1364986Y4089708D01*
G37*
%LPD*%
%LPC*%
G36*
X2064986Y4089708D02*
X2064986Y4089708D01*
X2052666Y4094811D01*
X2043236Y4104241D01*
X2038133Y4116561D01*
X2038133Y4129896D01*
X2043236Y4142216D01*
X2052666Y4151646D01*
X2064986Y4156749D01*
X2078321Y4156749D01*
X2090641Y4151646D01*
X2100071Y4142216D01*
X2105174Y4129896D01*
X2105174Y4116561D01*
X2100071Y4104241D01*
X2090641Y4094811D01*
X2078321Y4089708D01*
X2064986Y4089708D01*
G37*
%LPD*%
%LPC*%
G36*
X1964986Y4089708D02*
X1964986Y4089708D01*
X1952666Y4094811D01*
X1943236Y4104241D01*
X1938133Y4116561D01*
X1938133Y4129896D01*
X1943236Y4142216D01*
X1952666Y4151646D01*
X1964986Y4156749D01*
X1978321Y4156749D01*
X1990641Y4151646D01*
X2000071Y4142216D01*
X2005174Y4129896D01*
X2005174Y4116561D01*
X2000071Y4104241D01*
X1990641Y4094811D01*
X1978321Y4089708D01*
X1964986Y4089708D01*
G37*
%LPD*%
%LPC*%
G36*
X1864986Y4089708D02*
X1864986Y4089708D01*
X1852666Y4094811D01*
X1843236Y4104241D01*
X1838133Y4116561D01*
X1838133Y4129896D01*
X1843236Y4142216D01*
X1852666Y4151646D01*
X1864986Y4156749D01*
X1878321Y4156749D01*
X1890641Y4151646D01*
X1900071Y4142216D01*
X1905174Y4129896D01*
X1905174Y4116561D01*
X1900071Y4104241D01*
X1890641Y4094811D01*
X1878321Y4089708D01*
X1864986Y4089708D01*
G37*
%LPD*%
%LPC*%
G36*
X1764986Y4089708D02*
X1764986Y4089708D01*
X1752666Y4094811D01*
X1743236Y4104241D01*
X1738133Y4116561D01*
X1738133Y4129896D01*
X1743236Y4142216D01*
X1752666Y4151646D01*
X1764986Y4156749D01*
X1778321Y4156749D01*
X1790641Y4151646D01*
X1800071Y4142216D01*
X1805174Y4129896D01*
X1805174Y4116561D01*
X1800071Y4104241D01*
X1790641Y4094811D01*
X1778321Y4089708D01*
X1764986Y4089708D01*
G37*
%LPD*%
%LPC*%
G36*
X4086243Y3237968D02*
X4086243Y3237968D01*
X4074582Y3249629D01*
X4074582Y3266119D01*
X4086243Y3277780D01*
X4101110Y3277780D01*
X4101187Y3277793D01*
X4101264Y3277784D01*
X4101664Y3277871D01*
X4102066Y3277937D01*
X4102135Y3277973D01*
X4102211Y3277989D01*
X4102562Y3278199D01*
X4102922Y3278390D01*
X4102976Y3278446D01*
X4103043Y3278486D01*
X4103308Y3278795D01*
X4103590Y3279092D01*
X4103623Y3279162D01*
X4103673Y3279221D01*
X4103826Y3279600D01*
X4103998Y3279970D01*
X4104007Y3280047D01*
X4104036Y3280119D01*
X4104109Y3280779D01*
X4104109Y3295647D01*
X4115770Y3307308D01*
X4132261Y3307308D01*
X4143922Y3295647D01*
X4143922Y3279156D01*
X4132261Y3267495D01*
X4117394Y3267495D01*
X4117317Y3267483D01*
X4117240Y3267491D01*
X4116840Y3267405D01*
X4116438Y3267339D01*
X4116369Y3267303D01*
X4116293Y3267286D01*
X4115942Y3267077D01*
X4115581Y3266886D01*
X4115528Y3266830D01*
X4115461Y3266790D01*
X4115196Y3266480D01*
X4114914Y3266184D01*
X4114881Y3266113D01*
X4114831Y3266054D01*
X4114678Y3265676D01*
X4114506Y3265305D01*
X4114497Y3265228D01*
X4114468Y3265156D01*
X4114394Y3264496D01*
X4114394Y3249629D01*
X4102734Y3237968D01*
X4086243Y3237968D01*
G37*
%LPD*%
%LPC*%
G36*
X2324432Y3346235D02*
X2324432Y3346235D01*
X2312771Y3357896D01*
X2312771Y3372764D01*
X2312758Y3372840D01*
X2312767Y3372917D01*
X2312680Y3373317D01*
X2312614Y3373720D01*
X2312578Y3373788D01*
X2312562Y3373864D01*
X2312352Y3374215D01*
X2312161Y3374576D01*
X2312105Y3374629D01*
X2312065Y3374696D01*
X2311756Y3374962D01*
X2311459Y3375243D01*
X2311389Y3375276D01*
X2311330Y3375327D01*
X2310951Y3375479D01*
X2310581Y3375652D01*
X2310504Y3375660D01*
X2310432Y3375689D01*
X2309772Y3375763D01*
X2294904Y3375763D01*
X2283243Y3387424D01*
X2283243Y3403915D01*
X2294904Y3415575D01*
X2311395Y3415575D01*
X2323056Y3403915D01*
X2323056Y3389047D01*
X2323068Y3388971D01*
X2323060Y3388893D01*
X2323146Y3388494D01*
X2323212Y3388091D01*
X2323248Y3388023D01*
X2323265Y3387947D01*
X2323474Y3387595D01*
X2323665Y3387235D01*
X2323721Y3387181D01*
X2323761Y3387115D01*
X2324071Y3386849D01*
X2324367Y3386568D01*
X2324438Y3386535D01*
X2324497Y3386484D01*
X2324875Y3386331D01*
X2325246Y3386159D01*
X2325323Y3386150D01*
X2325395Y3386121D01*
X2326055Y3386048D01*
X2340922Y3386048D01*
X2352583Y3374387D01*
X2352583Y3357896D01*
X2340922Y3346235D01*
X2324432Y3346235D01*
G37*
%LPD*%
%LPC*%
G36*
X4686636Y3346235D02*
X4686636Y3346235D01*
X4674976Y3357896D01*
X4674976Y3372764D01*
X4674963Y3372840D01*
X4674972Y3372917D01*
X4674885Y3373317D01*
X4674819Y3373720D01*
X4674783Y3373788D01*
X4674766Y3373864D01*
X4674557Y3374215D01*
X4674366Y3374576D01*
X4674310Y3374629D01*
X4674270Y3374696D01*
X4673960Y3374962D01*
X4673664Y3375243D01*
X4673593Y3375276D01*
X4673535Y3375327D01*
X4673156Y3375479D01*
X4672785Y3375652D01*
X4672708Y3375660D01*
X4672636Y3375689D01*
X4671976Y3375763D01*
X4657109Y3375763D01*
X4645448Y3387424D01*
X4645448Y3403915D01*
X4657109Y3415575D01*
X4673600Y3415575D01*
X4685260Y3403915D01*
X4685260Y3389047D01*
X4685273Y3388971D01*
X4685264Y3388893D01*
X4685351Y3388494D01*
X4685417Y3388091D01*
X4685453Y3388023D01*
X4685470Y3387947D01*
X4685679Y3387595D01*
X4685870Y3387235D01*
X4685926Y3387181D01*
X4685966Y3387115D01*
X4686276Y3386849D01*
X4686572Y3386568D01*
X4686643Y3386535D01*
X4686702Y3386484D01*
X4687080Y3386331D01*
X4687451Y3386159D01*
X4687528Y3386150D01*
X4687600Y3386121D01*
X4688260Y3386048D01*
X4703127Y3386048D01*
X4714788Y3374387D01*
X4714788Y3357896D01*
X4703127Y3346235D01*
X4686636Y3346235D01*
G37*
%LPD*%
%LPC*%
G36*
X6281125Y2647417D02*
X6281125Y2647417D01*
X6269464Y2659077D01*
X6269464Y2675568D01*
X6281125Y2687229D01*
X6295992Y2687229D01*
X6296069Y2687242D01*
X6296146Y2687233D01*
X6296546Y2687320D01*
X6296948Y2687385D01*
X6297017Y2687422D01*
X6297093Y2687438D01*
X6297444Y2687648D01*
X6297804Y2687838D01*
X6297858Y2687895D01*
X6297924Y2687934D01*
X6298190Y2688244D01*
X6298472Y2688541D01*
X6298505Y2688611D01*
X6298555Y2688670D01*
X6298708Y2689049D01*
X6298880Y2689419D01*
X6298889Y2689496D01*
X6298918Y2689568D01*
X6298991Y2690228D01*
X6298991Y2705096D01*
X6310652Y2716757D01*
X6327143Y2716757D01*
X6338804Y2705096D01*
X6338804Y2688605D01*
X6327143Y2676944D01*
X6312275Y2676944D01*
X6312199Y2676932D01*
X6312122Y2676940D01*
X6311722Y2676854D01*
X6311319Y2676788D01*
X6311251Y2676751D01*
X6311175Y2676735D01*
X6310824Y2676525D01*
X6310463Y2676335D01*
X6310410Y2676278D01*
X6310343Y2676239D01*
X6310078Y2675929D01*
X6309796Y2675632D01*
X6309763Y2675562D01*
X6309713Y2675503D01*
X6309560Y2675125D01*
X6309387Y2674754D01*
X6309379Y2674677D01*
X6309350Y2674605D01*
X6309276Y2673945D01*
X6309276Y2659077D01*
X6297615Y2647417D01*
X6281125Y2647417D01*
G37*
%LPD*%
%LPC*%
G36*
X4155140Y3956472D02*
X4155140Y3956472D01*
X4143480Y3968133D01*
X4143480Y3983000D01*
X4143467Y3983077D01*
X4143476Y3983154D01*
X4143389Y3983553D01*
X4143323Y3983956D01*
X4143287Y3984024D01*
X4143270Y3984100D01*
X4143061Y3984452D01*
X4142870Y3984812D01*
X4142814Y3984866D01*
X4142774Y3984932D01*
X4142464Y3985198D01*
X4142168Y3985480D01*
X4142097Y3985512D01*
X4142039Y3985563D01*
X4141660Y3985716D01*
X4141289Y3985888D01*
X4141212Y3985897D01*
X4141140Y3985926D01*
X4140480Y3985999D01*
X4125613Y3985999D01*
X4113952Y3997660D01*
X4113952Y4014151D01*
X4125613Y4025812D01*
X4142104Y4025812D01*
X4153764Y4014151D01*
X4153764Y3999283D01*
X4153777Y3999207D01*
X4153768Y3999130D01*
X4153855Y3998730D01*
X4153921Y3998327D01*
X4153957Y3998259D01*
X4153974Y3998183D01*
X4154183Y3997832D01*
X4154374Y3997471D01*
X4154430Y3997418D01*
X4154470Y3997351D01*
X4154780Y3997086D01*
X4155076Y3996804D01*
X4155147Y3996771D01*
X4155205Y3996721D01*
X4155584Y3996568D01*
X4155955Y3996395D01*
X4156032Y3996387D01*
X4156104Y3996358D01*
X4156764Y3996284D01*
X4171631Y3996284D01*
X4183292Y3984623D01*
X4183292Y3968133D01*
X4171631Y3956472D01*
X4155140Y3956472D01*
G37*
%LPD*%
%LPC*%
G36*
X6330337Y3818676D02*
X6330337Y3818676D01*
X6318676Y3830337D01*
X6318676Y3846828D01*
X6330337Y3858489D01*
X6345205Y3858489D01*
X6345281Y3858501D01*
X6345358Y3858493D01*
X6345758Y3858579D01*
X6346161Y3858645D01*
X6346229Y3858681D01*
X6346305Y3858698D01*
X6346656Y3858907D01*
X6347017Y3859098D01*
X6347070Y3859155D01*
X6347137Y3859194D01*
X6347403Y3859504D01*
X6347684Y3859801D01*
X6347717Y3859871D01*
X6347767Y3859930D01*
X6347920Y3860308D01*
X6348093Y3860679D01*
X6348101Y3860756D01*
X6348130Y3860828D01*
X6348204Y3861488D01*
X6348204Y3876356D01*
X6359865Y3888016D01*
X6376356Y3888016D01*
X6388016Y3876356D01*
X6388016Y3859865D01*
X6376356Y3848204D01*
X6361488Y3848204D01*
X6361412Y3848191D01*
X6361334Y3848200D01*
X6360935Y3848113D01*
X6360532Y3848047D01*
X6360464Y3848011D01*
X6360388Y3847995D01*
X6360036Y3847785D01*
X6359676Y3847594D01*
X6359622Y3847538D01*
X6359556Y3847499D01*
X6359290Y3847189D01*
X6359008Y3846892D01*
X6358976Y3846822D01*
X6358925Y3846763D01*
X6358772Y3846384D01*
X6358600Y3846014D01*
X6358591Y3845937D01*
X6358562Y3845865D01*
X6358489Y3845205D01*
X6358489Y3830337D01*
X6346828Y3818676D01*
X6330337Y3818676D01*
G37*
%LPD*%
%LPC*%
G36*
X3771282Y3572613D02*
X3771282Y3572613D01*
X3759621Y3584274D01*
X3759621Y3600765D01*
X3771282Y3612426D01*
X3783284Y3612426D01*
X3783562Y3612471D01*
X3783844Y3612479D01*
X3784037Y3612549D01*
X3784240Y3612582D01*
X3784489Y3612714D01*
X3784754Y3612811D01*
X3784915Y3612939D01*
X3785096Y3613035D01*
X3785290Y3613239D01*
X3785511Y3613416D01*
X3785622Y3613589D01*
X3785764Y3613738D01*
X3785883Y3613993D01*
X3786035Y3614230D01*
X3786085Y3614430D01*
X3786172Y3614616D01*
X3786203Y3614896D01*
X3786272Y3615170D01*
X3786257Y3615374D01*
X3786279Y3615579D01*
X3786220Y3615855D01*
X3786198Y3616135D01*
X3786118Y3616325D01*
X3786074Y3616525D01*
X3785930Y3616767D01*
X3785820Y3617027D01*
X3785643Y3617248D01*
X3785578Y3617357D01*
X3785507Y3617418D01*
X3785405Y3617546D01*
X3779306Y3623644D01*
X3779306Y3640135D01*
X3790967Y3651796D01*
X3807458Y3651796D01*
X3819119Y3640135D01*
X3819119Y3623644D01*
X3807458Y3611984D01*
X3795456Y3611984D01*
X3795178Y3611938D01*
X3794896Y3611931D01*
X3794703Y3611860D01*
X3794500Y3611827D01*
X3794251Y3611695D01*
X3793986Y3611599D01*
X3793825Y3611470D01*
X3793644Y3611374D01*
X3793450Y3611170D01*
X3793229Y3610994D01*
X3793118Y3610821D01*
X3792976Y3610672D01*
X3792857Y3610416D01*
X3792705Y3610179D01*
X3792655Y3609980D01*
X3792568Y3609793D01*
X3792537Y3609513D01*
X3792468Y3609240D01*
X3792483Y3609035D01*
X3792461Y3608831D01*
X3792520Y3608555D01*
X3792542Y3608274D01*
X3792622Y3608085D01*
X3792666Y3607884D01*
X3792810Y3607642D01*
X3792920Y3607382D01*
X3793097Y3607162D01*
X3793162Y3607052D01*
X3793233Y3606991D01*
X3793335Y3606863D01*
X3799434Y3600765D01*
X3799434Y3584274D01*
X3787773Y3572613D01*
X3771282Y3572613D01*
G37*
%LPD*%
%LPC*%
G36*
X1192542Y3011590D02*
X1192542Y3011590D01*
X1180881Y3023251D01*
X1180881Y3039741D01*
X1190200Y3049060D01*
X1190245Y3049123D01*
X1190306Y3049172D01*
X1190527Y3049516D01*
X1190765Y3049847D01*
X1190788Y3049921D01*
X1190830Y3049986D01*
X1190930Y3050382D01*
X1191051Y3050773D01*
X1191049Y3050850D01*
X1191068Y3050925D01*
X1191036Y3051332D01*
X1191026Y3051741D01*
X1190999Y3051814D01*
X1190993Y3051891D01*
X1190834Y3052267D01*
X1190694Y3052651D01*
X1190645Y3052712D01*
X1190615Y3052783D01*
X1190200Y3053302D01*
X1180881Y3062621D01*
X1180881Y3079111D01*
X1192542Y3090772D01*
X1209033Y3090772D01*
X1220694Y3079111D01*
X1220694Y3062621D01*
X1211375Y3053302D01*
X1211329Y3053239D01*
X1211269Y3053190D01*
X1211047Y3052846D01*
X1210809Y3052515D01*
X1210786Y3052441D01*
X1210744Y3052376D01*
X1210644Y3051980D01*
X1210524Y3051589D01*
X1210526Y3051512D01*
X1210507Y3051437D01*
X1210539Y3051030D01*
X1210549Y3050621D01*
X1210576Y3050548D01*
X1210582Y3050471D01*
X1210741Y3050095D01*
X1210881Y3049711D01*
X1210930Y3049650D01*
X1210960Y3049579D01*
X1211375Y3049060D01*
X1220694Y3039741D01*
X1220694Y3023251D01*
X1209033Y3011590D01*
X1192542Y3011590D01*
G37*
%LPD*%
%LPC*%
G36*
X5739786Y2302928D02*
X5739786Y2302928D01*
X5728125Y2314589D01*
X5728125Y2331080D01*
X5739786Y2342741D01*
X5756277Y2342741D01*
X5765596Y2333422D01*
X5765659Y2333377D01*
X5765707Y2333316D01*
X5766051Y2333095D01*
X5766382Y2332857D01*
X5766456Y2332834D01*
X5766522Y2332792D01*
X5766917Y2332692D01*
X5767308Y2332571D01*
X5767386Y2332573D01*
X5767461Y2332554D01*
X5767867Y2332586D01*
X5768276Y2332596D01*
X5768350Y2332623D01*
X5768427Y2332629D01*
X5768802Y2332788D01*
X5769187Y2332928D01*
X5769247Y2332977D01*
X5769319Y2333007D01*
X5769837Y2333422D01*
X5779156Y2342741D01*
X5795647Y2342741D01*
X5807308Y2331080D01*
X5807308Y2314589D01*
X5795647Y2302928D01*
X5779156Y2302928D01*
X5769837Y2312247D01*
X5769774Y2312293D01*
X5769726Y2312353D01*
X5769382Y2312575D01*
X5769051Y2312813D01*
X5768976Y2312836D01*
X5768911Y2312877D01*
X5768516Y2312977D01*
X5768125Y2313098D01*
X5768047Y2313096D01*
X5767972Y2313115D01*
X5767565Y2313083D01*
X5767156Y2313073D01*
X5767083Y2313046D01*
X5767006Y2313040D01*
X5766630Y2312881D01*
X5766246Y2312741D01*
X5766186Y2312692D01*
X5766114Y2312662D01*
X5765596Y2312247D01*
X5756277Y2302928D01*
X5739786Y2302928D01*
G37*
%LPD*%
%LPC*%
G36*
X5375613Y2450566D02*
X5375613Y2450566D01*
X5363952Y2462227D01*
X5363952Y2478718D01*
X5373271Y2488037D01*
X5373316Y2488100D01*
X5373377Y2488148D01*
X5373598Y2488492D01*
X5373836Y2488823D01*
X5373859Y2488897D01*
X5373901Y2488963D01*
X5374001Y2489358D01*
X5374121Y2489749D01*
X5374119Y2489827D01*
X5374138Y2489902D01*
X5374107Y2490308D01*
X5374097Y2490717D01*
X5374070Y2490790D01*
X5374064Y2490868D01*
X5373905Y2491243D01*
X5373764Y2491627D01*
X5373716Y2491688D01*
X5373686Y2491759D01*
X5373271Y2492278D01*
X5363952Y2501597D01*
X5363952Y2518088D01*
X5375613Y2529749D01*
X5392104Y2529749D01*
X5403764Y2518088D01*
X5403764Y2501597D01*
X5394445Y2492278D01*
X5394400Y2492215D01*
X5394340Y2492167D01*
X5394118Y2491823D01*
X5393880Y2491492D01*
X5393857Y2491417D01*
X5393815Y2491352D01*
X5393715Y2490957D01*
X5393595Y2490566D01*
X5393597Y2490488D01*
X5393578Y2490413D01*
X5393609Y2490005D01*
X5393620Y2489597D01*
X5393647Y2489524D01*
X5393652Y2489447D01*
X5393812Y2489071D01*
X5393952Y2488687D01*
X5394000Y2488627D01*
X5394031Y2488555D01*
X5394445Y2488037D01*
X5403764Y2478718D01*
X5403764Y2462227D01*
X5392104Y2450566D01*
X5375613Y2450566D01*
G37*
%LPD*%
%LPC*%
G36*
X4617739Y1584424D02*
X4617739Y1584424D01*
X4606078Y1596085D01*
X4606078Y1612576D01*
X4617739Y1624237D01*
X4634230Y1624237D01*
X4643548Y1614918D01*
X4643611Y1614873D01*
X4643660Y1614812D01*
X4644004Y1614591D01*
X4644335Y1614353D01*
X4644409Y1614330D01*
X4644475Y1614288D01*
X4644870Y1614188D01*
X4645261Y1614067D01*
X4645339Y1614069D01*
X4645414Y1614050D01*
X4645820Y1614082D01*
X4646229Y1614092D01*
X4646302Y1614119D01*
X4646380Y1614125D01*
X4646756Y1614284D01*
X4647139Y1614424D01*
X4647200Y1614473D01*
X4647271Y1614503D01*
X4647790Y1614918D01*
X4657109Y1624237D01*
X4673600Y1624237D01*
X4685260Y1612576D01*
X4685260Y1596085D01*
X4673600Y1584424D01*
X4657109Y1584424D01*
X4647790Y1593743D01*
X4647727Y1593789D01*
X4647679Y1593849D01*
X4647379Y1594042D01*
X4647319Y1594094D01*
X4647282Y1594109D01*
X4647003Y1594309D01*
X4646929Y1594332D01*
X4646864Y1594374D01*
X4646469Y1594474D01*
X4646078Y1594594D01*
X4646000Y1594592D01*
X4645925Y1594611D01*
X4645518Y1594579D01*
X4645109Y1594569D01*
X4645036Y1594542D01*
X4644959Y1594536D01*
X4644583Y1594377D01*
X4644199Y1594237D01*
X4644139Y1594188D01*
X4644067Y1594158D01*
X4643780Y1593928D01*
X4643765Y1593921D01*
X4643750Y1593905D01*
X4643548Y1593743D01*
X4634230Y1584424D01*
X4617739Y1584424D01*
G37*
%LPD*%
%LPC*%
G36*
X4450416Y3454503D02*
X4450416Y3454503D01*
X4438755Y3466164D01*
X4438755Y3481031D01*
X4438743Y3481108D01*
X4438751Y3481185D01*
X4438665Y3481585D01*
X4438599Y3481988D01*
X4438563Y3482056D01*
X4438546Y3482132D01*
X4438336Y3482483D01*
X4438146Y3482844D01*
X4438089Y3482897D01*
X4438050Y3482964D01*
X4437740Y3483229D01*
X4437443Y3483511D01*
X4437373Y3483544D01*
X4437314Y3483594D01*
X4436936Y3483747D01*
X4436565Y3483920D01*
X4436488Y3483928D01*
X4436416Y3483957D01*
X4435756Y3484031D01*
X4430731Y3484031D01*
X4419070Y3495692D01*
X4419070Y3512182D01*
X4430731Y3523843D01*
X4447222Y3523843D01*
X4458883Y3512182D01*
X4458883Y3497315D01*
X4458895Y3497238D01*
X4458886Y3497161D01*
X4458973Y3496761D01*
X4459039Y3496359D01*
X4459075Y3496290D01*
X4459092Y3496214D01*
X4459301Y3495863D01*
X4459492Y3495503D01*
X4459548Y3495449D01*
X4459588Y3495383D01*
X4459898Y3495117D01*
X4460194Y3494835D01*
X4460265Y3494802D01*
X4460324Y3494752D01*
X4460702Y3494599D01*
X4461073Y3494427D01*
X4461150Y3494418D01*
X4461222Y3494389D01*
X4461882Y3494316D01*
X4466907Y3494316D01*
X4478568Y3482655D01*
X4478568Y3466164D01*
X4466907Y3454503D01*
X4450416Y3454503D01*
G37*
%LPD*%
%LPC*%
G36*
X4657109Y3710409D02*
X4657109Y3710409D01*
X4645448Y3722070D01*
X4645448Y3727094D01*
X4645441Y3727135D01*
X4645444Y3727159D01*
X4645438Y3727189D01*
X4645444Y3727248D01*
X4645358Y3727648D01*
X4645292Y3728051D01*
X4645255Y3728119D01*
X4645239Y3728195D01*
X4645029Y3728546D01*
X4644839Y3728907D01*
X4644782Y3728960D01*
X4644743Y3729027D01*
X4644433Y3729292D01*
X4644136Y3729574D01*
X4644066Y3729607D01*
X4644007Y3729657D01*
X4643628Y3729810D01*
X4643258Y3729983D01*
X4643181Y3729991D01*
X4643109Y3730020D01*
X4642449Y3730094D01*
X4627581Y3730094D01*
X4615921Y3741755D01*
X4615921Y3758245D01*
X4627581Y3769906D01*
X4644072Y3769906D01*
X4655733Y3758245D01*
X4655733Y3753220D01*
X4655745Y3753144D01*
X4655737Y3753067D01*
X4655823Y3752667D01*
X4655889Y3752264D01*
X4655926Y3752196D01*
X4655942Y3752120D01*
X4656152Y3751769D01*
X4656342Y3751408D01*
X4656399Y3751355D01*
X4656438Y3751288D01*
X4656748Y3751023D01*
X4657045Y3750741D01*
X4657115Y3750708D01*
X4657174Y3750658D01*
X4657553Y3750505D01*
X4657923Y3750332D01*
X4658000Y3750324D01*
X4658072Y3750295D01*
X4658732Y3750221D01*
X4673600Y3750221D01*
X4685260Y3738560D01*
X4685260Y3722070D01*
X4673600Y3710409D01*
X4657109Y3710409D01*
G37*
%LPD*%
%LPC*%
G36*
X5316558Y3080487D02*
X5316558Y3080487D01*
X5304897Y3092148D01*
X5304897Y3108639D01*
X5316558Y3120300D01*
X5333048Y3120300D01*
X5344709Y3108639D01*
X5344709Y3092148D01*
X5333048Y3080487D01*
X5316558Y3080487D01*
G37*
%LPD*%
%LPC*%
G36*
X4037030Y3080487D02*
X4037030Y3080487D01*
X4025369Y3092148D01*
X4025369Y3108639D01*
X4037030Y3120300D01*
X4053521Y3120300D01*
X4065182Y3108639D01*
X4065182Y3092148D01*
X4053521Y3080487D01*
X4037030Y3080487D01*
G37*
%LPD*%
%LPC*%
G36*
X3308684Y3080487D02*
X3308684Y3080487D01*
X3297023Y3092148D01*
X3297023Y3108639D01*
X3308684Y3120300D01*
X3325174Y3120300D01*
X3336835Y3108639D01*
X3336835Y3092148D01*
X3325174Y3080487D01*
X3308684Y3080487D01*
G37*
%LPD*%
%LPC*%
G36*
X1448447Y3080487D02*
X1448447Y3080487D01*
X1436787Y3092148D01*
X1436787Y3108639D01*
X1448447Y3120300D01*
X1464938Y3120300D01*
X1476599Y3108639D01*
X1476599Y3092148D01*
X1464938Y3080487D01*
X1448447Y3080487D01*
G37*
%LPD*%
%LPC*%
G36*
X1074432Y3060802D02*
X1074432Y3060802D01*
X1062771Y3072463D01*
X1062771Y3088954D01*
X1074432Y3100615D01*
X1090922Y3100615D01*
X1102583Y3088954D01*
X1102583Y3072463D01*
X1090922Y3060802D01*
X1074432Y3060802D01*
G37*
%LPD*%
%LPC*%
G36*
X4322463Y3050960D02*
X4322463Y3050960D01*
X4310802Y3062621D01*
X4310802Y3079111D01*
X4322463Y3090772D01*
X4338954Y3090772D01*
X4350615Y3079111D01*
X4350615Y3062621D01*
X4338954Y3050960D01*
X4322463Y3050960D01*
G37*
%LPD*%
%LPC*%
G36*
X1377581Y3090330D02*
X1377581Y3090330D01*
X1365921Y3101991D01*
X1365921Y3118482D01*
X1377581Y3130142D01*
X1394072Y3130142D01*
X1405733Y3118482D01*
X1405733Y3101991D01*
X1394072Y3090330D01*
X1377581Y3090330D01*
G37*
%LPD*%
%LPC*%
G36*
X2157109Y3090330D02*
X2157109Y3090330D01*
X2145448Y3101991D01*
X2145448Y3118482D01*
X2157109Y3130142D01*
X2173600Y3130142D01*
X2185260Y3118482D01*
X2185260Y3101991D01*
X2173600Y3090330D01*
X2157109Y3090330D01*
G37*
%LPD*%
%LPC*%
G36*
X4332306Y3730094D02*
X4332306Y3730094D01*
X4320645Y3741755D01*
X4320645Y3758245D01*
X4332306Y3769906D01*
X4348797Y3769906D01*
X4360457Y3758245D01*
X4360457Y3741755D01*
X4348797Y3730094D01*
X4332306Y3730094D01*
G37*
%LPD*%
%LPC*%
G36*
X5149235Y3031275D02*
X5149235Y3031275D01*
X5137574Y3042936D01*
X5137574Y3059426D01*
X5149235Y3071087D01*
X5165726Y3071087D01*
X5177386Y3059426D01*
X5177386Y3042936D01*
X5165726Y3031275D01*
X5149235Y3031275D01*
G37*
%LPD*%
%LPC*%
G36*
X3259471Y3031275D02*
X3259471Y3031275D01*
X3247810Y3042936D01*
X3247810Y3059426D01*
X3259471Y3071087D01*
X3275962Y3071087D01*
X3287623Y3059426D01*
X3287623Y3042936D01*
X3275962Y3031275D01*
X3259471Y3031275D01*
G37*
%LPD*%
%LPC*%
G36*
X2629550Y3031275D02*
X2629550Y3031275D01*
X2617889Y3042936D01*
X2617889Y3059426D01*
X2629550Y3071087D01*
X2646041Y3071087D01*
X2657701Y3059426D01*
X2657701Y3042936D01*
X2646041Y3031275D01*
X2629550Y3031275D01*
G37*
%LPD*%
%LPC*%
G36*
X1418920Y3021432D02*
X1418920Y3021432D01*
X1407259Y3033093D01*
X1407259Y3049584D01*
X1418920Y3061245D01*
X1435411Y3061245D01*
X1447071Y3049584D01*
X1447071Y3033093D01*
X1435411Y3021432D01*
X1418920Y3021432D01*
G37*
%LPD*%
%LPC*%
G36*
X4007503Y3011590D02*
X4007503Y3011590D01*
X3995842Y3023251D01*
X3995842Y3039741D01*
X4007503Y3051402D01*
X4023993Y3051402D01*
X4035654Y3039741D01*
X4035654Y3023251D01*
X4023993Y3011590D01*
X4007503Y3011590D01*
G37*
%LPD*%
%LPC*%
G36*
X4794904Y3001747D02*
X4794904Y3001747D01*
X4783243Y3013408D01*
X4783243Y3029899D01*
X4794904Y3041560D01*
X4811395Y3041560D01*
X4823056Y3029899D01*
X4823056Y3013408D01*
X4811395Y3001747D01*
X4794904Y3001747D01*
G37*
%LPD*%
%LPC*%
G36*
X4627581Y2991905D02*
X4627581Y2991905D01*
X4615921Y3003566D01*
X4615921Y3020056D01*
X4627581Y3031717D01*
X4644072Y3031717D01*
X4655733Y3020056D01*
X4655733Y3003566D01*
X4644072Y2991905D01*
X4627581Y2991905D01*
G37*
%LPD*%
%LPC*%
G36*
X2245692Y3946629D02*
X2245692Y3946629D01*
X2234031Y3958290D01*
X2234031Y3974781D01*
X2245692Y3986442D01*
X2262182Y3986442D01*
X2273843Y3974781D01*
X2273843Y3958290D01*
X2262182Y3946629D01*
X2245692Y3946629D01*
G37*
%LPD*%
%LPC*%
G36*
X1310652Y2972220D02*
X1310652Y2972220D01*
X1298991Y2983881D01*
X1298991Y3000371D01*
X1310652Y3012032D01*
X1327143Y3012032D01*
X1338804Y3000371D01*
X1338804Y2983881D01*
X1327143Y2972220D01*
X1310652Y2972220D01*
G37*
%LPD*%
%LPC*%
G36*
X1074432Y2972220D02*
X1074432Y2972220D01*
X1062771Y2983881D01*
X1062771Y3000371D01*
X1074432Y3012032D01*
X1090922Y3012032D01*
X1102583Y3000371D01*
X1102583Y2983881D01*
X1090922Y2972220D01*
X1074432Y2972220D01*
G37*
%LPD*%
%LPC*%
G36*
X5090180Y2972220D02*
X5090180Y2972220D01*
X5078519Y2983881D01*
X5078519Y3000371D01*
X5090180Y3012032D01*
X5106671Y3012032D01*
X5118331Y3000371D01*
X5118331Y2983881D01*
X5106671Y2972220D01*
X5090180Y2972220D01*
G37*
%LPD*%
%LPC*%
G36*
X3259471Y2942692D02*
X3259471Y2942692D01*
X3247810Y2954353D01*
X3247810Y2970844D01*
X3259471Y2982505D01*
X3275962Y2982505D01*
X3287623Y2970844D01*
X3287623Y2954353D01*
X3275962Y2942692D01*
X3259471Y2942692D01*
G37*
%LPD*%
%LPC*%
G36*
X2157109Y3946629D02*
X2157109Y3946629D01*
X2145448Y3958290D01*
X2145448Y3974781D01*
X2157109Y3986442D01*
X2173600Y3986442D01*
X2185260Y3974781D01*
X2185260Y3958290D01*
X2173600Y3946629D01*
X2157109Y3946629D01*
G37*
%LPD*%
%LPC*%
G36*
X2009471Y3100172D02*
X2009471Y3100172D01*
X1997810Y3111833D01*
X1997810Y3128324D01*
X2009471Y3139985D01*
X2025962Y3139985D01*
X2037623Y3128324D01*
X2037623Y3111833D01*
X2025962Y3100172D01*
X2009471Y3100172D01*
G37*
%LPD*%
%LPC*%
G36*
X5405140Y2923007D02*
X5405140Y2923007D01*
X5393480Y2934668D01*
X5393480Y2951159D01*
X5405140Y2962820D01*
X5421631Y2962820D01*
X5433292Y2951159D01*
X5433292Y2934668D01*
X5421631Y2923007D01*
X5405140Y2923007D01*
G37*
%LPD*%
%LPC*%
G36*
X4942542Y2913165D02*
X4942542Y2913165D01*
X4930881Y2924825D01*
X4930881Y2941316D01*
X4942542Y2952977D01*
X4959033Y2952977D01*
X4970694Y2941316D01*
X4970694Y2924825D01*
X4959033Y2913165D01*
X4942542Y2913165D01*
G37*
%LPD*%
%LPC*%
G36*
X3121676Y2893480D02*
X3121676Y2893480D01*
X3110015Y2905140D01*
X3110015Y2921631D01*
X3121676Y2933292D01*
X3138167Y2933292D01*
X3149827Y2921631D01*
X3149827Y2905140D01*
X3138167Y2893480D01*
X3121676Y2893480D01*
G37*
%LPD*%
%LPC*%
G36*
X3190573Y2873795D02*
X3190573Y2873795D01*
X3178913Y2885455D01*
X3178913Y2901946D01*
X3190573Y2913607D01*
X3207064Y2913607D01*
X3218725Y2901946D01*
X3218725Y2885455D01*
X3207064Y2873795D01*
X3190573Y2873795D01*
G37*
%LPD*%
%LPC*%
G36*
X2629550Y2873795D02*
X2629550Y2873795D01*
X2617889Y2885455D01*
X2617889Y2901946D01*
X2629550Y2913607D01*
X2646041Y2913607D01*
X2657701Y2901946D01*
X2657701Y2885455D01*
X2646041Y2873795D01*
X2629550Y2873795D01*
G37*
%LPD*%
%LPC*%
G36*
X1477975Y2863952D02*
X1477975Y2863952D01*
X1466314Y2875613D01*
X1466314Y2892104D01*
X1477975Y2903764D01*
X1494466Y2903764D01*
X1506127Y2892104D01*
X1506127Y2875613D01*
X1494466Y2863952D01*
X1477975Y2863952D01*
G37*
%LPD*%
%LPC*%
G36*
X1208290Y2858047D02*
X1208290Y2858047D01*
X1196629Y2869707D01*
X1196629Y2886198D01*
X1208290Y2897859D01*
X1224781Y2897859D01*
X1236442Y2886198D01*
X1236442Y2869707D01*
X1224781Y2858047D01*
X1208290Y2858047D01*
G37*
%LPD*%
%LPC*%
G36*
X6582306Y2854109D02*
X6582306Y2854109D01*
X6570645Y2865770D01*
X6570645Y2882261D01*
X6582306Y2893922D01*
X6598797Y2893922D01*
X6610457Y2882261D01*
X6610457Y2865770D01*
X6598797Y2854109D01*
X6582306Y2854109D01*
G37*
%LPD*%
%LPC*%
G36*
X4883487Y2854109D02*
X4883487Y2854109D01*
X4871826Y2865770D01*
X4871826Y2882261D01*
X4883487Y2893922D01*
X4899978Y2893922D01*
X4911638Y2882261D01*
X4911638Y2865770D01*
X4899978Y2854109D01*
X4883487Y2854109D01*
G37*
%LPD*%
%LPC*%
G36*
X3781125Y2854109D02*
X3781125Y2854109D01*
X3769464Y2865770D01*
X3769464Y2882261D01*
X3781125Y2893922D01*
X3797615Y2893922D01*
X3809276Y2882261D01*
X3809276Y2865770D01*
X3797615Y2854109D01*
X3781125Y2854109D01*
G37*
%LPD*%
%LPC*%
G36*
X2806715Y1485999D02*
X2806715Y1485999D01*
X2795054Y1497660D01*
X2795054Y1514151D01*
X2806715Y1525812D01*
X2823206Y1525812D01*
X2834867Y1514151D01*
X2834867Y1497660D01*
X2823206Y1485999D01*
X2806715Y1485999D01*
G37*
%LPD*%
%LPC*%
G36*
X4538999Y4389543D02*
X4538999Y4389543D01*
X4527338Y4401203D01*
X4527338Y4417694D01*
X4538999Y4429355D01*
X4555489Y4429355D01*
X4567150Y4417694D01*
X4567150Y4401203D01*
X4555489Y4389543D01*
X4538999Y4389543D01*
G37*
%LPD*%
%LPC*%
G36*
X5533093Y1545054D02*
X5533093Y1545054D01*
X5521432Y1556715D01*
X5521432Y1573206D01*
X5533093Y1584867D01*
X5549584Y1584867D01*
X5561245Y1573206D01*
X5561245Y1556715D01*
X5549584Y1545054D01*
X5533093Y1545054D01*
G37*
%LPD*%
%LPC*%
G36*
X2767345Y1564739D02*
X2767345Y1564739D01*
X2755684Y1576400D01*
X2755684Y1592891D01*
X2767345Y1604552D01*
X2783836Y1604552D01*
X2795497Y1592891D01*
X2795497Y1576400D01*
X2783836Y1564739D01*
X2767345Y1564739D01*
G37*
%LPD*%
%LPC*%
G36*
X6098054Y3724188D02*
X6098054Y3724188D01*
X6086393Y3735849D01*
X6086393Y3752340D01*
X6098054Y3764001D01*
X6114545Y3764001D01*
X6126205Y3752340D01*
X6126205Y3735849D01*
X6114545Y3724188D01*
X6098054Y3724188D01*
G37*
%LPD*%
%LPC*%
G36*
X4716164Y1584424D02*
X4716164Y1584424D01*
X4704503Y1596085D01*
X4704503Y1612576D01*
X4716164Y1624237D01*
X4732655Y1624237D01*
X4744316Y1612576D01*
X4744316Y1596085D01*
X4732655Y1584424D01*
X4716164Y1584424D01*
G37*
%LPD*%
%LPC*%
G36*
X2718133Y1594267D02*
X2718133Y1594267D01*
X2706472Y1605928D01*
X2706472Y1622419D01*
X2718133Y1634079D01*
X2734623Y1634079D01*
X2746284Y1622419D01*
X2746284Y1605928D01*
X2734623Y1594267D01*
X2718133Y1594267D01*
G37*
%LPD*%
%LPC*%
G36*
X4489786Y2814739D02*
X4489786Y2814739D01*
X4478125Y2826400D01*
X4478125Y2842891D01*
X4489786Y2854552D01*
X4506277Y2854552D01*
X4517938Y2842891D01*
X4517938Y2826400D01*
X4506277Y2814739D01*
X4489786Y2814739D01*
G37*
%LPD*%
%LPC*%
G36*
X4391361Y2814739D02*
X4391361Y2814739D01*
X4379700Y2826400D01*
X4379700Y2842891D01*
X4391361Y2854552D01*
X4407852Y2854552D01*
X4419512Y2842891D01*
X4419512Y2826400D01*
X4407852Y2814739D01*
X4391361Y2814739D01*
G37*
%LPD*%
%LPC*%
G36*
X3515377Y2814739D02*
X3515377Y2814739D01*
X3503716Y2826400D01*
X3503716Y2842891D01*
X3515377Y2854552D01*
X3531867Y2854552D01*
X3543528Y2842891D01*
X3543528Y2826400D01*
X3531867Y2814739D01*
X3515377Y2814739D01*
G37*
%LPD*%
%LPC*%
G36*
X5109865Y3995842D02*
X5109865Y3995842D01*
X5098204Y4007503D01*
X5098204Y4023993D01*
X5109865Y4035654D01*
X5126356Y4035654D01*
X5138016Y4023993D01*
X5138016Y4007503D01*
X5126356Y3995842D01*
X5109865Y3995842D01*
G37*
%LPD*%
%LPC*%
G36*
X5503566Y4005684D02*
X5503566Y4005684D01*
X5491905Y4017345D01*
X5491905Y4033836D01*
X5503566Y4045497D01*
X5520056Y4045497D01*
X5531717Y4033836D01*
X5531717Y4017345D01*
X5520056Y4005684D01*
X5503566Y4005684D01*
G37*
%LPD*%
%LPC*%
G36*
X3859865Y2804897D02*
X3859865Y2804897D01*
X3848204Y2816558D01*
X3848204Y2833048D01*
X3859865Y2844709D01*
X3876356Y2844709D01*
X3888016Y2833048D01*
X3888016Y2816558D01*
X3876356Y2804897D01*
X3859865Y2804897D01*
G37*
%LPD*%
%LPC*%
G36*
X4765377Y4379700D02*
X4765377Y4379700D01*
X4753716Y4391361D01*
X4753716Y4407852D01*
X4765377Y4419512D01*
X4781867Y4419512D01*
X4793528Y4407852D01*
X4793528Y4391361D01*
X4781867Y4379700D01*
X4765377Y4379700D01*
G37*
%LPD*%
%LPC*%
G36*
X4479944Y4369858D02*
X4479944Y4369858D01*
X4468283Y4381518D01*
X4468283Y4398009D01*
X4479944Y4409670D01*
X4496434Y4409670D01*
X4508095Y4398009D01*
X4508095Y4381518D01*
X4496434Y4369858D01*
X4479944Y4369858D01*
G37*
%LPD*%
%LPC*%
G36*
X1290967Y2775369D02*
X1290967Y2775369D01*
X1279306Y2787030D01*
X1279306Y2803521D01*
X1290967Y2815182D01*
X1307458Y2815182D01*
X1319119Y2803521D01*
X1319119Y2787030D01*
X1307458Y2775369D01*
X1290967Y2775369D01*
G37*
%LPD*%
%LPC*%
G36*
X1192542Y2775369D02*
X1192542Y2775369D01*
X1180881Y2787030D01*
X1180881Y2803521D01*
X1192542Y2815182D01*
X1209033Y2815182D01*
X1220694Y2803521D01*
X1220694Y2787030D01*
X1209033Y2775369D01*
X1192542Y2775369D01*
G37*
%LPD*%
%LPC*%
G36*
X4351991Y2775369D02*
X4351991Y2775369D01*
X4340330Y2787030D01*
X4340330Y2803521D01*
X4351991Y2815182D01*
X4368482Y2815182D01*
X4380142Y2803521D01*
X4380142Y2787030D01*
X4368482Y2775369D01*
X4351991Y2775369D01*
G37*
%LPD*%
%LPC*%
G36*
X2088211Y2775369D02*
X2088211Y2775369D01*
X2076550Y2787030D01*
X2076550Y2803521D01*
X2088211Y2815182D01*
X2104702Y2815182D01*
X2116363Y2803521D01*
X2116363Y2787030D01*
X2104702Y2775369D01*
X2088211Y2775369D01*
G37*
%LPD*%
%LPC*%
G36*
X4361833Y4350172D02*
X4361833Y4350172D01*
X4350172Y4361833D01*
X4350172Y4378324D01*
X4361833Y4389985D01*
X4378324Y4389985D01*
X4389985Y4378324D01*
X4389985Y4361833D01*
X4378324Y4350172D01*
X4361833Y4350172D01*
G37*
%LPD*%
%LPC*%
G36*
X4686636Y1692692D02*
X4686636Y1692692D01*
X4674976Y1704353D01*
X4674976Y1720844D01*
X4686636Y1732505D01*
X4703127Y1732505D01*
X4714788Y1720844D01*
X4714788Y1704353D01*
X4703127Y1692692D01*
X4686636Y1692692D01*
G37*
%LPD*%
%LPC*%
G36*
X4454353Y1708440D02*
X4454353Y1708440D01*
X4442692Y1720101D01*
X4442692Y1736592D01*
X4454353Y1748253D01*
X4470844Y1748253D01*
X4482505Y1736592D01*
X4482505Y1720101D01*
X4470844Y1708440D01*
X4454353Y1708440D01*
G37*
%LPD*%
%LPC*%
G36*
X4804747Y4281275D02*
X4804747Y4281275D01*
X4793086Y4292936D01*
X4793086Y4309426D01*
X4804747Y4321087D01*
X4821237Y4321087D01*
X4832898Y4309426D01*
X4832898Y4292936D01*
X4821237Y4281275D01*
X4804747Y4281275D01*
G37*
%LPD*%
%LPC*%
G36*
X5011440Y2755684D02*
X5011440Y2755684D01*
X4999779Y2767345D01*
X4999779Y2783836D01*
X5011440Y2795497D01*
X5027930Y2795497D01*
X5039591Y2783836D01*
X5039591Y2767345D01*
X5027930Y2755684D01*
X5011440Y2755684D01*
G37*
%LPD*%
%LPC*%
G36*
X2629550Y2745842D02*
X2629550Y2745842D01*
X2617889Y2757503D01*
X2617889Y2773993D01*
X2629550Y2785654D01*
X2646041Y2785654D01*
X2657701Y2773993D01*
X2657701Y2757503D01*
X2646041Y2745842D01*
X2629550Y2745842D01*
G37*
%LPD*%
%LPC*%
G36*
X2314589Y3110015D02*
X2314589Y3110015D01*
X2302928Y3121676D01*
X2302928Y3138167D01*
X2314589Y3149827D01*
X2331080Y3149827D01*
X2342741Y3138167D01*
X2342741Y3121676D01*
X2331080Y3110015D01*
X2314589Y3110015D01*
G37*
%LPD*%
%LPC*%
G36*
X4676794Y3119858D02*
X4676794Y3119858D01*
X4665133Y3131518D01*
X4665133Y3148009D01*
X4676794Y3159670D01*
X4693285Y3159670D01*
X4704945Y3148009D01*
X4704945Y3131518D01*
X4693285Y3119858D01*
X4676794Y3119858D01*
G37*
%LPD*%
%LPC*%
G36*
X4483881Y2722220D02*
X4483881Y2722220D01*
X4472220Y2733881D01*
X4472220Y2750371D01*
X4483881Y2762032D01*
X4500371Y2762032D01*
X4512032Y2750371D01*
X4512032Y2733881D01*
X4500371Y2722220D01*
X4483881Y2722220D01*
G37*
%LPD*%
%LPC*%
G36*
X5031125Y2696629D02*
X5031125Y2696629D01*
X5019464Y2708290D01*
X5019464Y2724781D01*
X5031125Y2736442D01*
X5047615Y2736442D01*
X5059276Y2724781D01*
X5059276Y2708290D01*
X5047615Y2696629D01*
X5031125Y2696629D01*
G37*
%LPD*%
%LPC*%
G36*
X3594117Y2696629D02*
X3594117Y2696629D01*
X3582456Y2708290D01*
X3582456Y2724781D01*
X3594117Y2736442D01*
X3610608Y2736442D01*
X3622268Y2724781D01*
X3622268Y2708290D01*
X3610608Y2696629D01*
X3594117Y2696629D01*
G37*
%LPD*%
%LPC*%
G36*
X1507503Y2696629D02*
X1507503Y2696629D01*
X1495842Y2708290D01*
X1495842Y2724781D01*
X1507503Y2736442D01*
X1523993Y2736442D01*
X1535654Y2724781D01*
X1535654Y2708290D01*
X1523993Y2696629D01*
X1507503Y2696629D01*
G37*
%LPD*%
%LPC*%
G36*
X4401203Y3129700D02*
X4401203Y3129700D01*
X4389543Y3141361D01*
X4389543Y3157852D01*
X4401203Y3169512D01*
X4417694Y3169512D01*
X4429355Y3157852D01*
X4429355Y3141361D01*
X4417694Y3129700D01*
X4401203Y3129700D01*
G37*
%LPD*%
%LPC*%
G36*
X1537030Y4015527D02*
X1537030Y4015527D01*
X1525369Y4027188D01*
X1525369Y4043678D01*
X1537030Y4055339D01*
X1553521Y4055339D01*
X1565182Y4043678D01*
X1565182Y4027188D01*
X1553521Y4015527D01*
X1537030Y4015527D01*
G37*
%LPD*%
%LPC*%
G36*
X2704353Y2671039D02*
X2704353Y2671039D01*
X2692692Y2682699D01*
X2692692Y2699190D01*
X2704353Y2710851D01*
X2720844Y2710851D01*
X2732505Y2699190D01*
X2732505Y2682699D01*
X2720844Y2671039D01*
X2704353Y2671039D01*
G37*
%LPD*%
%LPC*%
G36*
X1960258Y4015527D02*
X1960258Y4015527D01*
X1948598Y4027188D01*
X1948598Y4043678D01*
X1960258Y4055339D01*
X1976749Y4055339D01*
X1988410Y4043678D01*
X1988410Y4027188D01*
X1976749Y4015527D01*
X1960258Y4015527D01*
G37*
%LPD*%
%LPC*%
G36*
X3574432Y2637574D02*
X3574432Y2637574D01*
X3562771Y2649235D01*
X3562771Y2665726D01*
X3574432Y2677386D01*
X3590922Y2677386D01*
X3602583Y2665726D01*
X3602583Y2649235D01*
X3590922Y2637574D01*
X3574432Y2637574D01*
G37*
%LPD*%
%LPC*%
G36*
X3968133Y4261590D02*
X3968133Y4261590D01*
X3956472Y4273251D01*
X3956472Y4289741D01*
X3968133Y4301402D01*
X3984623Y4301402D01*
X3996284Y4289741D01*
X3996284Y4273251D01*
X3984623Y4261590D01*
X3968133Y4261590D01*
G37*
%LPD*%
%LPC*%
G36*
X2029156Y2637574D02*
X2029156Y2637574D01*
X2017495Y2649235D01*
X2017495Y2665726D01*
X2029156Y2677386D01*
X2045647Y2677386D01*
X2057308Y2665726D01*
X2057308Y2649235D01*
X2045647Y2637574D01*
X2029156Y2637574D01*
G37*
%LPD*%
%LPC*%
G36*
X6346085Y2594267D02*
X6346085Y2594267D01*
X6334424Y2605928D01*
X6334424Y2622419D01*
X6346085Y2634079D01*
X6362576Y2634079D01*
X6374237Y2622419D01*
X6374237Y2605928D01*
X6362576Y2594267D01*
X6346085Y2594267D01*
G37*
%LPD*%
%LPC*%
G36*
X2885455Y2588361D02*
X2885455Y2588361D01*
X2873795Y2600022D01*
X2873795Y2616513D01*
X2885455Y2628174D01*
X2901946Y2628174D01*
X2913607Y2616513D01*
X2913607Y2600022D01*
X2901946Y2588361D01*
X2885455Y2588361D01*
G37*
%LPD*%
%LPC*%
G36*
X2737818Y2588361D02*
X2737818Y2588361D01*
X2726157Y2600022D01*
X2726157Y2616513D01*
X2737818Y2628174D01*
X2754308Y2628174D01*
X2765969Y2616513D01*
X2765969Y2600022D01*
X2754308Y2588361D01*
X2737818Y2588361D01*
G37*
%LPD*%
%LPC*%
G36*
X2580337Y2568676D02*
X2580337Y2568676D01*
X2568676Y2580337D01*
X2568676Y2596828D01*
X2580337Y2608489D01*
X2596828Y2608489D01*
X2608489Y2596828D01*
X2608489Y2580337D01*
X2596828Y2568676D01*
X2580337Y2568676D01*
G37*
%LPD*%
%LPC*%
G36*
X4666951Y4035212D02*
X4666951Y4035212D01*
X4655291Y4046873D01*
X4655291Y4063363D01*
X4666951Y4075024D01*
X4683442Y4075024D01*
X4695103Y4063363D01*
X4695103Y4046873D01*
X4683442Y4035212D01*
X4666951Y4035212D01*
G37*
%LPD*%
%LPC*%
G36*
X6428762Y4035212D02*
X6428762Y4035212D01*
X6417102Y4046873D01*
X6417102Y4063363D01*
X6428762Y4075024D01*
X6445253Y4075024D01*
X6456914Y4063363D01*
X6456914Y4046873D01*
X6445253Y4035212D01*
X6428762Y4035212D01*
G37*
%LPD*%
%LPC*%
G36*
X1094117Y4045054D02*
X1094117Y4045054D01*
X1082456Y4056715D01*
X1082456Y4073206D01*
X1094117Y4084867D01*
X1110608Y4084867D01*
X1122268Y4073206D01*
X1122268Y4056715D01*
X1110608Y4045054D01*
X1094117Y4045054D01*
G37*
%LPD*%
%LPC*%
G36*
X3800810Y4045054D02*
X3800810Y4045054D01*
X3789149Y4056715D01*
X3789149Y4073206D01*
X3800810Y4084867D01*
X3817300Y4084867D01*
X3828961Y4073206D01*
X3828961Y4056715D01*
X3817300Y4045054D01*
X3800810Y4045054D01*
G37*
%LPD*%
%LPC*%
G36*
X2983881Y4064739D02*
X2983881Y4064739D01*
X2972220Y4076400D01*
X2972220Y4092891D01*
X2983881Y4104552D01*
X3000371Y4104552D01*
X3012032Y4092891D01*
X3012032Y4076400D01*
X3000371Y4064739D01*
X2983881Y4064739D01*
G37*
%LPD*%
%LPC*%
G36*
X4804747Y4094267D02*
X4804747Y4094267D01*
X4793086Y4105928D01*
X4793086Y4122419D01*
X4804747Y4134079D01*
X4821237Y4134079D01*
X4832898Y4122419D01*
X4832898Y4105928D01*
X4821237Y4094267D01*
X4804747Y4094267D01*
G37*
%LPD*%
%LPC*%
G36*
X3938605Y3720251D02*
X3938605Y3720251D01*
X3926944Y3731912D01*
X3926944Y3748403D01*
X3938605Y3760064D01*
X3955096Y3760064D01*
X3966757Y3748403D01*
X3966757Y3731912D01*
X3955096Y3720251D01*
X3938605Y3720251D01*
G37*
%LPD*%
%LPC*%
G36*
X2157109Y3169070D02*
X2157109Y3169070D01*
X2145448Y3180731D01*
X2145448Y3197222D01*
X2157109Y3208883D01*
X2173600Y3208883D01*
X2185260Y3197222D01*
X2185260Y3180731D01*
X2173600Y3169070D01*
X2157109Y3169070D01*
G37*
%LPD*%
%LPC*%
G36*
X2314589Y3169070D02*
X2314589Y3169070D01*
X2302928Y3180731D01*
X2302928Y3197222D01*
X2314589Y3208883D01*
X2331080Y3208883D01*
X2342741Y3197222D01*
X2342741Y3180731D01*
X2331080Y3169070D01*
X2314589Y3169070D01*
G37*
%LPD*%
%LPC*%
G36*
X4676794Y3169070D02*
X4676794Y3169070D01*
X4665133Y3180731D01*
X4665133Y3197222D01*
X4676794Y3208883D01*
X4693285Y3208883D01*
X4704945Y3197222D01*
X4704945Y3180731D01*
X4693285Y3169070D01*
X4676794Y3169070D01*
G37*
%LPD*%
%LPC*%
G36*
X4578369Y2548991D02*
X4578369Y2548991D01*
X4566708Y2560652D01*
X4566708Y2577143D01*
X4578369Y2588804D01*
X4594859Y2588804D01*
X4606520Y2577143D01*
X4606520Y2560652D01*
X4594859Y2548991D01*
X4578369Y2548991D01*
G37*
%LPD*%
%LPC*%
G36*
X6261440Y2529306D02*
X6261440Y2529306D01*
X6249779Y2540967D01*
X6249779Y2557458D01*
X6261440Y2569119D01*
X6277930Y2569119D01*
X6289591Y2557458D01*
X6289591Y2540967D01*
X6277930Y2529306D01*
X6261440Y2529306D01*
G37*
%LPD*%
%LPC*%
G36*
X4224038Y2529306D02*
X4224038Y2529306D01*
X4212377Y2540967D01*
X4212377Y2557458D01*
X4224038Y2569119D01*
X4240529Y2569119D01*
X4252190Y2557458D01*
X4252190Y2540967D01*
X4240529Y2529306D01*
X4224038Y2529306D01*
G37*
%LPD*%
%LPC*%
G36*
X4794904Y3169070D02*
X4794904Y3169070D01*
X4783243Y3180731D01*
X4783243Y3197222D01*
X4794904Y3208883D01*
X4811395Y3208883D01*
X4823056Y3197222D01*
X4823056Y3180731D01*
X4811395Y3169070D01*
X4794904Y3169070D01*
G37*
%LPD*%
%LPC*%
G36*
X4125613Y2509621D02*
X4125613Y2509621D01*
X4113952Y2521282D01*
X4113952Y2537773D01*
X4125613Y2549434D01*
X4142104Y2549434D01*
X4153764Y2537773D01*
X4153764Y2521282D01*
X4142104Y2509621D01*
X4125613Y2509621D01*
G37*
%LPD*%
%LPC*%
G36*
X5149235Y3169070D02*
X5149235Y3169070D01*
X5137574Y3180731D01*
X5137574Y3197222D01*
X5149235Y3208883D01*
X5165726Y3208883D01*
X5177386Y3197222D01*
X5177386Y3180731D01*
X5165726Y3169070D01*
X5149235Y3169070D01*
G37*
%LPD*%
%LPC*%
G36*
X4432699Y2476157D02*
X4432699Y2476157D01*
X4421039Y2487818D01*
X4421039Y2504308D01*
X4432699Y2515969D01*
X4449190Y2515969D01*
X4460851Y2504308D01*
X4460851Y2487818D01*
X4449190Y2476157D01*
X4432699Y2476157D01*
G37*
%LPD*%
%LPC*%
G36*
X6399235Y2460409D02*
X6399235Y2460409D01*
X6387574Y2472070D01*
X6387574Y2488560D01*
X6399235Y2500221D01*
X6415726Y2500221D01*
X6427386Y2488560D01*
X6427386Y2472070D01*
X6415726Y2460409D01*
X6399235Y2460409D01*
G37*
%LPD*%
%LPC*%
G36*
X5326400Y2460409D02*
X5326400Y2460409D01*
X5314739Y2472070D01*
X5314739Y2488560D01*
X5326400Y2500221D01*
X5342891Y2500221D01*
X5354552Y2488560D01*
X5354552Y2472070D01*
X5342891Y2460409D01*
X5326400Y2460409D01*
G37*
%LPD*%
%LPC*%
G36*
X3287030Y3178913D02*
X3287030Y3178913D01*
X3275369Y3190573D01*
X3275369Y3207064D01*
X3287030Y3218725D01*
X3303521Y3218725D01*
X3315182Y3207064D01*
X3315182Y3190573D01*
X3303521Y3178913D01*
X3287030Y3178913D01*
G37*
%LPD*%
%LPC*%
G36*
X3407109Y3178913D02*
X3407109Y3178913D01*
X3395448Y3190573D01*
X3395448Y3207064D01*
X3407109Y3218725D01*
X3423600Y3218725D01*
X3435260Y3207064D01*
X3435260Y3190573D01*
X3423600Y3178913D01*
X3407109Y3178913D01*
G37*
%LPD*%
%LPC*%
G36*
X2212227Y3180881D02*
X2212227Y3180881D01*
X2200566Y3192542D01*
X2200566Y3209033D01*
X2212227Y3220694D01*
X2228718Y3220694D01*
X2240379Y3209033D01*
X2240379Y3192542D01*
X2228718Y3180881D01*
X2212227Y3180881D01*
G37*
%LPD*%
%LPC*%
G36*
X1418920Y3188755D02*
X1418920Y3188755D01*
X1407259Y3200416D01*
X1407259Y3216907D01*
X1418920Y3228568D01*
X1435411Y3228568D01*
X1447071Y3216907D01*
X1447071Y3200416D01*
X1435411Y3188755D01*
X1418920Y3188755D01*
G37*
%LPD*%
%LPC*%
G36*
X2993723Y3198598D02*
X2993723Y3198598D01*
X2982062Y3210258D01*
X2982062Y3226749D01*
X2993723Y3238410D01*
X3010214Y3238410D01*
X3021875Y3226749D01*
X3021875Y3210258D01*
X3010214Y3198598D01*
X2993723Y3198598D01*
G37*
%LPD*%
%LPC*%
G36*
X4214195Y3198598D02*
X4214195Y3198598D01*
X4202535Y3210258D01*
X4202535Y3226749D01*
X4214195Y3238410D01*
X4230686Y3238410D01*
X4242347Y3226749D01*
X4242347Y3210258D01*
X4230686Y3198598D01*
X4214195Y3198598D01*
G37*
%LPD*%
%LPC*%
G36*
X4519314Y3198598D02*
X4519314Y3198598D01*
X4507653Y3210258D01*
X4507653Y3226749D01*
X4519314Y3238410D01*
X4535804Y3238410D01*
X4547465Y3226749D01*
X4547465Y3210258D01*
X4535804Y3198598D01*
X4519314Y3198598D01*
G37*
%LPD*%
%LPC*%
G36*
X5109865Y3206472D02*
X5109865Y3206472D01*
X5098204Y3218133D01*
X5098204Y3234623D01*
X5109865Y3246284D01*
X5126356Y3246284D01*
X5138016Y3234623D01*
X5138016Y3218133D01*
X5126356Y3206472D01*
X5109865Y3206472D01*
G37*
%LPD*%
%LPC*%
G36*
X4804747Y3907259D02*
X4804747Y3907259D01*
X4793086Y3918920D01*
X4793086Y3935411D01*
X4804747Y3947071D01*
X4821237Y3947071D01*
X4832898Y3935411D01*
X4832898Y3918920D01*
X4821237Y3907259D01*
X4804747Y3907259D01*
G37*
%LPD*%
%LPC*%
G36*
X4204353Y3907259D02*
X4204353Y3907259D01*
X4192692Y3918920D01*
X4192692Y3935411D01*
X4204353Y3947071D01*
X4220844Y3947071D01*
X4232505Y3935411D01*
X4232505Y3918920D01*
X4220844Y3907259D01*
X4204353Y3907259D01*
G37*
%LPD*%
%LPC*%
G36*
X1507503Y2430881D02*
X1507503Y2430881D01*
X1495842Y2442542D01*
X1495842Y2459033D01*
X1507503Y2470694D01*
X1523993Y2470694D01*
X1535654Y2459033D01*
X1535654Y2442542D01*
X1523993Y2430881D01*
X1507503Y2430881D01*
G37*
%LPD*%
%LPC*%
G36*
X5424825Y3228125D02*
X5424825Y3228125D01*
X5413165Y3239786D01*
X5413165Y3256277D01*
X5424825Y3267938D01*
X5441316Y3267938D01*
X5452977Y3256277D01*
X5452977Y3239786D01*
X5441316Y3228125D01*
X5424825Y3228125D01*
G37*
%LPD*%
%LPC*%
G36*
X5590180Y2405291D02*
X5590180Y2405291D01*
X5578519Y2416951D01*
X5578519Y2433442D01*
X5590180Y2445103D01*
X5606671Y2445103D01*
X5618331Y2433442D01*
X5618331Y2416951D01*
X5606671Y2405291D01*
X5590180Y2405291D01*
G37*
%LPD*%
%LPC*%
G36*
X2629550Y2381669D02*
X2629550Y2381669D01*
X2617889Y2393329D01*
X2617889Y2409820D01*
X2629550Y2421481D01*
X2646041Y2421481D01*
X2657701Y2409820D01*
X2657701Y2393329D01*
X2646041Y2381669D01*
X2629550Y2381669D01*
G37*
%LPD*%
%LPC*%
G36*
X4263408Y3267495D02*
X4263408Y3267495D01*
X4251747Y3279156D01*
X4251747Y3295647D01*
X4263408Y3307308D01*
X4279899Y3307308D01*
X4291560Y3295647D01*
X4291560Y3279156D01*
X4279899Y3267495D01*
X4263408Y3267495D01*
G37*
%LPD*%
%LPC*%
G36*
X4322463Y3287180D02*
X4322463Y3287180D01*
X4310802Y3298841D01*
X4310802Y3315332D01*
X4322463Y3326993D01*
X4338954Y3326993D01*
X4350615Y3315332D01*
X4350615Y3298841D01*
X4338954Y3287180D01*
X4322463Y3287180D01*
G37*
%LPD*%
%LPC*%
G36*
X3619707Y3289149D02*
X3619707Y3289149D01*
X3608047Y3300810D01*
X3608047Y3317300D01*
X3619707Y3328961D01*
X3636198Y3328961D01*
X3647859Y3317300D01*
X3647859Y3300810D01*
X3636198Y3289149D01*
X3619707Y3289149D01*
G37*
%LPD*%
%LPC*%
G36*
X2895298Y3297023D02*
X2895298Y3297023D01*
X2883637Y3308684D01*
X2883637Y3325174D01*
X2895298Y3336835D01*
X2911789Y3336835D01*
X2923449Y3325174D01*
X2923449Y3308684D01*
X2911789Y3297023D01*
X2895298Y3297023D01*
G37*
%LPD*%
%LPC*%
G36*
X6271282Y3877732D02*
X6271282Y3877732D01*
X6259621Y3889392D01*
X6259621Y3905883D01*
X6271282Y3917544D01*
X6287773Y3917544D01*
X6299434Y3905883D01*
X6299434Y3889392D01*
X6287773Y3877732D01*
X6271282Y3877732D01*
G37*
%LPD*%
%LPC*%
G36*
X3761440Y3306865D02*
X3761440Y3306865D01*
X3749779Y3318526D01*
X3749779Y3335017D01*
X3761440Y3346678D01*
X3777930Y3346678D01*
X3789591Y3335017D01*
X3789591Y3318526D01*
X3777930Y3306865D01*
X3761440Y3306865D01*
G37*
%LPD*%
%LPC*%
G36*
X6281125Y3306865D02*
X6281125Y3306865D01*
X6269464Y3318526D01*
X6269464Y3335017D01*
X6281125Y3346678D01*
X6297615Y3346678D01*
X6309276Y3335017D01*
X6309276Y3318526D01*
X6297615Y3306865D01*
X6281125Y3306865D01*
G37*
%LPD*%
%LPC*%
G36*
X4178762Y3312771D02*
X4178762Y3312771D01*
X4167102Y3324432D01*
X4167102Y3340922D01*
X4178762Y3352583D01*
X4195253Y3352583D01*
X4206914Y3340922D01*
X4206914Y3324432D01*
X4195253Y3312771D01*
X4178762Y3312771D01*
G37*
%LPD*%
%LPC*%
G36*
X3645298Y3336393D02*
X3645298Y3336393D01*
X3633637Y3348054D01*
X3633637Y3364545D01*
X3645298Y3376205D01*
X3661789Y3376205D01*
X3673449Y3364545D01*
X3673449Y3348054D01*
X3661789Y3336393D01*
X3645298Y3336393D01*
G37*
%LPD*%
%LPC*%
G36*
X1078369Y3340330D02*
X1078369Y3340330D01*
X1066708Y3351991D01*
X1066708Y3368482D01*
X1078369Y3380142D01*
X1094859Y3380142D01*
X1106520Y3368482D01*
X1106520Y3351991D01*
X1094859Y3340330D01*
X1078369Y3340330D01*
G37*
%LPD*%
%LPC*%
G36*
X6182699Y3342298D02*
X6182699Y3342298D01*
X6171039Y3353959D01*
X6171039Y3370450D01*
X6182699Y3382111D01*
X6199190Y3382111D01*
X6210851Y3370450D01*
X6210851Y3353959D01*
X6199190Y3342298D01*
X6182699Y3342298D01*
G37*
%LPD*%
%LPC*%
G36*
X5946479Y2332456D02*
X5946479Y2332456D01*
X5934818Y2344117D01*
X5934818Y2360608D01*
X5946479Y2372268D01*
X5962970Y2372268D01*
X5974631Y2360608D01*
X5974631Y2344117D01*
X5962970Y2332456D01*
X5946479Y2332456D01*
G37*
%LPD*%
%LPC*%
G36*
X5434668Y2332456D02*
X5434668Y2332456D01*
X5423007Y2344117D01*
X5423007Y2360608D01*
X5434668Y2372268D01*
X5451159Y2372268D01*
X5462820Y2360608D01*
X5462820Y2344117D01*
X5451159Y2332456D01*
X5434668Y2332456D01*
G37*
%LPD*%
%LPC*%
G36*
X4922857Y3346235D02*
X4922857Y3346235D01*
X4911196Y3357896D01*
X4911196Y3374387D01*
X4922857Y3386048D01*
X4939348Y3386048D01*
X4951008Y3374387D01*
X4951008Y3357896D01*
X4939348Y3346235D01*
X4922857Y3346235D01*
G37*
%LPD*%
%LPC*%
G36*
X4046873Y2283243D02*
X4046873Y2283243D01*
X4035212Y2294904D01*
X4035212Y2311395D01*
X4046873Y2323056D01*
X4063363Y2323056D01*
X4075024Y2311395D01*
X4075024Y2294904D01*
X4063363Y2283243D01*
X4046873Y2283243D01*
G37*
%LPD*%
%LPC*%
G36*
X2659077Y2273401D02*
X2659077Y2273401D01*
X2647417Y2285062D01*
X2647417Y2301552D01*
X2659077Y2313213D01*
X2675568Y2313213D01*
X2687229Y2301552D01*
X2687229Y2285062D01*
X2675568Y2273401D01*
X2659077Y2273401D01*
G37*
%LPD*%
%LPC*%
G36*
X1133487Y3356078D02*
X1133487Y3356078D01*
X1121826Y3367739D01*
X1121826Y3384230D01*
X1133487Y3395890D01*
X1149978Y3395890D01*
X1161638Y3384230D01*
X1161638Y3367739D01*
X1149978Y3356078D01*
X1133487Y3356078D01*
G37*
%LPD*%
%LPC*%
G36*
X2393329Y3358047D02*
X2393329Y3358047D01*
X2381669Y3369707D01*
X2381669Y3386198D01*
X2393329Y3397859D01*
X2409820Y3397859D01*
X2421481Y3386198D01*
X2421481Y3369707D01*
X2409820Y3358047D01*
X2393329Y3358047D01*
G37*
%LPD*%
%LPC*%
G36*
X3101991Y3358047D02*
X3101991Y3358047D01*
X3090330Y3369707D01*
X3090330Y3386198D01*
X3101991Y3397859D01*
X3118482Y3397859D01*
X3130142Y3386198D01*
X3130142Y3369707D01*
X3118482Y3358047D01*
X3101991Y3358047D01*
G37*
%LPD*%
%LPC*%
G36*
X4755534Y3358047D02*
X4755534Y3358047D01*
X4743873Y3369707D01*
X4743873Y3386198D01*
X4755534Y3397859D01*
X4772025Y3397859D01*
X4783686Y3386198D01*
X4783686Y3369707D01*
X4772025Y3358047D01*
X4755534Y3358047D01*
G37*
%LPD*%
%LPC*%
G36*
X5503566Y3358047D02*
X5503566Y3358047D01*
X5491905Y3369707D01*
X5491905Y3386198D01*
X5503566Y3397859D01*
X5520056Y3397859D01*
X5531717Y3386198D01*
X5531717Y3369707D01*
X5520056Y3358047D01*
X5503566Y3358047D01*
G37*
%LPD*%
%LPC*%
G36*
X3702384Y3365921D02*
X3702384Y3365921D01*
X3690724Y3377581D01*
X3690724Y3394072D01*
X3702384Y3405733D01*
X3718875Y3405733D01*
X3730536Y3394072D01*
X3730536Y3377581D01*
X3718875Y3365921D01*
X3702384Y3365921D01*
G37*
%LPD*%
%LPC*%
G36*
X5070495Y3365921D02*
X5070495Y3365921D01*
X5058834Y3377581D01*
X5058834Y3394072D01*
X5070495Y3405733D01*
X5086985Y3405733D01*
X5098646Y3394072D01*
X5098646Y3377581D01*
X5086985Y3365921D01*
X5070495Y3365921D01*
G37*
%LPD*%
%LPC*%
G36*
X5385455Y3385606D02*
X5385455Y3385606D01*
X5373795Y3397266D01*
X5373795Y3413757D01*
X5385455Y3425418D01*
X5401946Y3425418D01*
X5413607Y3413757D01*
X5413607Y3397266D01*
X5401946Y3385606D01*
X5385455Y3385606D01*
G37*
%LPD*%
%LPC*%
G36*
X2196479Y3395448D02*
X2196479Y3395448D01*
X2184818Y3407109D01*
X2184818Y3423600D01*
X2196479Y3435260D01*
X2212970Y3435260D01*
X2224631Y3423600D01*
X2224631Y3407109D01*
X2212970Y3395448D01*
X2196479Y3395448D01*
G37*
%LPD*%
%LPC*%
G36*
X5788999Y3877732D02*
X5788999Y3877732D01*
X5777338Y3889392D01*
X5777338Y3905883D01*
X5788999Y3917544D01*
X5805489Y3917544D01*
X5817150Y3905883D01*
X5817150Y3889392D01*
X5805489Y3877732D01*
X5788999Y3877732D01*
G37*
%LPD*%
%LPC*%
G36*
X5779156Y2243873D02*
X5779156Y2243873D01*
X5767495Y2255534D01*
X5767495Y2272025D01*
X5779156Y2283686D01*
X5795647Y2283686D01*
X5807308Y2272025D01*
X5807308Y2255534D01*
X5795647Y2243873D01*
X5779156Y2243873D01*
G37*
%LPD*%
%LPC*%
G36*
X4322463Y2214346D02*
X4322463Y2214346D01*
X4310802Y2226007D01*
X4310802Y2242497D01*
X4322463Y2254158D01*
X4338954Y2254158D01*
X4350615Y2242497D01*
X4350615Y2226007D01*
X4338954Y2214346D01*
X4322463Y2214346D01*
G37*
%LPD*%
%LPC*%
G36*
X6940573Y2204503D02*
X6940573Y2204503D01*
X6928913Y2216164D01*
X6928913Y2232655D01*
X6940573Y2244316D01*
X6957064Y2244316D01*
X6968725Y2232655D01*
X6968725Y2216164D01*
X6957064Y2204503D01*
X6940573Y2204503D01*
G37*
%LPD*%
%LPC*%
G36*
X5338211Y3861984D02*
X5338211Y3861984D01*
X5326550Y3873644D01*
X5326550Y3890135D01*
X5338211Y3901796D01*
X5354702Y3901796D01*
X5366363Y3890135D01*
X5366363Y3873644D01*
X5354702Y3861984D01*
X5338211Y3861984D01*
G37*
%LPD*%
%LPC*%
G36*
X4109865Y2190724D02*
X4109865Y2190724D01*
X4098204Y2202384D01*
X4098204Y2218875D01*
X4109865Y2230536D01*
X4126356Y2230536D01*
X4138016Y2218875D01*
X4138016Y2202384D01*
X4126356Y2190724D01*
X4109865Y2190724D01*
G37*
%LPD*%
%LPC*%
G36*
X6084274Y2174976D02*
X6084274Y2174976D01*
X6072613Y2186636D01*
X6072613Y2203127D01*
X6084274Y2214788D01*
X6100765Y2214788D01*
X6112426Y2203127D01*
X6112426Y2186636D01*
X6100765Y2174976D01*
X6084274Y2174976D01*
G37*
%LPD*%
%LPC*%
G36*
X5267345Y2165133D02*
X5267345Y2165133D01*
X5255684Y2176794D01*
X5255684Y2193285D01*
X5267345Y2204945D01*
X5283836Y2204945D01*
X5295497Y2193285D01*
X5295497Y2176794D01*
X5283836Y2165133D01*
X5267345Y2165133D01*
G37*
%LPD*%
%LPC*%
G36*
X3013408Y3415133D02*
X3013408Y3415133D01*
X3001747Y3426794D01*
X3001747Y3443285D01*
X3013408Y3454945D01*
X3029899Y3454945D01*
X3041560Y3443285D01*
X3041560Y3426794D01*
X3029899Y3415133D01*
X3013408Y3415133D01*
G37*
%LPD*%
%LPC*%
G36*
X3859865Y4153322D02*
X3859865Y4153322D01*
X3848204Y4164983D01*
X3848204Y4181474D01*
X3859865Y4193134D01*
X3876356Y4193134D01*
X3888016Y4181474D01*
X3888016Y4164983D01*
X3876356Y4153322D01*
X3859865Y4153322D01*
G37*
%LPD*%
%LPC*%
G36*
X2245692Y3749779D02*
X2245692Y3749779D01*
X2234031Y3761440D01*
X2234031Y3777930D01*
X2245692Y3789591D01*
X2262182Y3789591D01*
X2273843Y3777930D01*
X2273843Y3761440D01*
X2262182Y3749779D01*
X2245692Y3749779D01*
G37*
%LPD*%
%LPC*%
G36*
X4954353Y3710409D02*
X4954353Y3710409D01*
X4942692Y3722070D01*
X4942692Y3738560D01*
X4954353Y3750221D01*
X4970844Y3750221D01*
X4982505Y3738560D01*
X4982505Y3722070D01*
X4970844Y3710409D01*
X4954353Y3710409D01*
G37*
%LPD*%
%LPC*%
G36*
X4273251Y3651354D02*
X4273251Y3651354D01*
X4261590Y3663014D01*
X4261590Y3679505D01*
X4273251Y3691166D01*
X4289741Y3691166D01*
X4301402Y3679505D01*
X4301402Y3663014D01*
X4289741Y3651354D01*
X4273251Y3651354D01*
G37*
%LPD*%
%LPC*%
G36*
X4824432Y4182850D02*
X4824432Y4182850D01*
X4812771Y4194510D01*
X4812771Y4211001D01*
X4824432Y4222662D01*
X4840922Y4222662D01*
X4852583Y4211001D01*
X4852583Y4194510D01*
X4840922Y4182850D01*
X4824432Y4182850D01*
G37*
%LPD*%
%LPC*%
G36*
X3889392Y3641511D02*
X3889392Y3641511D01*
X3877732Y3653172D01*
X3877732Y3669663D01*
X3889392Y3681323D01*
X3905883Y3681323D01*
X3917544Y3669663D01*
X3917544Y3653172D01*
X3905883Y3641511D01*
X3889392Y3641511D01*
G37*
%LPD*%
%LPC*%
G36*
X4814589Y3631669D02*
X4814589Y3631669D01*
X4802928Y3643329D01*
X4802928Y3659820D01*
X4814589Y3671481D01*
X4831080Y3671481D01*
X4842741Y3659820D01*
X4842741Y3643329D01*
X4831080Y3631669D01*
X4814589Y3631669D01*
G37*
%LPD*%
%LPC*%
G36*
X4037030Y3415133D02*
X4037030Y3415133D01*
X4025369Y3426794D01*
X4025369Y3443285D01*
X4037030Y3454945D01*
X4053521Y3454945D01*
X4065182Y3443285D01*
X4065182Y3426794D01*
X4053521Y3415133D01*
X4037030Y3415133D01*
G37*
%LPD*%
%LPC*%
G36*
X1448447Y3424976D02*
X1448447Y3424976D01*
X1436787Y3436636D01*
X1436787Y3453127D01*
X1448447Y3464788D01*
X1464938Y3464788D01*
X1476599Y3453127D01*
X1476599Y3436636D01*
X1464938Y3424976D01*
X1448447Y3424976D01*
G37*
%LPD*%
%LPC*%
G36*
X4903172Y3424976D02*
X4903172Y3424976D01*
X4891511Y3436636D01*
X4891511Y3453127D01*
X4903172Y3464788D01*
X4919663Y3464788D01*
X4931323Y3453127D01*
X4931323Y3436636D01*
X4919663Y3424976D01*
X4903172Y3424976D01*
G37*
%LPD*%
%LPC*%
G36*
X4082306Y2119858D02*
X4082306Y2119858D01*
X4070645Y2131518D01*
X4070645Y2148009D01*
X4082306Y2159670D01*
X4098797Y2159670D01*
X4110457Y2148009D01*
X4110457Y2131518D01*
X4098797Y2119858D01*
X4082306Y2119858D01*
G37*
%LPD*%
%LPC*%
G36*
X2678762Y2115921D02*
X2678762Y2115921D01*
X2667102Y2127581D01*
X2667102Y2144072D01*
X2678762Y2155733D01*
X2695253Y2155733D01*
X2706914Y2144072D01*
X2706914Y2127581D01*
X2695253Y2115921D01*
X2678762Y2115921D01*
G37*
%LPD*%
%LPC*%
G36*
X5336243Y2086393D02*
X5336243Y2086393D01*
X5324582Y2098054D01*
X5324582Y2114545D01*
X5336243Y2126205D01*
X5352734Y2126205D01*
X5364394Y2114545D01*
X5364394Y2098054D01*
X5352734Y2086393D01*
X5336243Y2086393D01*
G37*
%LPD*%
%LPC*%
G36*
X6763408Y2066708D02*
X6763408Y2066708D01*
X6751747Y2078369D01*
X6751747Y2094859D01*
X6763408Y2106520D01*
X6779899Y2106520D01*
X6791560Y2094859D01*
X6791560Y2078369D01*
X6779899Y2066708D01*
X6763408Y2066708D01*
G37*
%LPD*%
%LPC*%
G36*
X4351991Y2056865D02*
X4351991Y2056865D01*
X4340330Y2068526D01*
X4340330Y2085017D01*
X4351991Y2096678D01*
X4368482Y2096678D01*
X4380142Y2085017D01*
X4380142Y2068526D01*
X4368482Y2056865D01*
X4351991Y2056865D01*
G37*
%LPD*%
%LPC*%
G36*
X2019314Y3434818D02*
X2019314Y3434818D01*
X2007653Y3446479D01*
X2007653Y3462970D01*
X2019314Y3474631D01*
X2035804Y3474631D01*
X2047465Y3462970D01*
X2047465Y3446479D01*
X2035804Y3434818D01*
X2019314Y3434818D01*
G37*
%LPD*%
%LPC*%
G36*
X5013408Y3444661D02*
X5013408Y3444661D01*
X5001747Y3456321D01*
X5001747Y3472812D01*
X5013408Y3484473D01*
X5029899Y3484473D01*
X5041560Y3472812D01*
X5041560Y3456321D01*
X5029899Y3444661D01*
X5013408Y3444661D01*
G37*
%LPD*%
%LPC*%
G36*
X1192542Y3454503D02*
X1192542Y3454503D01*
X1180881Y3466164D01*
X1180881Y3482655D01*
X1192542Y3494316D01*
X1209033Y3494316D01*
X1220694Y3482655D01*
X1220694Y3466164D01*
X1209033Y3454503D01*
X1192542Y3454503D01*
G37*
%LPD*%
%LPC*%
G36*
X5119707Y3454503D02*
X5119707Y3454503D01*
X5108047Y3466164D01*
X5108047Y3482655D01*
X5119707Y3494316D01*
X5136198Y3494316D01*
X5147859Y3482655D01*
X5147859Y3466164D01*
X5136198Y3454503D01*
X5119707Y3454503D01*
G37*
%LPD*%
%LPC*%
G36*
X5700416Y3789149D02*
X5700416Y3789149D01*
X5688755Y3800810D01*
X5688755Y3817300D01*
X5700416Y3828961D01*
X5716907Y3828961D01*
X5728568Y3817300D01*
X5728568Y3800810D01*
X5716907Y3789149D01*
X5700416Y3789149D01*
G37*
%LPD*%
%LPC*%
G36*
X1645298Y3474188D02*
X1645298Y3474188D01*
X1633637Y3485849D01*
X1633637Y3502340D01*
X1645298Y3514001D01*
X1661789Y3514001D01*
X1673449Y3502340D01*
X1673449Y3485849D01*
X1661789Y3474188D01*
X1645298Y3474188D01*
G37*
%LPD*%
%LPC*%
G36*
X2088211Y3474188D02*
X2088211Y3474188D01*
X2076550Y3485849D01*
X2076550Y3502340D01*
X2088211Y3514001D01*
X2104702Y3514001D01*
X2116363Y3502340D01*
X2116363Y3485849D01*
X2104702Y3474188D01*
X2088211Y3474188D01*
G37*
%LPD*%
%LPC*%
G36*
X3574432Y3474188D02*
X3574432Y3474188D01*
X3562771Y3485849D01*
X3562771Y3502340D01*
X3574432Y3514001D01*
X3590922Y3514001D01*
X3602583Y3502340D01*
X3602583Y3485849D01*
X3590922Y3474188D01*
X3574432Y3474188D01*
G37*
%LPD*%
%LPC*%
G36*
X4529156Y3484031D02*
X4529156Y3484031D01*
X4517495Y3495692D01*
X4517495Y3512182D01*
X4529156Y3523843D01*
X4545647Y3523843D01*
X4557308Y3512182D01*
X4557308Y3495692D01*
X4545647Y3484031D01*
X4529156Y3484031D01*
G37*
%LPD*%
%LPC*%
G36*
X5090180Y3489936D02*
X5090180Y3489936D01*
X5078519Y3501597D01*
X5078519Y3518088D01*
X5090180Y3529749D01*
X5106671Y3529749D01*
X5118331Y3518088D01*
X5118331Y3501597D01*
X5106671Y3489936D01*
X5090180Y3489936D01*
G37*
%LPD*%
%LPC*%
G36*
X4115770Y2047023D02*
X4115770Y2047023D01*
X4104109Y2058684D01*
X4104109Y2075174D01*
X4115770Y2086835D01*
X4132261Y2086835D01*
X4143922Y2075174D01*
X4143922Y2058684D01*
X4132261Y2047023D01*
X4115770Y2047023D01*
G37*
%LPD*%
%LPC*%
G36*
X4954353Y3503716D02*
X4954353Y3503716D01*
X4942692Y3515377D01*
X4942692Y3531867D01*
X4954353Y3543528D01*
X4970844Y3543528D01*
X4982505Y3531867D01*
X4982505Y3515377D01*
X4970844Y3503716D01*
X4954353Y3503716D01*
G37*
%LPD*%
%LPC*%
G36*
X4676794Y2037180D02*
X4676794Y2037180D01*
X4665133Y2048841D01*
X4665133Y2065332D01*
X4676794Y2076993D01*
X4693285Y2076993D01*
X4704945Y2065332D01*
X4704945Y2048841D01*
X4693285Y2037180D01*
X4676794Y2037180D01*
G37*
%LPD*%
%LPC*%
G36*
X2733881Y2029306D02*
X2733881Y2029306D01*
X2722220Y2040967D01*
X2722220Y2057458D01*
X2733881Y2069119D01*
X2750371Y2069119D01*
X2762032Y2057458D01*
X2762032Y2040967D01*
X2750371Y2029306D01*
X2733881Y2029306D01*
G37*
%LPD*%
%LPC*%
G36*
X4558684Y2027338D02*
X4558684Y2027338D01*
X4547023Y2038999D01*
X4547023Y2055489D01*
X4558684Y2067150D01*
X4575174Y2067150D01*
X4586835Y2055489D01*
X4586835Y2038999D01*
X4575174Y2027338D01*
X4558684Y2027338D01*
G37*
%LPD*%
%LPC*%
G36*
X4489786Y1958440D02*
X4489786Y1958440D01*
X4478125Y1970101D01*
X4478125Y1986592D01*
X4489786Y1998253D01*
X4506277Y1998253D01*
X4517938Y1986592D01*
X4517938Y1970101D01*
X4506277Y1958440D01*
X4489786Y1958440D01*
G37*
%LPD*%
%LPC*%
G36*
X5021282Y3503716D02*
X5021282Y3503716D01*
X5009621Y3515377D01*
X5009621Y3531867D01*
X5021282Y3543528D01*
X5037773Y3543528D01*
X5049434Y3531867D01*
X5049434Y3515377D01*
X5037773Y3503716D01*
X5021282Y3503716D01*
G37*
%LPD*%
%LPC*%
G36*
X2145298Y3515527D02*
X2145298Y3515527D01*
X2133637Y3527188D01*
X2133637Y3543678D01*
X2145298Y3555339D01*
X2161789Y3555339D01*
X2173449Y3543678D01*
X2173449Y3527188D01*
X2161789Y3515527D01*
X2145298Y3515527D01*
G37*
%LPD*%
%LPC*%
G36*
X1515377Y3781275D02*
X1515377Y3781275D01*
X1503716Y3792936D01*
X1503716Y3809426D01*
X1515377Y3821087D01*
X1531867Y3821087D01*
X1543528Y3809426D01*
X1543528Y3792936D01*
X1531867Y3781275D01*
X1515377Y3781275D01*
G37*
%LPD*%
%LPC*%
G36*
X3722070Y3543086D02*
X3722070Y3543086D01*
X3710409Y3554747D01*
X3710409Y3571237D01*
X3722070Y3582898D01*
X3738560Y3582898D01*
X3750221Y3571237D01*
X3750221Y3554747D01*
X3738560Y3543086D01*
X3722070Y3543086D01*
G37*
%LPD*%
%LPC*%
G36*
X3151203Y3552928D02*
X3151203Y3552928D01*
X3139543Y3564589D01*
X3139543Y3581080D01*
X3151203Y3592741D01*
X3167694Y3592741D01*
X3179355Y3581080D01*
X3179355Y3564589D01*
X3167694Y3552928D01*
X3151203Y3552928D01*
G37*
%LPD*%
%LPC*%
G36*
X3495692Y3552928D02*
X3495692Y3552928D01*
X3484031Y3564589D01*
X3484031Y3581080D01*
X3495692Y3592741D01*
X3512182Y3592741D01*
X3523843Y3581080D01*
X3523843Y3564589D01*
X3512182Y3552928D01*
X3495692Y3552928D01*
G37*
%LPD*%
%LPC*%
G36*
X4411046Y3552928D02*
X4411046Y3552928D01*
X4399385Y3564589D01*
X4399385Y3581080D01*
X4411046Y3592741D01*
X4427537Y3592741D01*
X4439197Y3581080D01*
X4439197Y3564589D01*
X4427537Y3552928D01*
X4411046Y3552928D01*
G37*
%LPD*%
%LPC*%
G36*
X4745692Y3562771D02*
X4745692Y3562771D01*
X4734031Y3574432D01*
X4734031Y3590922D01*
X4745692Y3602583D01*
X4762182Y3602583D01*
X4773843Y3590922D01*
X4773843Y3574432D01*
X4762182Y3562771D01*
X4745692Y3562771D01*
G37*
%LPD*%
%LPC*%
G36*
X2804747Y3582456D02*
X2804747Y3582456D01*
X2793086Y3594117D01*
X2793086Y3610608D01*
X2804747Y3622268D01*
X2821237Y3622268D01*
X2832898Y3610608D01*
X2832898Y3594117D01*
X2821237Y3582456D01*
X2804747Y3582456D01*
G37*
%LPD*%
%LPC*%
G36*
X3416951Y3582456D02*
X3416951Y3582456D01*
X3405291Y3594117D01*
X3405291Y3610608D01*
X3416951Y3622268D01*
X3433442Y3622268D01*
X3445103Y3610608D01*
X3445103Y3594117D01*
X3433442Y3582456D01*
X3416951Y3582456D01*
G37*
%LPD*%
%LPC*%
G36*
X4411046Y1928913D02*
X4411046Y1928913D01*
X4399385Y1940573D01*
X4399385Y1957064D01*
X4411046Y1968725D01*
X4427537Y1968725D01*
X4439197Y1957064D01*
X4439197Y1940573D01*
X4427537Y1928913D01*
X4411046Y1928913D01*
G37*
%LPD*%
%LPC*%
G36*
X4509471Y1899385D02*
X4509471Y1899385D01*
X4497810Y1911046D01*
X4497810Y1927537D01*
X4509471Y1939197D01*
X4525962Y1939197D01*
X4537623Y1927537D01*
X4537623Y1911046D01*
X4525962Y1899385D01*
X4509471Y1899385D01*
G37*
%LPD*%
%LPC*%
G36*
X1710258Y3586393D02*
X1710258Y3586393D01*
X1698598Y3598054D01*
X1698598Y3614545D01*
X1710258Y3626205D01*
X1726749Y3626205D01*
X1738410Y3614545D01*
X1738410Y3598054D01*
X1726749Y3586393D01*
X1710258Y3586393D01*
G37*
%LPD*%
%LPC*%
G36*
X5355928Y1879700D02*
X5355928Y1879700D01*
X5344267Y1891361D01*
X5344267Y1907852D01*
X5355928Y1919512D01*
X5372419Y1919512D01*
X5384079Y1907852D01*
X5384079Y1891361D01*
X5372419Y1879700D01*
X5355928Y1879700D01*
G37*
%LPD*%
%LPC*%
G36*
X5857896Y1869858D02*
X5857896Y1869858D01*
X5846235Y1881518D01*
X5846235Y1898009D01*
X5857896Y1909670D01*
X5874387Y1909670D01*
X5886048Y1898009D01*
X5886048Y1881518D01*
X5874387Y1869858D01*
X5857896Y1869858D01*
G37*
%LPD*%
%LPC*%
G36*
X4391361Y1860015D02*
X4391361Y1860015D01*
X4379700Y1871676D01*
X4379700Y1888167D01*
X4391361Y1899827D01*
X4407852Y1899827D01*
X4419512Y1888167D01*
X4419512Y1871676D01*
X4407852Y1860015D01*
X4391361Y1860015D01*
G37*
%LPD*%
%LPC*%
G36*
X4351991Y3627732D02*
X4351991Y3627732D01*
X4340330Y3639392D01*
X4340330Y3655883D01*
X4351991Y3667544D01*
X4368482Y3667544D01*
X4380142Y3655883D01*
X4380142Y3639392D01*
X4368482Y3627732D01*
X4351991Y3627732D01*
G37*
%LPD*%
%LPC*%
G36*
X1377581Y3625763D02*
X1377581Y3625763D01*
X1365921Y3637424D01*
X1365921Y3653915D01*
X1377581Y3665575D01*
X1394072Y3665575D01*
X1405733Y3653915D01*
X1405733Y3637424D01*
X1394072Y3625763D01*
X1377581Y3625763D01*
G37*
%LPD*%
%LPC*%
G36*
X3850022Y3749779D02*
X3850022Y3749779D01*
X3838361Y3761440D01*
X3838361Y3777930D01*
X3850022Y3789591D01*
X3866513Y3789591D01*
X3878174Y3777930D01*
X3878174Y3761440D01*
X3866513Y3749779D01*
X3850022Y3749779D01*
G37*
%LPD*%
%LPC*%
G36*
X1271282Y3611984D02*
X1271282Y3611984D01*
X1259621Y3623644D01*
X1259621Y3640135D01*
X1271282Y3651796D01*
X1287773Y3651796D01*
X1299434Y3640135D01*
X1299434Y3623644D01*
X1287773Y3611984D01*
X1271282Y3611984D01*
G37*
%LPD*%
%LPC*%
G36*
X2314589Y3602141D02*
X2314589Y3602141D01*
X2302928Y3613802D01*
X2302928Y3630293D01*
X2314589Y3641953D01*
X2331080Y3641953D01*
X2342741Y3630293D01*
X2342741Y3613802D01*
X2331080Y3602141D01*
X2314589Y3602141D01*
G37*
%LPD*%
%LPC*%
G36*
X1133487Y3611984D02*
X1133487Y3611984D01*
X1121826Y3623644D01*
X1121826Y3640135D01*
X1133487Y3651796D01*
X1149978Y3651796D01*
X1161638Y3640135D01*
X1161638Y3623644D01*
X1149978Y3611984D01*
X1133487Y3611984D01*
G37*
%LPD*%
%LPC*%
G36*
X1766235Y1862692D02*
X1766235Y1862692D01*
X1766235Y1899279D01*
X1770305Y1898635D01*
X1776742Y1896543D01*
X1782774Y1893470D01*
X1788249Y1889492D01*
X1793035Y1884706D01*
X1797013Y1879230D01*
X1800086Y1873199D01*
X1802178Y1866762D01*
X1802823Y1862692D01*
X1766235Y1862692D01*
G37*
%LPD*%
%LPC*%
G36*
X1766235Y1850694D02*
X1766235Y1850694D01*
X1802823Y1850694D01*
X1802178Y1846624D01*
X1800086Y1840187D01*
X1797013Y1834155D01*
X1793035Y1828680D01*
X1788249Y1823894D01*
X1782774Y1819916D01*
X1776742Y1816843D01*
X1770305Y1814751D01*
X1766235Y1814106D01*
X1766235Y1850694D01*
G37*
%LPD*%
%LPC*%
G36*
X1717650Y1862692D02*
X1717650Y1862692D01*
X1718294Y1866762D01*
X1720386Y1873199D01*
X1723459Y1879230D01*
X1727437Y1884706D01*
X1732223Y1889492D01*
X1737699Y1893470D01*
X1743730Y1896543D01*
X1750167Y1898635D01*
X1754237Y1899279D01*
X1754237Y1862692D01*
X1717650Y1862692D01*
G37*
%LPD*%
%LPC*%
G36*
X1750167Y1814751D02*
X1750167Y1814751D01*
X1743730Y1816843D01*
X1737699Y1819916D01*
X1732223Y1823894D01*
X1727437Y1828680D01*
X1723459Y1834155D01*
X1720386Y1840187D01*
X1718294Y1846624D01*
X1717650Y1850694D01*
X1754237Y1850694D01*
X1754237Y1814106D01*
X1750167Y1814751D01*
G37*
%LPD*%
%LPC*%
G36*
X2991038Y1662692D02*
X2991038Y1662692D01*
X2991038Y1698753D01*
X2994987Y1698128D01*
X3001346Y1696062D01*
X3007304Y1693026D01*
X3012714Y1689096D01*
X3017442Y1684367D01*
X3021372Y1678958D01*
X3024408Y1673000D01*
X3026474Y1666641D01*
X3027100Y1662692D01*
X2991038Y1662692D01*
G37*
%LPD*%
%LPC*%
G36*
X3591038Y1662692D02*
X3591038Y1662692D01*
X3591038Y1698753D01*
X3594987Y1698128D01*
X3601346Y1696062D01*
X3607304Y1693026D01*
X3612714Y1689096D01*
X3617442Y1684367D01*
X3621372Y1678958D01*
X3624408Y1673000D01*
X3626474Y1666641D01*
X3627100Y1662692D01*
X3591038Y1662692D01*
G37*
%LPD*%
%LPC*%
G36*
X1613086Y1862298D02*
X1613086Y1862298D01*
X1613086Y1898359D01*
X1617034Y1897734D01*
X1623394Y1895668D01*
X1629352Y1892632D01*
X1634761Y1888702D01*
X1639489Y1883973D01*
X1643420Y1878564D01*
X1646455Y1872606D01*
X1648522Y1866247D01*
X1649147Y1862298D01*
X1613086Y1862298D01*
G37*
%LPD*%
%LPC*%
G36*
X4798912Y1662692D02*
X4798912Y1662692D01*
X4798912Y1698753D01*
X4802861Y1698128D01*
X4809220Y1696062D01*
X4815178Y1693026D01*
X4820588Y1689096D01*
X4825316Y1684367D01*
X4829246Y1678958D01*
X4832282Y1673000D01*
X4834348Y1666641D01*
X4834974Y1662692D01*
X4798912Y1662692D01*
G37*
%LPD*%
%LPC*%
G36*
X3542979Y1662692D02*
X3542979Y1662692D01*
X3543604Y1666641D01*
X3545671Y1673000D01*
X3548706Y1678958D01*
X3552636Y1684367D01*
X3557365Y1689096D01*
X3562774Y1693026D01*
X3568732Y1696062D01*
X3575092Y1698128D01*
X3579040Y1698753D01*
X3579040Y1662692D01*
X3542979Y1662692D01*
G37*
%LPD*%
%LPC*%
G36*
X1613086Y1850300D02*
X1613086Y1850300D01*
X1649147Y1850300D01*
X1648522Y1846352D01*
X1646455Y1839992D01*
X1643420Y1834034D01*
X1639489Y1828625D01*
X1634761Y1823896D01*
X1629352Y1819966D01*
X1623394Y1816930D01*
X1617034Y1814864D01*
X1613086Y1814239D01*
X1613086Y1850300D01*
G37*
%LPD*%
%LPC*%
G36*
X3591038Y1650694D02*
X3591038Y1650694D01*
X3627100Y1650694D01*
X3626474Y1646745D01*
X3624408Y1640386D01*
X3621372Y1634428D01*
X3617442Y1629019D01*
X3612714Y1624290D01*
X3607304Y1620360D01*
X3601346Y1617324D01*
X3594987Y1615258D01*
X3591038Y1614633D01*
X3591038Y1650694D01*
G37*
%LPD*%
%LPC*%
G36*
X2991038Y1650694D02*
X2991038Y1650694D01*
X3027100Y1650694D01*
X3026474Y1646745D01*
X3024408Y1640386D01*
X3021372Y1634428D01*
X3017442Y1629019D01*
X3012714Y1624290D01*
X3007304Y1620360D01*
X3001346Y1617324D01*
X2994987Y1615258D01*
X2991038Y1614633D01*
X2991038Y1650694D01*
G37*
%LPD*%
%LPC*%
G36*
X1565026Y1862298D02*
X1565026Y1862298D01*
X1565652Y1866247D01*
X1567718Y1872606D01*
X1570754Y1878564D01*
X1574684Y1883973D01*
X1579412Y1888702D01*
X1584821Y1892632D01*
X1590779Y1895668D01*
X1597139Y1897734D01*
X1601087Y1898359D01*
X1601087Y1862298D01*
X1565026Y1862298D01*
G37*
%LPD*%
%LPC*%
G36*
X2942979Y1662692D02*
X2942979Y1662692D01*
X2943604Y1666641D01*
X2945671Y1673000D01*
X2948706Y1678958D01*
X2952636Y1684367D01*
X2957365Y1689096D01*
X2962774Y1693026D01*
X2968732Y1696062D01*
X2975092Y1698128D01*
X2979040Y1698753D01*
X2979040Y1662692D01*
X2942979Y1662692D01*
G37*
%LPD*%
%LPC*%
G36*
X4750853Y1662692D02*
X4750853Y1662692D01*
X4751478Y1666641D01*
X4753545Y1673000D01*
X4756580Y1678958D01*
X4760510Y1684367D01*
X4765239Y1689096D01*
X4770648Y1693026D01*
X4776606Y1696062D01*
X4782966Y1698128D01*
X4786914Y1698753D01*
X4786914Y1662692D01*
X4750853Y1662692D01*
G37*
%LPD*%
%LPC*%
G36*
X4798912Y1650694D02*
X4798912Y1650694D01*
X4834974Y1650694D01*
X4834348Y1646745D01*
X4832282Y1640386D01*
X4829246Y1634428D01*
X4825316Y1629019D01*
X4820588Y1624290D01*
X4815178Y1620360D01*
X4809220Y1617324D01*
X4802861Y1615258D01*
X4798912Y1614633D01*
X4798912Y1650694D01*
G37*
%LPD*%
%LPC*%
G36*
X4782966Y1615258D02*
X4782966Y1615258D01*
X4776606Y1617324D01*
X4770648Y1620360D01*
X4765239Y1624290D01*
X4760510Y1629019D01*
X4756580Y1634428D01*
X4753545Y1640386D01*
X4751478Y1646745D01*
X4750853Y1650694D01*
X4786914Y1650694D01*
X4786914Y1614633D01*
X4782966Y1615258D01*
G37*
%LPD*%
%LPC*%
G36*
X2975092Y1615258D02*
X2975092Y1615258D01*
X2968732Y1617324D01*
X2962774Y1620360D01*
X2957365Y1624290D01*
X2952636Y1629019D01*
X2948706Y1634428D01*
X2945671Y1640386D01*
X2943604Y1646745D01*
X2942979Y1650694D01*
X2979040Y1650694D01*
X2979040Y1614633D01*
X2975092Y1615258D01*
G37*
%LPD*%
%LPC*%
G36*
X1597139Y1814864D02*
X1597139Y1814864D01*
X1590779Y1816930D01*
X1584821Y1819966D01*
X1579412Y1823896D01*
X1574684Y1828625D01*
X1570754Y1834034D01*
X1567718Y1839992D01*
X1565652Y1846352D01*
X1565026Y1850300D01*
X1601087Y1850300D01*
X1601087Y1814239D01*
X1597139Y1814864D01*
G37*
%LPD*%
%LPC*%
G36*
X3575092Y1615258D02*
X3575092Y1615258D01*
X3568732Y1617324D01*
X3562774Y1620360D01*
X3557365Y1624290D01*
X3552636Y1629019D01*
X3548706Y1634428D01*
X3545671Y1640386D01*
X3543604Y1646745D01*
X3542979Y1650694D01*
X3579040Y1650694D01*
X3579040Y1614633D01*
X3575092Y1615258D01*
G37*
%LPD*%
%LPC*%
G36*
X7525684Y3155605D02*
X7525684Y3155605D01*
X7525684Y3189155D01*
X7529052Y3188622D01*
X7535040Y3186676D01*
X7540650Y3183818D01*
X7545743Y3180117D01*
X7550196Y3175665D01*
X7553897Y3170571D01*
X7556755Y3164961D01*
X7558701Y3158973D01*
X7559234Y3155605D01*
X7525684Y3155605D01*
G37*
%LPD*%
%LPC*%
G36*
X336440Y2822613D02*
X336440Y2822613D01*
X336440Y2856163D01*
X339808Y2855630D01*
X345796Y2853684D01*
X351406Y2850826D01*
X356499Y2847125D01*
X360952Y2842673D01*
X364653Y2837579D01*
X367511Y2831969D01*
X369457Y2825981D01*
X369990Y2822613D01*
X336440Y2822613D01*
G37*
%LPD*%
%LPC*%
G36*
X712031Y2822613D02*
X712031Y2822613D01*
X712031Y2856163D01*
X715398Y2855630D01*
X721387Y2853684D01*
X726996Y2850826D01*
X732090Y2847125D01*
X736542Y2842673D01*
X740243Y2837579D01*
X743102Y2831969D01*
X745047Y2825981D01*
X745581Y2822613D01*
X712031Y2822613D01*
G37*
%LPD*%
%LPC*%
G36*
X470172Y4211905D02*
X470172Y4211905D01*
X470172Y4245455D01*
X473540Y4244921D01*
X479528Y4242976D01*
X485138Y4240117D01*
X490232Y4236416D01*
X494684Y4231964D01*
X498385Y4226870D01*
X501243Y4221261D01*
X503189Y4215272D01*
X503722Y4211905D01*
X470172Y4211905D01*
G37*
%LPD*%
%LPC*%
G36*
X470172Y4199906D02*
X470172Y4199906D01*
X503722Y4199906D01*
X503189Y4196539D01*
X501243Y4190550D01*
X498385Y4184940D01*
X494684Y4179847D01*
X490232Y4175394D01*
X485138Y4171694D01*
X479528Y4168835D01*
X473540Y4166890D01*
X470172Y4166356D01*
X470172Y4199906D01*
G37*
%LPD*%
%LPC*%
G36*
X7525684Y3143607D02*
X7525684Y3143607D01*
X7559234Y3143607D01*
X7558701Y3140239D01*
X7556755Y3134251D01*
X7553897Y3128641D01*
X7550196Y3123548D01*
X7545743Y3119095D01*
X7540650Y3115395D01*
X7535040Y3112536D01*
X7529052Y3110591D01*
X7525684Y3110057D01*
X7525684Y3143607D01*
G37*
%LPD*%
%LPC*%
G36*
X336440Y2810615D02*
X336440Y2810615D01*
X369990Y2810615D01*
X369457Y2807247D01*
X367511Y2801259D01*
X364653Y2795649D01*
X360952Y2790556D01*
X356499Y2786103D01*
X351406Y2782402D01*
X345796Y2779544D01*
X339808Y2777598D01*
X336440Y2777065D01*
X336440Y2810615D01*
G37*
%LPD*%
%LPC*%
G36*
X424624Y4211905D02*
X424624Y4211905D01*
X425157Y4215272D01*
X427103Y4221261D01*
X429961Y4226870D01*
X433662Y4231964D01*
X438115Y4236416D01*
X443208Y4240117D01*
X448818Y4242976D01*
X454806Y4244921D01*
X458174Y4245454D01*
X458174Y4211905D01*
X424624Y4211905D01*
G37*
%LPD*%
%LPC*%
G36*
X290892Y2822613D02*
X290892Y2822613D01*
X291425Y2825981D01*
X293371Y2831969D01*
X296229Y2837579D01*
X299930Y2842673D01*
X304382Y2847125D01*
X309476Y2850826D01*
X315086Y2853684D01*
X321074Y2855630D01*
X324442Y2856163D01*
X324442Y2822613D01*
X290892Y2822613D01*
G37*
%LPD*%
%LPC*%
G36*
X712031Y2810615D02*
X712031Y2810615D01*
X745580Y2810615D01*
X745047Y2807247D01*
X743102Y2801259D01*
X740243Y2795649D01*
X736542Y2790556D01*
X732090Y2786103D01*
X726996Y2782402D01*
X721387Y2779544D01*
X715398Y2777598D01*
X712031Y2777065D01*
X712031Y2810615D01*
G37*
%LPD*%
%LPC*%
G36*
X7480136Y3155605D02*
X7480136Y3155605D01*
X7480669Y3158973D01*
X7482615Y3164961D01*
X7485473Y3170571D01*
X7489174Y3175665D01*
X7493626Y3180117D01*
X7498720Y3183818D01*
X7504330Y3186676D01*
X7510318Y3188622D01*
X7513686Y3189155D01*
X7513686Y3155605D01*
X7480136Y3155605D01*
G37*
%LPD*%
%LPC*%
G36*
X666482Y2822613D02*
X666482Y2822613D01*
X667016Y2825981D01*
X668961Y2831969D01*
X671820Y2837579D01*
X675520Y2842673D01*
X679973Y2847125D01*
X685066Y2850826D01*
X690676Y2853684D01*
X696664Y2855630D01*
X700032Y2856163D01*
X700032Y2822613D01*
X666482Y2822613D01*
G37*
%LPD*%
%LPC*%
G36*
X7510318Y3110591D02*
X7510318Y3110591D01*
X7504330Y3112536D01*
X7498720Y3115395D01*
X7493626Y3119095D01*
X7489174Y3123548D01*
X7485473Y3128641D01*
X7482615Y3134251D01*
X7480669Y3140239D01*
X7480136Y3143607D01*
X7513686Y3143607D01*
X7513686Y3110057D01*
X7510318Y3110591D01*
G37*
%LPD*%
%LPC*%
G36*
X321074Y2777598D02*
X321074Y2777598D01*
X315086Y2779544D01*
X309476Y2782402D01*
X304382Y2786103D01*
X299930Y2790556D01*
X296229Y2795649D01*
X293371Y2801259D01*
X291425Y2807247D01*
X290892Y2810615D01*
X324442Y2810615D01*
X324442Y2777065D01*
X321074Y2777598D01*
G37*
%LPD*%
%LPC*%
G36*
X454806Y4166890D02*
X454806Y4166890D01*
X448818Y4168835D01*
X443208Y4171694D01*
X438115Y4175394D01*
X433662Y4179847D01*
X429961Y4184940D01*
X427103Y4190550D01*
X425157Y4196539D01*
X424624Y4199906D01*
X458174Y4199906D01*
X458174Y4166356D01*
X454806Y4166890D01*
G37*
%LPD*%
%LPC*%
G36*
X696664Y2777598D02*
X696664Y2777598D01*
X690676Y2779544D01*
X685066Y2782402D01*
X679973Y2786103D01*
X675520Y2790556D01*
X671820Y2795649D01*
X668961Y2801259D01*
X667016Y2807247D01*
X666482Y2810615D01*
X700032Y2810615D01*
X700032Y2777065D01*
X696664Y2777598D01*
G37*
%LPD*%
%LPC*%
G36*
X2985038Y1656692D02*
X2985038Y1656692D01*
X2985038Y1656694D01*
X2985041Y1656694D01*
X2985041Y1656692D01*
X2985038Y1656692D01*
G37*
%LPD*%
%LPC*%
G36*
X1607085Y1856298D02*
X1607085Y1856298D01*
X1607085Y1856300D01*
X1607088Y1856300D01*
X1607088Y1856298D01*
X1607085Y1856298D01*
G37*
%LPD*%
%LPC*%
G36*
X1760235Y1856692D02*
X1760235Y1856692D01*
X1760235Y1856694D01*
X1760237Y1856694D01*
X1760237Y1856692D01*
X1760235Y1856692D01*
G37*
%LPD*%
%LPC*%
G36*
X3585038Y1656692D02*
X3585038Y1656692D01*
X3585038Y1656694D01*
X3585041Y1656694D01*
X3585041Y1656692D01*
X3585038Y1656692D01*
G37*
%LPD*%
%LPC*%
G36*
X706030Y2816613D02*
X706030Y2816613D01*
X706030Y2816615D01*
X706033Y2816615D01*
X706033Y2816613D01*
X706030Y2816613D01*
G37*
%LPD*%
%LPC*%
G36*
X4792912Y1656692D02*
X4792912Y1656692D01*
X4792912Y1656694D01*
X4792915Y1656694D01*
X4792915Y1656692D01*
X4792912Y1656692D01*
G37*
%LPD*%
%LPC*%
G36*
X7519684Y3149605D02*
X7519684Y3149605D01*
X7519684Y3149608D01*
X7519686Y3149608D01*
X7519686Y3149605D01*
X7519684Y3149605D01*
G37*
%LPD*%
%LPC*%
G36*
X464172Y4205904D02*
X464172Y4205904D01*
X464172Y4205907D01*
X464174Y4205907D01*
X464174Y4205904D01*
X464172Y4205904D01*
G37*
%LPD*%
%LPC*%
G36*
X330440Y2816613D02*
X330440Y2816613D01*
X330440Y2816615D01*
X330442Y2816615D01*
X330442Y2816613D01*
X330440Y2816613D01*
G37*
%LPD*%
D10*
X7385971Y1511569D02*
X7385965Y1512046D01*
X7385948Y1512523D01*
X7385919Y1513000D01*
X7385879Y1513475D01*
X7385827Y1513950D01*
X7385764Y1514423D01*
X7385689Y1514894D01*
X7385603Y1515364D01*
X7385506Y1515831D01*
X7385397Y1516295D01*
X7385277Y1516757D01*
X7385146Y1517216D01*
X7385004Y1517672D01*
X7384851Y1518124D01*
X7384688Y1518572D01*
X7384513Y1519017D01*
X7384328Y1519456D01*
X7384132Y1519892D01*
X7383925Y1520322D01*
X7383709Y1520747D01*
X7383482Y1521167D01*
X7383245Y1521581D01*
X7382998Y1521990D01*
X7382741Y1522392D01*
X7382475Y1522788D01*
X7382199Y1523178D01*
X7381914Y1523560D01*
X7381620Y1523936D01*
X7381316Y1524305D01*
X7381004Y1524666D01*
X7380683Y1525019D01*
X7380354Y1525365D01*
X7380017Y1525702D01*
X7379671Y1526031D01*
X7379318Y1526352D01*
X7378957Y1526664D01*
X7378588Y1526968D01*
X7378212Y1527262D01*
X7377830Y1527547D01*
X7377440Y1527823D01*
X7377044Y1528089D01*
X7376642Y1528346D01*
X7376233Y1528593D01*
X7375819Y1528830D01*
X7375399Y1529057D01*
X7374974Y1529273D01*
X7374544Y1529480D01*
X7374108Y1529676D01*
X7373669Y1529861D01*
X7373224Y1530036D01*
X7372776Y1530199D01*
X7372324Y1530352D01*
X7371868Y1530494D01*
X7371409Y1530625D01*
X7370947Y1530745D01*
X7370483Y1530854D01*
X7370016Y1530951D01*
X7369546Y1531037D01*
X7369075Y1531112D01*
X7368602Y1531175D01*
X7368127Y1531227D01*
X7367652Y1531267D01*
X7367175Y1531296D01*
X7366698Y1531313D01*
X7366221Y1531319D01*
X7365607Y1531312D01*
X7364994Y1531289D01*
X7364382Y1531252D01*
X7363770Y1531200D01*
X7363160Y1531134D01*
X7362552Y1531052D01*
X7361946Y1530956D01*
X7361342Y1530846D01*
X7360742Y1530720D01*
X7360144Y1530581D01*
X7359550Y1530426D01*
X7358960Y1530258D01*
X7358374Y1530075D01*
X7357793Y1529878D01*
X7357217Y1529668D01*
X7356646Y1529443D01*
X7356081Y1529205D01*
X7355521Y1528953D01*
X7354968Y1528687D01*
X7354421Y1528408D01*
X7353882Y1528116D01*
X7353349Y1527812D01*
X7352824Y1527494D01*
X7352307Y1527164D01*
X7351798Y1526821D01*
X7351297Y1526466D01*
X7350805Y1526099D01*
X7350323Y1525720D01*
X7349849Y1525330D01*
X7349385Y1524929D01*
X7348931Y1524516D01*
X7348487Y1524092D01*
X7348053Y1523658D01*
X7347630Y1523214D01*
X7347218Y1522759D01*
X7346817Y1522295D01*
X7346427Y1521821D01*
X7346049Y1521337D01*
X7345683Y1520845D01*
X7345329Y1520344D01*
X7344987Y1519835D01*
X7344657Y1519317D01*
X7344340Y1518792D01*
X7344036Y1518259D01*
X7343744Y1517719D01*
X7343466Y1517172D01*
X7343202Y1516618D01*
X7342950Y1516058D01*
X7342712Y1515493D01*
X7342488Y1514921D01*
X7342278Y1514345D01*
X7342082Y1513763D01*
X7379388Y1496208D02*
X7379760Y1496572D01*
X7380124Y1496944D01*
X7380478Y1497326D01*
X7380823Y1497716D01*
X7381158Y1498114D01*
X7381483Y1498520D01*
X7381798Y1498935D01*
X7382103Y1499357D01*
X7382397Y1499786D01*
X7382681Y1500222D01*
X7382954Y1500665D01*
X7383216Y1501115D01*
X7383467Y1501571D01*
X7383707Y1502033D01*
X7383935Y1502501D01*
X7384152Y1502974D01*
X7384357Y1503453D01*
X7384550Y1503936D01*
X7384731Y1504424D01*
X7384901Y1504916D01*
X7385058Y1505412D01*
X7385203Y1505912D01*
X7385336Y1506416D01*
X7385456Y1506922D01*
X7385564Y1507431D01*
X7385659Y1507943D01*
X7385741Y1508457D01*
X7385812Y1508973D01*
X7385869Y1509490D01*
X7385914Y1510009D01*
X7385945Y1510528D01*
X7385965Y1511049D01*
X7385971Y1511569D01*
X7379388Y1496208D02*
X7342083Y1452319D01*
X7385971Y1452319D01*
D11*
X1607087Y2556299D03*
X1607087Y2456299D03*
X1607087Y2356299D03*
X1607087Y2256299D03*
X1607087Y2156299D03*
X1607087Y2056299D03*
X1607087Y1956299D03*
X1607087Y1856299D03*
X1910236Y2556693D03*
X1910236Y2456693D03*
X1910236Y2356693D03*
X1910236Y2256693D03*
X1910236Y2156693D03*
X1910236Y2056693D03*
X1910236Y1956693D03*
X1910236Y1856693D03*
X2985039Y2556693D03*
X2985039Y2456693D03*
X2985039Y2356693D03*
X2985039Y2256693D03*
X2985039Y2156693D03*
X2985039Y2056693D03*
X2985039Y1956693D03*
X2985039Y1856693D03*
X2985039Y1756693D03*
X2985039Y1656693D03*
X3297638Y2556693D03*
X3297638Y2456693D03*
X3297638Y2356693D03*
X3297638Y2256693D03*
X3297638Y2156693D03*
X3297638Y2056693D03*
X3297638Y1956693D03*
X3297638Y1856693D03*
X3297638Y1756693D03*
X3297638Y1656693D03*
X3585039Y2556693D03*
X3585039Y2456693D03*
X3585039Y2356693D03*
X3585039Y2256693D03*
X3585039Y2156693D03*
X3585039Y2056693D03*
X3585039Y1956693D03*
X3585039Y1856693D03*
X3585039Y1756693D03*
X3585039Y1656693D03*
X3897638Y2556693D03*
X3897638Y2456693D03*
X3897638Y2356693D03*
X3897638Y2256693D03*
X3897638Y2156693D03*
X3897638Y2056693D03*
X3897638Y1956693D03*
X3897638Y1856693D03*
X3897638Y1756693D03*
X3897638Y1656693D03*
X4792913Y2556693D03*
X4792913Y2456693D03*
X4792913Y2356693D03*
X4792913Y2256693D03*
X4792913Y2156693D03*
X4792913Y2056693D03*
X4792913Y1956693D03*
X4792913Y1856693D03*
X4792913Y1756693D03*
X4792913Y1656693D03*
X5105512Y2556693D03*
X5105512Y2456693D03*
X5105512Y2356693D03*
X5105512Y2256693D03*
X5105512Y2156693D03*
X5105512Y2056693D03*
X5105512Y1956693D03*
X5105512Y1856693D03*
X5105512Y1756693D03*
X5105512Y1656693D03*
D12*
X1760236Y2556693D03*
X1760236Y2456693D03*
X1760236Y2356693D03*
X1760236Y2256693D03*
X1760236Y2156693D03*
X1760236Y2056693D03*
X1760236Y1956693D03*
X1760236Y1856693D03*
X2060236Y1856693D03*
X2060236Y1956693D03*
X2060236Y2056693D03*
X2060236Y2156693D03*
X2060236Y2256693D03*
X2060236Y2356693D03*
X2060236Y2456693D03*
X2060236Y2556693D03*
D13*
X6123622Y3139370D03*
X6223622Y3139370D03*
X6123622Y3039370D03*
X6223622Y3039370D03*
X6123622Y2939370D03*
X6223622Y2939370D03*
X6123622Y2839370D03*
X6223622Y2839370D03*
X6123622Y2739370D03*
X6223622Y2739370D03*
D14*
X6163780Y3489370D03*
X6163780Y2389370D03*
D15*
X7519685Y3149606D03*
X7519685Y2677165D03*
X7519685Y2519685D03*
X7519685Y2362205D03*
X7519685Y2992126D03*
X7519685Y2204724D03*
X7519685Y2047244D03*
X7519685Y1889764D03*
X7519685Y3779528D03*
X7519685Y3622047D03*
X7519685Y3464567D03*
X7519685Y3307087D03*
D16*
X273622Y3408661D03*
X372047Y3408661D03*
X470472Y3408661D03*
D17*
X198819Y3684252D03*
X545276Y3684252D03*
D15*
X7519685Y2834646D03*
X464173Y4205906D03*
X226772Y4205906D03*
X170992Y2816614D03*
X546583Y2816614D03*
X706031Y2816614D03*
X330441Y2816614D03*
D18*
X1171654Y4123228D03*
X1171654Y4223228D03*
X1271654Y4123228D03*
X1271654Y4223228D03*
X1371654Y4123228D03*
X1371654Y4223228D03*
X1471654Y4123228D03*
X1471654Y4223228D03*
X1571654Y4123228D03*
X1571654Y4223228D03*
X1671654Y4123228D03*
X1671654Y4223228D03*
X1771654Y4123228D03*
X1771654Y4223228D03*
X1871654Y4123228D03*
X1871654Y4223228D03*
X1971654Y4123228D03*
X1971654Y4223228D03*
X2071654Y4123228D03*
X2071654Y4223228D03*
X2171654Y4123228D03*
X2171654Y4223228D03*
X2271654Y4123228D03*
X2271654Y4223228D03*
X2371654Y4123228D03*
X2371654Y4223228D03*
X3533858Y4123228D03*
X3533858Y4223228D03*
X3633858Y4123228D03*
X3633858Y4223228D03*
X3733858Y4123228D03*
X3733858Y4223228D03*
X3833858Y4123228D03*
X3833858Y4223228D03*
X3933858Y4123228D03*
X3933858Y4223228D03*
X4033858Y4123228D03*
X4033858Y4223228D03*
X4133858Y4123228D03*
X4133858Y4223228D03*
X4233858Y4123228D03*
X4233858Y4223228D03*
X4333858Y4123228D03*
X4333858Y4223228D03*
X4433858Y4123228D03*
X4433858Y4223228D03*
X4533858Y4123228D03*
X4533858Y4223228D03*
X4633858Y4123228D03*
X4633858Y4223228D03*
X4733858Y4123228D03*
X4733858Y4223228D03*
X5896063Y4123228D03*
X5896063Y4223228D03*
X5996063Y4123228D03*
X5996063Y4223228D03*
X6096063Y4123228D03*
X6096063Y4223228D03*
X6196063Y4123228D03*
X6196063Y4223228D03*
X6296063Y4123228D03*
X6296063Y4223228D03*
X6396063Y4123228D03*
X6396063Y4223228D03*
X6496063Y4123228D03*
X6496063Y4223228D03*
X6596063Y4123228D03*
X6596063Y4223228D03*
X6696063Y4123228D03*
X6696063Y4223228D03*
X6796063Y4123228D03*
X6796063Y4223228D03*
X6896063Y4123228D03*
X6896063Y4223228D03*
X6996063Y4123228D03*
X6996063Y4223228D03*
X7096063Y4123228D03*
X7096063Y4223228D03*
D15*
X7519685Y1732283D03*
D19*
X4188976Y2409449D03*
X4614173Y2267717D03*
X4606299Y2118110D03*
X4291339Y1685039D03*
X4944882Y1866142D03*
X4952756Y1960630D03*
X4897638Y2055118D03*
X4913386Y2141732D03*
X5799213Y3141732D03*
X5724409Y2929134D03*
X5803150Y2665354D03*
X4807087Y3822835D03*
X3732283Y3854331D03*
X3425197Y4275591D03*
X1952756Y3913386D03*
X2248031Y3472441D03*
X2299213Y2759843D03*
X1716535Y2748031D03*
X1598425Y3102362D03*
X1228346Y3251969D03*
X3444882Y1775591D03*
X3118110Y2019685D03*
X2507874Y2354331D03*
X3122047Y2370079D03*
X3610236Y3523622D03*
X4271654Y3547244D03*
X4035433Y2988189D03*
X3645669Y2803150D03*
X5484252Y2429134D03*
X3917323Y3314961D03*
X3751969Y2614173D03*
X1082677Y3318898D03*
X4968504Y3279528D03*
X4940945Y2622047D03*
X1417323Y3759843D03*
X4992126Y2960630D03*
X2740157Y2866142D03*
X2468504Y2051181D03*
X4027559Y3763780D03*
X2035433Y2980315D03*
X2421260Y3503937D03*
X4326772Y2622047D03*
X4740157Y3480315D03*
X2598425Y2992126D03*
X5326772Y3578740D03*
X4330709Y3968504D03*
X4657480Y2814961D03*
X5342520Y2035433D03*
X4610236Y3346457D03*
X1763780Y4047244D03*
X5598425Y2425197D03*
X2637795Y2401575D03*
X1385827Y3110236D03*
X1385827Y3645669D03*
X2401575Y3377953D03*
X3110236Y3377953D03*
X3897638Y3661417D03*
X4763780Y3377953D03*
X5511811Y3377953D03*
X4440945Y2496063D03*
X3316929Y3100394D03*
X3267717Y3051181D03*
X3267717Y2962598D03*
X2992126Y2657480D03*
X3011811Y2627953D03*
X5275591Y2185039D03*
X5157480Y3051181D03*
X5098425Y2992126D03*
X3415354Y3198819D03*
X3295276Y3198819D03*
X3730315Y3562992D03*
X3627953Y3309055D03*
X1200787Y3031496D03*
X4635827Y3011811D03*
X4232283Y2549213D03*
X4586614Y2568898D03*
X4891732Y2874016D03*
X4950787Y2933071D03*
X1200787Y3070866D03*
X4803150Y3021654D03*
X4803150Y3188976D03*
X1082677Y3080709D03*
X1082677Y2992126D03*
X2096457Y2795276D03*
X4498031Y2834646D03*
X4222441Y3218504D03*
X1200787Y3474409D03*
X1427165Y3208661D03*
X2027559Y3454724D03*
X1456693Y3444882D03*
X2096457Y3494094D03*
X2253937Y3966535D03*
X2153543Y3535433D03*
X2253937Y3769685D03*
X2322835Y3622047D03*
X2332677Y3366142D03*
X2322835Y3188976D03*
X1141732Y3375984D03*
X1102362Y4064961D03*
X2303150Y3395669D03*
X2322835Y3129921D03*
X4360236Y3647638D03*
X4665354Y3730315D03*
X4962598Y3730315D03*
X5511811Y4025591D03*
X5098425Y3509843D03*
X4537402Y3503937D03*
X4370079Y4370079D03*
X5021654Y3464567D03*
X4911417Y3444882D03*
X3799213Y3631890D03*
X4163386Y3976378D03*
X4488189Y4389764D03*
X5029528Y3523622D03*
X4931102Y3366142D03*
X5157480Y3188976D03*
X4438976Y3503937D03*
X5118110Y3226378D03*
X4458661Y3474409D03*
X3779528Y3592520D03*
X4212598Y3927165D03*
X4547244Y4409449D03*
X4694882Y3366142D03*
X4685039Y3188976D03*
X4822835Y3651575D03*
X4753937Y3582677D03*
X3653543Y3356299D03*
X4045276Y3435039D03*
X4281496Y3671260D03*
X4340551Y3750000D03*
X4635827Y3750000D03*
X4812992Y3927165D03*
X4665354Y3395669D03*
X4685039Y3139764D03*
X5708661Y3809055D03*
X5078740Y3385827D03*
X1086614Y3360236D03*
X2992126Y4084646D03*
X3503937Y3572835D03*
X3582677Y3494094D03*
X6948819Y2224409D03*
X5413386Y2942913D03*
X5324803Y3100394D03*
X3001969Y3218504D03*
X5393701Y3405512D03*
X5787402Y2263780D03*
X5442913Y2352362D03*
X5954724Y2352362D03*
X1279528Y3631890D03*
X1141732Y3631890D03*
X5541339Y1564961D03*
X5866142Y1889764D03*
X6407480Y2480315D03*
X2903543Y3316929D03*
X3021654Y3435039D03*
X3159449Y3572835D03*
X3868110Y4173228D03*
X4812992Y4301181D03*
X3710630Y3385827D03*
X3769685Y3326772D03*
X5346457Y3881890D03*
X4962598Y3523622D03*
X3946850Y3740157D03*
X3858268Y3769685D03*
X3425197Y3602362D03*
X2812992Y3602362D03*
X2165354Y3188976D03*
X2165354Y3110236D03*
X4360236Y2795276D03*
X2037402Y2657480D03*
X2742126Y2049213D03*
X3129921Y2913386D03*
X3198819Y2893701D03*
X6771654Y2086614D03*
X2814961Y1505906D03*
X2726378Y1614173D03*
X1427165Y3041339D03*
X1515748Y2716535D03*
X1515748Y2450787D03*
X6092520Y2194882D03*
X6269685Y2549213D03*
X1456693Y3100394D03*
X1919291Y3120079D03*
X1919291Y3080709D03*
X1958661Y3080709D03*
X1486220Y2883858D03*
X1653543Y3494094D03*
X2194882Y4035433D03*
X1318898Y2992126D03*
X1122047Y4212598D03*
X1216535Y2877953D03*
X1299213Y2795276D03*
X1200787Y2795276D03*
X3789370Y2874016D03*
X4133858Y4005906D03*
X4045276Y3100394D03*
X4187008Y3332677D03*
X4419291Y3572835D03*
X4015748Y3031496D03*
X4094488Y3257874D03*
X4330709Y3307087D03*
X4675197Y4055118D03*
X4133858Y2529528D03*
X4685039Y2057087D03*
X6338583Y3838583D03*
X4118110Y2210630D03*
X4724409Y1604331D03*
X6289370Y2667323D03*
X3868110Y2824803D03*
X4124016Y3287402D03*
X4271654Y3287402D03*
X5127953Y3474409D03*
X5797244Y3897638D03*
X6279528Y3897638D03*
X6437008Y4055118D03*
X4090551Y2139764D03*
X4625984Y1604331D03*
X6590551Y2874016D03*
X4055118Y2303150D03*
X4763780Y1909449D03*
X6190945Y3362205D03*
X6289370Y3326772D03*
X2893701Y2608268D03*
X3582677Y2657480D03*
X3602362Y2716535D03*
X3523622Y2834646D03*
X2952756Y2657480D03*
X4803150Y2647638D03*
X4862205Y2234252D03*
X4803150Y2687008D03*
X4901575Y2234252D03*
X4409449Y3149606D03*
X4330709Y3070866D03*
X4842520Y2687008D03*
X4940945Y2234252D03*
X4527559Y3218504D03*
X4399606Y2834646D03*
X4492126Y2742126D03*
X4330709Y2234252D03*
X3828740Y4281496D03*
X3976378Y4281496D03*
X4773622Y4399606D03*
X5118110Y4015748D03*
X2519685Y2145669D03*
X1523622Y3801181D03*
X2578740Y2185039D03*
X1545276Y4035433D03*
X2588583Y2588583D03*
X2220472Y3200787D03*
X2204724Y3415354D03*
X1968504Y4035433D03*
X2687008Y2135827D03*
X2017717Y3120079D03*
X2165354Y3966535D03*
X2559055Y2155512D03*
X1718504Y3606299D03*
X2194882Y4074803D03*
X2712598Y2690945D03*
X2637795Y2765748D03*
X2637795Y2893701D03*
X2637795Y3051181D03*
X2746063Y2608268D03*
X3809055Y4064961D03*
X5019685Y2775591D03*
X5039370Y2716535D03*
X5383858Y2470472D03*
X5383858Y2509843D03*
X4812992Y4114173D03*
X4419291Y1948819D03*
X4832677Y4202756D03*
X4852362Y2273622D03*
X5049213Y2283465D03*
X5334646Y2480315D03*
X5433071Y3248031D03*
X4566929Y2047244D03*
X5068898Y1811024D03*
X6368110Y3868110D03*
X4399606Y1879921D03*
X4665354Y1604331D03*
X6354331Y2614173D03*
X4498031Y1978346D03*
X4694882Y1712598D03*
X6318898Y2696850D03*
X6106299Y3744094D03*
X4360236Y2076772D03*
X4517717Y1919291D03*
X5344488Y2106299D03*
X5748031Y2322835D03*
X4462598Y1728346D03*
X4124016Y2066929D03*
X2667323Y2293307D03*
X2775591Y1584646D03*
X5364173Y1899606D03*
X5787402Y2322835D03*
M02*
