M48
;GenerationSoftware,Autodesk,EAGLE,9.6.2*%
;CreationDate,2022-09-08T15:26:15Z*%
FMAT,2
ICI,OFF
INCH,TZ,00.0000
T9C0.0118
T8C0.0350
T7C0.0382
T6C0.0394
T5C0.0400
T4C0.0433
T3C0.0440
T2C0.0866
T1C0.1059
%
G90
M72
T1
X61638Y23894
X61638Y34894
T2
X1988Y36843
X5453Y36843
T3
X17602Y25567
X17602Y24567
X17602Y23567
X17602Y22567
X17602Y21567
X17602Y20567
X17602Y19567
X17602Y18567
X20602Y18567
X20602Y19567
X20602Y20567
X20602Y21567
X20602Y22567
X20602Y23567
X20602Y24567
X20602Y25567
T4
X16071Y25563
X38976Y22567
X16071Y24563
X16071Y23563
X16071Y22563
X16071Y21563
X16071Y20563
X16071Y19563
X16071Y18563
X19102Y25567
X19102Y24567
X19102Y23567
X19102Y22567
X19102Y21567
X19102Y20567
X19102Y19567
X19102Y18567
X29850Y25567
X29850Y24567
X29850Y23567
X29850Y22567
X29850Y21567
X29850Y20567
X29850Y19567
X29850Y18567
X29850Y17567
X29850Y16567
X32976Y25567
X32976Y24567
X32976Y23567
X32976Y22567
X32976Y21567
X32976Y20567
X32976Y19567
X32976Y18567
X32976Y17567
X32976Y16567
X35850Y25567
X35850Y24567
X35850Y23567
X35850Y22567
X35850Y21567
X35850Y20567
X35850Y19567
X35850Y18567
X35850Y17567
X35850Y16567
X38976Y25567
X38976Y24567
X38976Y23567
X51055Y16567
X38976Y21567
X38976Y20567
X38976Y19567
X38976Y18567
X38976Y17567
X38976Y16567
X47929Y25567
X47929Y24567
X51055Y17567
X51055Y18567
X51055Y19567
X51055Y20567
X51055Y21567
X51055Y22567
X51055Y23567
X47929Y23567
X47929Y22567
X51055Y24567
X51055Y25567
X47929Y16567
X47929Y17567
X47929Y18567
X47929Y19567
X47929Y20567
X47929Y21567
T5
X75197Y20472
X75197Y22047
X75197Y29921
X75197Y23622
X75197Y25197
X75197Y26772
X75197Y31496
X75197Y18898
X75197Y37795
X75197Y36220
X75197Y34646
X75197Y33071
X75197Y28346
X4642Y42059
X2268Y42059
X1710Y28166
X5466Y28166
X7060Y28166
X3304Y28166
X75197Y17323
T6
X2736Y34087
X3720Y34087
X4705Y34087
T7
X61236Y31394
X62236Y27394
X61236Y27394
X62236Y28394
X61236Y28394
X62236Y29394
X61236Y29394
X62236Y30394
X61236Y30394
X62236Y31394
T8
X70961Y41232
X70961Y42232
X64961Y42232
X64961Y41232
X63961Y42232
X63961Y41232
X65961Y41232
X69961Y42232
X69961Y41232
X68961Y42232
X68961Y41232
X67961Y42232
X67961Y41232
X66961Y42232
X66961Y41232
X65961Y42232
X62961Y42232
X61961Y41232
X62961Y41232
X61961Y42232
X11717Y41232
X11717Y42232
X12717Y41232
X12717Y42232
X13717Y41232
X13717Y42232
X14717Y41232
X14717Y42232
X15717Y41232
X15717Y42232
X16717Y41232
X16717Y42232
X17717Y41232
X17717Y42232
X18717Y41232
X18717Y42232
X19717Y41232
X19717Y42232
X20717Y41232
X20717Y42232
X21717Y41232
X21717Y42232
X22717Y41232
X22717Y42232
X23717Y41232
X23717Y42232
X35339Y41232
X35339Y42232
X36339Y41232
X36339Y42232
X37339Y41232
X37339Y42232
X38339Y41232
X38339Y42232
X39339Y41232
X39339Y42232
X40339Y41232
X40339Y42232
X41339Y41232
X41339Y42232
X42339Y41232
X42339Y42232
X43339Y41232
X43339Y42232
X44339Y41232
X44339Y42232
X45339Y41232
X45339Y42232
X46339Y41232
X46339Y42232
X47339Y41232
X47339Y42232
X58961Y41232
X58961Y42232
X59961Y41232
X59961Y42232
X60961Y41232
X60961Y42232
T9
X62894Y26673
X38681Y28248
X41240Y32874
X42717Y32874
X51280Y34744
X57972Y38976
X62795Y38976
X64370Y40551
X40906Y21398
X46260Y16043
X65906Y28740
X40551Y23031
X47638Y19094
X61909Y33622
X62894Y33268
X28937Y26083
X35827Y26575
X36024Y27165
X35236Y28346
X29528Y26575
X48031Y26476
X48622Y22343
X48031Y26870
X49016Y22343
X44094Y31496
X43307Y30709
X48425Y26870
X49409Y22343
X45276Y32185
X43996Y28346
X44921Y27421
X43307Y22343
X38287Y42815
X39764Y42815
X47736Y43996
X51181Y40157
X25197Y21457
X15236Y38012
X25787Y21850
X15453Y40354
X25886Y25886
X22205Y32008
X22047Y34154
X41890Y24094
X26870Y21358
X20177Y31201
X21654Y39665
X25591Y21555
X17185Y36063
X21949Y40748
X27126Y26909
X26378Y27657
X26378Y28937
X26378Y30512
X27461Y26083
X38091Y40650
X50197Y27756
X50394Y27165
X53839Y24705
X53839Y25098
X48130Y41142
X44193Y19488
X48327Y42028
X48524Y22736
X50492Y22835
X53346Y24803
X54331Y32480
X45669Y20472
X50689Y18110
X63681Y38681
X43996Y18799
X46654Y16043
X63543Y26142
X44980Y19783
X46949Y17126
X63189Y26969
X61063Y37441
X43602Y20768
X45177Y19193
X53445Y21063
X57480Y23228
X44626Y17283
X41240Y20669
X26673Y22933
X27756Y15846
X53642Y18996
X57874Y23228
X47244Y16043
X41181Y22106
X63386Y38386
X46850Y20571
X41339Y25295
X46752Y40551
X43307Y33071
X40945Y32579
X40157Y30315
X44193Y35728
X41870Y33327
X40453Y31004
X41339Y40059
X37894Y28740
X12008Y27953
X12992Y27953
X12165Y28780
X11220Y42126
X13189Y29921
X21949Y40354
X16535Y34941
X14862Y28839
X19587Y30807
X19193Y30807
X19193Y31201
X14567Y31004
X62697Y25492
X60925Y21949
X15157Y24508
X15157Y27165
X14272Y30413
X27264Y16142
X28150Y15059
X67717Y20866
X31988Y28937
X31299Y29134
X27421Y20492
X20374Y26575
X43602Y27953
X21654Y31102
X21654Y31890
X28130Y36024
X34252Y36024
X38583Y37697
X39469Y37402
X49626Y35236
X53465Y38819
X37697Y33268
X37106Y33858
X48130Y43012
X38681Y41732
X31594Y35728
X30217Y34350
X29035Y33169
X64075Y24803
X58661Y18898
X55413Y15650
X11417Y36319
X12795Y36319
X59547Y23524
X54429Y23524
X57874Y22638
X53937Y34055
X30020Y32185
X53248Y31004
X54134Y29429
X69488Y22244
X35827Y34941
X35039Y35728
X29921Y40846
X10866Y33602
X50787Y33858
X57087Y38091
X46850Y31398
X46654Y33957
X48130Y39272
X46358Y37500
X43406Y37500
X42815Y36713
X40453Y34350
X36535Y33563
X47539Y35827
X48228Y36516
X46850Y31890
X46949Y33661
X45472Y44094
X42126Y39272
X37795Y35925
X44587Y34744
X51181Y32264
X44390Y35039
X51575Y31890
X49311Y33661
X50295Y35236
X44882Y43898
X41634Y39764
X37992Y36319
X49114Y34449
X50217Y34646
X43701Y43701
X45374Y35039
X50984Y35098
X55118Y40256
X49626Y37303
X46654Y37303
X43602Y36476
X23228Y31299
X23031Y33957
X11024Y40650
X11417Y33760
X23228Y31890
X23327Y33661
X23228Y36220
X22539Y37697
X21535Y35354
X22539Y39665
X20965Y34941
X14567Y34449
X20276Y34547
X14272Y32087
X12008Y34744
X42224Y32185
X44980Y28346
X20965Y27953
X10827Y29921
X10827Y30807
X48031Y31890
X48031Y30217
X12008Y30709
X49508Y29331
X48917Y28740
X45866Y25689
X42323Y25492
X46358Y30118
X12008Y30315
X36280Y33091
X37303Y35630
X32953Y31988
X34154Y31988
X50984Y29921
X51575Y30512
X52756Y21850
X30118Y26280
X29921Y26575
X32677Y29626
X32677Y30512
X33169Y31004
X44409Y24961
X55118Y33780
X47638Y33780
X38976Y36614
X31102Y33780
X24016Y33780
X13858Y36457
X13858Y31102
X26378Y24016
X55984Y24252
X17638Y40472
X46102Y33465
X53425Y20354
X46575Y28150
X43307Y39685
X53268Y35787
X25984Y29921
X47402Y34803
X43268Y26220
X24213Y35039
X20354Y29803
X40276Y37638
X24685Y20512
X27402Y28661
X49921Y29606
X14173Y37598
X49409Y26220
X49685Y32795
X10827Y33189
X37520Y26142
X39173Y33150
X54843Y24291
X36457Y28031
X40354Y29882
X42717Y35472
X36102Y35236
X31220Y23701
X25079Y23543
X31181Y20197
X34449Y17756
X12283Y32520
X15984Y31024
X17165Y27480
X22992Y27598
X22480Y34724
X19528Y39134
X34252Y42756
X37323Y38543
X48071Y38228
X58031Y26654
X57244Y29291
X57992Y31417
X49134Y21417
X48976Y20551
X49528Y19606
X49449Y18661
X42913Y16850
X46063Y21181
X46142Y22677
X19685Y40354
M30