G04 EAGLE Gerber RS-274X export*
G75*
%MOIN*%
%FSLAX36Y36*%
%LPD*%
%INBottom Solder Mask*%
%IPPOS*%
%AMOC8*
5,1,8,0,0,1.08239X$1,22.5*%
G01*
%ADD10C,0.141858*%
%ADD11R,0.066071X0.025717*%
%ADD12R,0.072961X0.072961*%
%ADD13C,0.072961*%
%ADD14R,0.074000X0.074000*%
%ADD15C,0.074000*%
%ADD16C,0.067409*%
%ADD17C,0.166858*%
%ADD18P,0.116898X8X22.500000*%
%ADD19C,0.067370*%
%ADD20C,0.134614*%
%ADD21C,0.011700*%
%ADD22C,0.113906*%
%ADD23R,0.063039X0.063039*%
%ADD24C,0.063039*%


D10*
X913512Y3149606D03*
X6692913Y3149606D03*
D11*
X2915827Y2995079D03*
X2915827Y3020669D03*
X2915827Y3046260D03*
X2915827Y3071850D03*
X2915827Y3097441D03*
X2915827Y3123031D03*
X2915827Y3148622D03*
X2915827Y3174213D03*
X2915827Y3199803D03*
X2915827Y3225394D03*
X3147165Y3225394D03*
X3147165Y3199803D03*
X3147165Y3174213D03*
X3147165Y3148622D03*
X3147165Y3123031D03*
X3147165Y3097441D03*
X3147165Y3071850D03*
X3147165Y3046260D03*
X3147165Y3020669D03*
X3147165Y2995079D03*
X3939449Y2995079D03*
X3939449Y3020669D03*
X3939449Y3046260D03*
X3939449Y3071850D03*
X3939449Y3097441D03*
X3939449Y3123031D03*
X3939449Y3148622D03*
X3939449Y3174213D03*
X3939449Y3199803D03*
X3939449Y3225394D03*
X4170787Y3225394D03*
X4170787Y3199803D03*
X4170787Y3174213D03*
X4170787Y3148622D03*
X4170787Y3123031D03*
X4170787Y3097441D03*
X4170787Y3071850D03*
X4170787Y3046260D03*
X4170787Y3020669D03*
X4170787Y2995079D03*
X5041811Y2995079D03*
X5041811Y3020669D03*
X5041811Y3046260D03*
X5041811Y3071850D03*
X5041811Y3097441D03*
X5041811Y3123031D03*
X5041811Y3148622D03*
X5041811Y3174213D03*
X5041811Y3199803D03*
X5041811Y3225394D03*
X5273150Y3225394D03*
X5273150Y3199803D03*
X5273150Y3174213D03*
X5273150Y3148622D03*
X5273150Y3123031D03*
X5273150Y3097441D03*
X5273150Y3071850D03*
X5273150Y3046260D03*
X5273150Y3020669D03*
X5273150Y2995079D03*
D12*
X1607087Y2556299D03*
D13*
X1607087Y2456299D03*
X1607087Y2356299D03*
X1607087Y2256299D03*
X1607087Y2156299D03*
X1607087Y2056299D03*
X1607087Y1956299D03*
X1607087Y1856299D03*
D12*
X1910236Y2556693D03*
D13*
X1910236Y2456693D03*
X1910236Y2356693D03*
X1910236Y2256693D03*
X1910236Y2156693D03*
X1910236Y2056693D03*
X1910236Y1956693D03*
X1910236Y1856693D03*
D12*
X2985039Y2556693D03*
D13*
X2985039Y2456693D03*
X2985039Y2356693D03*
X2985039Y2256693D03*
X2985039Y2156693D03*
X2985039Y2056693D03*
X2985039Y1956693D03*
X2985039Y1856693D03*
X2985039Y1756693D03*
X2985039Y1656693D03*
D12*
X3297638Y2556693D03*
D13*
X3297638Y2456693D03*
X3297638Y2356693D03*
X3297638Y2256693D03*
X3297638Y2156693D03*
X3297638Y2056693D03*
X3297638Y1956693D03*
X3297638Y1856693D03*
X3297638Y1756693D03*
X3297638Y1656693D03*
D12*
X3585039Y2556693D03*
D13*
X3585039Y2456693D03*
X3585039Y2356693D03*
X3585039Y2256693D03*
X3585039Y2156693D03*
X3585039Y2056693D03*
X3585039Y1956693D03*
X3585039Y1856693D03*
X3585039Y1756693D03*
X3585039Y1656693D03*
D12*
X3897638Y2556693D03*
D13*
X3897638Y2456693D03*
X3897638Y2356693D03*
X3897638Y2256693D03*
X3897638Y2156693D03*
X3897638Y2056693D03*
X3897638Y1956693D03*
X3897638Y1856693D03*
X3897638Y1756693D03*
X3897638Y1656693D03*
D12*
X4792913Y2556693D03*
D13*
X4792913Y2456693D03*
X4792913Y2356693D03*
X4792913Y2256693D03*
X4792913Y2156693D03*
X4792913Y2056693D03*
X4792913Y1956693D03*
X4792913Y1856693D03*
X4792913Y1756693D03*
X4792913Y1656693D03*
D12*
X5105512Y2556693D03*
D13*
X5105512Y2456693D03*
X5105512Y2356693D03*
X5105512Y2256693D03*
X5105512Y2156693D03*
X5105512Y2056693D03*
X5105512Y1956693D03*
X5105512Y1856693D03*
X5105512Y1756693D03*
X5105512Y1656693D03*
D14*
X1760236Y2556693D03*
D15*
X1760236Y2456693D03*
X1760236Y2356693D03*
X1760236Y2256693D03*
X1760236Y2156693D03*
X1760236Y2056693D03*
X1760236Y1956693D03*
X1760236Y1856693D03*
X2060236Y1856693D03*
X2060236Y1956693D03*
X2060236Y2056693D03*
X2060236Y2156693D03*
X2060236Y2256693D03*
X2060236Y2356693D03*
X2060236Y2456693D03*
X2060236Y2556693D03*
D16*
X6123622Y3139370D03*
X6223622Y3139370D03*
X6123622Y3039370D03*
X6223622Y3039370D03*
X6123622Y2939370D03*
X6223622Y2939370D03*
X6123622Y2839370D03*
X6223622Y2839370D03*
X6123622Y2739370D03*
X6223622Y2739370D03*
D17*
X6163780Y3489370D03*
X6163780Y2389370D03*
D18*
X7519685Y3149606D03*
X7519685Y2677165D03*
X7519685Y2519685D03*
X7519685Y2362205D03*
X7519685Y2992126D03*
X7519685Y2204724D03*
X7519685Y2047244D03*
X7519685Y1889764D03*
X7519685Y3779528D03*
X7519685Y3622047D03*
X7519685Y3464567D03*
X7519685Y3307087D03*
D19*
X273622Y3408661D03*
X372047Y3408661D03*
X470472Y3408661D03*
D20*
X198819Y3684252D03*
X545276Y3684252D03*
D18*
X7519685Y2834646D03*
D21*
X2490276Y2925275D02*
X2431378Y2925275D01*
X2431378Y2945197D01*
X2490276Y2945197D01*
X2490276Y2925275D01*
X2490276Y2936390D02*
X2431378Y2936390D01*
X2431378Y2975275D02*
X2490276Y2975275D01*
X2431378Y2975275D02*
X2431378Y2995197D01*
X2490276Y2995197D01*
X2490276Y2975275D01*
X2490276Y2986390D02*
X2431378Y2986390D01*
X2431378Y3025275D02*
X2490276Y3025275D01*
X2431378Y3025275D02*
X2431378Y3045197D01*
X2490276Y3045197D01*
X2490276Y3025275D01*
X2490276Y3036390D02*
X2431378Y3036390D01*
X2431378Y3075275D02*
X2490276Y3075275D01*
X2431378Y3075275D02*
X2431378Y3095197D01*
X2490276Y3095197D01*
X2490276Y3075275D01*
X2490276Y3086390D02*
X2431378Y3086390D01*
X2431378Y3125275D02*
X2490276Y3125275D01*
X2431378Y3125275D02*
X2431378Y3145197D01*
X2490276Y3145197D01*
X2490276Y3125275D01*
X2490276Y3136390D02*
X2431378Y3136390D01*
X2431378Y3175275D02*
X2490276Y3175275D01*
X2431378Y3175275D02*
X2431378Y3195197D01*
X2490276Y3195197D01*
X2490276Y3175275D01*
X2490276Y3186390D02*
X2431378Y3186390D01*
X2431378Y3225275D02*
X2490276Y3225275D01*
X2431378Y3225275D02*
X2431378Y3245197D01*
X2490276Y3245197D01*
X2490276Y3225275D01*
X2490276Y3236390D02*
X2431378Y3236390D01*
X2431378Y3275275D02*
X2490276Y3275275D01*
X2431378Y3275275D02*
X2431378Y3295197D01*
X2490276Y3295197D01*
X2490276Y3275275D01*
X2490276Y3286390D02*
X2431378Y3286390D01*
X2706575Y3295197D02*
X2765473Y3295197D01*
X2765473Y3275275D01*
X2706575Y3275275D01*
X2706575Y3295197D01*
X2706575Y3286390D02*
X2765473Y3286390D01*
X2765473Y3245197D02*
X2706575Y3245197D01*
X2765473Y3245197D02*
X2765473Y3225275D01*
X2706575Y3225275D01*
X2706575Y3245197D01*
X2706575Y3236390D02*
X2765473Y3236390D01*
X2765473Y3195197D02*
X2706575Y3195197D01*
X2765473Y3195197D02*
X2765473Y3175275D01*
X2706575Y3175275D01*
X2706575Y3195197D01*
X2706575Y3186390D02*
X2765473Y3186390D01*
X2765473Y3145197D02*
X2706575Y3145197D01*
X2765473Y3145197D02*
X2765473Y3125275D01*
X2706575Y3125275D01*
X2706575Y3145197D01*
X2706575Y3136390D02*
X2765473Y3136390D01*
X2765473Y3095197D02*
X2706575Y3095197D01*
X2765473Y3095197D02*
X2765473Y3075275D01*
X2706575Y3075275D01*
X2706575Y3095197D01*
X2706575Y3086390D02*
X2765473Y3086390D01*
X2765473Y3045197D02*
X2706575Y3045197D01*
X2765473Y3045197D02*
X2765473Y3025275D01*
X2706575Y3025275D01*
X2706575Y3045197D01*
X2706575Y3036390D02*
X2765473Y3036390D01*
X2765473Y2995197D02*
X2706575Y2995197D01*
X2765473Y2995197D02*
X2765473Y2975275D01*
X2706575Y2975275D01*
X2706575Y2995197D01*
X2706575Y2986390D02*
X2765473Y2986390D01*
X2765473Y2945197D02*
X2706575Y2945197D01*
X2765473Y2945197D02*
X2765473Y2925275D01*
X2706575Y2925275D01*
X2706575Y2945197D01*
X2706575Y2936390D02*
X2765473Y2936390D01*
X3455000Y2925275D02*
X3513898Y2925275D01*
X3455000Y2925275D02*
X3455000Y2945197D01*
X3513898Y2945197D01*
X3513898Y2925275D01*
X3513898Y2936390D02*
X3455000Y2936390D01*
X3455000Y2975275D02*
X3513898Y2975275D01*
X3455000Y2975275D02*
X3455000Y2995197D01*
X3513898Y2995197D01*
X3513898Y2975275D01*
X3513898Y2986390D02*
X3455000Y2986390D01*
X3455000Y3025275D02*
X3513898Y3025275D01*
X3455000Y3025275D02*
X3455000Y3045197D01*
X3513898Y3045197D01*
X3513898Y3025275D01*
X3513898Y3036390D02*
X3455000Y3036390D01*
X3455000Y3075275D02*
X3513898Y3075275D01*
X3455000Y3075275D02*
X3455000Y3095197D01*
X3513898Y3095197D01*
X3513898Y3075275D01*
X3513898Y3086390D02*
X3455000Y3086390D01*
X3455000Y3125275D02*
X3513898Y3125275D01*
X3455000Y3125275D02*
X3455000Y3145197D01*
X3513898Y3145197D01*
X3513898Y3125275D01*
X3513898Y3136390D02*
X3455000Y3136390D01*
X3455000Y3175275D02*
X3513898Y3175275D01*
X3455000Y3175275D02*
X3455000Y3195197D01*
X3513898Y3195197D01*
X3513898Y3175275D01*
X3513898Y3186390D02*
X3455000Y3186390D01*
X3455000Y3225275D02*
X3513898Y3225275D01*
X3455000Y3225275D02*
X3455000Y3245197D01*
X3513898Y3245197D01*
X3513898Y3225275D01*
X3513898Y3236390D02*
X3455000Y3236390D01*
X3455000Y3275275D02*
X3513898Y3275275D01*
X3455000Y3275275D02*
X3455000Y3295197D01*
X3513898Y3295197D01*
X3513898Y3275275D01*
X3513898Y3286390D02*
X3455000Y3286390D01*
X3730197Y3295197D02*
X3789095Y3295197D01*
X3789095Y3275275D01*
X3730197Y3275275D01*
X3730197Y3295197D01*
X3730197Y3286390D02*
X3789095Y3286390D01*
X3789095Y3245197D02*
X3730197Y3245197D01*
X3789095Y3245197D02*
X3789095Y3225275D01*
X3730197Y3225275D01*
X3730197Y3245197D01*
X3730197Y3236390D02*
X3789095Y3236390D01*
X3789095Y3195197D02*
X3730197Y3195197D01*
X3789095Y3195197D02*
X3789095Y3175275D01*
X3730197Y3175275D01*
X3730197Y3195197D01*
X3730197Y3186390D02*
X3789095Y3186390D01*
X3789095Y3145197D02*
X3730197Y3145197D01*
X3789095Y3145197D02*
X3789095Y3125275D01*
X3730197Y3125275D01*
X3730197Y3145197D01*
X3730197Y3136390D02*
X3789095Y3136390D01*
X3789095Y3095197D02*
X3730197Y3095197D01*
X3789095Y3095197D02*
X3789095Y3075275D01*
X3730197Y3075275D01*
X3730197Y3095197D01*
X3730197Y3086390D02*
X3789095Y3086390D01*
X3789095Y3045197D02*
X3730197Y3045197D01*
X3789095Y3045197D02*
X3789095Y3025275D01*
X3730197Y3025275D01*
X3730197Y3045197D01*
X3730197Y3036390D02*
X3789095Y3036390D01*
X3789095Y2995197D02*
X3730197Y2995197D01*
X3789095Y2995197D02*
X3789095Y2975275D01*
X3730197Y2975275D01*
X3730197Y2995197D01*
X3730197Y2986390D02*
X3789095Y2986390D01*
X3789095Y2945197D02*
X3730197Y2945197D01*
X3789095Y2945197D02*
X3789095Y2925275D01*
X3730197Y2925275D01*
X3730197Y2945197D01*
X3730197Y2936390D02*
X3789095Y2936390D01*
X4557362Y2925275D02*
X4616260Y2925275D01*
X4557362Y2925275D02*
X4557362Y2945197D01*
X4616260Y2945197D01*
X4616260Y2925275D01*
X4616260Y2936390D02*
X4557362Y2936390D01*
X4557362Y2975275D02*
X4616260Y2975275D01*
X4557362Y2975275D02*
X4557362Y2995197D01*
X4616260Y2995197D01*
X4616260Y2975275D01*
X4616260Y2986390D02*
X4557362Y2986390D01*
X4557362Y3025275D02*
X4616260Y3025275D01*
X4557362Y3025275D02*
X4557362Y3045197D01*
X4616260Y3045197D01*
X4616260Y3025275D01*
X4616260Y3036390D02*
X4557362Y3036390D01*
X4557362Y3075275D02*
X4616260Y3075275D01*
X4557362Y3075275D02*
X4557362Y3095197D01*
X4616260Y3095197D01*
X4616260Y3075275D01*
X4616260Y3086390D02*
X4557362Y3086390D01*
X4557362Y3125275D02*
X4616260Y3125275D01*
X4557362Y3125275D02*
X4557362Y3145197D01*
X4616260Y3145197D01*
X4616260Y3125275D01*
X4616260Y3136390D02*
X4557362Y3136390D01*
X4557362Y3175275D02*
X4616260Y3175275D01*
X4557362Y3175275D02*
X4557362Y3195197D01*
X4616260Y3195197D01*
X4616260Y3175275D01*
X4616260Y3186390D02*
X4557362Y3186390D01*
X4557362Y3225275D02*
X4616260Y3225275D01*
X4557362Y3225275D02*
X4557362Y3245197D01*
X4616260Y3245197D01*
X4616260Y3225275D01*
X4616260Y3236390D02*
X4557362Y3236390D01*
X4557362Y3275275D02*
X4616260Y3275275D01*
X4557362Y3275275D02*
X4557362Y3295197D01*
X4616260Y3295197D01*
X4616260Y3275275D01*
X4616260Y3286390D02*
X4557362Y3286390D01*
X4832559Y3295197D02*
X4891457Y3295197D01*
X4891457Y3275275D01*
X4832559Y3275275D01*
X4832559Y3295197D01*
X4832559Y3286390D02*
X4891457Y3286390D01*
X4891457Y3245197D02*
X4832559Y3245197D01*
X4891457Y3245197D02*
X4891457Y3225275D01*
X4832559Y3225275D01*
X4832559Y3245197D01*
X4832559Y3236390D02*
X4891457Y3236390D01*
X4891457Y3195197D02*
X4832559Y3195197D01*
X4891457Y3195197D02*
X4891457Y3175275D01*
X4832559Y3175275D01*
X4832559Y3195197D01*
X4832559Y3186390D02*
X4891457Y3186390D01*
X4891457Y3145197D02*
X4832559Y3145197D01*
X4891457Y3145197D02*
X4891457Y3125275D01*
X4832559Y3125275D01*
X4832559Y3145197D01*
X4832559Y3136390D02*
X4891457Y3136390D01*
X4891457Y3095197D02*
X4832559Y3095197D01*
X4891457Y3095197D02*
X4891457Y3075275D01*
X4832559Y3075275D01*
X4832559Y3095197D01*
X4832559Y3086390D02*
X4891457Y3086390D01*
X4891457Y3045197D02*
X4832559Y3045197D01*
X4891457Y3045197D02*
X4891457Y3025275D01*
X4832559Y3025275D01*
X4832559Y3045197D01*
X4832559Y3036390D02*
X4891457Y3036390D01*
X4891457Y2995197D02*
X4832559Y2995197D01*
X4891457Y2995197D02*
X4891457Y2975275D01*
X4832559Y2975275D01*
X4832559Y2995197D01*
X4832559Y2986390D02*
X4891457Y2986390D01*
X4891457Y2945197D02*
X4832559Y2945197D01*
X4891457Y2945197D02*
X4891457Y2925275D01*
X4832559Y2925275D01*
X4832559Y2945197D01*
X4832559Y2936390D02*
X4891457Y2936390D01*
D18*
X464173Y4205906D03*
X226772Y4205906D03*
X170992Y2816614D03*
X546583Y2816614D03*
X706031Y2816614D03*
X330441Y2816614D03*
D22*
X821654Y4163386D03*
X2721654Y4163386D03*
D23*
X1171654Y4123228D03*
D24*
X1171654Y4223228D03*
X1271654Y4123228D03*
X1271654Y4223228D03*
X1371654Y4123228D03*
X1371654Y4223228D03*
X1471654Y4123228D03*
X1471654Y4223228D03*
X1571654Y4123228D03*
X1571654Y4223228D03*
X1671654Y4123228D03*
X1671654Y4223228D03*
X1771654Y4123228D03*
X1771654Y4223228D03*
X1871654Y4123228D03*
X1871654Y4223228D03*
X1971654Y4123228D03*
X1971654Y4223228D03*
X2071654Y4123228D03*
X2071654Y4223228D03*
X2171654Y4123228D03*
X2171654Y4223228D03*
X2271654Y4123228D03*
X2271654Y4223228D03*
X2371654Y4123228D03*
X2371654Y4223228D03*
D22*
X3183858Y4163386D03*
X5083858Y4163386D03*
D23*
X3533858Y4123228D03*
D24*
X3533858Y4223228D03*
X3633858Y4123228D03*
X3633858Y4223228D03*
X3733858Y4123228D03*
X3733858Y4223228D03*
X3833858Y4123228D03*
X3833858Y4223228D03*
X3933858Y4123228D03*
X3933858Y4223228D03*
X4033858Y4123228D03*
X4033858Y4223228D03*
X4133858Y4123228D03*
X4133858Y4223228D03*
X4233858Y4123228D03*
X4233858Y4223228D03*
X4333858Y4123228D03*
X4333858Y4223228D03*
X4433858Y4123228D03*
X4433858Y4223228D03*
X4533858Y4123228D03*
X4533858Y4223228D03*
X4633858Y4123228D03*
X4633858Y4223228D03*
X4733858Y4123228D03*
X4733858Y4223228D03*
D22*
X5546063Y4163386D03*
X7446063Y4163386D03*
D23*
X5896063Y4123228D03*
D24*
X5896063Y4223228D03*
X5996063Y4123228D03*
X5996063Y4223228D03*
X6096063Y4123228D03*
X6096063Y4223228D03*
X6196063Y4123228D03*
X6196063Y4223228D03*
X6296063Y4123228D03*
X6296063Y4223228D03*
X6396063Y4123228D03*
X6396063Y4223228D03*
X6496063Y4123228D03*
X6496063Y4223228D03*
X6596063Y4123228D03*
X6596063Y4223228D03*
X6696063Y4123228D03*
X6696063Y4223228D03*
X6796063Y4123228D03*
X6796063Y4223228D03*
X6896063Y4123228D03*
X6896063Y4223228D03*
X6996063Y4123228D03*
X6996063Y4223228D03*
X7096063Y4123228D03*
X7096063Y4223228D03*
D18*
X7519685Y1732283D03*
M02*
