G04 EAGLE Gerber RS-274X export*
G75*
%MOIN*%
%FSLAX36Y36*%
%LPD*%
%INBottom Solder Paste*%
%IPPOS*%
%AMOC8*
5,1,8,0,0,1.08239X$1,22.5*%
G01*
%ADD10R,0.058071X0.017717*%
%ADD11C,0.003543*%


D10*
X2915827Y2995079D03*
X2915827Y3020669D03*
X2915827Y3046260D03*
X2915827Y3071850D03*
X2915827Y3097441D03*
X2915827Y3123031D03*
X2915827Y3148622D03*
X2915827Y3174213D03*
X2915827Y3199803D03*
X2915827Y3225394D03*
X3147165Y3225394D03*
X3147165Y3199803D03*
X3147165Y3174213D03*
X3147165Y3148622D03*
X3147165Y3123031D03*
X3147165Y3097441D03*
X3147165Y3071850D03*
X3147165Y3046260D03*
X3147165Y3020669D03*
X3147165Y2995079D03*
X3939449Y2995079D03*
X3939449Y3020669D03*
X3939449Y3046260D03*
X3939449Y3071850D03*
X3939449Y3097441D03*
X3939449Y3123031D03*
X3939449Y3148622D03*
X3939449Y3174213D03*
X3939449Y3199803D03*
X3939449Y3225394D03*
X4170787Y3225394D03*
X4170787Y3199803D03*
X4170787Y3174213D03*
X4170787Y3148622D03*
X4170787Y3123031D03*
X4170787Y3097441D03*
X4170787Y3071850D03*
X4170787Y3046260D03*
X4170787Y3020669D03*
X4170787Y2995079D03*
X5041811Y2995079D03*
X5041811Y3020669D03*
X5041811Y3046260D03*
X5041811Y3071850D03*
X5041811Y3097441D03*
X5041811Y3123031D03*
X5041811Y3148622D03*
X5041811Y3174213D03*
X5041811Y3199803D03*
X5041811Y3225394D03*
X5273150Y3225394D03*
X5273150Y3199803D03*
X5273150Y3174213D03*
X5273150Y3148622D03*
X5273150Y3123031D03*
X5273150Y3097441D03*
X5273150Y3071850D03*
X5273150Y3046260D03*
X5273150Y3020669D03*
X5273150Y2995079D03*
D11*
X2490355Y2925196D02*
X2431299Y2925196D01*
X2431299Y2945276D01*
X2490355Y2945276D01*
X2490355Y2925196D01*
X2490355Y2928562D02*
X2431299Y2928562D01*
X2431299Y2931928D02*
X2490355Y2931928D01*
X2490355Y2935294D02*
X2431299Y2935294D01*
X2431299Y2938660D02*
X2490355Y2938660D01*
X2490355Y2942026D02*
X2431299Y2942026D01*
X2431299Y2975196D02*
X2490355Y2975196D01*
X2431299Y2975196D02*
X2431299Y2995276D01*
X2490355Y2995276D01*
X2490355Y2975196D01*
X2490355Y2978562D02*
X2431299Y2978562D01*
X2431299Y2981928D02*
X2490355Y2981928D01*
X2490355Y2985294D02*
X2431299Y2985294D01*
X2431299Y2988660D02*
X2490355Y2988660D01*
X2490355Y2992026D02*
X2431299Y2992026D01*
X2431299Y3025196D02*
X2490355Y3025196D01*
X2431299Y3025196D02*
X2431299Y3045276D01*
X2490355Y3045276D01*
X2490355Y3025196D01*
X2490355Y3028562D02*
X2431299Y3028562D01*
X2431299Y3031928D02*
X2490355Y3031928D01*
X2490355Y3035294D02*
X2431299Y3035294D01*
X2431299Y3038660D02*
X2490355Y3038660D01*
X2490355Y3042026D02*
X2431299Y3042026D01*
X2431299Y3075196D02*
X2490355Y3075196D01*
X2431299Y3075196D02*
X2431299Y3095276D01*
X2490355Y3095276D01*
X2490355Y3075196D01*
X2490355Y3078562D02*
X2431299Y3078562D01*
X2431299Y3081928D02*
X2490355Y3081928D01*
X2490355Y3085294D02*
X2431299Y3085294D01*
X2431299Y3088660D02*
X2490355Y3088660D01*
X2490355Y3092026D02*
X2431299Y3092026D01*
X2431299Y3125196D02*
X2490355Y3125196D01*
X2431299Y3125196D02*
X2431299Y3145276D01*
X2490355Y3145276D01*
X2490355Y3125196D01*
X2490355Y3128562D02*
X2431299Y3128562D01*
X2431299Y3131928D02*
X2490355Y3131928D01*
X2490355Y3135294D02*
X2431299Y3135294D01*
X2431299Y3138660D02*
X2490355Y3138660D01*
X2490355Y3142026D02*
X2431299Y3142026D01*
X2431299Y3175196D02*
X2490355Y3175196D01*
X2431299Y3175196D02*
X2431299Y3195276D01*
X2490355Y3195276D01*
X2490355Y3175196D01*
X2490355Y3178562D02*
X2431299Y3178562D01*
X2431299Y3181928D02*
X2490355Y3181928D01*
X2490355Y3185294D02*
X2431299Y3185294D01*
X2431299Y3188660D02*
X2490355Y3188660D01*
X2490355Y3192026D02*
X2431299Y3192026D01*
X2431299Y3225196D02*
X2490355Y3225196D01*
X2431299Y3225196D02*
X2431299Y3245276D01*
X2490355Y3245276D01*
X2490355Y3225196D01*
X2490355Y3228562D02*
X2431299Y3228562D01*
X2431299Y3231928D02*
X2490355Y3231928D01*
X2490355Y3235294D02*
X2431299Y3235294D01*
X2431299Y3238660D02*
X2490355Y3238660D01*
X2490355Y3242026D02*
X2431299Y3242026D01*
X2431299Y3275196D02*
X2490355Y3275196D01*
X2431299Y3275196D02*
X2431299Y3295276D01*
X2490355Y3295276D01*
X2490355Y3275196D01*
X2490355Y3278562D02*
X2431299Y3278562D01*
X2431299Y3281928D02*
X2490355Y3281928D01*
X2490355Y3285294D02*
X2431299Y3285294D01*
X2431299Y3288660D02*
X2490355Y3288660D01*
X2490355Y3292026D02*
X2431299Y3292026D01*
X2706496Y3295276D02*
X2765552Y3295276D01*
X2765552Y3275196D01*
X2706496Y3275196D01*
X2706496Y3295276D01*
X2706496Y3278562D02*
X2765552Y3278562D01*
X2765552Y3281928D02*
X2706496Y3281928D01*
X2706496Y3285294D02*
X2765552Y3285294D01*
X2765552Y3288660D02*
X2706496Y3288660D01*
X2706496Y3292026D02*
X2765552Y3292026D01*
X2765552Y3245276D02*
X2706496Y3245276D01*
X2765552Y3245276D02*
X2765552Y3225196D01*
X2706496Y3225196D01*
X2706496Y3245276D01*
X2706496Y3228562D02*
X2765552Y3228562D01*
X2765552Y3231928D02*
X2706496Y3231928D01*
X2706496Y3235294D02*
X2765552Y3235294D01*
X2765552Y3238660D02*
X2706496Y3238660D01*
X2706496Y3242026D02*
X2765552Y3242026D01*
X2765552Y3195276D02*
X2706496Y3195276D01*
X2765552Y3195276D02*
X2765552Y3175196D01*
X2706496Y3175196D01*
X2706496Y3195276D01*
X2706496Y3178562D02*
X2765552Y3178562D01*
X2765552Y3181928D02*
X2706496Y3181928D01*
X2706496Y3185294D02*
X2765552Y3185294D01*
X2765552Y3188660D02*
X2706496Y3188660D01*
X2706496Y3192026D02*
X2765552Y3192026D01*
X2765552Y3145276D02*
X2706496Y3145276D01*
X2765552Y3145276D02*
X2765552Y3125196D01*
X2706496Y3125196D01*
X2706496Y3145276D01*
X2706496Y3128562D02*
X2765552Y3128562D01*
X2765552Y3131928D02*
X2706496Y3131928D01*
X2706496Y3135294D02*
X2765552Y3135294D01*
X2765552Y3138660D02*
X2706496Y3138660D01*
X2706496Y3142026D02*
X2765552Y3142026D01*
X2765552Y3095276D02*
X2706496Y3095276D01*
X2765552Y3095276D02*
X2765552Y3075196D01*
X2706496Y3075196D01*
X2706496Y3095276D01*
X2706496Y3078562D02*
X2765552Y3078562D01*
X2765552Y3081928D02*
X2706496Y3081928D01*
X2706496Y3085294D02*
X2765552Y3085294D01*
X2765552Y3088660D02*
X2706496Y3088660D01*
X2706496Y3092026D02*
X2765552Y3092026D01*
X2765552Y3045276D02*
X2706496Y3045276D01*
X2765552Y3045276D02*
X2765552Y3025196D01*
X2706496Y3025196D01*
X2706496Y3045276D01*
X2706496Y3028562D02*
X2765552Y3028562D01*
X2765552Y3031928D02*
X2706496Y3031928D01*
X2706496Y3035294D02*
X2765552Y3035294D01*
X2765552Y3038660D02*
X2706496Y3038660D01*
X2706496Y3042026D02*
X2765552Y3042026D01*
X2765552Y2995276D02*
X2706496Y2995276D01*
X2765552Y2995276D02*
X2765552Y2975196D01*
X2706496Y2975196D01*
X2706496Y2995276D01*
X2706496Y2978562D02*
X2765552Y2978562D01*
X2765552Y2981928D02*
X2706496Y2981928D01*
X2706496Y2985294D02*
X2765552Y2985294D01*
X2765552Y2988660D02*
X2706496Y2988660D01*
X2706496Y2992026D02*
X2765552Y2992026D01*
X2765552Y2945276D02*
X2706496Y2945276D01*
X2765552Y2945276D02*
X2765552Y2925196D01*
X2706496Y2925196D01*
X2706496Y2945276D01*
X2706496Y2928562D02*
X2765552Y2928562D01*
X2765552Y2931928D02*
X2706496Y2931928D01*
X2706496Y2935294D02*
X2765552Y2935294D01*
X2765552Y2938660D02*
X2706496Y2938660D01*
X2706496Y2942026D02*
X2765552Y2942026D01*
X3454921Y2925196D02*
X3513977Y2925196D01*
X3454921Y2925196D02*
X3454921Y2945276D01*
X3513977Y2945276D01*
X3513977Y2925196D01*
X3513977Y2928562D02*
X3454921Y2928562D01*
X3454921Y2931928D02*
X3513977Y2931928D01*
X3513977Y2935294D02*
X3454921Y2935294D01*
X3454921Y2938660D02*
X3513977Y2938660D01*
X3513977Y2942026D02*
X3454921Y2942026D01*
X3454921Y2975196D02*
X3513977Y2975196D01*
X3454921Y2975196D02*
X3454921Y2995276D01*
X3513977Y2995276D01*
X3513977Y2975196D01*
X3513977Y2978562D02*
X3454921Y2978562D01*
X3454921Y2981928D02*
X3513977Y2981928D01*
X3513977Y2985294D02*
X3454921Y2985294D01*
X3454921Y2988660D02*
X3513977Y2988660D01*
X3513977Y2992026D02*
X3454921Y2992026D01*
X3454921Y3025196D02*
X3513977Y3025196D01*
X3454921Y3025196D02*
X3454921Y3045276D01*
X3513977Y3045276D01*
X3513977Y3025196D01*
X3513977Y3028562D02*
X3454921Y3028562D01*
X3454921Y3031928D02*
X3513977Y3031928D01*
X3513977Y3035294D02*
X3454921Y3035294D01*
X3454921Y3038660D02*
X3513977Y3038660D01*
X3513977Y3042026D02*
X3454921Y3042026D01*
X3454921Y3075196D02*
X3513977Y3075196D01*
X3454921Y3075196D02*
X3454921Y3095276D01*
X3513977Y3095276D01*
X3513977Y3075196D01*
X3513977Y3078562D02*
X3454921Y3078562D01*
X3454921Y3081928D02*
X3513977Y3081928D01*
X3513977Y3085294D02*
X3454921Y3085294D01*
X3454921Y3088660D02*
X3513977Y3088660D01*
X3513977Y3092026D02*
X3454921Y3092026D01*
X3454921Y3125196D02*
X3513977Y3125196D01*
X3454921Y3125196D02*
X3454921Y3145276D01*
X3513977Y3145276D01*
X3513977Y3125196D01*
X3513977Y3128562D02*
X3454921Y3128562D01*
X3454921Y3131928D02*
X3513977Y3131928D01*
X3513977Y3135294D02*
X3454921Y3135294D01*
X3454921Y3138660D02*
X3513977Y3138660D01*
X3513977Y3142026D02*
X3454921Y3142026D01*
X3454921Y3175196D02*
X3513977Y3175196D01*
X3454921Y3175196D02*
X3454921Y3195276D01*
X3513977Y3195276D01*
X3513977Y3175196D01*
X3513977Y3178562D02*
X3454921Y3178562D01*
X3454921Y3181928D02*
X3513977Y3181928D01*
X3513977Y3185294D02*
X3454921Y3185294D01*
X3454921Y3188660D02*
X3513977Y3188660D01*
X3513977Y3192026D02*
X3454921Y3192026D01*
X3454921Y3225196D02*
X3513977Y3225196D01*
X3454921Y3225196D02*
X3454921Y3245276D01*
X3513977Y3245276D01*
X3513977Y3225196D01*
X3513977Y3228562D02*
X3454921Y3228562D01*
X3454921Y3231928D02*
X3513977Y3231928D01*
X3513977Y3235294D02*
X3454921Y3235294D01*
X3454921Y3238660D02*
X3513977Y3238660D01*
X3513977Y3242026D02*
X3454921Y3242026D01*
X3454921Y3275196D02*
X3513977Y3275196D01*
X3454921Y3275196D02*
X3454921Y3295276D01*
X3513977Y3295276D01*
X3513977Y3275196D01*
X3513977Y3278562D02*
X3454921Y3278562D01*
X3454921Y3281928D02*
X3513977Y3281928D01*
X3513977Y3285294D02*
X3454921Y3285294D01*
X3454921Y3288660D02*
X3513977Y3288660D01*
X3513977Y3292026D02*
X3454921Y3292026D01*
X3730118Y3295276D02*
X3789174Y3295276D01*
X3789174Y3275196D01*
X3730118Y3275196D01*
X3730118Y3295276D01*
X3730118Y3278562D02*
X3789174Y3278562D01*
X3789174Y3281928D02*
X3730118Y3281928D01*
X3730118Y3285294D02*
X3789174Y3285294D01*
X3789174Y3288660D02*
X3730118Y3288660D01*
X3730118Y3292026D02*
X3789174Y3292026D01*
X3789174Y3245276D02*
X3730118Y3245276D01*
X3789174Y3245276D02*
X3789174Y3225196D01*
X3730118Y3225196D01*
X3730118Y3245276D01*
X3730118Y3228562D02*
X3789174Y3228562D01*
X3789174Y3231928D02*
X3730118Y3231928D01*
X3730118Y3235294D02*
X3789174Y3235294D01*
X3789174Y3238660D02*
X3730118Y3238660D01*
X3730118Y3242026D02*
X3789174Y3242026D01*
X3789174Y3195276D02*
X3730118Y3195276D01*
X3789174Y3195276D02*
X3789174Y3175196D01*
X3730118Y3175196D01*
X3730118Y3195276D01*
X3730118Y3178562D02*
X3789174Y3178562D01*
X3789174Y3181928D02*
X3730118Y3181928D01*
X3730118Y3185294D02*
X3789174Y3185294D01*
X3789174Y3188660D02*
X3730118Y3188660D01*
X3730118Y3192026D02*
X3789174Y3192026D01*
X3789174Y3145276D02*
X3730118Y3145276D01*
X3789174Y3145276D02*
X3789174Y3125196D01*
X3730118Y3125196D01*
X3730118Y3145276D01*
X3730118Y3128562D02*
X3789174Y3128562D01*
X3789174Y3131928D02*
X3730118Y3131928D01*
X3730118Y3135294D02*
X3789174Y3135294D01*
X3789174Y3138660D02*
X3730118Y3138660D01*
X3730118Y3142026D02*
X3789174Y3142026D01*
X3789174Y3095276D02*
X3730118Y3095276D01*
X3789174Y3095276D02*
X3789174Y3075196D01*
X3730118Y3075196D01*
X3730118Y3095276D01*
X3730118Y3078562D02*
X3789174Y3078562D01*
X3789174Y3081928D02*
X3730118Y3081928D01*
X3730118Y3085294D02*
X3789174Y3085294D01*
X3789174Y3088660D02*
X3730118Y3088660D01*
X3730118Y3092026D02*
X3789174Y3092026D01*
X3789174Y3045276D02*
X3730118Y3045276D01*
X3789174Y3045276D02*
X3789174Y3025196D01*
X3730118Y3025196D01*
X3730118Y3045276D01*
X3730118Y3028562D02*
X3789174Y3028562D01*
X3789174Y3031928D02*
X3730118Y3031928D01*
X3730118Y3035294D02*
X3789174Y3035294D01*
X3789174Y3038660D02*
X3730118Y3038660D01*
X3730118Y3042026D02*
X3789174Y3042026D01*
X3789174Y2995276D02*
X3730118Y2995276D01*
X3789174Y2995276D02*
X3789174Y2975196D01*
X3730118Y2975196D01*
X3730118Y2995276D01*
X3730118Y2978562D02*
X3789174Y2978562D01*
X3789174Y2981928D02*
X3730118Y2981928D01*
X3730118Y2985294D02*
X3789174Y2985294D01*
X3789174Y2988660D02*
X3730118Y2988660D01*
X3730118Y2992026D02*
X3789174Y2992026D01*
X3789174Y2945276D02*
X3730118Y2945276D01*
X3789174Y2945276D02*
X3789174Y2925196D01*
X3730118Y2925196D01*
X3730118Y2945276D01*
X3730118Y2928562D02*
X3789174Y2928562D01*
X3789174Y2931928D02*
X3730118Y2931928D01*
X3730118Y2935294D02*
X3789174Y2935294D01*
X3789174Y2938660D02*
X3730118Y2938660D01*
X3730118Y2942026D02*
X3789174Y2942026D01*
X4557283Y2925196D02*
X4616339Y2925196D01*
X4557283Y2925196D02*
X4557283Y2945276D01*
X4616339Y2945276D01*
X4616339Y2925196D01*
X4616339Y2928562D02*
X4557283Y2928562D01*
X4557283Y2931928D02*
X4616339Y2931928D01*
X4616339Y2935294D02*
X4557283Y2935294D01*
X4557283Y2938660D02*
X4616339Y2938660D01*
X4616339Y2942026D02*
X4557283Y2942026D01*
X4557283Y2975196D02*
X4616339Y2975196D01*
X4557283Y2975196D02*
X4557283Y2995276D01*
X4616339Y2995276D01*
X4616339Y2975196D01*
X4616339Y2978562D02*
X4557283Y2978562D01*
X4557283Y2981928D02*
X4616339Y2981928D01*
X4616339Y2985294D02*
X4557283Y2985294D01*
X4557283Y2988660D02*
X4616339Y2988660D01*
X4616339Y2992026D02*
X4557283Y2992026D01*
X4557283Y3025196D02*
X4616339Y3025196D01*
X4557283Y3025196D02*
X4557283Y3045276D01*
X4616339Y3045276D01*
X4616339Y3025196D01*
X4616339Y3028562D02*
X4557283Y3028562D01*
X4557283Y3031928D02*
X4616339Y3031928D01*
X4616339Y3035294D02*
X4557283Y3035294D01*
X4557283Y3038660D02*
X4616339Y3038660D01*
X4616339Y3042026D02*
X4557283Y3042026D01*
X4557283Y3075196D02*
X4616339Y3075196D01*
X4557283Y3075196D02*
X4557283Y3095276D01*
X4616339Y3095276D01*
X4616339Y3075196D01*
X4616339Y3078562D02*
X4557283Y3078562D01*
X4557283Y3081928D02*
X4616339Y3081928D01*
X4616339Y3085294D02*
X4557283Y3085294D01*
X4557283Y3088660D02*
X4616339Y3088660D01*
X4616339Y3092026D02*
X4557283Y3092026D01*
X4557283Y3125196D02*
X4616339Y3125196D01*
X4557283Y3125196D02*
X4557283Y3145276D01*
X4616339Y3145276D01*
X4616339Y3125196D01*
X4616339Y3128562D02*
X4557283Y3128562D01*
X4557283Y3131928D02*
X4616339Y3131928D01*
X4616339Y3135294D02*
X4557283Y3135294D01*
X4557283Y3138660D02*
X4616339Y3138660D01*
X4616339Y3142026D02*
X4557283Y3142026D01*
X4557283Y3175196D02*
X4616339Y3175196D01*
X4557283Y3175196D02*
X4557283Y3195276D01*
X4616339Y3195276D01*
X4616339Y3175196D01*
X4616339Y3178562D02*
X4557283Y3178562D01*
X4557283Y3181928D02*
X4616339Y3181928D01*
X4616339Y3185294D02*
X4557283Y3185294D01*
X4557283Y3188660D02*
X4616339Y3188660D01*
X4616339Y3192026D02*
X4557283Y3192026D01*
X4557283Y3225196D02*
X4616339Y3225196D01*
X4557283Y3225196D02*
X4557283Y3245276D01*
X4616339Y3245276D01*
X4616339Y3225196D01*
X4616339Y3228562D02*
X4557283Y3228562D01*
X4557283Y3231928D02*
X4616339Y3231928D01*
X4616339Y3235294D02*
X4557283Y3235294D01*
X4557283Y3238660D02*
X4616339Y3238660D01*
X4616339Y3242026D02*
X4557283Y3242026D01*
X4557283Y3275196D02*
X4616339Y3275196D01*
X4557283Y3275196D02*
X4557283Y3295276D01*
X4616339Y3295276D01*
X4616339Y3275196D01*
X4616339Y3278562D02*
X4557283Y3278562D01*
X4557283Y3281928D02*
X4616339Y3281928D01*
X4616339Y3285294D02*
X4557283Y3285294D01*
X4557283Y3288660D02*
X4616339Y3288660D01*
X4616339Y3292026D02*
X4557283Y3292026D01*
X4832480Y3295276D02*
X4891536Y3295276D01*
X4891536Y3275196D01*
X4832480Y3275196D01*
X4832480Y3295276D01*
X4832480Y3278562D02*
X4891536Y3278562D01*
X4891536Y3281928D02*
X4832480Y3281928D01*
X4832480Y3285294D02*
X4891536Y3285294D01*
X4891536Y3288660D02*
X4832480Y3288660D01*
X4832480Y3292026D02*
X4891536Y3292026D01*
X4891536Y3245276D02*
X4832480Y3245276D01*
X4891536Y3245276D02*
X4891536Y3225196D01*
X4832480Y3225196D01*
X4832480Y3245276D01*
X4832480Y3228562D02*
X4891536Y3228562D01*
X4891536Y3231928D02*
X4832480Y3231928D01*
X4832480Y3235294D02*
X4891536Y3235294D01*
X4891536Y3238660D02*
X4832480Y3238660D01*
X4832480Y3242026D02*
X4891536Y3242026D01*
X4891536Y3195276D02*
X4832480Y3195276D01*
X4891536Y3195276D02*
X4891536Y3175196D01*
X4832480Y3175196D01*
X4832480Y3195276D01*
X4832480Y3178562D02*
X4891536Y3178562D01*
X4891536Y3181928D02*
X4832480Y3181928D01*
X4832480Y3185294D02*
X4891536Y3185294D01*
X4891536Y3188660D02*
X4832480Y3188660D01*
X4832480Y3192026D02*
X4891536Y3192026D01*
X4891536Y3145276D02*
X4832480Y3145276D01*
X4891536Y3145276D02*
X4891536Y3125196D01*
X4832480Y3125196D01*
X4832480Y3145276D01*
X4832480Y3128562D02*
X4891536Y3128562D01*
X4891536Y3131928D02*
X4832480Y3131928D01*
X4832480Y3135294D02*
X4891536Y3135294D01*
X4891536Y3138660D02*
X4832480Y3138660D01*
X4832480Y3142026D02*
X4891536Y3142026D01*
X4891536Y3095276D02*
X4832480Y3095276D01*
X4891536Y3095276D02*
X4891536Y3075196D01*
X4832480Y3075196D01*
X4832480Y3095276D01*
X4832480Y3078562D02*
X4891536Y3078562D01*
X4891536Y3081928D02*
X4832480Y3081928D01*
X4832480Y3085294D02*
X4891536Y3085294D01*
X4891536Y3088660D02*
X4832480Y3088660D01*
X4832480Y3092026D02*
X4891536Y3092026D01*
X4891536Y3045276D02*
X4832480Y3045276D01*
X4891536Y3045276D02*
X4891536Y3025196D01*
X4832480Y3025196D01*
X4832480Y3045276D01*
X4832480Y3028562D02*
X4891536Y3028562D01*
X4891536Y3031928D02*
X4832480Y3031928D01*
X4832480Y3035294D02*
X4891536Y3035294D01*
X4891536Y3038660D02*
X4832480Y3038660D01*
X4832480Y3042026D02*
X4891536Y3042026D01*
X4891536Y2995276D02*
X4832480Y2995276D01*
X4891536Y2995276D02*
X4891536Y2975196D01*
X4832480Y2975196D01*
X4832480Y2995276D01*
X4832480Y2978562D02*
X4891536Y2978562D01*
X4891536Y2981928D02*
X4832480Y2981928D01*
X4832480Y2985294D02*
X4891536Y2985294D01*
X4891536Y2988660D02*
X4832480Y2988660D01*
X4832480Y2992026D02*
X4891536Y2992026D01*
X4891536Y2945276D02*
X4832480Y2945276D01*
X4891536Y2945276D02*
X4891536Y2925196D01*
X4832480Y2925196D01*
X4832480Y2945276D01*
X4832480Y2928562D02*
X4891536Y2928562D01*
X4891536Y2931928D02*
X4832480Y2931928D01*
X4832480Y2935294D02*
X4891536Y2935294D01*
X4891536Y2938660D02*
X4832480Y2938660D01*
X4832480Y2942026D02*
X4891536Y2942026D01*
M02*
