G04 EAGLE Gerber RS-274X export*
G75*
%MOIN*%
%FSLAX36Y36*%
%LPD*%
%INBottom Silkscreen*%
%IPPOS*%
%AMOC8*
5,1,8,0,0,1.08239X$1,22.5*%
G01*
%ADD10C,0.003000*%
%ADD11C,0.007874*%
%ADD12C,0.004000*%
%ADD13C,0.005000*%


D10*
X7125337Y1671791D02*
X7125337Y1643503D01*
X7125338Y1643503D02*
X7125340Y1643308D01*
X7125347Y1643113D01*
X7125359Y1642918D01*
X7125376Y1642723D01*
X7125397Y1642529D01*
X7125423Y1642335D01*
X7125453Y1642142D01*
X7125489Y1641950D01*
X7125528Y1641759D01*
X7125573Y1641569D01*
X7125622Y1641380D01*
X7125675Y1641192D01*
X7125734Y1641006D01*
X7125796Y1640821D01*
X7125863Y1640637D01*
X7125935Y1640455D01*
X7126010Y1640275D01*
X7126091Y1640097D01*
X7126175Y1639921D01*
X7126264Y1639747D01*
X7126357Y1639575D01*
X7126454Y1639406D01*
X7126555Y1639239D01*
X7126660Y1639074D01*
X7126769Y1638912D01*
X7126882Y1638753D01*
X7126998Y1638596D01*
X7127119Y1638442D01*
X7127243Y1638291D01*
X7127371Y1638144D01*
X7127502Y1637999D01*
X7127637Y1637858D01*
X7127775Y1637720D01*
X7127916Y1637585D01*
X7128061Y1637454D01*
X7128208Y1637326D01*
X7128359Y1637202D01*
X7128513Y1637081D01*
X7128670Y1636965D01*
X7128829Y1636852D01*
X7128991Y1636743D01*
X7129156Y1636638D01*
X7129323Y1636537D01*
X7129492Y1636440D01*
X7129664Y1636347D01*
X7129838Y1636258D01*
X7130014Y1636174D01*
X7130192Y1636093D01*
X7130372Y1636018D01*
X7130554Y1635946D01*
X7130738Y1635879D01*
X7130923Y1635817D01*
X7131109Y1635758D01*
X7131297Y1635705D01*
X7131486Y1635656D01*
X7131676Y1635611D01*
X7131867Y1635572D01*
X7132059Y1635536D01*
X7132252Y1635506D01*
X7132446Y1635480D01*
X7132640Y1635459D01*
X7132835Y1635442D01*
X7133030Y1635430D01*
X7133225Y1635423D01*
X7133420Y1635421D01*
X7137461Y1635421D01*
X7107820Y1635421D02*
X7107820Y1671791D01*
X7107820Y1635421D02*
X7091656Y1635421D01*
X7070379Y1635421D02*
X7062297Y1635421D01*
X7070379Y1635421D02*
X7070574Y1635423D01*
X7070769Y1635430D01*
X7070964Y1635442D01*
X7071159Y1635459D01*
X7071353Y1635480D01*
X7071547Y1635506D01*
X7071740Y1635536D01*
X7071932Y1635572D01*
X7072123Y1635611D01*
X7072313Y1635656D01*
X7072502Y1635705D01*
X7072690Y1635758D01*
X7072876Y1635817D01*
X7073061Y1635879D01*
X7073245Y1635946D01*
X7073427Y1636018D01*
X7073607Y1636093D01*
X7073785Y1636174D01*
X7073961Y1636258D01*
X7074135Y1636347D01*
X7074307Y1636440D01*
X7074476Y1636537D01*
X7074643Y1636638D01*
X7074808Y1636743D01*
X7074970Y1636852D01*
X7075129Y1636965D01*
X7075286Y1637081D01*
X7075440Y1637202D01*
X7075591Y1637326D01*
X7075738Y1637454D01*
X7075883Y1637585D01*
X7076024Y1637720D01*
X7076162Y1637858D01*
X7076297Y1637999D01*
X7076428Y1638144D01*
X7076556Y1638291D01*
X7076680Y1638442D01*
X7076801Y1638596D01*
X7076917Y1638753D01*
X7077030Y1638912D01*
X7077139Y1639074D01*
X7077244Y1639239D01*
X7077345Y1639406D01*
X7077442Y1639575D01*
X7077535Y1639747D01*
X7077624Y1639921D01*
X7077708Y1640097D01*
X7077789Y1640275D01*
X7077864Y1640455D01*
X7077936Y1640637D01*
X7078003Y1640821D01*
X7078065Y1641006D01*
X7078124Y1641192D01*
X7078177Y1641380D01*
X7078226Y1641569D01*
X7078271Y1641759D01*
X7078310Y1641950D01*
X7078346Y1642142D01*
X7078376Y1642335D01*
X7078402Y1642529D01*
X7078423Y1642723D01*
X7078440Y1642918D01*
X7078452Y1643113D01*
X7078459Y1643308D01*
X7078461Y1643503D01*
X7078461Y1663709D01*
X7078459Y1663904D01*
X7078452Y1664099D01*
X7078440Y1664294D01*
X7078423Y1664489D01*
X7078402Y1664683D01*
X7078376Y1664877D01*
X7078346Y1665070D01*
X7078310Y1665262D01*
X7078271Y1665453D01*
X7078226Y1665643D01*
X7078177Y1665832D01*
X7078124Y1666020D01*
X7078065Y1666206D01*
X7078003Y1666391D01*
X7077936Y1666575D01*
X7077864Y1666757D01*
X7077789Y1666937D01*
X7077708Y1667115D01*
X7077624Y1667291D01*
X7077535Y1667465D01*
X7077442Y1667637D01*
X7077345Y1667806D01*
X7077244Y1667973D01*
X7077139Y1668138D01*
X7077030Y1668300D01*
X7076917Y1668459D01*
X7076801Y1668616D01*
X7076680Y1668770D01*
X7076556Y1668921D01*
X7076428Y1669068D01*
X7076297Y1669213D01*
X7076162Y1669354D01*
X7076024Y1669492D01*
X7075883Y1669627D01*
X7075738Y1669758D01*
X7075591Y1669886D01*
X7075440Y1670010D01*
X7075286Y1670131D01*
X7075129Y1670247D01*
X7074970Y1670360D01*
X7074808Y1670469D01*
X7074643Y1670574D01*
X7074476Y1670675D01*
X7074307Y1670772D01*
X7074135Y1670865D01*
X7073961Y1670954D01*
X7073785Y1671038D01*
X7073607Y1671119D01*
X7073427Y1671194D01*
X7073245Y1671266D01*
X7073061Y1671333D01*
X7072876Y1671395D01*
X7072690Y1671454D01*
X7072502Y1671507D01*
X7072313Y1671556D01*
X7072123Y1671601D01*
X7071932Y1671640D01*
X7071740Y1671676D01*
X7071547Y1671706D01*
X7071353Y1671732D01*
X7071159Y1671753D01*
X7070964Y1671770D01*
X7070769Y1671782D01*
X7070574Y1671789D01*
X7070379Y1671791D01*
X7062297Y1671791D01*
X7040298Y1671791D02*
X7040298Y1643503D01*
X7040299Y1643503D02*
X7040301Y1643308D01*
X7040308Y1643113D01*
X7040320Y1642918D01*
X7040337Y1642723D01*
X7040358Y1642529D01*
X7040384Y1642335D01*
X7040414Y1642142D01*
X7040450Y1641950D01*
X7040489Y1641759D01*
X7040534Y1641569D01*
X7040583Y1641380D01*
X7040636Y1641192D01*
X7040695Y1641006D01*
X7040757Y1640821D01*
X7040824Y1640637D01*
X7040896Y1640455D01*
X7040971Y1640275D01*
X7041052Y1640097D01*
X7041136Y1639921D01*
X7041225Y1639747D01*
X7041318Y1639575D01*
X7041415Y1639406D01*
X7041516Y1639239D01*
X7041621Y1639074D01*
X7041730Y1638912D01*
X7041843Y1638753D01*
X7041959Y1638596D01*
X7042080Y1638442D01*
X7042204Y1638291D01*
X7042332Y1638144D01*
X7042463Y1637999D01*
X7042598Y1637858D01*
X7042736Y1637720D01*
X7042877Y1637585D01*
X7043022Y1637454D01*
X7043169Y1637326D01*
X7043320Y1637202D01*
X7043474Y1637081D01*
X7043631Y1636965D01*
X7043790Y1636852D01*
X7043952Y1636743D01*
X7044117Y1636638D01*
X7044284Y1636537D01*
X7044453Y1636440D01*
X7044625Y1636347D01*
X7044799Y1636258D01*
X7044975Y1636174D01*
X7045153Y1636093D01*
X7045333Y1636018D01*
X7045515Y1635946D01*
X7045699Y1635879D01*
X7045884Y1635817D01*
X7046070Y1635758D01*
X7046258Y1635705D01*
X7046447Y1635656D01*
X7046637Y1635611D01*
X7046828Y1635572D01*
X7047020Y1635536D01*
X7047213Y1635506D01*
X7047407Y1635480D01*
X7047601Y1635459D01*
X7047796Y1635442D01*
X7047991Y1635430D01*
X7048186Y1635423D01*
X7048381Y1635421D01*
X7052422Y1635421D01*
X7022781Y1635421D02*
X7022781Y1671791D01*
X7022781Y1635421D02*
X7006617Y1635421D01*
X6985340Y1635421D02*
X6977258Y1635421D01*
X6985340Y1635421D02*
X6985535Y1635423D01*
X6985730Y1635430D01*
X6985925Y1635442D01*
X6986120Y1635459D01*
X6986314Y1635480D01*
X6986508Y1635506D01*
X6986701Y1635536D01*
X6986893Y1635572D01*
X6987084Y1635611D01*
X6987274Y1635656D01*
X6987463Y1635705D01*
X6987651Y1635758D01*
X6987837Y1635817D01*
X6988022Y1635879D01*
X6988206Y1635946D01*
X6988388Y1636018D01*
X6988568Y1636093D01*
X6988746Y1636174D01*
X6988922Y1636258D01*
X6989096Y1636347D01*
X6989268Y1636440D01*
X6989437Y1636537D01*
X6989604Y1636638D01*
X6989769Y1636743D01*
X6989931Y1636852D01*
X6990090Y1636965D01*
X6990247Y1637081D01*
X6990401Y1637202D01*
X6990552Y1637326D01*
X6990699Y1637454D01*
X6990844Y1637585D01*
X6990985Y1637720D01*
X6991123Y1637858D01*
X6991258Y1637999D01*
X6991389Y1638144D01*
X6991517Y1638291D01*
X6991641Y1638442D01*
X6991762Y1638596D01*
X6991878Y1638753D01*
X6991991Y1638912D01*
X6992100Y1639074D01*
X6992205Y1639239D01*
X6992306Y1639406D01*
X6992403Y1639575D01*
X6992496Y1639747D01*
X6992585Y1639921D01*
X6992669Y1640097D01*
X6992750Y1640275D01*
X6992825Y1640455D01*
X6992897Y1640637D01*
X6992964Y1640821D01*
X6993026Y1641006D01*
X6993085Y1641192D01*
X6993138Y1641380D01*
X6993187Y1641569D01*
X6993232Y1641759D01*
X6993271Y1641950D01*
X6993307Y1642142D01*
X6993337Y1642335D01*
X6993363Y1642529D01*
X6993384Y1642723D01*
X6993401Y1642918D01*
X6993413Y1643113D01*
X6993420Y1643308D01*
X6993422Y1643503D01*
X6993422Y1663709D01*
X6993420Y1663904D01*
X6993413Y1664099D01*
X6993401Y1664294D01*
X6993384Y1664489D01*
X6993363Y1664683D01*
X6993337Y1664877D01*
X6993307Y1665070D01*
X6993271Y1665262D01*
X6993232Y1665453D01*
X6993187Y1665643D01*
X6993138Y1665832D01*
X6993085Y1666020D01*
X6993026Y1666206D01*
X6992964Y1666391D01*
X6992897Y1666575D01*
X6992825Y1666757D01*
X6992750Y1666937D01*
X6992669Y1667115D01*
X6992585Y1667291D01*
X6992496Y1667465D01*
X6992403Y1667637D01*
X6992306Y1667806D01*
X6992205Y1667973D01*
X6992100Y1668138D01*
X6991991Y1668300D01*
X6991878Y1668459D01*
X6991762Y1668616D01*
X6991641Y1668770D01*
X6991517Y1668921D01*
X6991389Y1669068D01*
X6991258Y1669213D01*
X6991123Y1669354D01*
X6990985Y1669492D01*
X6990844Y1669627D01*
X6990699Y1669758D01*
X6990552Y1669886D01*
X6990401Y1670010D01*
X6990247Y1670131D01*
X6990090Y1670247D01*
X6989931Y1670360D01*
X6989769Y1670469D01*
X6989604Y1670574D01*
X6989437Y1670675D01*
X6989268Y1670772D01*
X6989096Y1670865D01*
X6988922Y1670954D01*
X6988746Y1671038D01*
X6988568Y1671119D01*
X6988388Y1671194D01*
X6988206Y1671266D01*
X6988022Y1671333D01*
X6987837Y1671395D01*
X6987651Y1671454D01*
X6987463Y1671507D01*
X6987274Y1671556D01*
X6987084Y1671601D01*
X6986893Y1671640D01*
X6986701Y1671676D01*
X6986508Y1671706D01*
X6986314Y1671732D01*
X6986120Y1671753D01*
X6985925Y1671770D01*
X6985730Y1671782D01*
X6985535Y1671789D01*
X6985340Y1671791D01*
X6977258Y1671791D01*
X6955259Y1671791D02*
X6955259Y1643503D01*
X6955260Y1643503D02*
X6955262Y1643308D01*
X6955269Y1643113D01*
X6955281Y1642918D01*
X6955298Y1642723D01*
X6955319Y1642529D01*
X6955345Y1642335D01*
X6955375Y1642142D01*
X6955411Y1641950D01*
X6955450Y1641759D01*
X6955495Y1641569D01*
X6955544Y1641380D01*
X6955597Y1641192D01*
X6955656Y1641006D01*
X6955718Y1640821D01*
X6955785Y1640637D01*
X6955857Y1640455D01*
X6955932Y1640275D01*
X6956013Y1640097D01*
X6956097Y1639921D01*
X6956186Y1639747D01*
X6956279Y1639575D01*
X6956376Y1639406D01*
X6956477Y1639239D01*
X6956582Y1639074D01*
X6956691Y1638912D01*
X6956804Y1638753D01*
X6956920Y1638596D01*
X6957041Y1638442D01*
X6957165Y1638291D01*
X6957293Y1638144D01*
X6957424Y1637999D01*
X6957559Y1637858D01*
X6957697Y1637720D01*
X6957838Y1637585D01*
X6957983Y1637454D01*
X6958130Y1637326D01*
X6958281Y1637202D01*
X6958435Y1637081D01*
X6958592Y1636965D01*
X6958751Y1636852D01*
X6958913Y1636743D01*
X6959078Y1636638D01*
X6959245Y1636537D01*
X6959414Y1636440D01*
X6959586Y1636347D01*
X6959760Y1636258D01*
X6959936Y1636174D01*
X6960114Y1636093D01*
X6960294Y1636018D01*
X6960476Y1635946D01*
X6960660Y1635879D01*
X6960845Y1635817D01*
X6961031Y1635758D01*
X6961219Y1635705D01*
X6961408Y1635656D01*
X6961598Y1635611D01*
X6961789Y1635572D01*
X6961981Y1635536D01*
X6962174Y1635506D01*
X6962368Y1635480D01*
X6962562Y1635459D01*
X6962757Y1635442D01*
X6962952Y1635430D01*
X6963147Y1635423D01*
X6963342Y1635421D01*
X6967383Y1635421D01*
X6937742Y1635421D02*
X6937742Y1671791D01*
X6937742Y1635421D02*
X6921578Y1635421D01*
X6900301Y1635421D02*
X6892219Y1635421D01*
X6900301Y1635421D02*
X6900496Y1635423D01*
X6900691Y1635430D01*
X6900886Y1635442D01*
X6901081Y1635459D01*
X6901275Y1635480D01*
X6901469Y1635506D01*
X6901662Y1635536D01*
X6901854Y1635572D01*
X6902045Y1635611D01*
X6902235Y1635656D01*
X6902424Y1635705D01*
X6902612Y1635758D01*
X6902798Y1635817D01*
X6902983Y1635879D01*
X6903167Y1635946D01*
X6903349Y1636018D01*
X6903529Y1636093D01*
X6903707Y1636174D01*
X6903883Y1636258D01*
X6904057Y1636347D01*
X6904229Y1636440D01*
X6904398Y1636537D01*
X6904565Y1636638D01*
X6904730Y1636743D01*
X6904892Y1636852D01*
X6905051Y1636965D01*
X6905208Y1637081D01*
X6905362Y1637202D01*
X6905513Y1637326D01*
X6905660Y1637454D01*
X6905805Y1637585D01*
X6905946Y1637720D01*
X6906084Y1637858D01*
X6906219Y1637999D01*
X6906350Y1638144D01*
X6906478Y1638291D01*
X6906602Y1638442D01*
X6906723Y1638596D01*
X6906839Y1638753D01*
X6906952Y1638912D01*
X6907061Y1639074D01*
X6907166Y1639239D01*
X6907267Y1639406D01*
X6907364Y1639575D01*
X6907457Y1639747D01*
X6907546Y1639921D01*
X6907630Y1640097D01*
X6907711Y1640275D01*
X6907786Y1640455D01*
X6907858Y1640637D01*
X6907925Y1640821D01*
X6907987Y1641006D01*
X6908046Y1641192D01*
X6908099Y1641380D01*
X6908148Y1641569D01*
X6908193Y1641759D01*
X6908232Y1641950D01*
X6908268Y1642142D01*
X6908298Y1642335D01*
X6908324Y1642529D01*
X6908345Y1642723D01*
X6908362Y1642918D01*
X6908374Y1643113D01*
X6908381Y1643308D01*
X6908383Y1643503D01*
X6908383Y1663709D01*
X6908381Y1663904D01*
X6908374Y1664099D01*
X6908362Y1664294D01*
X6908345Y1664489D01*
X6908324Y1664683D01*
X6908298Y1664877D01*
X6908268Y1665070D01*
X6908232Y1665262D01*
X6908193Y1665453D01*
X6908148Y1665643D01*
X6908099Y1665832D01*
X6908046Y1666020D01*
X6907987Y1666206D01*
X6907925Y1666391D01*
X6907858Y1666575D01*
X6907786Y1666757D01*
X6907711Y1666937D01*
X6907630Y1667115D01*
X6907546Y1667291D01*
X6907457Y1667465D01*
X6907364Y1667637D01*
X6907267Y1667806D01*
X6907166Y1667973D01*
X6907061Y1668138D01*
X6906952Y1668300D01*
X6906839Y1668459D01*
X6906723Y1668616D01*
X6906602Y1668770D01*
X6906478Y1668921D01*
X6906350Y1669068D01*
X6906219Y1669213D01*
X6906084Y1669354D01*
X6905946Y1669492D01*
X6905805Y1669627D01*
X6905660Y1669758D01*
X6905513Y1669886D01*
X6905362Y1670010D01*
X6905208Y1670131D01*
X6905051Y1670247D01*
X6904892Y1670360D01*
X6904730Y1670469D01*
X6904565Y1670574D01*
X6904398Y1670675D01*
X6904229Y1670772D01*
X6904057Y1670865D01*
X6903883Y1670954D01*
X6903707Y1671038D01*
X6903529Y1671119D01*
X6903349Y1671194D01*
X6903167Y1671266D01*
X6902983Y1671333D01*
X6902798Y1671395D01*
X6902612Y1671454D01*
X6902424Y1671507D01*
X6902235Y1671556D01*
X6902045Y1671601D01*
X6901854Y1671640D01*
X6901662Y1671676D01*
X6901469Y1671706D01*
X6901275Y1671732D01*
X6901081Y1671753D01*
X6900886Y1671770D01*
X6900691Y1671782D01*
X6900496Y1671789D01*
X6900301Y1671791D01*
X6892219Y1671791D01*
X6870220Y1671791D02*
X6870220Y1643503D01*
X6870221Y1643503D02*
X6870223Y1643308D01*
X6870230Y1643113D01*
X6870242Y1642918D01*
X6870259Y1642723D01*
X6870280Y1642529D01*
X6870306Y1642335D01*
X6870336Y1642142D01*
X6870372Y1641950D01*
X6870411Y1641759D01*
X6870456Y1641569D01*
X6870505Y1641380D01*
X6870558Y1641192D01*
X6870617Y1641006D01*
X6870679Y1640821D01*
X6870746Y1640637D01*
X6870818Y1640455D01*
X6870893Y1640275D01*
X6870974Y1640097D01*
X6871058Y1639921D01*
X6871147Y1639747D01*
X6871240Y1639575D01*
X6871337Y1639406D01*
X6871438Y1639239D01*
X6871543Y1639074D01*
X6871652Y1638912D01*
X6871765Y1638753D01*
X6871881Y1638596D01*
X6872002Y1638442D01*
X6872126Y1638291D01*
X6872254Y1638144D01*
X6872385Y1637999D01*
X6872520Y1637858D01*
X6872658Y1637720D01*
X6872799Y1637585D01*
X6872944Y1637454D01*
X6873091Y1637326D01*
X6873242Y1637202D01*
X6873396Y1637081D01*
X6873553Y1636965D01*
X6873712Y1636852D01*
X6873874Y1636743D01*
X6874039Y1636638D01*
X6874206Y1636537D01*
X6874375Y1636440D01*
X6874547Y1636347D01*
X6874721Y1636258D01*
X6874897Y1636174D01*
X6875075Y1636093D01*
X6875255Y1636018D01*
X6875437Y1635946D01*
X6875621Y1635879D01*
X6875806Y1635817D01*
X6875992Y1635758D01*
X6876180Y1635705D01*
X6876369Y1635656D01*
X6876559Y1635611D01*
X6876750Y1635572D01*
X6876942Y1635536D01*
X6877135Y1635506D01*
X6877329Y1635480D01*
X6877523Y1635459D01*
X6877718Y1635442D01*
X6877913Y1635430D01*
X6878108Y1635423D01*
X6878303Y1635421D01*
X6882344Y1635421D01*
X6852703Y1635421D02*
X6852703Y1671791D01*
X6852703Y1635421D02*
X6836539Y1635421D01*
X6815262Y1635421D02*
X6807180Y1635421D01*
X6815262Y1635421D02*
X6815457Y1635423D01*
X6815652Y1635430D01*
X6815847Y1635442D01*
X6816042Y1635459D01*
X6816236Y1635480D01*
X6816430Y1635506D01*
X6816623Y1635536D01*
X6816815Y1635572D01*
X6817006Y1635611D01*
X6817196Y1635656D01*
X6817385Y1635705D01*
X6817573Y1635758D01*
X6817759Y1635817D01*
X6817944Y1635879D01*
X6818128Y1635946D01*
X6818310Y1636018D01*
X6818490Y1636093D01*
X6818668Y1636174D01*
X6818844Y1636258D01*
X6819018Y1636347D01*
X6819190Y1636440D01*
X6819359Y1636537D01*
X6819526Y1636638D01*
X6819691Y1636743D01*
X6819853Y1636852D01*
X6820012Y1636965D01*
X6820169Y1637081D01*
X6820323Y1637202D01*
X6820474Y1637326D01*
X6820621Y1637454D01*
X6820766Y1637585D01*
X6820907Y1637720D01*
X6821045Y1637858D01*
X6821180Y1637999D01*
X6821311Y1638144D01*
X6821439Y1638291D01*
X6821563Y1638442D01*
X6821684Y1638596D01*
X6821800Y1638753D01*
X6821913Y1638912D01*
X6822022Y1639074D01*
X6822127Y1639239D01*
X6822228Y1639406D01*
X6822325Y1639575D01*
X6822418Y1639747D01*
X6822507Y1639921D01*
X6822591Y1640097D01*
X6822672Y1640275D01*
X6822747Y1640455D01*
X6822819Y1640637D01*
X6822886Y1640821D01*
X6822948Y1641006D01*
X6823007Y1641192D01*
X6823060Y1641380D01*
X6823109Y1641569D01*
X6823154Y1641759D01*
X6823193Y1641950D01*
X6823229Y1642142D01*
X6823259Y1642335D01*
X6823285Y1642529D01*
X6823306Y1642723D01*
X6823323Y1642918D01*
X6823335Y1643113D01*
X6823342Y1643308D01*
X6823344Y1643503D01*
X6823344Y1663709D01*
X6823342Y1663904D01*
X6823335Y1664099D01*
X6823323Y1664294D01*
X6823306Y1664489D01*
X6823285Y1664683D01*
X6823259Y1664877D01*
X6823229Y1665070D01*
X6823193Y1665262D01*
X6823154Y1665453D01*
X6823109Y1665643D01*
X6823060Y1665832D01*
X6823007Y1666020D01*
X6822948Y1666206D01*
X6822886Y1666391D01*
X6822819Y1666575D01*
X6822747Y1666757D01*
X6822672Y1666937D01*
X6822591Y1667115D01*
X6822507Y1667291D01*
X6822418Y1667465D01*
X6822325Y1667637D01*
X6822228Y1667806D01*
X6822127Y1667973D01*
X6822022Y1668138D01*
X6821913Y1668300D01*
X6821800Y1668459D01*
X6821684Y1668616D01*
X6821563Y1668770D01*
X6821439Y1668921D01*
X6821311Y1669068D01*
X6821180Y1669213D01*
X6821045Y1669354D01*
X6820907Y1669492D01*
X6820766Y1669627D01*
X6820621Y1669758D01*
X6820474Y1669886D01*
X6820323Y1670010D01*
X6820169Y1670131D01*
X6820012Y1670247D01*
X6819853Y1670360D01*
X6819691Y1670469D01*
X6819526Y1670574D01*
X6819359Y1670675D01*
X6819190Y1670772D01*
X6819018Y1670865D01*
X6818844Y1670954D01*
X6818668Y1671038D01*
X6818490Y1671119D01*
X6818310Y1671194D01*
X6818128Y1671266D01*
X6817944Y1671333D01*
X6817759Y1671395D01*
X6817573Y1671454D01*
X6817385Y1671507D01*
X6817196Y1671556D01*
X6817006Y1671601D01*
X6816815Y1671640D01*
X6816623Y1671676D01*
X6816430Y1671706D01*
X6816236Y1671732D01*
X6816042Y1671753D01*
X6815847Y1671770D01*
X6815652Y1671782D01*
X6815457Y1671789D01*
X6815262Y1671791D01*
X6807180Y1671791D01*
D11*
X3104331Y2982283D02*
X2958661Y2982283D01*
X3104331Y2982283D02*
X3104331Y3238189D01*
X2958661Y3238189D01*
X2958661Y2982283D01*
X2944882Y2972441D02*
X2886811Y2972441D01*
D12*
X3174442Y2961189D02*
X3174442Y2915189D01*
X3179553Y2915189D02*
X3169330Y2915189D01*
X3169330Y2961189D02*
X3179553Y2961189D01*
X3141128Y2915189D02*
X3130906Y2915189D01*
X3141128Y2915189D02*
X3141375Y2915192D01*
X3141622Y2915201D01*
X3141868Y2915216D01*
X3142115Y2915237D01*
X3142360Y2915264D01*
X3142605Y2915296D01*
X3142849Y2915335D01*
X3143092Y2915379D01*
X3143334Y2915430D01*
X3143574Y2915486D01*
X3143813Y2915548D01*
X3144051Y2915616D01*
X3144287Y2915689D01*
X3144521Y2915768D01*
X3144753Y2915853D01*
X3144983Y2915944D01*
X3145210Y2916040D01*
X3145436Y2916141D01*
X3145658Y2916248D01*
X3145878Y2916360D01*
X3146096Y2916477D01*
X3146310Y2916600D01*
X3146522Y2916728D01*
X3146730Y2916861D01*
X3146935Y2916998D01*
X3147136Y2917141D01*
X3147334Y2917289D01*
X3147529Y2917441D01*
X3147720Y2917598D01*
X3147906Y2917760D01*
X3148089Y2917926D01*
X3148268Y2918096D01*
X3148443Y2918271D01*
X3148613Y2918450D01*
X3148779Y2918633D01*
X3148941Y2918819D01*
X3149098Y2919010D01*
X3149250Y2919205D01*
X3149398Y2919403D01*
X3149541Y2919604D01*
X3149678Y2919809D01*
X3149811Y2920017D01*
X3149939Y2920229D01*
X3150062Y2920443D01*
X3150179Y2920661D01*
X3150291Y2920881D01*
X3150398Y2921103D01*
X3150499Y2921329D01*
X3150595Y2921556D01*
X3150686Y2921786D01*
X3150771Y2922018D01*
X3150850Y2922252D01*
X3150923Y2922488D01*
X3150991Y2922726D01*
X3151053Y2922965D01*
X3151109Y2923205D01*
X3151160Y2923447D01*
X3151204Y2923690D01*
X3151243Y2923934D01*
X3151275Y2924179D01*
X3151302Y2924424D01*
X3151323Y2924671D01*
X3151338Y2924917D01*
X3151347Y2925164D01*
X3151350Y2925411D01*
X3151350Y2950967D01*
X3151347Y2951214D01*
X3151338Y2951461D01*
X3151323Y2951707D01*
X3151302Y2951954D01*
X3151275Y2952199D01*
X3151243Y2952444D01*
X3151204Y2952688D01*
X3151160Y2952931D01*
X3151109Y2953173D01*
X3151053Y2953413D01*
X3150991Y2953652D01*
X3150923Y2953890D01*
X3150850Y2954126D01*
X3150771Y2954360D01*
X3150686Y2954592D01*
X3150595Y2954822D01*
X3150499Y2955049D01*
X3150398Y2955275D01*
X3150291Y2955497D01*
X3150179Y2955717D01*
X3150062Y2955935D01*
X3149939Y2956149D01*
X3149811Y2956361D01*
X3149678Y2956569D01*
X3149541Y2956774D01*
X3149398Y2956975D01*
X3149250Y2957173D01*
X3149098Y2957368D01*
X3148941Y2957559D01*
X3148779Y2957745D01*
X3148613Y2957928D01*
X3148443Y2958107D01*
X3148268Y2958282D01*
X3148089Y2958452D01*
X3147906Y2958618D01*
X3147720Y2958780D01*
X3147529Y2958937D01*
X3147334Y2959089D01*
X3147136Y2959237D01*
X3146935Y2959380D01*
X3146730Y2959517D01*
X3146522Y2959650D01*
X3146310Y2959778D01*
X3146096Y2959901D01*
X3145878Y2960018D01*
X3145658Y2960130D01*
X3145436Y2960237D01*
X3145210Y2960338D01*
X3144983Y2960434D01*
X3144753Y2960525D01*
X3144521Y2960610D01*
X3144287Y2960689D01*
X3144051Y2960762D01*
X3143813Y2960830D01*
X3143574Y2960892D01*
X3143334Y2960948D01*
X3143092Y2960999D01*
X3142849Y2961043D01*
X3142605Y2961082D01*
X3142360Y2961114D01*
X3142115Y2961141D01*
X3141868Y2961162D01*
X3141622Y2961177D01*
X3141375Y2961186D01*
X3141128Y2961189D01*
X3130906Y2961189D01*
X3113719Y2940744D02*
X3098386Y2940744D01*
X3098139Y2940741D01*
X3097892Y2940732D01*
X3097646Y2940717D01*
X3097399Y2940696D01*
X3097154Y2940669D01*
X3096909Y2940637D01*
X3096665Y2940598D01*
X3096422Y2940554D01*
X3096180Y2940503D01*
X3095940Y2940447D01*
X3095701Y2940385D01*
X3095463Y2940317D01*
X3095227Y2940244D01*
X3094993Y2940165D01*
X3094761Y2940080D01*
X3094531Y2939989D01*
X3094304Y2939893D01*
X3094078Y2939792D01*
X3093856Y2939685D01*
X3093636Y2939573D01*
X3093418Y2939456D01*
X3093204Y2939333D01*
X3092992Y2939205D01*
X3092784Y2939072D01*
X3092579Y2938935D01*
X3092378Y2938792D01*
X3092180Y2938644D01*
X3091985Y2938492D01*
X3091794Y2938335D01*
X3091608Y2938173D01*
X3091425Y2938007D01*
X3091246Y2937837D01*
X3091071Y2937662D01*
X3090901Y2937483D01*
X3090735Y2937300D01*
X3090573Y2937114D01*
X3090416Y2936923D01*
X3090264Y2936728D01*
X3090116Y2936530D01*
X3089973Y2936329D01*
X3089836Y2936124D01*
X3089703Y2935916D01*
X3089575Y2935704D01*
X3089452Y2935490D01*
X3089335Y2935272D01*
X3089223Y2935052D01*
X3089116Y2934830D01*
X3089015Y2934604D01*
X3088919Y2934377D01*
X3088828Y2934147D01*
X3088743Y2933915D01*
X3088664Y2933681D01*
X3088591Y2933445D01*
X3088523Y2933207D01*
X3088461Y2932968D01*
X3088405Y2932728D01*
X3088354Y2932486D01*
X3088310Y2932243D01*
X3088271Y2931999D01*
X3088239Y2931754D01*
X3088212Y2931509D01*
X3088191Y2931262D01*
X3088176Y2931016D01*
X3088167Y2930769D01*
X3088164Y2930522D01*
X3088164Y2927967D01*
X3088168Y2927656D01*
X3088179Y2927345D01*
X3088198Y2927034D01*
X3088225Y2926724D01*
X3088259Y2926415D01*
X3088300Y2926107D01*
X3088349Y2925799D01*
X3088406Y2925493D01*
X3088470Y2925189D01*
X3088541Y2924886D01*
X3088620Y2924585D01*
X3088706Y2924286D01*
X3088799Y2923989D01*
X3088900Y2923694D01*
X3089007Y2923402D01*
X3089122Y2923113D01*
X3089244Y2922827D01*
X3089372Y2922543D01*
X3089508Y2922263D01*
X3089650Y2921986D01*
X3089799Y2921713D01*
X3089955Y2921444D01*
X3090117Y2921178D01*
X3090285Y2920917D01*
X3090460Y2920659D01*
X3090641Y2920406D01*
X3090828Y2920157D01*
X3091021Y2919913D01*
X3091220Y2919674D01*
X3091425Y2919440D01*
X3091636Y2919211D01*
X3091852Y2918987D01*
X3092073Y2918768D01*
X3092300Y2918555D01*
X3092532Y2918347D01*
X3092768Y2918145D01*
X3093010Y2917949D01*
X3093256Y2917759D01*
X3093507Y2917575D01*
X3093762Y2917397D01*
X3094022Y2917225D01*
X3094285Y2917060D01*
X3094553Y2916901D01*
X3094824Y2916749D01*
X3095099Y2916603D01*
X3095378Y2916464D01*
X3095660Y2916332D01*
X3095944Y2916207D01*
X3096232Y2916089D01*
X3096523Y2915977D01*
X3096816Y2915873D01*
X3097112Y2915777D01*
X3097410Y2915687D01*
X3097710Y2915604D01*
X3098012Y2915529D01*
X3098316Y2915462D01*
X3098621Y2915402D01*
X3098928Y2915349D01*
X3099236Y2915303D01*
X3099544Y2915266D01*
X3099854Y2915235D01*
X3100165Y2915213D01*
X3100475Y2915198D01*
X3100786Y2915190D01*
X3101098Y2915190D01*
X3101409Y2915198D01*
X3101719Y2915213D01*
X3102030Y2915235D01*
X3102340Y2915266D01*
X3102648Y2915303D01*
X3102956Y2915349D01*
X3103263Y2915402D01*
X3103568Y2915462D01*
X3103872Y2915529D01*
X3104174Y2915604D01*
X3104474Y2915687D01*
X3104772Y2915777D01*
X3105068Y2915873D01*
X3105361Y2915977D01*
X3105652Y2916089D01*
X3105940Y2916207D01*
X3106224Y2916332D01*
X3106506Y2916464D01*
X3106785Y2916603D01*
X3107060Y2916749D01*
X3107331Y2916901D01*
X3107599Y2917060D01*
X3107862Y2917225D01*
X3108122Y2917397D01*
X3108377Y2917575D01*
X3108628Y2917759D01*
X3108874Y2917949D01*
X3109116Y2918145D01*
X3109352Y2918347D01*
X3109584Y2918555D01*
X3109811Y2918768D01*
X3110032Y2918987D01*
X3110248Y2919211D01*
X3110459Y2919440D01*
X3110664Y2919674D01*
X3110863Y2919913D01*
X3111056Y2920157D01*
X3111243Y2920406D01*
X3111424Y2920659D01*
X3111599Y2920917D01*
X3111767Y2921178D01*
X3111929Y2921444D01*
X3112085Y2921713D01*
X3112234Y2921986D01*
X3112376Y2922263D01*
X3112512Y2922543D01*
X3112640Y2922827D01*
X3112762Y2923113D01*
X3112877Y2923402D01*
X3112984Y2923694D01*
X3113085Y2923989D01*
X3113178Y2924286D01*
X3113264Y2924585D01*
X3113343Y2924886D01*
X3113414Y2925189D01*
X3113478Y2925493D01*
X3113535Y2925799D01*
X3113584Y2926107D01*
X3113625Y2926415D01*
X3113659Y2926724D01*
X3113686Y2927034D01*
X3113705Y2927345D01*
X3113716Y2927656D01*
X3113720Y2927967D01*
X3113719Y2927967D02*
X3113719Y2940744D01*
X3113713Y2941238D01*
X3113695Y2941732D01*
X3113665Y2942225D01*
X3113624Y2942717D01*
X3113570Y2943208D01*
X3113504Y2943698D01*
X3113427Y2944186D01*
X3113338Y2944672D01*
X3113237Y2945155D01*
X3113125Y2945637D01*
X3113001Y2946115D01*
X3112865Y2946590D01*
X3112718Y2947062D01*
X3112560Y2947530D01*
X3112390Y2947994D01*
X3112210Y2948453D01*
X3112018Y2948909D01*
X3111815Y2949359D01*
X3111602Y2949805D01*
X3111377Y2950245D01*
X3111142Y2950679D01*
X3110897Y2951108D01*
X3110642Y2951531D01*
X3110376Y2951948D01*
X3110100Y2952358D01*
X3109815Y2952761D01*
X3109519Y2953157D01*
X3109215Y2953546D01*
X3108901Y2953927D01*
X3108578Y2954301D01*
X3108246Y2954667D01*
X3107905Y2955024D01*
X3107555Y2955374D01*
X3107198Y2955715D01*
X3106832Y2956047D01*
X3106458Y2956370D01*
X3106077Y2956684D01*
X3105688Y2956988D01*
X3105292Y2957284D01*
X3104889Y2957569D01*
X3104479Y2957845D01*
X3104062Y2958111D01*
X3103639Y2958366D01*
X3103210Y2958611D01*
X3102776Y2958846D01*
X3102336Y2959071D01*
X3101890Y2959284D01*
X3101440Y2959487D01*
X3100984Y2959679D01*
X3100525Y2959859D01*
X3100061Y2960029D01*
X3099593Y2960187D01*
X3099121Y2960334D01*
X3098646Y2960470D01*
X3098168Y2960594D01*
X3097686Y2960706D01*
X3097203Y2960807D01*
X3096717Y2960896D01*
X3096229Y2960973D01*
X3095739Y2961039D01*
X3095248Y2961093D01*
X3094756Y2961134D01*
X3094263Y2961164D01*
X3093769Y2961182D01*
X3093275Y2961188D01*
D11*
X3982283Y2982283D02*
X4127953Y2982283D01*
X4127953Y3238189D01*
X3982283Y3238189D01*
X3982283Y2982283D01*
X3968504Y2972441D02*
X3910433Y2972441D01*
D12*
X4198064Y2961189D02*
X4198064Y2915189D01*
X4203175Y2915189D02*
X4192953Y2915189D01*
X4192953Y2961189D02*
X4203175Y2961189D01*
X4164750Y2915189D02*
X4154528Y2915189D01*
X4164750Y2915189D02*
X4164997Y2915192D01*
X4165244Y2915201D01*
X4165490Y2915216D01*
X4165737Y2915237D01*
X4165982Y2915264D01*
X4166227Y2915296D01*
X4166471Y2915335D01*
X4166714Y2915379D01*
X4166956Y2915430D01*
X4167196Y2915486D01*
X4167435Y2915548D01*
X4167673Y2915616D01*
X4167909Y2915689D01*
X4168143Y2915768D01*
X4168375Y2915853D01*
X4168605Y2915944D01*
X4168832Y2916040D01*
X4169058Y2916141D01*
X4169280Y2916248D01*
X4169500Y2916360D01*
X4169718Y2916477D01*
X4169932Y2916600D01*
X4170144Y2916728D01*
X4170352Y2916861D01*
X4170557Y2916998D01*
X4170758Y2917141D01*
X4170956Y2917289D01*
X4171151Y2917441D01*
X4171342Y2917598D01*
X4171528Y2917760D01*
X4171711Y2917926D01*
X4171890Y2918096D01*
X4172065Y2918271D01*
X4172235Y2918450D01*
X4172401Y2918633D01*
X4172563Y2918819D01*
X4172720Y2919010D01*
X4172872Y2919205D01*
X4173020Y2919403D01*
X4173163Y2919604D01*
X4173300Y2919809D01*
X4173433Y2920017D01*
X4173561Y2920229D01*
X4173684Y2920443D01*
X4173801Y2920661D01*
X4173913Y2920881D01*
X4174020Y2921103D01*
X4174121Y2921329D01*
X4174217Y2921556D01*
X4174308Y2921786D01*
X4174393Y2922018D01*
X4174472Y2922252D01*
X4174545Y2922488D01*
X4174613Y2922726D01*
X4174675Y2922965D01*
X4174731Y2923205D01*
X4174782Y2923447D01*
X4174826Y2923690D01*
X4174865Y2923934D01*
X4174897Y2924179D01*
X4174924Y2924424D01*
X4174945Y2924671D01*
X4174960Y2924917D01*
X4174969Y2925164D01*
X4174972Y2925411D01*
X4174972Y2950967D01*
X4174969Y2951214D01*
X4174960Y2951461D01*
X4174945Y2951707D01*
X4174924Y2951954D01*
X4174897Y2952199D01*
X4174865Y2952444D01*
X4174826Y2952688D01*
X4174782Y2952931D01*
X4174731Y2953173D01*
X4174675Y2953413D01*
X4174613Y2953652D01*
X4174545Y2953890D01*
X4174472Y2954126D01*
X4174393Y2954360D01*
X4174308Y2954592D01*
X4174217Y2954822D01*
X4174121Y2955049D01*
X4174020Y2955275D01*
X4173913Y2955497D01*
X4173801Y2955717D01*
X4173684Y2955935D01*
X4173561Y2956149D01*
X4173433Y2956361D01*
X4173300Y2956569D01*
X4173163Y2956774D01*
X4173020Y2956975D01*
X4172872Y2957173D01*
X4172720Y2957368D01*
X4172563Y2957559D01*
X4172401Y2957745D01*
X4172235Y2957928D01*
X4172065Y2958107D01*
X4171890Y2958282D01*
X4171711Y2958452D01*
X4171528Y2958618D01*
X4171342Y2958780D01*
X4171151Y2958937D01*
X4170956Y2959089D01*
X4170758Y2959237D01*
X4170557Y2959380D01*
X4170352Y2959517D01*
X4170144Y2959650D01*
X4169932Y2959778D01*
X4169718Y2959901D01*
X4169500Y2960018D01*
X4169280Y2960130D01*
X4169058Y2960237D01*
X4168832Y2960338D01*
X4168605Y2960434D01*
X4168375Y2960525D01*
X4168143Y2960610D01*
X4167909Y2960689D01*
X4167673Y2960762D01*
X4167435Y2960830D01*
X4167196Y2960892D01*
X4166956Y2960948D01*
X4166714Y2960999D01*
X4166471Y2961043D01*
X4166227Y2961082D01*
X4165982Y2961114D01*
X4165737Y2961141D01*
X4165490Y2961162D01*
X4165244Y2961177D01*
X4164997Y2961186D01*
X4164750Y2961189D01*
X4154528Y2961189D01*
X4137341Y2961189D02*
X4137341Y2956078D01*
X4137341Y2961189D02*
X4111786Y2961189D01*
X4124564Y2915189D01*
D11*
X5084646Y2982283D02*
X5230315Y2982283D01*
X5230315Y3238189D01*
X5084646Y3238189D01*
X5084646Y2982283D01*
X5070866Y2972441D02*
X5012795Y2972441D01*
D12*
X5304363Y2953315D02*
X5304363Y2907315D01*
X5309474Y2907315D02*
X5299252Y2907315D01*
X5299252Y2953315D02*
X5309474Y2953315D01*
X5271049Y2907315D02*
X5260827Y2907315D01*
X5271049Y2907315D02*
X5271296Y2907318D01*
X5271543Y2907327D01*
X5271789Y2907342D01*
X5272036Y2907363D01*
X5272281Y2907390D01*
X5272526Y2907422D01*
X5272770Y2907461D01*
X5273013Y2907505D01*
X5273255Y2907556D01*
X5273495Y2907612D01*
X5273734Y2907674D01*
X5273972Y2907742D01*
X5274208Y2907815D01*
X5274442Y2907894D01*
X5274674Y2907979D01*
X5274904Y2908070D01*
X5275131Y2908166D01*
X5275357Y2908267D01*
X5275579Y2908374D01*
X5275799Y2908486D01*
X5276017Y2908603D01*
X5276231Y2908726D01*
X5276443Y2908854D01*
X5276651Y2908987D01*
X5276856Y2909124D01*
X5277057Y2909267D01*
X5277255Y2909415D01*
X5277450Y2909567D01*
X5277641Y2909724D01*
X5277827Y2909886D01*
X5278010Y2910052D01*
X5278189Y2910222D01*
X5278364Y2910397D01*
X5278534Y2910576D01*
X5278700Y2910759D01*
X5278862Y2910945D01*
X5279019Y2911136D01*
X5279171Y2911331D01*
X5279319Y2911529D01*
X5279462Y2911730D01*
X5279599Y2911935D01*
X5279732Y2912143D01*
X5279860Y2912355D01*
X5279983Y2912569D01*
X5280100Y2912787D01*
X5280212Y2913007D01*
X5280319Y2913229D01*
X5280420Y2913455D01*
X5280516Y2913682D01*
X5280607Y2913912D01*
X5280692Y2914144D01*
X5280771Y2914378D01*
X5280844Y2914614D01*
X5280912Y2914852D01*
X5280974Y2915091D01*
X5281030Y2915331D01*
X5281081Y2915573D01*
X5281125Y2915816D01*
X5281164Y2916060D01*
X5281196Y2916305D01*
X5281223Y2916550D01*
X5281244Y2916797D01*
X5281259Y2917043D01*
X5281268Y2917290D01*
X5281271Y2917537D01*
X5281271Y2943093D01*
X5281268Y2943340D01*
X5281259Y2943587D01*
X5281244Y2943833D01*
X5281223Y2944080D01*
X5281196Y2944325D01*
X5281164Y2944570D01*
X5281125Y2944814D01*
X5281081Y2945057D01*
X5281030Y2945299D01*
X5280974Y2945539D01*
X5280912Y2945778D01*
X5280844Y2946016D01*
X5280771Y2946252D01*
X5280692Y2946486D01*
X5280607Y2946718D01*
X5280516Y2946948D01*
X5280420Y2947175D01*
X5280319Y2947401D01*
X5280212Y2947623D01*
X5280100Y2947843D01*
X5279983Y2948061D01*
X5279860Y2948275D01*
X5279732Y2948487D01*
X5279599Y2948695D01*
X5279462Y2948900D01*
X5279319Y2949101D01*
X5279171Y2949299D01*
X5279019Y2949494D01*
X5278862Y2949685D01*
X5278700Y2949871D01*
X5278534Y2950054D01*
X5278364Y2950233D01*
X5278189Y2950408D01*
X5278010Y2950578D01*
X5277827Y2950744D01*
X5277641Y2950906D01*
X5277450Y2951063D01*
X5277255Y2951215D01*
X5277057Y2951363D01*
X5276856Y2951506D01*
X5276651Y2951643D01*
X5276443Y2951776D01*
X5276231Y2951904D01*
X5276017Y2952027D01*
X5275799Y2952144D01*
X5275579Y2952256D01*
X5275357Y2952363D01*
X5275131Y2952464D01*
X5274904Y2952560D01*
X5274674Y2952651D01*
X5274442Y2952736D01*
X5274208Y2952815D01*
X5273972Y2952888D01*
X5273734Y2952956D01*
X5273495Y2953018D01*
X5273255Y2953074D01*
X5273013Y2953125D01*
X5272770Y2953169D01*
X5272526Y2953208D01*
X5272281Y2953240D01*
X5272036Y2953267D01*
X5271789Y2953288D01*
X5271543Y2953303D01*
X5271296Y2953312D01*
X5271049Y2953315D01*
X5260827Y2953315D01*
X5243641Y2920093D02*
X5243637Y2920404D01*
X5243626Y2920715D01*
X5243607Y2921026D01*
X5243580Y2921336D01*
X5243546Y2921645D01*
X5243505Y2921953D01*
X5243456Y2922261D01*
X5243399Y2922567D01*
X5243335Y2922871D01*
X5243264Y2923174D01*
X5243185Y2923475D01*
X5243099Y2923774D01*
X5243006Y2924071D01*
X5242905Y2924366D01*
X5242798Y2924658D01*
X5242683Y2924947D01*
X5242561Y2925233D01*
X5242433Y2925517D01*
X5242297Y2925797D01*
X5242155Y2926074D01*
X5242006Y2926347D01*
X5241850Y2926616D01*
X5241688Y2926882D01*
X5241520Y2927143D01*
X5241345Y2927401D01*
X5241164Y2927654D01*
X5240977Y2927903D01*
X5240784Y2928147D01*
X5240585Y2928386D01*
X5240380Y2928620D01*
X5240169Y2928849D01*
X5239953Y2929073D01*
X5239732Y2929292D01*
X5239505Y2929505D01*
X5239273Y2929713D01*
X5239037Y2929915D01*
X5238795Y2930111D01*
X5238549Y2930301D01*
X5238298Y2930485D01*
X5238043Y2930663D01*
X5237783Y2930835D01*
X5237520Y2931000D01*
X5237252Y2931159D01*
X5236981Y2931311D01*
X5236706Y2931457D01*
X5236427Y2931596D01*
X5236145Y2931728D01*
X5235861Y2931853D01*
X5235573Y2931971D01*
X5235282Y2932083D01*
X5234989Y2932187D01*
X5234693Y2932283D01*
X5234395Y2932373D01*
X5234095Y2932456D01*
X5233793Y2932531D01*
X5233489Y2932598D01*
X5233184Y2932658D01*
X5232877Y2932711D01*
X5232569Y2932757D01*
X5232261Y2932794D01*
X5231951Y2932825D01*
X5231640Y2932847D01*
X5231330Y2932862D01*
X5231019Y2932870D01*
X5230707Y2932870D01*
X5230396Y2932862D01*
X5230086Y2932847D01*
X5229775Y2932825D01*
X5229465Y2932794D01*
X5229157Y2932757D01*
X5228849Y2932711D01*
X5228542Y2932658D01*
X5228237Y2932598D01*
X5227933Y2932531D01*
X5227631Y2932456D01*
X5227331Y2932373D01*
X5227033Y2932283D01*
X5226737Y2932187D01*
X5226444Y2932083D01*
X5226153Y2931971D01*
X5225865Y2931853D01*
X5225581Y2931728D01*
X5225299Y2931596D01*
X5225020Y2931457D01*
X5224745Y2931311D01*
X5224474Y2931159D01*
X5224206Y2931000D01*
X5223943Y2930835D01*
X5223683Y2930663D01*
X5223428Y2930485D01*
X5223177Y2930301D01*
X5222931Y2930111D01*
X5222689Y2929915D01*
X5222453Y2929713D01*
X5222221Y2929505D01*
X5221994Y2929292D01*
X5221773Y2929073D01*
X5221557Y2928849D01*
X5221346Y2928620D01*
X5221141Y2928386D01*
X5220942Y2928147D01*
X5220749Y2927903D01*
X5220562Y2927654D01*
X5220381Y2927401D01*
X5220206Y2927143D01*
X5220038Y2926882D01*
X5219876Y2926616D01*
X5219720Y2926347D01*
X5219571Y2926074D01*
X5219429Y2925797D01*
X5219293Y2925517D01*
X5219165Y2925233D01*
X5219043Y2924947D01*
X5218928Y2924658D01*
X5218821Y2924366D01*
X5218720Y2924071D01*
X5218627Y2923774D01*
X5218541Y2923475D01*
X5218462Y2923174D01*
X5218391Y2922871D01*
X5218327Y2922567D01*
X5218270Y2922261D01*
X5218221Y2921953D01*
X5218180Y2921645D01*
X5218146Y2921336D01*
X5218119Y2921026D01*
X5218100Y2920715D01*
X5218089Y2920404D01*
X5218085Y2920093D01*
X5218089Y2919782D01*
X5218100Y2919471D01*
X5218119Y2919160D01*
X5218146Y2918850D01*
X5218180Y2918541D01*
X5218221Y2918233D01*
X5218270Y2917925D01*
X5218327Y2917619D01*
X5218391Y2917315D01*
X5218462Y2917012D01*
X5218541Y2916711D01*
X5218627Y2916412D01*
X5218720Y2916115D01*
X5218821Y2915820D01*
X5218928Y2915528D01*
X5219043Y2915239D01*
X5219165Y2914953D01*
X5219293Y2914669D01*
X5219429Y2914389D01*
X5219571Y2914112D01*
X5219720Y2913839D01*
X5219876Y2913570D01*
X5220038Y2913304D01*
X5220206Y2913043D01*
X5220381Y2912785D01*
X5220562Y2912532D01*
X5220749Y2912283D01*
X5220942Y2912039D01*
X5221141Y2911800D01*
X5221346Y2911566D01*
X5221557Y2911337D01*
X5221773Y2911113D01*
X5221994Y2910894D01*
X5222221Y2910681D01*
X5222453Y2910473D01*
X5222689Y2910271D01*
X5222931Y2910075D01*
X5223177Y2909885D01*
X5223428Y2909701D01*
X5223683Y2909523D01*
X5223943Y2909351D01*
X5224206Y2909186D01*
X5224474Y2909027D01*
X5224745Y2908875D01*
X5225020Y2908729D01*
X5225299Y2908590D01*
X5225581Y2908458D01*
X5225865Y2908333D01*
X5226153Y2908215D01*
X5226444Y2908103D01*
X5226737Y2907999D01*
X5227033Y2907903D01*
X5227331Y2907813D01*
X5227631Y2907730D01*
X5227933Y2907655D01*
X5228237Y2907588D01*
X5228542Y2907528D01*
X5228849Y2907475D01*
X5229157Y2907429D01*
X5229465Y2907392D01*
X5229775Y2907361D01*
X5230086Y2907339D01*
X5230396Y2907324D01*
X5230707Y2907316D01*
X5231019Y2907316D01*
X5231330Y2907324D01*
X5231640Y2907339D01*
X5231951Y2907361D01*
X5232261Y2907392D01*
X5232569Y2907429D01*
X5232877Y2907475D01*
X5233184Y2907528D01*
X5233489Y2907588D01*
X5233793Y2907655D01*
X5234095Y2907730D01*
X5234395Y2907813D01*
X5234693Y2907903D01*
X5234989Y2907999D01*
X5235282Y2908103D01*
X5235573Y2908215D01*
X5235861Y2908333D01*
X5236145Y2908458D01*
X5236427Y2908590D01*
X5236706Y2908729D01*
X5236981Y2908875D01*
X5237252Y2909027D01*
X5237520Y2909186D01*
X5237783Y2909351D01*
X5238043Y2909523D01*
X5238298Y2909701D01*
X5238549Y2909885D01*
X5238795Y2910075D01*
X5239037Y2910271D01*
X5239273Y2910473D01*
X5239505Y2910681D01*
X5239732Y2910894D01*
X5239953Y2911113D01*
X5240169Y2911337D01*
X5240380Y2911566D01*
X5240585Y2911800D01*
X5240784Y2912039D01*
X5240977Y2912283D01*
X5241164Y2912532D01*
X5241345Y2912785D01*
X5241520Y2913043D01*
X5241688Y2913304D01*
X5241850Y2913570D01*
X5242006Y2913839D01*
X5242155Y2914112D01*
X5242297Y2914389D01*
X5242433Y2914669D01*
X5242561Y2914953D01*
X5242683Y2915239D01*
X5242798Y2915528D01*
X5242905Y2915820D01*
X5243006Y2916115D01*
X5243099Y2916412D01*
X5243185Y2916711D01*
X5243264Y2917012D01*
X5243335Y2917315D01*
X5243399Y2917619D01*
X5243456Y2917925D01*
X5243505Y2918233D01*
X5243546Y2918541D01*
X5243580Y2918850D01*
X5243607Y2919160D01*
X5243626Y2919471D01*
X5243637Y2919782D01*
X5243641Y2920093D01*
X5241085Y2943093D02*
X5241082Y2943342D01*
X5241073Y2943591D01*
X5241058Y2943839D01*
X5241037Y2944087D01*
X5241009Y2944335D01*
X5240976Y2944581D01*
X5240937Y2944827D01*
X5240892Y2945072D01*
X5240840Y2945316D01*
X5240783Y2945558D01*
X5240720Y2945799D01*
X5240652Y2946038D01*
X5240577Y2946275D01*
X5240497Y2946511D01*
X5240411Y2946745D01*
X5240319Y2946976D01*
X5240221Y2947205D01*
X5240118Y2947432D01*
X5240010Y2947656D01*
X5239896Y2947877D01*
X5239777Y2948096D01*
X5239653Y2948311D01*
X5239523Y2948524D01*
X5239388Y2948733D01*
X5239248Y2948939D01*
X5239103Y2949142D01*
X5238954Y2949340D01*
X5238799Y2949536D01*
X5238640Y2949727D01*
X5238476Y2949914D01*
X5238308Y2950098D01*
X5238135Y2950277D01*
X5237958Y2950452D01*
X5237777Y2950622D01*
X5237591Y2950789D01*
X5237402Y2950950D01*
X5237208Y2951107D01*
X5237011Y2951259D01*
X5236811Y2951406D01*
X5236607Y2951549D01*
X5236399Y2951686D01*
X5236188Y2951818D01*
X5235974Y2951946D01*
X5235757Y2952067D01*
X5235537Y2952184D01*
X5235314Y2952295D01*
X5235089Y2952401D01*
X5234861Y2952501D01*
X5234631Y2952595D01*
X5234398Y2952684D01*
X5234163Y2952768D01*
X5233927Y2952845D01*
X5233689Y2952917D01*
X5233448Y2952983D01*
X5233207Y2953043D01*
X5232964Y2953097D01*
X5232720Y2953145D01*
X5232474Y2953187D01*
X5232228Y2953223D01*
X5231981Y2953254D01*
X5231733Y2953278D01*
X5231485Y2953296D01*
X5231236Y2953308D01*
X5230987Y2953314D01*
X5230739Y2953314D01*
X5230490Y2953308D01*
X5230241Y2953296D01*
X5229993Y2953278D01*
X5229745Y2953254D01*
X5229498Y2953223D01*
X5229252Y2953187D01*
X5229006Y2953145D01*
X5228762Y2953097D01*
X5228519Y2953043D01*
X5228278Y2952983D01*
X5228037Y2952917D01*
X5227799Y2952845D01*
X5227563Y2952768D01*
X5227328Y2952684D01*
X5227095Y2952595D01*
X5226865Y2952501D01*
X5226637Y2952401D01*
X5226412Y2952295D01*
X5226189Y2952184D01*
X5225969Y2952067D01*
X5225752Y2951946D01*
X5225538Y2951818D01*
X5225327Y2951686D01*
X5225119Y2951549D01*
X5224915Y2951406D01*
X5224715Y2951259D01*
X5224518Y2951107D01*
X5224324Y2950950D01*
X5224135Y2950789D01*
X5223949Y2950622D01*
X5223768Y2950452D01*
X5223591Y2950277D01*
X5223418Y2950098D01*
X5223250Y2949914D01*
X5223086Y2949727D01*
X5222927Y2949536D01*
X5222772Y2949340D01*
X5222623Y2949142D01*
X5222478Y2948939D01*
X5222338Y2948733D01*
X5222203Y2948524D01*
X5222073Y2948311D01*
X5221949Y2948096D01*
X5221830Y2947877D01*
X5221716Y2947656D01*
X5221608Y2947432D01*
X5221505Y2947205D01*
X5221407Y2946976D01*
X5221315Y2946745D01*
X5221229Y2946511D01*
X5221149Y2946275D01*
X5221074Y2946038D01*
X5221006Y2945799D01*
X5220943Y2945558D01*
X5220886Y2945316D01*
X5220834Y2945072D01*
X5220789Y2944827D01*
X5220750Y2944581D01*
X5220717Y2944335D01*
X5220689Y2944087D01*
X5220668Y2943839D01*
X5220653Y2943591D01*
X5220644Y2943342D01*
X5220641Y2943093D01*
X5220644Y2942844D01*
X5220653Y2942595D01*
X5220668Y2942347D01*
X5220689Y2942099D01*
X5220717Y2941851D01*
X5220750Y2941605D01*
X5220789Y2941359D01*
X5220834Y2941114D01*
X5220886Y2940870D01*
X5220943Y2940628D01*
X5221006Y2940387D01*
X5221074Y2940148D01*
X5221149Y2939911D01*
X5221229Y2939675D01*
X5221315Y2939441D01*
X5221407Y2939210D01*
X5221505Y2938981D01*
X5221608Y2938754D01*
X5221716Y2938530D01*
X5221830Y2938309D01*
X5221949Y2938090D01*
X5222073Y2937875D01*
X5222203Y2937662D01*
X5222338Y2937453D01*
X5222478Y2937247D01*
X5222623Y2937044D01*
X5222772Y2936846D01*
X5222927Y2936650D01*
X5223086Y2936459D01*
X5223250Y2936272D01*
X5223418Y2936088D01*
X5223591Y2935909D01*
X5223768Y2935734D01*
X5223949Y2935564D01*
X5224135Y2935397D01*
X5224324Y2935236D01*
X5224518Y2935079D01*
X5224715Y2934927D01*
X5224915Y2934780D01*
X5225119Y2934637D01*
X5225327Y2934500D01*
X5225538Y2934368D01*
X5225752Y2934240D01*
X5225969Y2934119D01*
X5226189Y2934002D01*
X5226412Y2933891D01*
X5226637Y2933785D01*
X5226865Y2933685D01*
X5227095Y2933591D01*
X5227328Y2933502D01*
X5227563Y2933418D01*
X5227799Y2933341D01*
X5228037Y2933269D01*
X5228278Y2933203D01*
X5228519Y2933143D01*
X5228762Y2933089D01*
X5229006Y2933041D01*
X5229252Y2932999D01*
X5229498Y2932963D01*
X5229745Y2932932D01*
X5229993Y2932908D01*
X5230241Y2932890D01*
X5230490Y2932878D01*
X5230739Y2932872D01*
X5230987Y2932872D01*
X5231236Y2932878D01*
X5231485Y2932890D01*
X5231733Y2932908D01*
X5231981Y2932932D01*
X5232228Y2932963D01*
X5232474Y2932999D01*
X5232720Y2933041D01*
X5232964Y2933089D01*
X5233207Y2933143D01*
X5233448Y2933203D01*
X5233689Y2933269D01*
X5233927Y2933341D01*
X5234163Y2933418D01*
X5234398Y2933502D01*
X5234631Y2933591D01*
X5234861Y2933685D01*
X5235089Y2933785D01*
X5235314Y2933891D01*
X5235537Y2934002D01*
X5235757Y2934119D01*
X5235974Y2934240D01*
X5236188Y2934368D01*
X5236399Y2934500D01*
X5236607Y2934637D01*
X5236811Y2934780D01*
X5237011Y2934927D01*
X5237208Y2935079D01*
X5237402Y2935236D01*
X5237591Y2935397D01*
X5237777Y2935564D01*
X5237958Y2935734D01*
X5238135Y2935909D01*
X5238308Y2936088D01*
X5238476Y2936272D01*
X5238640Y2936459D01*
X5238799Y2936650D01*
X5238954Y2936846D01*
X5239103Y2937044D01*
X5239248Y2937247D01*
X5239388Y2937453D01*
X5239523Y2937662D01*
X5239653Y2937875D01*
X5239777Y2938090D01*
X5239896Y2938309D01*
X5240010Y2938530D01*
X5240118Y2938754D01*
X5240221Y2938981D01*
X5240319Y2939210D01*
X5240411Y2939441D01*
X5240497Y2939675D01*
X5240577Y2939911D01*
X5240652Y2940148D01*
X5240720Y2940387D01*
X5240783Y2940628D01*
X5240840Y2940870D01*
X5240892Y2941114D01*
X5240937Y2941359D01*
X5240976Y2941605D01*
X5241009Y2941851D01*
X5241037Y2942099D01*
X5241058Y2942347D01*
X5241073Y2942595D01*
X5241082Y2942844D01*
X5241085Y2943093D01*
D13*
X2711024Y2887795D02*
X2485827Y2887795D01*
X2485827Y2910886D01*
X2711024Y2910886D02*
X2711024Y2887795D01*
X2711024Y3332677D02*
X2485827Y3332677D01*
X2711024Y3332677D02*
X2711024Y3309587D01*
X2485827Y3309587D02*
X2485827Y3332677D01*
D11*
X2400000Y2935236D02*
X2400002Y2935361D01*
X2400008Y2935486D01*
X2400018Y2935610D01*
X2400032Y2935734D01*
X2400049Y2935858D01*
X2400071Y2935981D01*
X2400097Y2936103D01*
X2400126Y2936225D01*
X2400159Y2936345D01*
X2400197Y2936464D01*
X2400237Y2936583D01*
X2400282Y2936699D01*
X2400330Y2936814D01*
X2400382Y2936928D01*
X2400438Y2937040D01*
X2400497Y2937150D01*
X2400559Y2937258D01*
X2400625Y2937365D01*
X2400694Y2937469D01*
X2400767Y2937570D01*
X2400842Y2937670D01*
X2400921Y2937767D01*
X2401003Y2937861D01*
X2401088Y2937953D01*
X2401175Y2938042D01*
X2401266Y2938128D01*
X2401359Y2938211D01*
X2401455Y2938292D01*
X2401553Y2938369D01*
X2401653Y2938443D01*
X2401756Y2938514D01*
X2401861Y2938581D01*
X2401969Y2938646D01*
X2402078Y2938706D01*
X2402189Y2938764D01*
X2402302Y2938817D01*
X2402416Y2938867D01*
X2402532Y2938914D01*
X2402649Y2938956D01*
X2402768Y2938995D01*
X2402888Y2939031D01*
X2403009Y2939062D01*
X2403131Y2939090D01*
X2403253Y2939113D01*
X2403377Y2939133D01*
X2403501Y2939149D01*
X2403625Y2939161D01*
X2403750Y2939169D01*
X2403875Y2939173D01*
X2403999Y2939173D01*
X2404124Y2939169D01*
X2404249Y2939161D01*
X2404373Y2939149D01*
X2404497Y2939133D01*
X2404621Y2939113D01*
X2404743Y2939090D01*
X2404865Y2939062D01*
X2404986Y2939031D01*
X2405106Y2938995D01*
X2405225Y2938956D01*
X2405342Y2938914D01*
X2405458Y2938867D01*
X2405572Y2938817D01*
X2405685Y2938764D01*
X2405796Y2938706D01*
X2405906Y2938646D01*
X2406013Y2938581D01*
X2406118Y2938514D01*
X2406221Y2938443D01*
X2406321Y2938369D01*
X2406419Y2938292D01*
X2406515Y2938211D01*
X2406608Y2938128D01*
X2406699Y2938042D01*
X2406786Y2937953D01*
X2406871Y2937861D01*
X2406953Y2937767D01*
X2407032Y2937670D01*
X2407107Y2937570D01*
X2407180Y2937469D01*
X2407249Y2937365D01*
X2407315Y2937258D01*
X2407377Y2937150D01*
X2407436Y2937040D01*
X2407492Y2936928D01*
X2407544Y2936814D01*
X2407592Y2936699D01*
X2407637Y2936583D01*
X2407677Y2936464D01*
X2407715Y2936345D01*
X2407748Y2936225D01*
X2407777Y2936103D01*
X2407803Y2935981D01*
X2407825Y2935858D01*
X2407842Y2935734D01*
X2407856Y2935610D01*
X2407866Y2935486D01*
X2407872Y2935361D01*
X2407874Y2935236D01*
X2407872Y2935111D01*
X2407866Y2934986D01*
X2407856Y2934862D01*
X2407842Y2934738D01*
X2407825Y2934614D01*
X2407803Y2934491D01*
X2407777Y2934369D01*
X2407748Y2934247D01*
X2407715Y2934127D01*
X2407677Y2934008D01*
X2407637Y2933889D01*
X2407592Y2933773D01*
X2407544Y2933658D01*
X2407492Y2933544D01*
X2407436Y2933432D01*
X2407377Y2933322D01*
X2407315Y2933214D01*
X2407249Y2933107D01*
X2407180Y2933003D01*
X2407107Y2932902D01*
X2407032Y2932802D01*
X2406953Y2932705D01*
X2406871Y2932611D01*
X2406786Y2932519D01*
X2406699Y2932430D01*
X2406608Y2932344D01*
X2406515Y2932261D01*
X2406419Y2932180D01*
X2406321Y2932103D01*
X2406221Y2932029D01*
X2406118Y2931958D01*
X2406013Y2931891D01*
X2405905Y2931826D01*
X2405796Y2931766D01*
X2405685Y2931708D01*
X2405572Y2931655D01*
X2405458Y2931605D01*
X2405342Y2931558D01*
X2405225Y2931516D01*
X2405106Y2931477D01*
X2404986Y2931441D01*
X2404865Y2931410D01*
X2404743Y2931382D01*
X2404621Y2931359D01*
X2404497Y2931339D01*
X2404373Y2931323D01*
X2404249Y2931311D01*
X2404124Y2931303D01*
X2403999Y2931299D01*
X2403875Y2931299D01*
X2403750Y2931303D01*
X2403625Y2931311D01*
X2403501Y2931323D01*
X2403377Y2931339D01*
X2403253Y2931359D01*
X2403131Y2931382D01*
X2403009Y2931410D01*
X2402888Y2931441D01*
X2402768Y2931477D01*
X2402649Y2931516D01*
X2402532Y2931558D01*
X2402416Y2931605D01*
X2402302Y2931655D01*
X2402189Y2931708D01*
X2402078Y2931766D01*
X2401968Y2931826D01*
X2401861Y2931891D01*
X2401756Y2931958D01*
X2401653Y2932029D01*
X2401553Y2932103D01*
X2401455Y2932180D01*
X2401359Y2932261D01*
X2401266Y2932344D01*
X2401175Y2932430D01*
X2401088Y2932519D01*
X2401003Y2932611D01*
X2400921Y2932705D01*
X2400842Y2932802D01*
X2400767Y2932902D01*
X2400694Y2933003D01*
X2400625Y2933107D01*
X2400559Y2933214D01*
X2400497Y2933322D01*
X2400438Y2933432D01*
X2400382Y2933544D01*
X2400330Y2933658D01*
X2400282Y2933773D01*
X2400237Y2933889D01*
X2400197Y2934008D01*
X2400159Y2934127D01*
X2400126Y2934247D01*
X2400097Y2934369D01*
X2400071Y2934491D01*
X2400049Y2934614D01*
X2400032Y2934738D01*
X2400018Y2934862D01*
X2400008Y2934986D01*
X2400002Y2935111D01*
X2400000Y2935236D01*
D12*
X2600580Y2842488D02*
X2600580Y2796488D01*
X2600580Y2842488D02*
X2587803Y2842488D01*
X2587492Y2842484D01*
X2587181Y2842473D01*
X2586870Y2842454D01*
X2586560Y2842427D01*
X2586251Y2842393D01*
X2585943Y2842352D01*
X2585635Y2842303D01*
X2585329Y2842246D01*
X2585025Y2842182D01*
X2584722Y2842111D01*
X2584421Y2842032D01*
X2584122Y2841946D01*
X2583825Y2841853D01*
X2583530Y2841752D01*
X2583238Y2841645D01*
X2582949Y2841530D01*
X2582663Y2841408D01*
X2582379Y2841280D01*
X2582099Y2841144D01*
X2581822Y2841002D01*
X2581549Y2840853D01*
X2581280Y2840697D01*
X2581014Y2840535D01*
X2580753Y2840367D01*
X2580495Y2840192D01*
X2580242Y2840011D01*
X2579993Y2839824D01*
X2579749Y2839631D01*
X2579510Y2839432D01*
X2579276Y2839227D01*
X2579047Y2839016D01*
X2578823Y2838800D01*
X2578604Y2838579D01*
X2578391Y2838352D01*
X2578183Y2838120D01*
X2577981Y2837884D01*
X2577785Y2837642D01*
X2577595Y2837396D01*
X2577411Y2837145D01*
X2577233Y2836890D01*
X2577061Y2836630D01*
X2576896Y2836367D01*
X2576737Y2836099D01*
X2576585Y2835828D01*
X2576439Y2835553D01*
X2576300Y2835274D01*
X2576168Y2834992D01*
X2576043Y2834708D01*
X2575925Y2834420D01*
X2575813Y2834129D01*
X2575709Y2833836D01*
X2575613Y2833540D01*
X2575523Y2833242D01*
X2575440Y2832942D01*
X2575365Y2832640D01*
X2575298Y2832336D01*
X2575238Y2832031D01*
X2575185Y2831724D01*
X2575139Y2831416D01*
X2575102Y2831108D01*
X2575071Y2830798D01*
X2575049Y2830487D01*
X2575034Y2830177D01*
X2575026Y2829866D01*
X2575026Y2829554D01*
X2575034Y2829243D01*
X2575049Y2828933D01*
X2575071Y2828622D01*
X2575102Y2828312D01*
X2575139Y2828004D01*
X2575185Y2827696D01*
X2575238Y2827389D01*
X2575298Y2827084D01*
X2575365Y2826780D01*
X2575440Y2826478D01*
X2575523Y2826178D01*
X2575613Y2825880D01*
X2575709Y2825584D01*
X2575813Y2825291D01*
X2575925Y2825000D01*
X2576043Y2824712D01*
X2576168Y2824428D01*
X2576300Y2824146D01*
X2576439Y2823867D01*
X2576585Y2823592D01*
X2576737Y2823321D01*
X2576896Y2823053D01*
X2577061Y2822790D01*
X2577233Y2822530D01*
X2577411Y2822275D01*
X2577595Y2822024D01*
X2577785Y2821778D01*
X2577981Y2821536D01*
X2578183Y2821300D01*
X2578391Y2821068D01*
X2578604Y2820841D01*
X2578823Y2820620D01*
X2579047Y2820404D01*
X2579276Y2820193D01*
X2579510Y2819988D01*
X2579749Y2819789D01*
X2579993Y2819596D01*
X2580242Y2819409D01*
X2580495Y2819228D01*
X2580753Y2819053D01*
X2581014Y2818885D01*
X2581280Y2818723D01*
X2581549Y2818567D01*
X2581822Y2818418D01*
X2582099Y2818276D01*
X2582379Y2818140D01*
X2582663Y2818012D01*
X2582949Y2817890D01*
X2583238Y2817775D01*
X2583530Y2817668D01*
X2583825Y2817567D01*
X2584122Y2817474D01*
X2584421Y2817388D01*
X2584722Y2817309D01*
X2585025Y2817238D01*
X2585329Y2817174D01*
X2585635Y2817117D01*
X2585943Y2817068D01*
X2586251Y2817027D01*
X2586560Y2816993D01*
X2586870Y2816966D01*
X2587181Y2816947D01*
X2587492Y2816936D01*
X2587803Y2816932D01*
X2587803Y2816933D02*
X2600580Y2816933D01*
X2585247Y2816933D02*
X2575025Y2796488D01*
X2554370Y2796488D02*
X2554370Y2842488D01*
X2528815Y2796488D01*
X2528815Y2842488D01*
X2507870Y2796488D02*
X2495093Y2796488D01*
X2494782Y2796492D01*
X2494471Y2796503D01*
X2494160Y2796522D01*
X2493850Y2796549D01*
X2493541Y2796583D01*
X2493233Y2796624D01*
X2492925Y2796673D01*
X2492619Y2796730D01*
X2492315Y2796794D01*
X2492012Y2796865D01*
X2491711Y2796944D01*
X2491412Y2797030D01*
X2491115Y2797123D01*
X2490820Y2797224D01*
X2490528Y2797331D01*
X2490239Y2797446D01*
X2489953Y2797568D01*
X2489669Y2797696D01*
X2489389Y2797832D01*
X2489112Y2797974D01*
X2488839Y2798123D01*
X2488570Y2798279D01*
X2488304Y2798441D01*
X2488043Y2798609D01*
X2487785Y2798784D01*
X2487532Y2798965D01*
X2487283Y2799152D01*
X2487039Y2799345D01*
X2486800Y2799544D01*
X2486566Y2799749D01*
X2486337Y2799960D01*
X2486113Y2800176D01*
X2485894Y2800397D01*
X2485681Y2800624D01*
X2485473Y2800856D01*
X2485271Y2801092D01*
X2485075Y2801334D01*
X2484885Y2801580D01*
X2484701Y2801831D01*
X2484523Y2802086D01*
X2484351Y2802346D01*
X2484186Y2802609D01*
X2484027Y2802877D01*
X2483875Y2803148D01*
X2483729Y2803423D01*
X2483590Y2803702D01*
X2483458Y2803984D01*
X2483333Y2804268D01*
X2483215Y2804556D01*
X2483103Y2804847D01*
X2482999Y2805140D01*
X2482903Y2805436D01*
X2482813Y2805734D01*
X2482730Y2806034D01*
X2482655Y2806336D01*
X2482588Y2806640D01*
X2482528Y2806945D01*
X2482475Y2807252D01*
X2482429Y2807560D01*
X2482392Y2807868D01*
X2482361Y2808178D01*
X2482339Y2808489D01*
X2482324Y2808799D01*
X2482316Y2809110D01*
X2482316Y2809422D01*
X2482324Y2809733D01*
X2482339Y2810043D01*
X2482361Y2810354D01*
X2482392Y2810664D01*
X2482429Y2810972D01*
X2482475Y2811280D01*
X2482528Y2811587D01*
X2482588Y2811892D01*
X2482655Y2812196D01*
X2482730Y2812498D01*
X2482813Y2812798D01*
X2482903Y2813096D01*
X2482999Y2813392D01*
X2483103Y2813685D01*
X2483215Y2813976D01*
X2483333Y2814264D01*
X2483458Y2814548D01*
X2483590Y2814830D01*
X2483729Y2815109D01*
X2483875Y2815384D01*
X2484027Y2815655D01*
X2484186Y2815923D01*
X2484351Y2816186D01*
X2484523Y2816446D01*
X2484701Y2816701D01*
X2484885Y2816952D01*
X2485075Y2817198D01*
X2485271Y2817440D01*
X2485473Y2817676D01*
X2485681Y2817908D01*
X2485894Y2818135D01*
X2486113Y2818356D01*
X2486337Y2818572D01*
X2486566Y2818783D01*
X2486800Y2818988D01*
X2487039Y2819187D01*
X2487283Y2819380D01*
X2487532Y2819567D01*
X2487785Y2819748D01*
X2488043Y2819923D01*
X2488304Y2820091D01*
X2488570Y2820253D01*
X2488839Y2820409D01*
X2489112Y2820558D01*
X2489389Y2820700D01*
X2489669Y2820836D01*
X2489953Y2820964D01*
X2490239Y2821086D01*
X2490528Y2821201D01*
X2490820Y2821308D01*
X2491115Y2821409D01*
X2491412Y2821502D01*
X2491711Y2821588D01*
X2492012Y2821667D01*
X2492315Y2821738D01*
X2492619Y2821802D01*
X2492925Y2821859D01*
X2493233Y2821908D01*
X2493541Y2821949D01*
X2493850Y2821983D01*
X2494160Y2822010D01*
X2494471Y2822029D01*
X2494782Y2822040D01*
X2495093Y2822044D01*
X2492537Y2842488D02*
X2507870Y2842488D01*
X2492537Y2842488D02*
X2492288Y2842485D01*
X2492039Y2842476D01*
X2491791Y2842461D01*
X2491543Y2842440D01*
X2491295Y2842412D01*
X2491049Y2842379D01*
X2490803Y2842340D01*
X2490558Y2842295D01*
X2490314Y2842243D01*
X2490072Y2842186D01*
X2489831Y2842123D01*
X2489592Y2842055D01*
X2489355Y2841980D01*
X2489119Y2841900D01*
X2488885Y2841814D01*
X2488654Y2841722D01*
X2488425Y2841624D01*
X2488198Y2841521D01*
X2487974Y2841413D01*
X2487753Y2841299D01*
X2487534Y2841180D01*
X2487319Y2841056D01*
X2487106Y2840926D01*
X2486897Y2840791D01*
X2486691Y2840651D01*
X2486488Y2840506D01*
X2486290Y2840357D01*
X2486094Y2840202D01*
X2485903Y2840043D01*
X2485716Y2839879D01*
X2485532Y2839711D01*
X2485353Y2839538D01*
X2485178Y2839361D01*
X2485008Y2839180D01*
X2484841Y2838994D01*
X2484680Y2838805D01*
X2484523Y2838611D01*
X2484371Y2838414D01*
X2484224Y2838214D01*
X2484081Y2838010D01*
X2483944Y2837802D01*
X2483812Y2837591D01*
X2483684Y2837377D01*
X2483563Y2837160D01*
X2483446Y2836940D01*
X2483335Y2836717D01*
X2483229Y2836492D01*
X2483129Y2836264D01*
X2483035Y2836034D01*
X2482946Y2835801D01*
X2482862Y2835566D01*
X2482785Y2835330D01*
X2482713Y2835092D01*
X2482647Y2834851D01*
X2482587Y2834610D01*
X2482533Y2834367D01*
X2482485Y2834123D01*
X2482443Y2833877D01*
X2482407Y2833631D01*
X2482376Y2833384D01*
X2482352Y2833136D01*
X2482334Y2832888D01*
X2482322Y2832639D01*
X2482316Y2832390D01*
X2482316Y2832142D01*
X2482322Y2831893D01*
X2482334Y2831644D01*
X2482352Y2831396D01*
X2482376Y2831148D01*
X2482407Y2830901D01*
X2482443Y2830655D01*
X2482485Y2830409D01*
X2482533Y2830165D01*
X2482587Y2829922D01*
X2482647Y2829681D01*
X2482713Y2829440D01*
X2482785Y2829202D01*
X2482862Y2828966D01*
X2482946Y2828731D01*
X2483035Y2828498D01*
X2483129Y2828268D01*
X2483229Y2828040D01*
X2483335Y2827815D01*
X2483446Y2827592D01*
X2483563Y2827372D01*
X2483684Y2827155D01*
X2483812Y2826941D01*
X2483944Y2826730D01*
X2484081Y2826522D01*
X2484224Y2826318D01*
X2484371Y2826118D01*
X2484523Y2825921D01*
X2484680Y2825727D01*
X2484841Y2825538D01*
X2485008Y2825352D01*
X2485178Y2825171D01*
X2485353Y2824994D01*
X2485532Y2824821D01*
X2485716Y2824653D01*
X2485903Y2824489D01*
X2486094Y2824330D01*
X2486290Y2824175D01*
X2486488Y2824026D01*
X2486691Y2823881D01*
X2486897Y2823741D01*
X2487106Y2823606D01*
X2487319Y2823476D01*
X2487534Y2823352D01*
X2487753Y2823233D01*
X2487974Y2823119D01*
X2488198Y2823011D01*
X2488425Y2822908D01*
X2488654Y2822810D01*
X2488885Y2822718D01*
X2489119Y2822632D01*
X2489355Y2822552D01*
X2489592Y2822477D01*
X2489831Y2822409D01*
X2490072Y2822346D01*
X2490314Y2822289D01*
X2490558Y2822237D01*
X2490803Y2822192D01*
X2491049Y2822153D01*
X2491295Y2822120D01*
X2491543Y2822092D01*
X2491791Y2822071D01*
X2492039Y2822056D01*
X2492288Y2822047D01*
X2492537Y2822044D01*
X2502759Y2822044D01*
D13*
X3509449Y2887795D02*
X3734646Y2887795D01*
X3509449Y2887795D02*
X3509449Y2910886D01*
X3734646Y2910886D02*
X3734646Y2887795D01*
X3734646Y3332677D02*
X3509449Y3332677D01*
X3734646Y3332677D02*
X3734646Y3309587D01*
X3509449Y3309587D02*
X3509449Y3332677D01*
D11*
X3423622Y2935236D02*
X3423624Y2935361D01*
X3423630Y2935486D01*
X3423640Y2935610D01*
X3423654Y2935734D01*
X3423671Y2935858D01*
X3423693Y2935981D01*
X3423719Y2936103D01*
X3423748Y2936225D01*
X3423781Y2936345D01*
X3423819Y2936464D01*
X3423859Y2936583D01*
X3423904Y2936699D01*
X3423952Y2936814D01*
X3424004Y2936928D01*
X3424060Y2937040D01*
X3424119Y2937150D01*
X3424181Y2937258D01*
X3424247Y2937365D01*
X3424316Y2937469D01*
X3424389Y2937570D01*
X3424464Y2937670D01*
X3424543Y2937767D01*
X3424625Y2937861D01*
X3424710Y2937953D01*
X3424797Y2938042D01*
X3424888Y2938128D01*
X3424981Y2938211D01*
X3425077Y2938292D01*
X3425175Y2938369D01*
X3425275Y2938443D01*
X3425378Y2938514D01*
X3425483Y2938581D01*
X3425591Y2938646D01*
X3425700Y2938706D01*
X3425811Y2938764D01*
X3425924Y2938817D01*
X3426038Y2938867D01*
X3426154Y2938914D01*
X3426271Y2938956D01*
X3426390Y2938995D01*
X3426510Y2939031D01*
X3426631Y2939062D01*
X3426753Y2939090D01*
X3426875Y2939113D01*
X3426999Y2939133D01*
X3427123Y2939149D01*
X3427247Y2939161D01*
X3427372Y2939169D01*
X3427497Y2939173D01*
X3427621Y2939173D01*
X3427746Y2939169D01*
X3427871Y2939161D01*
X3427995Y2939149D01*
X3428119Y2939133D01*
X3428243Y2939113D01*
X3428365Y2939090D01*
X3428487Y2939062D01*
X3428608Y2939031D01*
X3428728Y2938995D01*
X3428847Y2938956D01*
X3428964Y2938914D01*
X3429080Y2938867D01*
X3429194Y2938817D01*
X3429307Y2938764D01*
X3429418Y2938706D01*
X3429528Y2938646D01*
X3429635Y2938581D01*
X3429740Y2938514D01*
X3429843Y2938443D01*
X3429943Y2938369D01*
X3430041Y2938292D01*
X3430137Y2938211D01*
X3430230Y2938128D01*
X3430321Y2938042D01*
X3430408Y2937953D01*
X3430493Y2937861D01*
X3430575Y2937767D01*
X3430654Y2937670D01*
X3430729Y2937570D01*
X3430802Y2937469D01*
X3430871Y2937365D01*
X3430937Y2937258D01*
X3430999Y2937150D01*
X3431058Y2937040D01*
X3431114Y2936928D01*
X3431166Y2936814D01*
X3431214Y2936699D01*
X3431259Y2936583D01*
X3431299Y2936464D01*
X3431337Y2936345D01*
X3431370Y2936225D01*
X3431399Y2936103D01*
X3431425Y2935981D01*
X3431447Y2935858D01*
X3431464Y2935734D01*
X3431478Y2935610D01*
X3431488Y2935486D01*
X3431494Y2935361D01*
X3431496Y2935236D01*
X3431494Y2935111D01*
X3431488Y2934986D01*
X3431478Y2934862D01*
X3431464Y2934738D01*
X3431447Y2934614D01*
X3431425Y2934491D01*
X3431399Y2934369D01*
X3431370Y2934247D01*
X3431337Y2934127D01*
X3431299Y2934008D01*
X3431259Y2933889D01*
X3431214Y2933773D01*
X3431166Y2933658D01*
X3431114Y2933544D01*
X3431058Y2933432D01*
X3430999Y2933322D01*
X3430937Y2933214D01*
X3430871Y2933107D01*
X3430802Y2933003D01*
X3430729Y2932902D01*
X3430654Y2932802D01*
X3430575Y2932705D01*
X3430493Y2932611D01*
X3430408Y2932519D01*
X3430321Y2932430D01*
X3430230Y2932344D01*
X3430137Y2932261D01*
X3430041Y2932180D01*
X3429943Y2932103D01*
X3429843Y2932029D01*
X3429740Y2931958D01*
X3429635Y2931891D01*
X3429527Y2931826D01*
X3429418Y2931766D01*
X3429307Y2931708D01*
X3429194Y2931655D01*
X3429080Y2931605D01*
X3428964Y2931558D01*
X3428847Y2931516D01*
X3428728Y2931477D01*
X3428608Y2931441D01*
X3428487Y2931410D01*
X3428365Y2931382D01*
X3428243Y2931359D01*
X3428119Y2931339D01*
X3427995Y2931323D01*
X3427871Y2931311D01*
X3427746Y2931303D01*
X3427621Y2931299D01*
X3427497Y2931299D01*
X3427372Y2931303D01*
X3427247Y2931311D01*
X3427123Y2931323D01*
X3426999Y2931339D01*
X3426875Y2931359D01*
X3426753Y2931382D01*
X3426631Y2931410D01*
X3426510Y2931441D01*
X3426390Y2931477D01*
X3426271Y2931516D01*
X3426154Y2931558D01*
X3426038Y2931605D01*
X3425924Y2931655D01*
X3425811Y2931708D01*
X3425700Y2931766D01*
X3425590Y2931826D01*
X3425483Y2931891D01*
X3425378Y2931958D01*
X3425275Y2932029D01*
X3425175Y2932103D01*
X3425077Y2932180D01*
X3424981Y2932261D01*
X3424888Y2932344D01*
X3424797Y2932430D01*
X3424710Y2932519D01*
X3424625Y2932611D01*
X3424543Y2932705D01*
X3424464Y2932802D01*
X3424389Y2932902D01*
X3424316Y2933003D01*
X3424247Y2933107D01*
X3424181Y2933214D01*
X3424119Y2933322D01*
X3424060Y2933432D01*
X3424004Y2933544D01*
X3423952Y2933658D01*
X3423904Y2933773D01*
X3423859Y2933889D01*
X3423819Y2934008D01*
X3423781Y2934127D01*
X3423748Y2934247D01*
X3423719Y2934369D01*
X3423693Y2934491D01*
X3423671Y2934614D01*
X3423654Y2934738D01*
X3423640Y2934862D01*
X3423630Y2934986D01*
X3423624Y2935111D01*
X3423622Y2935236D01*
D12*
X3624202Y2842488D02*
X3624202Y2796488D01*
X3624202Y2842488D02*
X3611425Y2842488D01*
X3611114Y2842484D01*
X3610803Y2842473D01*
X3610492Y2842454D01*
X3610182Y2842427D01*
X3609873Y2842393D01*
X3609565Y2842352D01*
X3609257Y2842303D01*
X3608951Y2842246D01*
X3608647Y2842182D01*
X3608344Y2842111D01*
X3608043Y2842032D01*
X3607744Y2841946D01*
X3607447Y2841853D01*
X3607152Y2841752D01*
X3606860Y2841645D01*
X3606571Y2841530D01*
X3606285Y2841408D01*
X3606001Y2841280D01*
X3605721Y2841144D01*
X3605444Y2841002D01*
X3605171Y2840853D01*
X3604902Y2840697D01*
X3604636Y2840535D01*
X3604375Y2840367D01*
X3604117Y2840192D01*
X3603864Y2840011D01*
X3603615Y2839824D01*
X3603371Y2839631D01*
X3603132Y2839432D01*
X3602898Y2839227D01*
X3602669Y2839016D01*
X3602445Y2838800D01*
X3602226Y2838579D01*
X3602013Y2838352D01*
X3601805Y2838120D01*
X3601603Y2837884D01*
X3601407Y2837642D01*
X3601217Y2837396D01*
X3601033Y2837145D01*
X3600855Y2836890D01*
X3600683Y2836630D01*
X3600518Y2836367D01*
X3600359Y2836099D01*
X3600207Y2835828D01*
X3600061Y2835553D01*
X3599922Y2835274D01*
X3599790Y2834992D01*
X3599665Y2834708D01*
X3599547Y2834420D01*
X3599435Y2834129D01*
X3599331Y2833836D01*
X3599235Y2833540D01*
X3599145Y2833242D01*
X3599062Y2832942D01*
X3598987Y2832640D01*
X3598920Y2832336D01*
X3598860Y2832031D01*
X3598807Y2831724D01*
X3598761Y2831416D01*
X3598724Y2831108D01*
X3598693Y2830798D01*
X3598671Y2830487D01*
X3598656Y2830177D01*
X3598648Y2829866D01*
X3598648Y2829554D01*
X3598656Y2829243D01*
X3598671Y2828933D01*
X3598693Y2828622D01*
X3598724Y2828312D01*
X3598761Y2828004D01*
X3598807Y2827696D01*
X3598860Y2827389D01*
X3598920Y2827084D01*
X3598987Y2826780D01*
X3599062Y2826478D01*
X3599145Y2826178D01*
X3599235Y2825880D01*
X3599331Y2825584D01*
X3599435Y2825291D01*
X3599547Y2825000D01*
X3599665Y2824712D01*
X3599790Y2824428D01*
X3599922Y2824146D01*
X3600061Y2823867D01*
X3600207Y2823592D01*
X3600359Y2823321D01*
X3600518Y2823053D01*
X3600683Y2822790D01*
X3600855Y2822530D01*
X3601033Y2822275D01*
X3601217Y2822024D01*
X3601407Y2821778D01*
X3601603Y2821536D01*
X3601805Y2821300D01*
X3602013Y2821068D01*
X3602226Y2820841D01*
X3602445Y2820620D01*
X3602669Y2820404D01*
X3602898Y2820193D01*
X3603132Y2819988D01*
X3603371Y2819789D01*
X3603615Y2819596D01*
X3603864Y2819409D01*
X3604117Y2819228D01*
X3604375Y2819053D01*
X3604636Y2818885D01*
X3604902Y2818723D01*
X3605171Y2818567D01*
X3605444Y2818418D01*
X3605721Y2818276D01*
X3606001Y2818140D01*
X3606285Y2818012D01*
X3606571Y2817890D01*
X3606860Y2817775D01*
X3607152Y2817668D01*
X3607447Y2817567D01*
X3607744Y2817474D01*
X3608043Y2817388D01*
X3608344Y2817309D01*
X3608647Y2817238D01*
X3608951Y2817174D01*
X3609257Y2817117D01*
X3609565Y2817068D01*
X3609873Y2817027D01*
X3610182Y2816993D01*
X3610492Y2816966D01*
X3610803Y2816947D01*
X3611114Y2816936D01*
X3611425Y2816932D01*
X3611425Y2816933D02*
X3624202Y2816933D01*
X3608869Y2816933D02*
X3598647Y2796488D01*
X3577992Y2796488D02*
X3577992Y2842488D01*
X3552437Y2796488D01*
X3552437Y2842488D01*
X3521270Y2842488D02*
X3531492Y2806710D01*
X3505937Y2806710D01*
X3513604Y2796488D02*
X3513604Y2816933D01*
D13*
X4611811Y2887795D02*
X4837008Y2887795D01*
X4611811Y2887795D02*
X4611811Y2910886D01*
X4837008Y2910886D02*
X4837008Y2887795D01*
X4837008Y3332677D02*
X4611811Y3332677D01*
X4837008Y3332677D02*
X4837008Y3309587D01*
X4611811Y3309587D02*
X4611811Y3332677D01*
D11*
X4525984Y2935236D02*
X4525986Y2935361D01*
X4525992Y2935486D01*
X4526002Y2935610D01*
X4526016Y2935734D01*
X4526033Y2935858D01*
X4526055Y2935981D01*
X4526081Y2936103D01*
X4526110Y2936225D01*
X4526143Y2936345D01*
X4526181Y2936464D01*
X4526221Y2936583D01*
X4526266Y2936699D01*
X4526314Y2936814D01*
X4526366Y2936928D01*
X4526422Y2937040D01*
X4526481Y2937150D01*
X4526543Y2937258D01*
X4526609Y2937365D01*
X4526678Y2937469D01*
X4526751Y2937570D01*
X4526826Y2937670D01*
X4526905Y2937767D01*
X4526987Y2937861D01*
X4527072Y2937953D01*
X4527159Y2938042D01*
X4527250Y2938128D01*
X4527343Y2938211D01*
X4527439Y2938292D01*
X4527537Y2938369D01*
X4527637Y2938443D01*
X4527740Y2938514D01*
X4527845Y2938581D01*
X4527953Y2938646D01*
X4528062Y2938706D01*
X4528173Y2938764D01*
X4528286Y2938817D01*
X4528400Y2938867D01*
X4528516Y2938914D01*
X4528633Y2938956D01*
X4528752Y2938995D01*
X4528872Y2939031D01*
X4528993Y2939062D01*
X4529115Y2939090D01*
X4529237Y2939113D01*
X4529361Y2939133D01*
X4529485Y2939149D01*
X4529609Y2939161D01*
X4529734Y2939169D01*
X4529859Y2939173D01*
X4529983Y2939173D01*
X4530108Y2939169D01*
X4530233Y2939161D01*
X4530357Y2939149D01*
X4530481Y2939133D01*
X4530605Y2939113D01*
X4530727Y2939090D01*
X4530849Y2939062D01*
X4530970Y2939031D01*
X4531090Y2938995D01*
X4531209Y2938956D01*
X4531326Y2938914D01*
X4531442Y2938867D01*
X4531556Y2938817D01*
X4531669Y2938764D01*
X4531780Y2938706D01*
X4531890Y2938646D01*
X4531997Y2938581D01*
X4532102Y2938514D01*
X4532205Y2938443D01*
X4532305Y2938369D01*
X4532403Y2938292D01*
X4532499Y2938211D01*
X4532592Y2938128D01*
X4532683Y2938042D01*
X4532770Y2937953D01*
X4532855Y2937861D01*
X4532937Y2937767D01*
X4533016Y2937670D01*
X4533091Y2937570D01*
X4533164Y2937469D01*
X4533233Y2937365D01*
X4533299Y2937258D01*
X4533361Y2937150D01*
X4533420Y2937040D01*
X4533476Y2936928D01*
X4533528Y2936814D01*
X4533576Y2936699D01*
X4533621Y2936583D01*
X4533661Y2936464D01*
X4533699Y2936345D01*
X4533732Y2936225D01*
X4533761Y2936103D01*
X4533787Y2935981D01*
X4533809Y2935858D01*
X4533826Y2935734D01*
X4533840Y2935610D01*
X4533850Y2935486D01*
X4533856Y2935361D01*
X4533858Y2935236D01*
X4533856Y2935111D01*
X4533850Y2934986D01*
X4533840Y2934862D01*
X4533826Y2934738D01*
X4533809Y2934614D01*
X4533787Y2934491D01*
X4533761Y2934369D01*
X4533732Y2934247D01*
X4533699Y2934127D01*
X4533661Y2934008D01*
X4533621Y2933889D01*
X4533576Y2933773D01*
X4533528Y2933658D01*
X4533476Y2933544D01*
X4533420Y2933432D01*
X4533361Y2933322D01*
X4533299Y2933214D01*
X4533233Y2933107D01*
X4533164Y2933003D01*
X4533091Y2932902D01*
X4533016Y2932802D01*
X4532937Y2932705D01*
X4532855Y2932611D01*
X4532770Y2932519D01*
X4532683Y2932430D01*
X4532592Y2932344D01*
X4532499Y2932261D01*
X4532403Y2932180D01*
X4532305Y2932103D01*
X4532205Y2932029D01*
X4532102Y2931958D01*
X4531997Y2931891D01*
X4531889Y2931826D01*
X4531780Y2931766D01*
X4531669Y2931708D01*
X4531556Y2931655D01*
X4531442Y2931605D01*
X4531326Y2931558D01*
X4531209Y2931516D01*
X4531090Y2931477D01*
X4530970Y2931441D01*
X4530849Y2931410D01*
X4530727Y2931382D01*
X4530605Y2931359D01*
X4530481Y2931339D01*
X4530357Y2931323D01*
X4530233Y2931311D01*
X4530108Y2931303D01*
X4529983Y2931299D01*
X4529859Y2931299D01*
X4529734Y2931303D01*
X4529609Y2931311D01*
X4529485Y2931323D01*
X4529361Y2931339D01*
X4529237Y2931359D01*
X4529115Y2931382D01*
X4528993Y2931410D01*
X4528872Y2931441D01*
X4528752Y2931477D01*
X4528633Y2931516D01*
X4528516Y2931558D01*
X4528400Y2931605D01*
X4528286Y2931655D01*
X4528173Y2931708D01*
X4528062Y2931766D01*
X4527952Y2931826D01*
X4527845Y2931891D01*
X4527740Y2931958D01*
X4527637Y2932029D01*
X4527537Y2932103D01*
X4527439Y2932180D01*
X4527343Y2932261D01*
X4527250Y2932344D01*
X4527159Y2932430D01*
X4527072Y2932519D01*
X4526987Y2932611D01*
X4526905Y2932705D01*
X4526826Y2932802D01*
X4526751Y2932902D01*
X4526678Y2933003D01*
X4526609Y2933107D01*
X4526543Y2933214D01*
X4526481Y2933322D01*
X4526422Y2933432D01*
X4526366Y2933544D01*
X4526314Y2933658D01*
X4526266Y2933773D01*
X4526221Y2933889D01*
X4526181Y2934008D01*
X4526143Y2934127D01*
X4526110Y2934247D01*
X4526081Y2934369D01*
X4526055Y2934491D01*
X4526033Y2934614D01*
X4526016Y2934738D01*
X4526002Y2934862D01*
X4525992Y2934986D01*
X4525986Y2935111D01*
X4525984Y2935236D01*
D12*
X4726565Y2842488D02*
X4726565Y2796488D01*
X4726565Y2842488D02*
X4713787Y2842488D01*
X4713476Y2842484D01*
X4713165Y2842473D01*
X4712854Y2842454D01*
X4712544Y2842427D01*
X4712235Y2842393D01*
X4711927Y2842352D01*
X4711619Y2842303D01*
X4711313Y2842246D01*
X4711009Y2842182D01*
X4710706Y2842111D01*
X4710405Y2842032D01*
X4710106Y2841946D01*
X4709809Y2841853D01*
X4709514Y2841752D01*
X4709222Y2841645D01*
X4708933Y2841530D01*
X4708647Y2841408D01*
X4708363Y2841280D01*
X4708083Y2841144D01*
X4707806Y2841002D01*
X4707533Y2840853D01*
X4707264Y2840697D01*
X4706998Y2840535D01*
X4706737Y2840367D01*
X4706479Y2840192D01*
X4706226Y2840011D01*
X4705977Y2839824D01*
X4705733Y2839631D01*
X4705494Y2839432D01*
X4705260Y2839227D01*
X4705031Y2839016D01*
X4704807Y2838800D01*
X4704588Y2838579D01*
X4704375Y2838352D01*
X4704167Y2838120D01*
X4703965Y2837884D01*
X4703769Y2837642D01*
X4703579Y2837396D01*
X4703395Y2837145D01*
X4703217Y2836890D01*
X4703045Y2836630D01*
X4702880Y2836367D01*
X4702721Y2836099D01*
X4702569Y2835828D01*
X4702423Y2835553D01*
X4702284Y2835274D01*
X4702152Y2834992D01*
X4702027Y2834708D01*
X4701909Y2834420D01*
X4701797Y2834129D01*
X4701693Y2833836D01*
X4701597Y2833540D01*
X4701507Y2833242D01*
X4701424Y2832942D01*
X4701349Y2832640D01*
X4701282Y2832336D01*
X4701222Y2832031D01*
X4701169Y2831724D01*
X4701123Y2831416D01*
X4701086Y2831108D01*
X4701055Y2830798D01*
X4701033Y2830487D01*
X4701018Y2830177D01*
X4701010Y2829866D01*
X4701010Y2829554D01*
X4701018Y2829243D01*
X4701033Y2828933D01*
X4701055Y2828622D01*
X4701086Y2828312D01*
X4701123Y2828004D01*
X4701169Y2827696D01*
X4701222Y2827389D01*
X4701282Y2827084D01*
X4701349Y2826780D01*
X4701424Y2826478D01*
X4701507Y2826178D01*
X4701597Y2825880D01*
X4701693Y2825584D01*
X4701797Y2825291D01*
X4701909Y2825000D01*
X4702027Y2824712D01*
X4702152Y2824428D01*
X4702284Y2824146D01*
X4702423Y2823867D01*
X4702569Y2823592D01*
X4702721Y2823321D01*
X4702880Y2823053D01*
X4703045Y2822790D01*
X4703217Y2822530D01*
X4703395Y2822275D01*
X4703579Y2822024D01*
X4703769Y2821778D01*
X4703965Y2821536D01*
X4704167Y2821300D01*
X4704375Y2821068D01*
X4704588Y2820841D01*
X4704807Y2820620D01*
X4705031Y2820404D01*
X4705260Y2820193D01*
X4705494Y2819988D01*
X4705733Y2819789D01*
X4705977Y2819596D01*
X4706226Y2819409D01*
X4706479Y2819228D01*
X4706737Y2819053D01*
X4706998Y2818885D01*
X4707264Y2818723D01*
X4707533Y2818567D01*
X4707806Y2818418D01*
X4708083Y2818276D01*
X4708363Y2818140D01*
X4708647Y2818012D01*
X4708933Y2817890D01*
X4709222Y2817775D01*
X4709514Y2817668D01*
X4709809Y2817567D01*
X4710106Y2817474D01*
X4710405Y2817388D01*
X4710706Y2817309D01*
X4711009Y2817238D01*
X4711313Y2817174D01*
X4711619Y2817117D01*
X4711927Y2817068D01*
X4712235Y2817027D01*
X4712544Y2816993D01*
X4712854Y2816966D01*
X4713165Y2816947D01*
X4713476Y2816936D01*
X4713787Y2816932D01*
X4713787Y2816933D02*
X4726565Y2816933D01*
X4711231Y2816933D02*
X4701009Y2796488D01*
X4680355Y2796488D02*
X4680355Y2842488D01*
X4654799Y2796488D01*
X4654799Y2842488D01*
X4633855Y2796488D02*
X4618521Y2796488D01*
X4618274Y2796491D01*
X4618027Y2796500D01*
X4617781Y2796515D01*
X4617534Y2796536D01*
X4617289Y2796563D01*
X4617044Y2796595D01*
X4616800Y2796634D01*
X4616557Y2796678D01*
X4616315Y2796729D01*
X4616075Y2796785D01*
X4615836Y2796847D01*
X4615598Y2796915D01*
X4615362Y2796988D01*
X4615128Y2797067D01*
X4614896Y2797152D01*
X4614666Y2797243D01*
X4614439Y2797339D01*
X4614213Y2797440D01*
X4613991Y2797547D01*
X4613771Y2797659D01*
X4613553Y2797776D01*
X4613339Y2797899D01*
X4613127Y2798027D01*
X4612919Y2798160D01*
X4612714Y2798297D01*
X4612513Y2798440D01*
X4612315Y2798588D01*
X4612120Y2798740D01*
X4611929Y2798897D01*
X4611743Y2799059D01*
X4611560Y2799225D01*
X4611381Y2799395D01*
X4611206Y2799570D01*
X4611036Y2799749D01*
X4610870Y2799932D01*
X4610708Y2800118D01*
X4610551Y2800309D01*
X4610399Y2800504D01*
X4610251Y2800702D01*
X4610108Y2800903D01*
X4609971Y2801108D01*
X4609838Y2801316D01*
X4609710Y2801528D01*
X4609587Y2801742D01*
X4609470Y2801960D01*
X4609358Y2802180D01*
X4609251Y2802402D01*
X4609150Y2802628D01*
X4609054Y2802855D01*
X4608963Y2803085D01*
X4608878Y2803317D01*
X4608799Y2803551D01*
X4608726Y2803787D01*
X4608658Y2804025D01*
X4608596Y2804264D01*
X4608540Y2804504D01*
X4608489Y2804746D01*
X4608445Y2804989D01*
X4608406Y2805233D01*
X4608374Y2805478D01*
X4608347Y2805723D01*
X4608326Y2805970D01*
X4608311Y2806216D01*
X4608302Y2806463D01*
X4608299Y2806710D01*
X4608299Y2811821D01*
X4608302Y2812068D01*
X4608311Y2812315D01*
X4608326Y2812561D01*
X4608347Y2812808D01*
X4608374Y2813053D01*
X4608406Y2813298D01*
X4608445Y2813542D01*
X4608489Y2813785D01*
X4608540Y2814027D01*
X4608596Y2814267D01*
X4608658Y2814506D01*
X4608726Y2814744D01*
X4608799Y2814980D01*
X4608878Y2815214D01*
X4608963Y2815446D01*
X4609054Y2815676D01*
X4609150Y2815903D01*
X4609251Y2816129D01*
X4609358Y2816351D01*
X4609470Y2816571D01*
X4609587Y2816789D01*
X4609710Y2817003D01*
X4609838Y2817215D01*
X4609971Y2817423D01*
X4610108Y2817628D01*
X4610251Y2817829D01*
X4610399Y2818027D01*
X4610551Y2818222D01*
X4610708Y2818413D01*
X4610870Y2818599D01*
X4611036Y2818782D01*
X4611206Y2818961D01*
X4611381Y2819136D01*
X4611560Y2819306D01*
X4611743Y2819472D01*
X4611929Y2819634D01*
X4612120Y2819791D01*
X4612315Y2819943D01*
X4612513Y2820091D01*
X4612714Y2820234D01*
X4612919Y2820371D01*
X4613127Y2820504D01*
X4613339Y2820632D01*
X4613553Y2820755D01*
X4613771Y2820872D01*
X4613991Y2820984D01*
X4614213Y2821091D01*
X4614439Y2821192D01*
X4614666Y2821288D01*
X4614896Y2821379D01*
X4615128Y2821464D01*
X4615362Y2821543D01*
X4615598Y2821616D01*
X4615836Y2821684D01*
X4616075Y2821746D01*
X4616315Y2821802D01*
X4616557Y2821853D01*
X4616800Y2821897D01*
X4617044Y2821936D01*
X4617289Y2821968D01*
X4617534Y2821995D01*
X4617781Y2822016D01*
X4618027Y2822031D01*
X4618274Y2822040D01*
X4618521Y2822043D01*
X4618521Y2822044D02*
X4633855Y2822044D01*
X4633855Y2842488D01*
X4608299Y2842488D01*
M02*
