G04 EAGLE Gerber RS-274X export*
G75*
%MOIN*%
%FSLAX36Y36*%
%LPD*%
%INTop Solder Paste*%
%IPPOS*%
%AMOC8*
5,1,8,0,0,1.08239X$1,22.5*%
G01*
%ADD10R,0.058071X0.017717*%
%ADD11R,0.071850X0.027559*%
%ADD12R,0.061024X0.025591*%
%ADD13R,0.036256X0.038197*%
%ADD14C,0.007283*%
%ADD15C,0.010630*%
%ADD16C,0.008750*%


D10*
X3663858Y3042323D03*
X3663858Y3016732D03*
X3663858Y2991142D03*
X3663858Y2965551D03*
X3663858Y2939961D03*
X3663858Y2914370D03*
X3663858Y2888780D03*
X3663858Y2863189D03*
X3895197Y2863189D03*
X3895197Y2888780D03*
X3895197Y2914370D03*
X3895197Y2939961D03*
X3895197Y2965551D03*
X3895197Y2991142D03*
X3895197Y3016732D03*
X3895197Y3042323D03*
D11*
X4466063Y3324606D03*
X4466063Y3274606D03*
X4466063Y3224606D03*
X4466063Y3174606D03*
X4466063Y3124606D03*
X4466063Y3074606D03*
X4466063Y3024606D03*
X4466063Y2974606D03*
X4746535Y2974606D03*
X4746535Y3024606D03*
X4746535Y3074606D03*
X4746535Y3124606D03*
X4746535Y3174606D03*
X4746535Y3224606D03*
X4746535Y3274606D03*
X4746535Y3324606D03*
D10*
X1144173Y3042323D03*
X1144173Y3016732D03*
X1144173Y2991142D03*
X1144173Y2965551D03*
X1144173Y2939961D03*
X1144173Y2914370D03*
X1144173Y2888780D03*
X1144173Y2863189D03*
X1375512Y2863189D03*
X1375512Y2888780D03*
X1375512Y2914370D03*
X1375512Y2939961D03*
X1375512Y2965551D03*
X1375512Y2991142D03*
X1375512Y3016732D03*
X1375512Y3042323D03*
X3663858Y3593504D03*
X3663858Y3567913D03*
X3663858Y3542323D03*
X3663858Y3516732D03*
X3663858Y3491142D03*
X3663858Y3465551D03*
X3663858Y3439961D03*
X3663858Y3414370D03*
X3895197Y3414370D03*
X3895197Y3439961D03*
X3895197Y3465551D03*
X3895197Y3491142D03*
X3895197Y3516732D03*
X3895197Y3542323D03*
X3895197Y3567913D03*
X3895197Y3593504D03*
X1144173Y3593504D03*
X1144173Y3567913D03*
X1144173Y3542323D03*
X1144173Y3516732D03*
X1144173Y3491142D03*
X1144173Y3465551D03*
X1144173Y3439961D03*
X1144173Y3414370D03*
X1375512Y3414370D03*
X1375512Y3439961D03*
X1375512Y3465551D03*
X1375512Y3491142D03*
X1375512Y3516732D03*
X1375512Y3542323D03*
X1375512Y3567913D03*
X1375512Y3593504D03*
D12*
X5404528Y2315354D03*
X5404528Y2265354D03*
X5404528Y2215354D03*
X5404528Y2165354D03*
X5404528Y2115354D03*
X5404528Y2065354D03*
X5404528Y2015354D03*
X5619094Y2015354D03*
X5619094Y2065354D03*
X5619094Y2115354D03*
X5619094Y2165354D03*
X5619094Y2215354D03*
X5619094Y2265354D03*
X5619094Y2315354D03*
D11*
X2103858Y3324606D03*
X2103858Y3274606D03*
X2103858Y3224606D03*
X2103858Y3174606D03*
X2103858Y3124606D03*
X2103858Y3074606D03*
X2103858Y3024606D03*
X2103858Y2974606D03*
X2384331Y2974606D03*
X2384331Y3024606D03*
X2384331Y3074606D03*
X2384331Y3124606D03*
X2384331Y3174606D03*
X2384331Y3224606D03*
X2384331Y3274606D03*
X2384331Y3324606D03*
D13*
X4022622Y3149606D03*
X3961630Y3149606D03*
X1502937Y3149606D03*
X1441945Y3149606D03*
X2510811Y3425197D03*
X2449819Y3425197D03*
X3219472Y3425197D03*
X3158480Y3425197D03*
X5481315Y2480315D03*
X5542307Y2480315D03*
X3131709Y2686220D03*
X3192701Y2686220D03*
X3718323Y2693307D03*
X3779315Y2693307D03*
X4930921Y2700394D03*
X4991913Y2700394D03*
X4873016Y3425197D03*
X4812024Y3425197D03*
X5621047Y3425197D03*
X5560055Y3425197D03*
X1502937Y3700787D03*
X1441945Y3700787D03*
D11*
X2812520Y3324606D03*
X2812520Y3274606D03*
X2812520Y3224606D03*
X2812520Y3174606D03*
X2812520Y3124606D03*
X2812520Y3074606D03*
X2812520Y3024606D03*
X2812520Y2974606D03*
X3092992Y2974606D03*
X3092992Y3024606D03*
X3092992Y3074606D03*
X3092992Y3124606D03*
X3092992Y3174606D03*
X3092992Y3224606D03*
X3092992Y3274606D03*
X3092992Y3324606D03*
D13*
X4022622Y3700787D03*
X3961630Y3700787D03*
D14*
X2296555Y3553838D02*
X2265649Y3553838D01*
X2265649Y3561122D01*
X2296555Y3561122D01*
X2296555Y3553838D01*
X2296555Y3560757D02*
X2265649Y3560757D01*
X2222540Y3553838D02*
X2191634Y3553838D01*
X2191634Y3561122D01*
X2222540Y3561122D01*
X2222540Y3553838D01*
X2222540Y3560757D02*
X2191634Y3560757D01*
X2265649Y3579035D02*
X2296555Y3579035D01*
X2265649Y3579035D02*
X2265649Y3586319D01*
X2296555Y3586319D01*
X2296555Y3579035D01*
X2296555Y3585954D02*
X2265649Y3585954D01*
X2265649Y3604232D02*
X2296555Y3604232D01*
X2265649Y3604232D02*
X2265649Y3611516D01*
X2296555Y3611516D01*
X2296555Y3604232D01*
X2296555Y3611151D02*
X2265649Y3611151D01*
X2222540Y3579035D02*
X2191634Y3579035D01*
X2191634Y3586319D01*
X2222540Y3586319D01*
X2222540Y3579035D01*
X2222540Y3585954D02*
X2191634Y3585954D01*
X2191634Y3604232D02*
X2222540Y3604232D01*
X2191634Y3604232D02*
X2191634Y3611516D01*
X2222540Y3611516D01*
X2222540Y3604232D01*
X2222540Y3611151D02*
X2191634Y3611151D01*
D15*
X2267323Y3631102D02*
X2294881Y3631102D01*
X2267323Y3631102D02*
X2267323Y3641732D01*
X2294881Y3641732D01*
X2294881Y3631102D01*
X2294881Y3641200D02*
X2267323Y3641200D01*
X2220866Y3631102D02*
X2193308Y3631102D01*
X2193308Y3641732D01*
X2220866Y3641732D01*
X2220866Y3631102D01*
X2220866Y3641200D02*
X2193308Y3641200D01*
X2193308Y3523622D02*
X2220866Y3523622D01*
X2193308Y3523622D02*
X2193308Y3534252D01*
X2220866Y3534252D01*
X2220866Y3523622D01*
X2220866Y3533720D02*
X2193308Y3533720D01*
X2267323Y3523622D02*
X2294881Y3523622D01*
X2267323Y3523622D02*
X2267323Y3534252D01*
X2294881Y3534252D01*
X2294881Y3523622D01*
X2294881Y3533720D02*
X2267323Y3533720D01*
D14*
X4627854Y3553838D02*
X4658760Y3553838D01*
X4627854Y3553838D02*
X4627854Y3561122D01*
X4658760Y3561122D01*
X4658760Y3553838D01*
X4658760Y3560757D02*
X4627854Y3560757D01*
X4584744Y3553838D02*
X4553838Y3553838D01*
X4553838Y3561122D01*
X4584744Y3561122D01*
X4584744Y3553838D01*
X4584744Y3560757D02*
X4553838Y3560757D01*
X4627854Y3579035D02*
X4658760Y3579035D01*
X4627854Y3579035D02*
X4627854Y3586319D01*
X4658760Y3586319D01*
X4658760Y3579035D01*
X4658760Y3585954D02*
X4627854Y3585954D01*
X4627854Y3604232D02*
X4658760Y3604232D01*
X4627854Y3604232D02*
X4627854Y3611516D01*
X4658760Y3611516D01*
X4658760Y3604232D01*
X4658760Y3611151D02*
X4627854Y3611151D01*
X4584744Y3579035D02*
X4553838Y3579035D01*
X4553838Y3586319D01*
X4584744Y3586319D01*
X4584744Y3579035D01*
X4584744Y3585954D02*
X4553838Y3585954D01*
X4553838Y3604232D02*
X4584744Y3604232D01*
X4553838Y3604232D02*
X4553838Y3611516D01*
X4584744Y3611516D01*
X4584744Y3604232D01*
X4584744Y3611151D02*
X4553838Y3611151D01*
D15*
X4629528Y3631102D02*
X4657086Y3631102D01*
X4629528Y3631102D02*
X4629528Y3641732D01*
X4657086Y3641732D01*
X4657086Y3631102D01*
X4657086Y3641200D02*
X4629528Y3641200D01*
X4583070Y3631102D02*
X4555512Y3631102D01*
X4555512Y3641732D01*
X4583070Y3641732D01*
X4583070Y3631102D01*
X4583070Y3641200D02*
X4555512Y3641200D01*
X4555512Y3523622D02*
X4583070Y3523622D01*
X4555512Y3523622D02*
X4555512Y3534252D01*
X4583070Y3534252D01*
X4583070Y3523622D01*
X4583070Y3533720D02*
X4555512Y3533720D01*
X4629528Y3523622D02*
X4657086Y3523622D01*
X4629528Y3523622D02*
X4629528Y3534252D01*
X4657086Y3534252D01*
X4657086Y3523622D01*
X4657086Y3533720D02*
X4629528Y3533720D01*
D11*
X5214094Y3324606D03*
X5214094Y3274606D03*
X5214094Y3224606D03*
X5214094Y3174606D03*
X5214094Y3124606D03*
X5214094Y3074606D03*
X5214094Y3024606D03*
X5214094Y2974606D03*
X5494567Y2974606D03*
X5494567Y3024606D03*
X5494567Y3074606D03*
X5494567Y3124606D03*
X5494567Y3174606D03*
X5494567Y3224606D03*
X5494567Y3274606D03*
X5494567Y3324606D03*
D13*
X2489189Y2559055D03*
X2550181Y2559055D03*
X4300213Y2559055D03*
X4361205Y2559055D03*
D16*
X6788529Y1902889D02*
X6814779Y1902889D01*
X6814779Y1876639D01*
X6788529Y1876639D01*
X6788529Y1902889D01*
X6788529Y1884951D02*
X6814779Y1884951D01*
X6814779Y1893263D02*
X6788529Y1893263D01*
X6788529Y1901575D02*
X6814779Y1901575D01*
X6754779Y1902889D02*
X6728529Y1902889D01*
X6754779Y1902889D02*
X6754779Y1876639D01*
X6728529Y1876639D01*
X6728529Y1902889D01*
X6728529Y1884951D02*
X6754779Y1884951D01*
X6754779Y1893263D02*
X6728529Y1893263D01*
X6728529Y1901575D02*
X6754779Y1901575D01*
X6788529Y2060369D02*
X6814779Y2060369D01*
X6814779Y2034119D01*
X6788529Y2034119D01*
X6788529Y2060369D01*
X6788529Y2042431D02*
X6814779Y2042431D01*
X6814779Y2050743D02*
X6788529Y2050743D01*
X6788529Y2059055D02*
X6814779Y2059055D01*
X6754779Y2060369D02*
X6728529Y2060369D01*
X6754779Y2060369D02*
X6754779Y2034119D01*
X6728529Y2034119D01*
X6728529Y2060369D01*
X6728529Y2042431D02*
X6754779Y2042431D01*
X6754779Y2050743D02*
X6728529Y2050743D01*
X6728529Y2059055D02*
X6754779Y2059055D01*
D10*
X4215039Y2254921D03*
X4215039Y2229331D03*
X4215039Y2203740D03*
X4215039Y2178150D03*
X4215039Y2152559D03*
X4215039Y2126969D03*
X4215039Y2101378D03*
X4215039Y2075787D03*
X4446378Y2075787D03*
X4446378Y2101378D03*
X4446378Y2126969D03*
X4446378Y2152559D03*
X4446378Y2178150D03*
X4446378Y2203740D03*
X4446378Y2229331D03*
X4446378Y2254921D03*
X2404016Y2254921D03*
X2404016Y2229331D03*
X2404016Y2203740D03*
X2404016Y2178150D03*
X2404016Y2152559D03*
X2404016Y2126969D03*
X2404016Y2101378D03*
X2404016Y2075787D03*
X2635354Y2075787D03*
X2635354Y2101378D03*
X2635354Y2126969D03*
X2635354Y2152559D03*
X2635354Y2178150D03*
X2635354Y2203740D03*
X2635354Y2229331D03*
X2635354Y2254921D03*
M02*
